<svg xmlns="http://www.w3.org/2000/svg" viewBox="0 0 128 128">
  <rect width="128" height="128" rx="8" fill="#6E1F1F"/>
  <g fill="#F4EFE6">
    <path transform="translate(13.01 86.73) scale(0.05859 -0.05859)" d="M34 712V698H126V14H34V0H234V14H142V698H144L391 0H407L653 698H655V14H564V0H892V14H800V698H892V712H642L466 214H464L291 712Z"/>
    <path transform="translate(72.69 86.73) scale(0.05859 -0.05859)" d="M657 508V712H641Q638 698 631.0 694.5Q624 691 610 691Q597 691 578.0 697.0Q559 703 535.5 709.5Q512 716 484.5 722.0Q457 728 425 728Q361 728 294.5 701.5Q228 675 174.0 626.0Q120 577 85.5 508.0Q51 439 51 354Q51 276 82.0 209.0Q113 142 164.5 92.5Q216 43 284.0 14.5Q352 -14 425 -14Q457 -14 486.0 -8.5Q515 -3 539.5 3.5Q564 10 583.0 15.5Q602 21 614 21Q628 21 635.0 16.5Q642 12 647 0H663V212H647Q638 171 619.0 133.0Q600 95 572.0 65.5Q544 36 507.5 18.0Q471 0 426 0Q370 0 329.5 16.0Q289 32 263.5 72.0Q238 112 226.0 180.0Q214 248 214 352Q214 431 220.0 497.5Q226 564 247.5 612.0Q269 660 311.0 687.0Q353 714 426 714Q480 714 516.5 694.5Q553 675 577.5 644.5Q602 614 617.5 577.5Q633 541 644 508Z"/>
  </g>
</svg>
