<?xml version="1.0" encoding="utf-8" standalone="no"?>
<!DOCTYPE svg PUBLIC "-//W3C//DTD SVG 1.1//EN"
  "http://www.w3.org/Graphics/SVG/1.1/DTD/svg11.dtd">
<svg xmlns:xlink="http://www.w3.org/1999/xlink" width="660.420313pt" height="367.6pt" viewBox="0 0 660.420313 367.6" xmlns="http://www.w3.org/2000/svg" version="1.1">
 <metadata>
  <rdf:RDF xmlns:dc="http://purl.org/dc/elements/1.1/" xmlns:cc="http://creativecommons.org/ns#" xmlns:rdf="http://www.w3.org/1999/02/22-rdf-syntax-ns#">
   <cc:Work>
    <dc:type rdf:resource="http://purl.org/dc/dcmitype/StillImage"/>
    <dc:date>2026-07-08T15:36:05.477313</dc:date>
    <dc:format>image/svg+xml</dc:format>
    <dc:creator>
     <cc:Agent>
      <dc:title>Matplotlib v3.10.9, https://matplotlib.org/</dc:title>
     </cc:Agent>
    </dc:creator>
   </cc:Work>
  </rdf:RDF>
 </metadata>
 <defs>
  <style type="text/css">*{stroke-linejoin: round; stroke-linecap: butt}</style>
 </defs>
 <g id="figure_1">
  <g id="patch_1">
   <path d="M 0 367.6 
L 660.420313 367.6 
L 660.420313 0 
L 0 0 
L 0 367.6 
z
" style="fill: none"/>
  </g>
  <g id="axes_1">
   <g id="patch_2">
    <path d="M 43.020313 332.64 
L 656.820313 332.64 
L 656.820313 27.72 
L 43.020313 27.72 
L 43.020313 332.64 
z
" style="fill: none"/>
   </g>
   <g id="FillBetweenPolyCollection_1">
    <defs>
     <path id="ma3598820c7" d="M 90.357767 -105.901748 
L 90.357767 -100.420963 
L 92.156457 -103.00387 
L 93.78108 -100.747362 
L 95.57977 -100.223696 
L 97.320437 -96.420068 
L 99.119127 -92.973565 
L 100.859795 -90.643114 
L 102.658484 -89.318273 
L 104.457174 -90.228508 
L 106.197842 -90.874039 
L 107.996532 -92.879299 
L 109.737199 -91.79888 
L 111.535889 -86.166111 
L 113.334579 -87.430859 
L 114.959202 -89.138992 
L 116.757892 -87.701075 
L 118.498559 -87.13344 
L 120.297249 -88.155404 
L 122.037917 -88.520386 
L 123.836607 -88.89161 
L 125.635296 -89.639163 
L 127.375964 -90.718912 
L 129.174654 -89.635386 
L 130.915321 -89.66877 
L 132.714011 -88.710202 
L 134.512701 -89.310388 
L 136.137324 -89.218844 
L 137.936014 -89.373403 
L 139.676681 -87.108768 
L 141.475371 -90.64284 
L 143.216039 -93.051391 
L 145.014729 -86.528693 
L 146.813418 -75.586917 
L 148.554086 -74.910603 
L 150.352776 -75.418174 
L 152.093443 -73.849273 
L 153.892133 -72.746236 
L 155.690823 -73.408776 
L 157.373468 -72.938108 
L 159.172158 -73.748862 
L 160.912826 -67.035109 
L 162.711516 -60.040666 
L 164.452183 -58.940643 
L 166.250873 -60.144453 
L 168.049563 -60.35848 
L 169.79023 -59.961173 
L 171.58892 -58.949537 
L 173.329588 -57.445431 
L 175.128278 -55.83661 
L 176.926967 -56.126122 
L 178.55159 -57.166207 
L 180.35028 -54.852156 
L 182.090948 -55.496111 
L 183.889638 -56.083615 
L 185.630305 -56.875424 
L 187.428995 -55.409076 
L 189.227685 -54.049262 
L 190.968352 -54.668991 
L 192.767042 -51.65256 
L 194.50771 -48.82 
L 196.3064 -49.348637 
L 198.105089 -51.242722 
L 199.729713 -51.09944 
L 201.528402 -50.877256 
L 203.26907 -49.772056 
L 205.06776 -49.969207 
L 206.808427 -50.674114 
L 208.607117 -51.421363 
L 210.405807 -54.666953 
L 212.146475 -56.698755 
L 213.945164 -57.619022 
L 215.685832 -59.162134 
L 217.484522 -60.43187 
L 219.283212 -59.282853 
L 220.907835 -58.843059 
L 222.706524 -60.491442 
L 224.447192 -60.991128 
L 226.245882 -61.201047 
L 227.986549 -58.756969 
L 229.785239 -60.287536 
L 231.583929 -63.060187 
L 233.324597 -66.154742 
L 235.123286 -67.387646 
L 236.863954 -69.792776 
L 238.662644 -71.695174 
L 240.461334 -76.031088 
L 242.143979 -74.983919 
L 243.942669 -75.347401 
L 245.683336 -77.149393 
L 247.482026 -77.379888 
L 249.222694 -76.469542 
L 251.021384 -78.319838 
L 252.820073 -81.076543 
L 254.560741 -89.417947 
L 256.359431 -90.147833 
L 258.100098 -94.320924 
L 259.898788 -106.620075 
L 261.697478 -109.683542 
L 263.322101 -108.081052 
L 265.120791 -110.470481 
L 266.861458 -114.070118 
L 268.660148 -113.984317 
L 270.400816 -105.679618 
L 272.199506 -111.203595 
L 273.998195 -114.956707 
L 275.738863 -120.470001 
L 277.537553 -125.323301 
L 279.27822 -128.964694 
L 281.07691 -126.563516 
L 282.8756 -123.354445 
L 284.500223 -123.399858 
L 286.298913 -123.464773 
L 288.03958 -120.903006 
L 289.83827 -124.743852 
L 291.578938 -128.145778 
L 293.377628 -132.007546 
L 295.176317 -134.810795 
L 296.916985 -136.60612 
L 298.715675 -138.895949 
L 300.456342 -137.779704 
L 302.255032 -130.709001 
L 304.053722 -131.042353 
L 305.678345 -128.64572 
L 307.477035 -132.129652 
L 309.217703 -134.049729 
L 311.016392 -139.874565 
L 312.75706 -144.049148 
L 314.55575 -143.935458 
L 316.35444 -149.596292 
L 318.095107 -152.156947 
L 319.893797 -152.507062 
L 321.634465 -153.36962 
L 323.433154 -153.789884 
L 325.231844 -155.836754 
L 326.914489 -157.766743 
L 328.713179 -157.894591 
L 330.453847 -160.382607 
L 332.252537 -163.614742 
L 333.993204 -166.189654 
L 335.791894 -169.155798 
L 337.590584 -166.523028 
L 339.331251 -167.044578 
L 341.129941 -167.616674 
L 342.870609 -165.971076 
L 344.669299 -163.496532 
L 346.467988 -158.492559 
L 348.092612 -151.781993 
L 349.891301 -147.43337 
L 351.631969 -146.975413 
L 353.430659 -140.547807 
L 355.171326 -122.822853 
L 356.970016 -111.510334 
L 358.768706 -105.995127 
L 360.509374 -102.759024 
L 362.308063 -107.386443 
L 364.048731 -105.934866 
L 365.847421 -102.330409 
L 367.646111 -103.673373 
L 369.270734 -107.169905 
L 371.069423 -107.864071 
L 372.810091 -110.41542 
L 374.608781 -116.61154 
L 376.349448 -118.771622 
L 378.148138 -120.12702 
L 379.946828 -120.890005 
L 381.687496 -120.002286 
L 383.486185 -122.287285 
L 385.226853 -122.301913 
L 387.025543 -123.954838 
L 388.824233 -126.196956 
L 390.448856 -124.095995 
L 392.247546 -122.063685 
L 393.988213 -123.413065 
L 395.786903 -119.371175 
L 397.52757 -115.500638 
L 399.32626 -113.09062 
L 401.12495 -114.89852 
L 402.865618 -114.233194 
L 404.664308 -114.969672 
L 406.404975 -111.176584 
L 408.203665 -110.024525 
L 410.002355 -112.081773 
L 411.685 -116.378142 
L 413.48369 -116.241024 
L 415.224357 -119.372208 
L 417.023047 -120.631397 
L 418.763715 -122.214706 
L 420.562405 -125.651226 
L 422.361094 -126.545574 
L 424.101762 -126.956262 
L 425.900452 -127.29744 
L 427.641119 -122.433746 
L 429.439809 -115.202726 
L 431.238499 -116.274842 
L 432.863122 -115.634108 
L 434.661812 -115.097226 
L 436.402479 -117.937391 
L 438.201169 -118.76155 
L 439.941837 -120.819615 
L 441.740527 -120.027034 
L 443.539217 -122.32425 
L 445.279884 -124.305032 
L 447.078574 -123.159048 
L 448.819241 -122.198866 
L 450.617931 -120.734271 
L 452.416621 -116.910053 
L 454.041244 -108.212681 
L 455.839934 -103.157204 
L 457.580602 -100.163218 
L 459.379291 -95.577598 
L 461.119959 -93.943593 
L 462.918649 -93.687027 
L 464.717339 -93.235729 
L 466.458006 -92.587125 
L 468.256696 -89.756257 
L 469.997364 -90.083007 
L 471.796053 -95.579577 
L 473.594743 -101.831182 
L 475.219366 -105.669949 
L 477.018056 -108.585207 
L 478.758724 -111.072406 
L 480.557413 -112.447032 
L 482.298081 -116.877535 
L 484.096771 -117.221317 
L 485.895461 -119.669183 
L 487.636128 -120.048235 
L 489.434818 -119.675813 
L 491.175486 -121.509547 
L 492.974175 -123.056623 
L 494.772865 -125.582571 
L 496.455511 -129.212511 
L 498.2542 -129.759684 
L 499.994868 -133.021841 
L 501.793558 -135.798228 
L 503.534225 -138.189973 
L 505.332915 -141.64198 
L 507.131605 -142.270351 
L 508.872273 -141.273082 
L 510.670962 -140.479299 
L 512.41163 -139.850635 
L 514.21032 -139.817816 
L 516.00901 -136.718551 
L 517.633633 -132.68018 
L 519.432322 -122.98454 
L 521.17299 -119.022916 
L 522.97168 -116.557511 
L 524.712347 -111.901878 
L 526.511037 -110.907499 
L 528.309727 -109.909726 
L 530.050395 -108.326852 
L 531.849084 -104.820969 
L 533.589752 -104.48012 
L 535.388442 -103.70575 
L 537.187132 -97.387202 
L 538.811755 -90.054245 
L 540.610445 -79.355693 
L 542.351112 -63.425514 
L 544.149802 -57.774164 
L 545.89047 -53.55385 
L 547.689159 -56.742507 
L 549.487849 -63.30939 
L 551.228517 -57.03437 
L 553.027207 -52.217982 
L 554.767874 -57.653765 
L 556.566564 -68.0203 
L 558.365254 -72.880427 
L 559.989877 -76.217191 
L 561.788567 -74.572736 
L 563.529234 -76.282928 
L 565.327924 -74.387003 
L 567.068592 -70.08146 
L 568.867281 -67.071228 
L 570.665971 -62.78383 
L 572.406639 -59.316514 
L 574.205329 -53.034315 
L 575.945996 -52.964224 
L 577.744686 -58.636476 
L 579.543376 -62.114169 
L 581.226021 -62.492977 
L 583.024711 -62.886859 
L 584.765379 -61.903644 
L 586.564068 -62.035384 
L 588.304736 -64.343378 
L 590.103426 -65.90294 
L 591.902116 -69.942373 
L 593.642783 -73.437497 
L 595.441473 -71.779016 
L 597.182141 -69.100398 
L 598.98083 -70.781523 
L 600.77952 -68.535456 
L 602.404143 -70.301777 
L 604.202833 -72.998646 
L 605.943501 -73.158953 
L 607.74219 -73.863186 
L 609.482858 -75.720988 
L 611.281548 -78.395271 
L 613.080238 -80.441694 
L 614.820905 -82.870731 
L 616.619595 -83.453861 
L 618.360263 -83.270753 
L 620.158952 -83.442347 
L 621.957642 -84.853306 
L 623.582265 -85.974081 
L 625.380955 -84.82787 
L 627.121623 -83.824184 
L 628.920313 -83.690212 
L 628.920313 -91.945891 
L 628.920313 -91.945891 
L 627.121623 -93.917809 
L 625.380955 -96.104486 
L 623.582265 -97.711401 
L 621.957642 -96.886482 
L 620.158952 -95.711019 
L 618.360263 -94.887781 
L 616.619595 -94.212149 
L 614.820905 -91.593617 
L 613.080238 -86.843205 
L 611.281548 -83.481489 
L 609.482858 -81.359051 
L 607.74219 -80.51481 
L 605.943501 -81.025051 
L 604.202833 -81.242443 
L 602.404143 -78.20078 
L 600.77952 -76.402227 
L 598.98083 -78.677776 
L 597.182141 -77.04896 
L 595.441473 -81.215776 
L 593.642783 -83.192621 
L 591.902116 -77.396496 
L 590.103426 -72.131772 
L 588.304736 -71.096572 
L 586.564068 -70.070899 
L 584.765379 -72.239021 
L 583.024711 -75.364995 
L 581.226021 -76.069884 
L 579.543376 -77.241891 
L 577.744686 -74.74167 
L 575.945996 -69.11928 
L 574.205329 -67.243499 
L 572.406639 -71.050924 
L 570.665971 -72.77639 
L 568.867281 -76.116112 
L 567.068592 -78.53125 
L 565.327924 -83.190258 
L 563.529234 -85.126854 
L 561.788567 -83.107537 
L 559.989877 -87.87222 
L 558.365254 -89.73605 
L 556.566564 -90.895982 
L 554.767874 -86.791732 
L 553.027207 -85.210133 
L 551.228517 -91.464955 
L 549.487849 -99.431118 
L 547.689159 -94.632316 
L 545.89047 -90.834261 
L 544.149802 -91.532432 
L 542.351112 -92.368187 
L 540.610445 -101.278935 
L 538.811755 -107.466976 
L 537.187132 -113.811748 
L 535.388442 -121.016906 
L 533.589752 -124.076019 
L 531.849084 -125.663907 
L 530.050395 -129.512932 
L 528.309727 -131.323094 
L 526.511037 -132.018737 
L 524.712347 -131.654583 
L 522.97168 -133.547555 
L 521.17299 -133.30388 
L 519.432322 -134.054922 
L 517.633633 -140.883635 
L 516.00901 -144.881526 
L 514.21032 -149.231841 
L 512.41163 -150.437015 
L 510.670962 -151.752743 
L 508.872273 -152.75849 
L 507.131605 -153.049757 
L 505.332915 -150.947398 
L 503.534225 -146.44648 
L 501.793558 -144.111852 
L 499.994868 -143.619083 
L 498.2542 -142.588166 
L 496.455511 -144.668856 
L 494.772865 -143.241284 
L 492.974175 -143.036998 
L 491.175486 -143.946168 
L 489.434818 -144.184664 
L 487.636128 -145.097574 
L 485.895461 -143.078354 
L 484.096771 -137.810113 
L 482.298081 -134.497054 
L 480.557413 -126.236874 
L 478.758724 -122.115235 
L 477.018056 -117.09653 
L 475.219366 -112.981831 
L 473.594743 -110.153231 
L 471.796053 -107.807854 
L 469.997364 -105.81283 
L 468.256696 -107.345268 
L 466.458006 -111.221639 
L 464.717339 -113.10455 
L 462.918649 -113.67996 
L 461.119959 -113.014637 
L 459.379291 -112.946369 
L 457.580602 -114.767259 
L 455.839934 -114.981525 
L 454.041244 -116.741185 
L 452.416621 -122.334516 
L 450.617931 -125.626637 
L 448.819241 -127.347658 
L 447.078574 -129.101031 
L 445.279884 -132.565738 
L 443.539217 -131.699613 
L 441.740527 -130.102265 
L 439.941837 -131.128378 
L 438.201169 -129.08668 
L 436.402479 -128.351369 
L 434.661812 -125.719949 
L 432.863122 -126.506834 
L 431.238499 -127.369652 
L 429.439809 -127.456461 
L 427.641119 -136.00545 
L 425.900452 -141.531599 
L 424.101762 -139.697766 
L 422.361094 -137.476946 
L 420.562405 -134.281342 
L 418.763715 -128.425395 
L 417.023047 -125.418563 
L 415.224357 -123.765676 
L 413.48369 -122.214027 
L 411.685 -123.329003 
L 410.002355 -120.39211 
L 408.203665 -119.516109 
L 406.404975 -120.274434 
L 404.664308 -123.294039 
L 402.865618 -122.316316 
L 401.12495 -122.483859 
L 399.32626 -120.141974 
L 397.52757 -121.177486 
L 395.786903 -124.194208 
L 393.988213 -128.382041 
L 392.247546 -127.633103 
L 390.448856 -129.989851 
L 388.824233 -131.672918 
L 387.025543 -128.17446 
L 385.226853 -125.926417 
L 383.486185 -125.687512 
L 381.687496 -123.864652 
L 379.946828 -124.734839 
L 378.148138 -123.988141 
L 376.349448 -123.580062 
L 374.608781 -125.532083 
L 372.810091 -128.091185 
L 371.069423 -131.91874 
L 369.270734 -134.850628 
L 367.646111 -134.303751 
L 365.847421 -135.340675 
L 364.048731 -140.52327 
L 362.308063 -143.288053 
L 360.509374 -139.18617 
L 358.768706 -139.840052 
L 356.970016 -140.886644 
L 355.171326 -146.438912 
L 353.430659 -158.116131 
L 351.631969 -162.094066 
L 349.891301 -160.648345 
L 348.092612 -161.910447 
L 346.467988 -165.373221 
L 344.669299 -168.725418 
L 342.870609 -171.69659 
L 341.129941 -174.463103 
L 339.331251 -175.290031 
L 337.590584 -176.148547 
L 335.791894 -180.848654 
L 333.993204 -180.612212 
L 332.252537 -179.43554 
L 330.453847 -178.030303 
L 328.713179 -178.06495 
L 326.914489 -179.375835 
L 325.231844 -178.187978 
L 323.433154 -175.25906 
L 321.634465 -173.532763 
L 319.893797 -169.99226 
L 318.095107 -166.774744 
L 316.35444 -160.894171 
L 314.55575 -152.50214 
L 312.75706 -152.338086 
L 311.016392 -148.440619 
L 309.217703 -144.177537 
L 307.477035 -144.846654 
L 305.678345 -142.504938 
L 304.053722 -145.844483 
L 302.255032 -146.023896 
L 300.456342 -152.983259 
L 298.715675 -152.215467 
L 296.916985 -147.29461 
L 295.176317 -143.381448 
L 293.377628 -138.969276 
L 291.578938 -134.398692 
L 289.83827 -131.812066 
L 288.03958 -128.341505 
L 286.298913 -130.588115 
L 284.500223 -130.481544 
L 282.8756 -131.119054 
L 281.07691 -134.966991 
L 279.27822 -139.636316 
L 277.537553 -142.997379 
L 275.738863 -143.376759 
L 273.998195 -141.180783 
L 272.199506 -142.279002 
L 270.400816 -140.296558 
L 268.660148 -151.304323 
L 266.861458 -150.463743 
L 265.120791 -144.258388 
L 263.322101 -139.158741 
L 261.697478 -137.336889 
L 259.898788 -128.02508 
L 258.100098 -109.577957 
L 256.359431 -104.529775 
L 254.560741 -103.992164 
L 252.820073 -94.828518 
L 251.021384 -93.516879 
L 249.222694 -93.063319 
L 247.482026 -94.751301 
L 245.683336 -93.518692 
L 243.942669 -90.088591 
L 242.143979 -88.129809 
L 240.461334 -87.324401 
L 238.662644 -79.532401 
L 236.863954 -75.489875 
L 235.123286 -71.625321 
L 233.324597 -70.346812 
L 231.583929 -67.741048 
L 229.785239 -66.438934 
L 227.986549 -67.053226 
L 226.245882 -70.999065 
L 224.447192 -71.393465 
L 222.706524 -70.937877 
L 220.907835 -68.740431 
L 219.283212 -68.681738 
L 217.484522 -68.853784 
L 215.685832 -65.940854 
L 213.945164 -62.851389 
L 212.146475 -60.432691 
L 210.405807 -57.889314 
L 208.607117 -54.892816 
L 206.808427 -55.0195 
L 205.06776 -55.287639 
L 203.26907 -55.399528 
L 201.528402 -56.439944 
L 199.729713 -56.635004 
L 198.105089 -57.468508 
L 196.3064 -55.939432 
L 194.50771 -55.059643 
L 192.767042 -57.097768 
L 190.968352 -60.082364 
L 189.227685 -60.122166 
L 187.428995 -61.664285 
L 185.630305 -63.144662 
L 183.889638 -62.278552 
L 182.090948 -61.517557 
L 180.35028 -62.140164 
L 178.55159 -67.290831 
L 176.926967 -68.027071 
L 175.128278 -68.729895 
L 173.329588 -70.458438 
L 171.58892 -72.016133 
L 169.79023 -73.102492 
L 168.049563 -73.150508 
L 166.250873 -72.194342 
L 164.452183 -71.485073 
L 162.711516 -73.644531 
L 160.912826 -79.533922 
L 159.172158 -85.425967 
L 157.373468 -85.039353 
L 155.690823 -85.509009 
L 153.892133 -84.644947 
L 152.093443 -84.97441 
L 150.352776 -85.647136 
L 148.554086 -84.192828 
L 146.813418 -83.118819 
L 145.014729 -90.208851 
L 143.216039 -96.367264 
L 141.475371 -93.099823 
L 139.676681 -89.483685 
L 137.936014 -91.339252 
L 136.137324 -91.192602 
L 134.512701 -91.421288 
L 132.714011 -90.781653 
L 130.915321 -91.577405 
L 129.174654 -93.006963 
L 127.375964 -95.333311 
L 125.635296 -94.558617 
L 123.836607 -93.948431 
L 122.037917 -93.54063 
L 120.297249 -93.109857 
L 118.498559 -92.079452 
L 116.757892 -92.855466 
L 114.959202 -95.669023 
L 113.334579 -95.257063 
L 111.535889 -95.195237 
L 109.737199 -100.429324 
L 107.996532 -101.447839 
L 106.197842 -99.475758 
L 104.457174 -98.557504 
L 102.658484 -97.079121 
L 100.859795 -97.204038 
L 99.119127 -98.12509 
L 97.320437 -100.426288 
L 95.57977 -104.718248 
L 93.78108 -105.912698 
L 92.156457 -108.391611 
L 90.357767 -105.901748 
z
" style="stroke: #6e1f1f; stroke-opacity: 0.12"/>
    </defs>
    <g clip-path="url(#p06e47982c7)">
     <use xlink:href="#ma3598820c7" x="0" y="367.6" style="fill: #6e1f1f; fill-opacity: 0.12; stroke: #6e1f1f; stroke-opacity: 0.12"/>
    </g>
   </g>
   <g id="FillBetweenPolyCollection_2">
    <defs>
     <path id="ma93f9bd7b4" d="M 90.357767 -169.883858 
L 90.357767 -160.578417 
L 92.156457 -164.178578 
L 93.78108 -161.485588 
L 95.57977 -161.342225 
L 97.320437 -157.315411 
L 99.119127 -155.801622 
L 100.859795 -155.211021 
L 102.658484 -155.567828 
L 104.457174 -158.577343 
L 106.197842 -160.813758 
L 107.996532 -164.143761 
L 109.737199 -162.826621 
L 111.535889 -152.571128 
L 113.334579 -152.906281 
L 114.959202 -154.148803 
L 116.757892 -151.023848 
L 118.498559 -150.602322 
L 120.297249 -153.381917 
L 122.037917 -155.970062 
L 123.836607 -158.691547 
L 125.635296 -161.793752 
L 127.375964 -164.714182 
L 129.174654 -163.448783 
L 130.915321 -163.453565 
L 132.714011 -163.343444 
L 134.512701 -165.450541 
L 136.137324 -166.329377 
L 137.936014 -167.851452 
L 139.676681 -166.446551 
L 141.475371 -173.046807 
L 143.216039 -177.486686 
L 145.014729 -167.633306 
L 146.813418 -151.42368 
L 148.554086 -151.661924 
L 150.352776 -154.200172 
L 152.093443 -153.413965 
L 153.892133 -153.361042 
L 155.690823 -156.478087 
L 157.373468 -157.784411 
L 159.172158 -161.775722 
L 160.912826 -152.733164 
L 162.711516 -142.671259 
L 164.452183 -142.462835 
L 166.250873 -146.347695 
L 168.049563 -148.997477 
L 169.79023 -150.363411 
L 171.58892 -150.179578 
L 173.329588 -149.121017 
L 175.128278 -147.615816 
L 176.926967 -147.536549 
L 178.55159 -148.925027 
L 180.35028 -143.347841 
L 182.090948 -143.586501 
L 183.889638 -144.252235 
L 185.630305 -144.819148 
L 187.428995 -139.535402 
L 189.227685 -133.421259 
L 190.968352 -131.376964 
L 192.767042 -122.843286 
L 194.50771 -114.943339 
L 196.3064 -113.321852 
L 198.105089 -114.65733 
L 199.729713 -112.213549 
L 201.528402 -109.829108 
L 203.26907 -105.358777 
L 205.06776 -102.997933 
L 206.808427 -101.558108 
L 208.607117 -100.208845 
L 210.405807 -104.069938 
L 212.146475 -107.111843 
L 213.945164 -108.468553 
L 215.685832 -110.78783 
L 217.484522 -113.340406 
L 219.283212 -113.374296 
L 220.907835 -113.2292 
L 222.706524 -115.3538 
L 224.447192 -114.27787 
L 226.245882 -112.566932 
L 227.986549 -106.238704 
L 229.785239 -106.062935 
L 231.583929 -108.195701 
L 233.324597 -111.635256 
L 235.123286 -112.762338 
L 236.863954 -116.615139 
L 238.662644 -119.396256 
L 240.461334 -124.778176 
L 242.143979 -122.493244 
L 243.942669 -122.423931 
L 245.683336 -124.487512 
L 247.482026 -124.092823 
L 249.222694 -122.204203 
L 251.021384 -123.770325 
L 252.820073 -126.667069 
L 254.560741 -137.166447 
L 256.359431 -137.32273 
L 258.100098 -141.742639 
L 259.898788 -157.40927 
L 261.697478 -160.70984 
L 263.322101 -158.479545 
L 265.120791 -161.63115 
L 266.861458 -167.182019 
L 268.660148 -167.548129 
L 270.400816 -157.27523 
L 272.199506 -165.105465 
L 273.998195 -169.4618 
L 275.738863 -175.251759 
L 277.537553 -181.253805 
L 279.27822 -187.193676 
L 281.07691 -186.512165 
L 282.8756 -185.124176 
L 284.500223 -187.837807 
L 286.298913 -189.678157 
L 288.03958 -186.097255 
L 289.83827 -190.683872 
L 291.578938 -195.625527 
L 293.377628 -200.667766 
L 295.176317 -205.106818 
L 296.916985 -207.690897 
L 298.715675 -211.571666 
L 300.456342 -210.242454 
L 302.255032 -200.464234 
L 304.053722 -202.646339 
L 305.678345 -200.118425 
L 307.477035 -206.6892 
L 309.217703 -211.080504 
L 311.016392 -221.754063 
L 312.75706 -228.9166 
L 314.55575 -230.837559 
L 316.35444 -240.313618 
L 318.095107 -246.126226 
L 319.893797 -247.904462 
L 321.634465 -251.04704 
L 323.433154 -254.015233 
L 325.231844 -256.750074 
L 326.914489 -260.799754 
L 328.713179 -262.615217 
L 330.453847 -269.90557 
L 332.252537 -278.610067 
L 333.993204 -285.904406 
L 335.791894 -292.830381 
L 337.590584 -291.045872 
L 339.331251 -294.389281 
L 341.129941 -297.473104 
L 342.870609 -296.348834 
L 344.669299 -294.240716 
L 346.467988 -289.5085 
L 348.092612 -282.413975 
L 349.891301 -278.806814 
L 351.631969 -281.457704 
L 353.430659 -274.351566 
L 355.171326 -247.345168 
L 356.970016 -230.314287 
L 358.768706 -222.053562 
L 360.509374 -216.975712 
L 362.308063 -225.37596 
L 364.048731 -222.466325 
L 365.847421 -215.046741 
L 367.646111 -215.932602 
L 369.270734 -220.706693 
L 371.069423 -220.706344 
L 372.810091 -224.687841 
L 374.608781 -235.456252 
L 376.349448 -239.298127 
L 378.148138 -241.359227 
L 379.946828 -242.476736 
L 381.687496 -241.174641 
L 383.486185 -245.572215 
L 385.226853 -245.890183 
L 387.025543 -248.767984 
L 388.824233 -253.364739 
L 390.448856 -250.072183 
L 392.247546 -247.231059 
L 393.988213 -250.707332 
L 395.786903 -245.024091 
L 397.52757 -240.196331 
L 399.32626 -237.55984 
L 401.12495 -241.985534 
L 402.865618 -241.892799 
L 404.664308 -243.978324 
L 406.404975 -236.977053 
L 408.203665 -233.87659 
L 410.002355 -234.64373 
L 411.685 -239.965928 
L 413.48369 -237.014158 
L 415.224357 -239.890409 
L 417.023047 -239.310896 
L 418.763715 -239.41479 
L 420.562405 -243.194806 
L 422.361094 -243.120915 
L 424.101762 -242.054568 
L 425.900452 -241.531206 
L 427.641119 -228.41819 
L 429.439809 -208.747658 
L 431.238499 -205.47066 
L 432.863122 -200.632994 
L 434.661812 -195.599833 
L 436.402479 -196.926785 
L 438.201169 -195.591481 
L 439.941837 -197.208402 
L 441.740527 -194.853702 
L 443.539217 -197.940987 
L 445.279884 -201.756762 
L 447.078574 -202.167522 
L 448.819241 -203.510731 
L 450.617931 -200.831773 
L 452.416621 -196.078762 
L 454.041244 -183.415924 
L 455.839934 -175.846747 
L 457.580602 -171.616123 
L 459.379291 -165.319981 
L 461.119959 -164.269525 
L 462.918649 -164.452 
L 464.717339 -164.419107 
L 466.458006 -164.277672 
L 468.256696 -161.717732 
L 469.997364 -163.901692 
L 471.796053 -173.400331 
L 473.594743 -182.064068 
L 475.219366 -185.895235 
L 477.018056 -188.283197 
L 478.758724 -190.66977 
L 480.557413 -192.079969 
L 482.298081 -198.853301 
L 484.096771 -199.685536 
L 485.895461 -203.994134 
L 487.636128 -204.968992 
L 489.434818 -204.06418 
L 491.175486 -206.017381 
L 492.974175 -206.869456 
L 494.772865 -209.58022 
L 496.455511 -213.894034 
L 498.2542 -213.640305 
L 499.994868 -217.36695 
L 501.793558 -220.575152 
L 503.534225 -223.089801 
L 505.332915 -227.564592 
L 507.131605 -227.918886 
L 508.872273 -225.83133 
L 510.670962 -223.688943 
L 512.41163 -221.641699 
L 514.21032 -220.561448 
L 516.00901 -216.358211 
L 517.633633 -210.33091 
L 519.432322 -195.803908 
L 521.17299 -190.363241 
L 522.97168 -187.615435 
L 524.712347 -182.323356 
L 526.511037 -183.145527 
L 528.309727 -184.147577 
L 530.050395 -184.065822 
L 531.849084 -180.817532 
L 533.589752 -182.075676 
L 535.388442 -181.988405 
L 537.187132 -169.456698 
L 538.811755 -154.889846 
L 540.610445 -135.311665 
L 542.351112 -107.89109 
L 544.149802 -95.866063 
L 545.89047 -86.547399 
L 547.689159 -88.696269 
L 549.487849 -96.029131 
L 551.228517 -85.4275 
L 553.027207 -77.10896 
L 554.767874 -83.409429 
L 556.566564 -97.266176 
L 558.365254 -106.236984 
L 559.989877 -113.832681 
L 561.788567 -115.162187 
L 563.529234 -119.883894 
L 565.327924 -118.846988 
L 567.068592 -114.131537 
L 568.867281 -111.701644 
L 570.665971 -107.931982 
L 572.406639 -105.21569 
L 574.205329 -98.651477 
L 575.945996 -100.672344 
L 577.744686 -110.00789 
L 579.543376 -112.738398 
L 581.226021 -110.724183 
L 583.024711 -109.404063 
L 584.765379 -106.426521 
L 586.564068 -105.329197 
L 588.304736 -107.496883 
L 590.103426 -108.72214 
L 591.902116 -113.733499 
L 593.642783 -117.747559 
L 595.441473 -113.857566 
L 597.182141 -107.956634 
L 598.98083 -108.684433 
L 600.77952 -104.907913 
L 602.404143 -106.771625 
L 604.202833 -110.487301 
L 605.943501 -110.608498 
L 607.74219 -110.965027 
L 609.482858 -112.363308 
L 611.281548 -114.882992 
L 613.080238 -117.337818 
L 614.820905 -120.971574 
L 616.619595 -121.504746 
L 618.360263 -121.039647 
L 620.158952 -121.409186 
L 621.957642 -123.252466 
L 623.582265 -124.910546 
L 625.380955 -123.877056 
L 627.121623 -123.40288 
L 628.920313 -124.136187 
L 628.920313 -133.81015 
L 628.920313 -133.81015 
L 627.121623 -134.902374 
L 625.380955 -136.492744 
L 623.582265 -137.890423 
L 621.957642 -136.543059 
L 620.158952 -134.98807 
L 618.360263 -133.763521 
L 616.619595 -133.068332 
L 614.820905 -130.456279 
L 613.080238 -125.830541 
L 611.281548 -122.679223 
L 609.482858 -119.920888 
L 607.74219 -118.633339 
L 605.943501 -118.652486 
L 604.202833 -118.598553 
L 602.404143 -114.944513 
L 600.77952 -113.052356 
L 598.98083 -116.574203 
L 597.182141 -115.722857 
L 595.441473 -122.67412 
L 593.642783 -128.036887 
L 591.902116 -122.501486 
L 590.103426 -116.935643 
L 588.304736 -116.187805 
L 586.564068 -114.82145 
L 584.765379 -117.4711 
L 583.024711 -121.811642 
L 581.226021 -123.487749 
L 579.543376 -126.305877 
L 577.744686 -123.878247 
L 575.945996 -114.569134 
L 574.205329 -111.726192 
L 572.406639 -117.396131 
L 570.665971 -119.327872 
L 568.867281 -123.737915 
L 567.068592 -126.090616 
L 565.327924 -130.908035 
L 563.529234 -131.738532 
L 561.788567 -128.01017 
L 559.989877 -135.632568 
L 558.365254 -139.210831 
L 556.566564 -141.627533 
L 554.767874 -138.871076 
L 553.027207 -138.534922 
L 551.228517 -148.414471 
L 549.487849 -160.317136 
L 547.689159 -154.030787 
L 545.89047 -148.832596 
L 544.149802 -150.395917 
L 542.351112 -152.428224 
L 540.610445 -166.351192 
L 538.811755 -176.254942 
L 537.187132 -186.767136 
L 535.388442 -199.785899 
L 533.589752 -203.48484 
L 531.849084 -204.752192 
L 530.050395 -209.60988 
L 528.309727 -211.265971 
L 526.511037 -211.128731 
L 524.712347 -209.521588 
L 522.97168 -211.663261 
L 521.17299 -210.915924 
L 519.432322 -211.491934 
L 517.633633 -219.938472 
L 516.00901 -223.725919 
L 514.21032 -227.688609 
L 512.41163 -229.585489 
L 510.670962 -232.140586 
L 508.872273 -234.514999 
L 507.131605 -235.928837 
L 505.332915 -233.990561 
L 503.534225 -229.292212 
L 501.793558 -228.358734 
L 499.994868 -229.865909 
L 498.2542 -229.776511 
L 496.455511 -233.697283 
L 494.772865 -232.274794 
L 492.974175 -232.553142 
L 491.175486 -235.114731 
L 489.434818 -236.554414 
L 487.636128 -238.846972 
L 485.895461 -236.033135 
L 484.096771 -228.207255 
L 482.298081 -223.820925 
L 480.557413 -212.389472 
L 478.758724 -207.869348 
L 477.018056 -201.881426 
L 475.219366 -196.67477 
L 473.594743 -192.393213 
L 471.796053 -188.483584 
L 469.997364 -183.929428 
L 468.256696 -184.877216 
L 466.458006 -189.322052 
L 464.717339 -191.534523 
L 462.918649 -192.154718 
L 461.119959 -191.202301 
L 459.379291 -190.649392 
L 457.580602 -193.481676 
L 455.839934 -194.147222 
L 454.041244 -196.654829 
L 452.416621 -204.019057 
L 450.617931 -207.295663 
L 448.819241 -209.487856 
L 447.078574 -214.741565 
L 445.279884 -222.498724 
L 443.539217 -223.896376 
L 441.740527 -224.249621 
L 439.941837 -228.323778 
L 438.201169 -226.996391 
L 436.402479 -227.440502 
L 434.661812 -224.571257 
L 432.863122 -226.023681 
L 431.238499 -227.01513 
L 429.439809 -225.20247 
L 427.641119 -235.900295 
L 425.900452 -245.469392 
L 424.101762 -247.29762 
L 422.361094 -248.700371 
L 420.562405 -249.008195 
L 418.763715 -245.084851 
L 417.023047 -244.973106 
L 415.224357 -246.487148 
L 413.48369 -246.438616 
L 411.685 -250.049746 
L 410.002355 -246.237801 
L 408.203665 -246.426961 
L 406.404975 -248.361477 
L 404.664308 -254.266531 
L 402.865618 -252.148623 
L 401.12495 -252.532605 
L 399.32626 -248.207533 
L 397.52757 -250.256614 
L 395.786903 -255.441337 
L 393.988213 -262.212305 
L 392.247546 -259.984437 
L 390.448856 -263.729065 
L 388.824233 -266.201284 
L 387.025543 -259.283755 
L 385.226853 -255.041738 
L 383.486185 -253.739109 
L 381.687496 -249.457632 
L 379.946828 -250.595781 
L 378.148138 -249.23133 
L 376.349448 -248.107831 
L 374.608781 -249.681868 
L 372.810091 -251.673296 
L 371.069423 -256.232182 
L 369.270734 -260.371042 
L 367.646111 -258.975414 
L 365.847421 -260.776813 
L 364.048731 -269.948812 
L 362.308063 -274.667805 
L 360.509374 -267.06398 
L 358.768706 -267.819449 
L 356.970016 -268.889815 
L 355.171326 -276.492002 
L 353.430659 -293.752934 
L 351.631969 -298.117219 
L 349.891301 -295.236581 
L 348.092612 -299.268059 
L 346.467988 -307.812662 
L 344.669299 -315.506511 
L 342.870609 -320.402739 
L 341.129941 -323.804489 
L 339.331251 -322.619706 
L 337.590584 -321.136854 
L 335.791894 -326.02 
L 333.993204 -322.472031 
L 332.252537 -317.28393 
L 330.453847 -311.545066 
L 328.713179 -308.841094 
L 326.914489 -310.072279 
L 325.231844 -307.606907 
L 323.433154 -303.367961 
L 321.634465 -297.349034 
L 319.893797 -288.252138 
L 318.095107 -279.894819 
L 316.35444 -266.786858 
L 314.55575 -251.026948 
L 312.75706 -246.733713 
L 311.016392 -237.870073 
L 309.217703 -227.874452 
L 307.477035 -226.799515 
L 305.678345 -221.525239 
L 304.053722 -225.610532 
L 302.255032 -224.430349 
L 300.456342 -234.461987 
L 298.715675 -232.75851 
L 296.916985 -224.265367 
L 295.176317 -217.867388 
L 293.377628 -210.261864 
L 291.578938 -203.556767 
L 289.83827 -200.561287 
L 288.03958 -195.467322 
L 286.298913 -199.066584 
L 284.500223 -198.028695 
L 282.8756 -197.290888 
L 281.07691 -200.029501 
L 279.27822 -203.221416 
L 277.537553 -205.759937 
L 275.738863 -205.954148 
L 273.998195 -203.745637 
L 272.199506 -204.729638 
L 270.400816 -200.433393 
L 268.660148 -213.312001 
L 266.861458 -210.794888 
L 265.120791 -201.109416 
L 263.322101 -194.208019 
L 261.697478 -191.991545 
L 259.898788 -180.660307 
L 258.100098 -156.538006 
L 256.359431 -151.275003 
L 254.560741 -151.824926 
L 252.820073 -140.593463 
L 251.021384 -139.861586 
L 249.222694 -140.299922 
L 247.482026 -143.27254 
L 245.683336 -142.450356 
L 243.942669 -138.413321 
L 242.143979 -136.75666 
L 240.461334 -136.989832 
L 238.662644 -127.8391 
L 236.863954 -123.640096 
L 235.123286 -119.100345 
L 233.324597 -117.947285 
L 231.583929 -114.530033 
L 229.785239 -112.227857 
L 227.986549 -112.258967 
L 226.245882 -117.903155 
L 224.447192 -119.635756 
L 222.706524 -120.65631 
L 220.907835 -119.296089 
L 219.283212 -120.898334 
L 217.484522 -122.75116 
L 215.685832 -121.142843 
L 213.945164 -119.702616 
L 212.146475 -120.388805 
L 210.405807 -120.771543 
L 208.607117 -118.990644 
L 206.808427 -121.847885 
L 205.06776 -125.012938 
L 203.26907 -127.716592 
L 201.528402 -131.558498 
L 199.729713 -133.247898 
L 198.105089 -136.049916 
L 196.3064 -134.306917 
L 194.50771 -133.818411 
L 192.767042 -138.181057 
L 190.968352 -143.90638 
L 189.227685 -144.573382 
L 187.428995 -148.411602 
L 185.630305 -152.259688 
L 183.889638 -151.582833 
L 182.090948 -150.449845 
L 180.35028 -150.61903 
L 178.55159 -159.468798 
L 176.926967 -159.524355 
L 175.128278 -160.252961 
L 173.329588 -161.722994 
L 171.58892 -162.764098 
L 169.79023 -162.970689 
L 168.049563 -161.51599 
L 166.250873 -158.677357 
L 164.452183 -155.876657 
L 162.711516 -158.864153 
L 160.912826 -168.472201 
L 159.172158 -177.385482 
L 157.373468 -173.857914 
L 155.690823 -172.806458 
L 153.892133 -169.673045 
L 152.093443 -169.111947 
L 150.352776 -169.085201 
L 148.554086 -165.651443 
L 146.813418 -163.301202 
L 145.014729 -176.318577 
L 143.216039 -187.62657 
L 141.475371 -182.418911 
L 139.676681 -176.573792 
L 137.936014 -180.131155 
L 136.137324 -179.260841 
L 134.512701 -177.901455 
L 132.714011 -175.263755 
L 130.915321 -175.004186 
L 129.174654 -174.338877 
L 127.375964 -175.355162 
L 125.635296 -171.226549 
L 123.836607 -167.581484 
L 122.037917 -164.71304 
L 120.297249 -162.153363 
L 118.498559 -159.319921 
L 116.757892 -159.270438 
L 114.959202 -162.390726 
L 113.334579 -161.278252 
L 111.535889 -160.708597 
L 109.737199 -169.084753 
L 107.996532 -171.593796 
L 106.197842 -169.090988 
L 104.457174 -168.152431 
L 102.658484 -166.608898 
L 100.859795 -167.802978 
L 99.119127 -170.058451 
L 97.320437 -173.577865 
L 95.57977 -177.46407 
L 93.78108 -176.372527 
L 92.156457 -177.428489 
L 90.357767 -169.883858 
z
" style="stroke: #2e4a3f; stroke-opacity: 0.12"/>
    </defs>
    <g clip-path="url(#p06e47982c7)">
     <use xlink:href="#ma93f9bd7b4" x="0" y="367.6" style="fill: #2e4a3f; fill-opacity: 0.12; stroke: #2e4a3f; stroke-opacity: 0.12"/>
    </g>
   </g>
   <g id="matplotlib.axis_1">
    <g id="xtick_1">
     <g id="line2d_1">
      <defs>
       <path id="m7a33e54bf7" d="M 0 0 
L 0 4 
" style="stroke: #1a1814; stroke-width: 0.8"/>
      </defs>
      <g>
       <use xlink:href="#m7a33e54bf7" x="69.179645" y="332.64" style="fill: #1a1814; stroke: #1a1814; stroke-width: 0.8"/>
      </g>
     </g>
     <g id="text_1">
      <text style="font-size: 9px; font-family: 'IBM Plex Sans', 'Helvetica Neue', 'Arial', 'DejaVu Sans', sans-serif; text-anchor: middle; fill: #6b655c" x="69.179645" y="346.8" transform="rotate(-0 69.179645 346.8)">2000</text>
     </g>
    </g>
    <g id="xtick_2">
     <g id="line2d_2">
      <g>
       <use xlink:href="#m7a33e54bf7" x="153.950155" y="332.64" style="fill: #1a1814; stroke: #1a1814; stroke-width: 0.8"/>
      </g>
     </g>
     <g id="text_2">
      <text style="font-size: 9px; font-family: 'IBM Plex Sans', 'Helvetica Neue', 'Arial', 'DejaVu Sans', sans-serif; text-anchor: middle; fill: #6b655c" x="153.950155" y="346.8" transform="rotate(-0 153.950155 346.8)">2004</text>
     </g>
    </g>
    <g id="xtick_3">
     <g id="line2d_3">
      <g>
       <use xlink:href="#m7a33e54bf7" x="238.720666" y="332.64" style="fill: #1a1814; stroke: #1a1814; stroke-width: 0.8"/>
      </g>
     </g>
     <g id="text_3">
      <text style="font-size: 9px; font-family: 'IBM Plex Sans', 'Helvetica Neue', 'Arial', 'DejaVu Sans', sans-serif; text-anchor: middle; fill: #6b655c" x="238.720666" y="346.8" transform="rotate(-0 238.720666 346.8)">2008</text>
     </g>
    </g>
    <g id="xtick_4">
     <g id="line2d_4">
      <g>
       <use xlink:href="#m7a33e54bf7" x="323.491177" y="332.64" style="fill: #1a1814; stroke: #1a1814; stroke-width: 0.8"/>
      </g>
     </g>
     <g id="text_4">
      <text style="font-size: 9px; font-family: 'IBM Plex Sans', 'Helvetica Neue', 'Arial', 'DejaVu Sans', sans-serif; text-anchor: middle; fill: #6b655c" x="323.491177" y="346.8" transform="rotate(-0 323.491177 346.8)">2012</text>
     </g>
    </g>
    <g id="xtick_5">
     <g id="line2d_5">
      <g>
       <use xlink:href="#m7a33e54bf7" x="408.261687" y="332.64" style="fill: #1a1814; stroke: #1a1814; stroke-width: 0.8"/>
      </g>
     </g>
     <g id="text_5">
      <text style="font-size: 9px; font-family: 'IBM Plex Sans', 'Helvetica Neue', 'Arial', 'DejaVu Sans', sans-serif; text-anchor: middle; fill: #6b655c" x="408.261687" y="346.8" transform="rotate(-0 408.261687 346.8)">2016</text>
     </g>
    </g>
    <g id="xtick_6">
     <g id="line2d_6">
      <g>
       <use xlink:href="#m7a33e54bf7" x="493.032198" y="332.64" style="fill: #1a1814; stroke: #1a1814; stroke-width: 0.8"/>
      </g>
     </g>
     <g id="text_6">
      <text style="font-size: 9px; font-family: 'IBM Plex Sans', 'Helvetica Neue', 'Arial', 'DejaVu Sans', sans-serif; text-anchor: middle; fill: #6b655c" x="493.032198" y="346.8" transform="rotate(-0 493.032198 346.8)">2020</text>
     </g>
    </g>
    <g id="xtick_7">
     <g id="line2d_7">
      <g>
       <use xlink:href="#m7a33e54bf7" x="577.802708" y="332.64" style="fill: #1a1814; stroke: #1a1814; stroke-width: 0.8"/>
      </g>
     </g>
     <g id="text_7">
      <text style="font-size: 9px; font-family: 'IBM Plex Sans', 'Helvetica Neue', 'Arial', 'DejaVu Sans', sans-serif; text-anchor: middle; fill: #6b655c" x="577.802708" y="346.8" transform="rotate(-0 577.802708 346.8)">2024</text>
     </g>
    </g>
    <g id="text_8">
     <text style="font-size: 10px; font-family: 'IBM Plex Sans', 'Helvetica Neue', 'Arial', 'DejaVu Sans', sans-serif; text-anchor: middle; fill: #1a1814" x="349.920313" y="362" transform="rotate(-0 349.920313 362)">Year</text>
    </g>
   </g>
   <g id="matplotlib.axis_2">
    <g id="ytick_1">
     <g id="line2d_8">
      <defs>
       <path id="maab933f73e" d="M 0 0 
L -4 0 
" style="stroke: #1a1814; stroke-width: 0.8"/>
      </defs>
      <g>
       <use xlink:href="#maab933f73e" x="43.020313" y="309.13264" style="fill: #1a1814; stroke: #1a1814; stroke-width: 0.8"/>
      </g>
     </g>
     <g id="text_9">
      <text style="font-size: 9px; font-family: 'IBM Plex Sans', 'Helvetica Neue', 'Arial', 'DejaVu Sans', sans-serif; text-anchor: end; fill: #6b655c" x="35.520313" y="312.46264" transform="rotate(-0 35.520313 312.46264)">40</text>
     </g>
    </g>
    <g id="ytick_2">
     <g id="line2d_9">
      <g>
       <use xlink:href="#maab933f73e" x="43.020313" y="263.14726" style="fill: #1a1814; stroke: #1a1814; stroke-width: 0.8"/>
      </g>
     </g>
     <g id="text_10">
      <text style="font-size: 9px; font-family: 'IBM Plex Sans', 'Helvetica Neue', 'Arial', 'DejaVu Sans', sans-serif; text-anchor: end; fill: #6b655c" x="35.520313" y="266.47726" transform="rotate(-0 35.520313 266.47726)">60</text>
     </g>
    </g>
    <g id="ytick_3">
     <g id="line2d_10">
      <g>
       <use xlink:href="#maab933f73e" x="43.020313" y="217.161879" style="fill: #1a1814; stroke: #1a1814; stroke-width: 0.8"/>
      </g>
     </g>
     <g id="text_11">
      <text style="font-size: 9px; font-family: 'IBM Plex Sans', 'Helvetica Neue', 'Arial', 'DejaVu Sans', sans-serif; text-anchor: end; fill: #6b655c" x="35.520313" y="220.491879" transform="rotate(-0 35.520313 220.491879)">80</text>
     </g>
    </g>
    <g id="ytick_4">
     <g id="line2d_11">
      <g>
       <use xlink:href="#maab933f73e" x="43.020313" y="171.176498" style="fill: #1a1814; stroke: #1a1814; stroke-width: 0.8"/>
      </g>
     </g>
     <g id="text_12">
      <text style="font-size: 9px; font-family: 'IBM Plex Sans', 'Helvetica Neue', 'Arial', 'DejaVu Sans', sans-serif; text-anchor: end; fill: #6b655c" x="35.520313" y="174.506498" transform="rotate(-0 35.520313 174.506498)">100</text>
     </g>
    </g>
    <g id="ytick_5">
     <g id="line2d_12">
      <g>
       <use xlink:href="#maab933f73e" x="43.020313" y="125.191117" style="fill: #1a1814; stroke: #1a1814; stroke-width: 0.8"/>
      </g>
     </g>
     <g id="text_13">
      <text style="font-size: 9px; font-family: 'IBM Plex Sans', 'Helvetica Neue', 'Arial', 'DejaVu Sans', sans-serif; text-anchor: end; fill: #6b655c" x="35.520313" y="128.521117" transform="rotate(-0 35.520313 128.521117)">120</text>
     </g>
    </g>
    <g id="ytick_6">
     <g id="line2d_13">
      <g>
       <use xlink:href="#maab933f73e" x="43.020313" y="79.205736" style="fill: #1a1814; stroke: #1a1814; stroke-width: 0.8"/>
      </g>
     </g>
     <g id="text_14">
      <text style="font-size: 9px; font-family: 'IBM Plex Sans', 'Helvetica Neue', 'Arial', 'DejaVu Sans', sans-serif; text-anchor: end; fill: #6b655c" x="35.520313" y="82.535736" transform="rotate(-0 35.520313 82.535736)">140</text>
     </g>
    </g>
    <g id="ytick_7">
     <g id="line2d_14">
      <g>
       <use xlink:href="#maab933f73e" x="43.020313" y="33.220355" style="fill: #1a1814; stroke: #1a1814; stroke-width: 0.8"/>
      </g>
     </g>
     <g id="text_15">
      <text style="font-size: 9px; font-family: 'IBM Plex Sans', 'Helvetica Neue', 'Arial', 'DejaVu Sans', sans-serif; text-anchor: end; fill: #6b655c" x="35.520313" y="36.550355" transform="rotate(-0 35.520313 36.550355)">160</text>
     </g>
    </g>
    <g id="text_16">
     <text style="font-size: 10px; font-family: 'IBM Plex Sans', 'Helvetica Neue', 'Arial', 'DejaVu Sans', sans-serif; text-anchor: middle; fill: #1a1814" x="11.2" y="180.18" transform="rotate(-90 11.2 180.18)">Housing Affordability Index (HAI)</text>
    </g>
   </g>
   <g id="line2d_15">
    <path d="M 70.920313 261.502943 
L 72.602958 262.541853 
L 74.401648 261.268162 
L 76.142315 261.350881 
L 77.941005 267.928512 
L 79.681673 267.100117 
L 81.480362 267.107428 
L 83.279052 266.994545 
L 85.01972 267.06225 
L 86.81841 266.96754 
L 88.559077 267.754351 
L 90.357767 264.438645 
L 92.156457 261.90226 
L 93.78108 264.26997 
L 95.57977 265.129028 
L 97.320437 269.176822 
L 99.119127 272.050673 
L 100.859795 273.676424 
L 102.658484 274.401303 
L 104.457174 273.206994 
L 106.197842 272.425101 
L 107.996532 270.436431 
L 109.737199 271.485898 
L 111.535889 276.919326 
L 113.334579 276.256039 
L 114.959202 275.195993 
L 116.757892 277.32173 
L 118.498559 277.993554 
L 120.297249 276.96737 
L 123.836607 276.17998 
L 125.635296 275.50111 
L 127.375964 274.573888 
L 129.174654 276.278825 
L 130.915321 276.976913 
L 132.714011 277.854072 
L 134.512701 277.234162 
L 136.137324 277.394277 
L 137.936014 277.243672 
L 139.676681 279.303773 
L 141.475371 275.728668 
L 143.216039 272.890673 
L 145.014729 279.231228 
L 146.813418 288.247132 
L 148.554086 288.048284 
L 150.352776 287.067345 
L 152.093443 288.188159 
L 153.892133 288.904409 
L 155.690823 288.141108 
L 157.373468 288.611269 
L 159.172158 288.012585 
L 162.711516 300.757401 
L 164.452183 302.387142 
L 166.250873 301.430603 
L 168.049563 300.845506 
L 169.79023 301.068168 
L 171.58892 302.117165 
L 175.128278 305.316747 
L 176.926967 305.523404 
L 178.55159 305.371481 
L 180.35028 309.10384 
L 182.090948 309.093166 
L 183.889638 308.418916 
L 185.630305 307.589957 
L 189.227685 310.514286 
L 190.968352 310.224322 
L 192.767042 313.224836 
L 194.50771 315.660178 
L 196.3064 314.955965 
L 198.105089 313.244385 
L 199.729713 313.732778 
L 201.528402 313.9414 
L 203.26907 315.014208 
L 205.06776 314.971577 
L 208.607117 314.442911 
L 210.405807 311.321867 
L 212.146475 309.034277 
L 213.945164 307.364794 
L 215.685832 305.048506 
L 217.484522 302.957173 
L 219.283212 303.617704 
L 220.907835 303.808255 
L 222.706524 301.88534 
L 224.447192 301.407703 
L 226.245882 301.499944 
L 227.986549 304.694903 
L 229.785239 304.236765 
L 231.583929 302.199382 
L 233.324597 299.349223 
L 235.123286 298.093516 
L 236.863954 294.958675 
L 238.662644 291.986212 
L 240.461334 285.922256 
L 242.143979 286.043136 
L 243.942669 284.882004 
L 245.683336 282.265957 
L 247.482026 281.534405 
L 249.222694 282.833569 
L 251.021384 281.681641 
L 252.820073 279.64747 
L 254.560741 270.894944 
L 256.359431 270.261196 
L 258.100098 265.650559 
L 259.898788 250.277423 
L 261.697478 244.089785 
L 263.322101 243.980103 
L 265.120791 240.235566 
L 266.861458 235.333069 
L 268.660148 234.95568 
L 270.400816 244.611912 
L 272.199506 240.858702 
L 273.998195 239.531255 
L 275.738863 235.67662 
L 277.537553 233.43966 
L 279.27822 233.299495 
L 282.8756 240.363251 
L 284.500223 240.659299 
L 286.298913 240.573556 
L 288.03958 242.977745 
L 289.83827 239.322041 
L 291.578938 236.327765 
L 293.377628 232.111589 
L 295.176317 228.503879 
L 296.916985 225.649635 
L 298.715675 222.044292 
L 300.456342 222.218519 
L 302.255032 229.233551 
L 304.053722 229.156582 
L 305.678345 232.024671 
L 307.477035 229.111847 
L 309.217703 228.486367 
L 311.016392 223.442408 
L 312.75706 219.406383 
L 314.55575 219.381201 
L 316.35444 212.354769 
L 318.095107 208.134154 
L 319.893797 206.350339 
L 321.634465 204.148809 
L 323.433154 203.075528 
L 325.231844 200.587634 
L 326.914489 199.028711 
L 328.713179 199.620229 
L 330.453847 198.393545 
L 332.252537 196.074859 
L 333.993204 194.199067 
L 335.791894 192.597774 
L 337.590584 196.264212 
L 341.129941 196.560112 
L 342.870609 198.766167 
L 344.669299 201.489025 
L 346.467988 205.66711 
L 348.092612 210.75378 
L 349.891301 213.559143 
L 351.631969 213.06526 
L 353.430659 218.268031 
L 355.171326 232.969118 
L 356.970016 241.401511 
L 358.768706 244.68241 
L 360.509374 246.627403 
L 362.308063 242.262752 
L 364.048731 244.370932 
L 365.847421 248.764458 
L 367.646111 248.611438 
L 369.270734 246.589733 
L 371.069423 247.708594 
L 372.810091 248.346697 
L 374.608781 246.528189 
L 376.349448 246.424158 
L 378.148138 245.542419 
L 379.946828 244.787578 
L 381.687496 245.666531 
L 383.486185 243.612602 
L 385.226853 243.485835 
L 387.025543 241.535351 
L 388.824233 238.665063 
L 392.247546 242.751606 
L 393.988213 241.702447 
L 395.786903 245.817308 
L 397.52757 249.260938 
L 399.32626 250.983703 
L 401.12495 248.90881 
L 402.865618 249.325245 
L 404.664308 248.468145 
L 406.404975 251.874491 
L 408.203665 252.829683 
L 410.002355 251.363059 
L 411.685 247.746427 
L 413.48369 248.372475 
L 415.224357 246.031058 
L 417.023047 244.57502 
L 418.763715 242.27995 
L 420.562405 237.633716 
L 422.361094 235.58874 
L 424.101762 234.272986 
L 425.900452 233.185481 
L 427.641119 238.380402 
L 429.439809 246.270407 
L 431.238499 245.777753 
L 432.863122 246.529529 
L 434.661812 247.191413 
L 436.402479 244.45562 
L 438.201169 243.675885 
L 439.941837 241.626003 
L 441.740527 242.535351 
L 443.539217 240.588068 
L 445.279884 239.164615 
L 447.078574 241.46996 
L 448.819241 242.826738 
L 450.617931 244.419546 
L 452.416621 247.977716 
L 454.041244 255.123067 
L 455.839934 258.530636 
L 457.580602 260.134761 
L 459.379291 263.338017 
L 461.119959 264.120885 
L 462.918649 263.916506 
L 464.717339 264.429861 
L 466.458006 265.695618 
L 468.256696 269.049237 
L 469.997364 269.652082 
L 471.796053 265.906284 
L 473.594743 261.607794 
L 478.758724 251.006179 
L 480.557413 248.258047 
L 482.298081 241.912706 
L 484.096771 240.084285 
L 485.895461 236.226232 
L 487.636128 235.027095 
L 489.434818 235.669762 
L 491.175486 234.872142 
L 492.974175 234.55319 
L 494.772865 233.188072 
L 496.455511 230.659317 
L 498.2542 231.426075 
L 499.994868 229.279538 
L 501.793558 227.64496 
L 503.534225 225.281774 
L 505.332915 221.305311 
L 507.131605 219.939946 
L 508.872273 220.584214 
L 512.41163 222.456175 
L 514.21032 223.075172 
L 516.00901 226.799961 
L 517.633633 230.818093 
L 519.432322 239.080269 
L 521.17299 241.436602 
L 522.97168 242.547467 
L 524.712347 245.82177 
L 526.511037 246.136882 
L 528.309727 246.98359 
L 530.050395 248.680108 
L 531.849084 252.357562 
L 533.589752 253.32193 
L 535.388442 255.238672 
L 537.187132 262.000525 
L 538.811755 268.839389 
L 540.610445 277.282686 
L 542.351112 289.70315 
L 544.149802 292.946702 
L 545.89047 295.405945 
L 547.689159 291.912588 
L 549.487849 286.229746 
L 551.228517 293.350337 
L 553.027207 298.885943 
L 554.767874 295.377251 
L 556.566564 288.141859 
L 558.365254 286.291761 
L 559.989877 285.555295 
L 561.788567 288.759863 
L 563.529234 286.895109 
L 565.327924 288.811369 
L 567.068592 293.293645 
L 568.867281 296.00633 
L 570.665971 299.81989 
L 572.406639 302.416281 
L 574.205329 307.461093 
L 575.945996 306.558248 
L 577.744686 300.910927 
L 579.543376 297.92197 
L 581.226021 298.31857 
L 583.024711 298.474073 
L 584.765379 300.528667 
L 586.564068 301.546859 
L 588.304736 299.880025 
L 590.103426 298.582644 
L 593.642783 289.284941 
L 595.441473 291.102604 
L 597.182141 294.525321 
L 598.98083 292.87035 
L 600.77952 295.131158 
L 602.404143 293.348721 
L 604.202833 290.479456 
L 605.943501 290.507998 
L 607.74219 290.411002 
L 609.482858 289.059981 
L 611.281548 286.66162 
L 613.080238 283.957551 
L 614.820905 280.367826 
L 616.619595 278.766995 
L 618.360263 278.520733 
L 620.158952 278.023317 
L 621.957642 276.730106 
L 623.582265 275.757259 
L 625.380955 277.133822 
L 627.121623 278.729003 
L 628.920313 279.781949 
L 628.920313 279.781949 
" clip-path="url(#p06e47982c7)" style="fill: none; stroke: #6e1f1f; stroke-width: 1.4; stroke-linecap: round"/>
   </g>
   <g id="line2d_16">
    <path d="M 70.920313 214.37 
L 72.602958 216.298769 
L 74.401648 214.747735 
L 76.142315 213.728109 
L 77.941005 220.581688 
L 79.681673 217.294394 
L 85.01972 211.885448 
L 86.81841 209.833973 
L 88.559077 209.017376 
L 90.357767 202.368862 
L 92.156457 196.796466 
L 93.78108 198.670942 
L 95.57977 198.196853 
L 97.320437 202.153362 
L 99.119127 204.669964 
L 100.859795 206.093001 
L 102.658484 206.511637 
L 104.457174 204.235113 
L 106.197842 202.647627 
L 107.996532 199.731222 
L 109.737199 201.644313 
L 111.535889 210.960137 
L 113.334579 210.507733 
L 114.959202 209.330236 
L 116.757892 212.452857 
L 118.498559 212.638879 
L 123.836607 204.463484 
L 125.635296 201.08985 
L 127.375964 197.565328 
L 129.174654 198.70617 
L 130.915321 198.371124 
L 132.714011 198.2964 
L 134.512701 195.924002 
L 137.936014 193.608697 
L 139.676681 196.089828 
L 141.475371 189.867141 
L 143.216039 185.043372 
L 145.014729 195.624058 
L 146.813418 210.237559 
L 148.554086 208.943317 
L 150.352776 205.957313 
L 152.093443 206.337044 
L 153.892133 206.082956 
L 155.690823 202.957727 
L 157.373468 201.778838 
L 159.172158 198.019398 
L 162.711516 216.832294 
L 164.452183 218.430254 
L 166.250873 215.087474 
L 168.049563 212.343267 
L 169.79023 210.93295 
L 171.58892 211.128162 
L 173.329588 212.177994 
L 175.128278 213.665611 
L 176.926967 214.069548 
L 178.55159 213.403087 
L 180.35028 220.616565 
L 182.090948 220.581827 
L 183.889638 219.682466 
L 185.630305 219.060582 
L 187.428995 223.626498 
L 189.227685 228.602679 
L 190.968352 229.958328 
L 192.767042 237.087828 
L 194.50771 243.219125 
L 196.3064 243.785616 
L 198.105089 242.246377 
L 199.729713 244.869276 
L 201.528402 246.906197 
L 203.26907 251.062316 
L 206.808427 255.897004 
L 208.607117 258.000256 
L 210.405807 255.179259 
L 212.146475 253.849676 
L 213.945164 253.514416 
L 217.484522 249.554217 
L 220.907835 251.337355 
L 222.706524 249.594945 
L 224.447192 250.643187 
L 226.245882 252.364956 
L 227.986549 258.351164 
L 229.785239 258.454604 
L 231.583929 256.237133 
L 233.324597 252.808729 
L 235.123286 251.668658 
L 236.863954 247.472382 
L 238.662644 243.982322 
L 240.461334 236.715996 
L 242.143979 237.975048 
L 243.942669 237.181374 
L 245.683336 234.131066 
L 247.482026 233.917319 
L 249.222694 236.347938 
L 251.021384 235.784045 
L 252.820073 233.969734 
L 254.560741 223.104313 
L 256.359431 223.301134 
L 258.100098 218.459677 
L 259.898788 198.565211 
L 261.697478 191.249307 
L 263.322101 191.256218 
L 265.120791 186.229717 
L 266.861458 178.611547 
L 268.660148 177.169935 
L 270.400816 188.745689 
L 272.199506 182.682448 
L 273.998195 180.996281 
L 275.738863 176.997047 
L 277.537553 174.093129 
L 279.27822 172.392454 
L 282.8756 176.392468 
L 284.500223 174.666749 
L 286.298913 173.227629 
L 288.03958 176.817712 
L 289.83827 171.977421 
L 291.578938 168.008853 
L 295.176317 156.112897 
L 296.916985 151.621868 
L 298.715675 145.434912 
L 300.456342 145.24778 
L 302.255032 155.152708 
L 304.053722 153.471565 
L 305.678345 156.778168 
L 307.477035 150.855642 
L 309.217703 148.122522 
L 311.016392 137.787932 
L 312.75706 129.774844 
L 314.55575 126.667747 
L 316.35444 114.049762 
L 318.095107 104.589477 
L 319.893797 99.5217 
L 321.634465 93.401963 
L 323.433154 88.908403 
L 326.914489 82.163984 
L 328.713179 81.871844 
L 330.453847 76.874682 
L 332.252537 69.653001 
L 333.993204 63.411781 
L 335.791894 58.174809 
L 337.590584 61.508637 
L 339.331251 59.095506 
L 341.129941 56.961204 
L 342.870609 59.224213 
L 344.669299 62.726386 
L 346.467988 68.939419 
L 348.092612 76.758983 
L 349.891301 80.578302 
L 351.631969 77.812539 
L 353.430659 83.54775 
L 355.171326 105.681415 
L 356.970016 117.997949 
L 358.768706 122.663495 
L 360.509374 125.580154 
L 362.308063 117.578117 
L 364.048731 121.392431 
L 365.847421 129.688223 
L 367.646111 130.145992 
L 369.270734 127.061133 
L 371.069423 129.130737 
L 372.810091 129.419431 
L 374.608781 125.03094 
L 376.349448 123.897021 
L 378.148138 122.304721 
L 379.946828 121.063742 
L 381.687496 122.283864 
L 383.486185 117.944338 
L 385.226853 117.134039 
L 387.025543 113.574131 
L 388.824233 107.816988 
L 392.247546 113.992252 
L 393.988213 111.140182 
L 395.786903 117.367286 
L 397.52757 122.373528 
L 399.32626 124.716314 
L 401.12495 120.34093 
L 402.865618 120.579289 
L 404.664308 118.477573 
L 406.404975 124.930735 
L 408.203665 127.448225 
L 410.002355 127.159235 
L 411.685 122.592163 
L 413.48369 125.873613 
L 415.224357 124.411221 
L 417.023047 125.457999 
L 418.763715 125.35018 
L 420.562405 121.498499 
L 422.361094 121.689357 
L 425.900452 124.099701 
L 427.641119 135.440758 
L 429.439809 150.624936 
L 431.238499 151.357105 
L 434.661812 157.514455 
L 436.402479 155.416357 
L 438.201169 156.306064 
L 439.941837 154.83391 
L 441.740527 158.048339 
L 445.279884 155.472257 
L 447.078574 159.145456 
L 448.819241 161.100706 
L 450.617931 163.536282 
L 452.416621 167.55109 
L 454.041244 177.564624 
L 455.839934 182.603015 
L 457.580602 185.051101 
L 459.379291 189.615313 
L 461.119959 189.864087 
L 462.918649 189.296641 
L 464.717339 189.623185 
L 466.458006 190.800138 
L 468.256696 194.302526 
L 469.997364 193.68444 
L 471.796053 186.658042 
L 473.594743 180.371359 
L 475.219366 176.314997 
L 477.018056 172.517689 
L 478.758724 168.330441 
L 480.557413 165.365279 
L 482.298081 156.262887 
L 484.096771 153.653604 
L 485.895461 147.586365 
L 487.636128 145.692018 
L 489.434818 147.290703 
L 491.175486 147.033944 
L 492.974175 147.888701 
L 494.772865 146.672493 
L 496.455511 143.804342 
L 498.2542 145.891592 
L 499.994868 143.983571 
L 501.793558 143.133057 
L 503.534225 141.408994 
L 505.332915 136.822424 
L 507.131605 135.676138 
L 508.872273 137.426836 
L 512.41163 141.986406 
L 514.21032 143.474972 
L 516.00901 147.557935 
L 517.633633 152.465309 
L 519.432322 163.952079 
L 521.17299 166.960418 
L 522.97168 167.960652 
L 524.712347 171.677528 
L 526.511037 170.462871 
L 528.309727 169.893226 
L 530.050395 170.762149 
L 531.849084 174.815138 
L 533.589752 174.819742 
L 535.388442 176.712848 
L 537.187132 189.488083 
L 540.610445 216.768572 
L 542.351112 237.440343 
L 544.149802 244.46901 
L 545.89047 249.910003 
L 547.689159 246.236472 
L 549.487849 239.426867 
L 551.228517 250.679014 
L 553.027207 259.778059 
L 554.767874 256.459747 
L 556.566564 248.153145 
L 558.365254 244.876092 
L 559.989877 242.867375 
L 561.788567 246.013822 
L 563.529234 241.788787 
L 565.327924 242.722488 
L 567.068592 247.488923 
L 568.867281 249.88022 
L 570.665971 253.970073 
L 572.406639 256.29409 
L 574.205329 262.411165 
L 575.945996 259.979261 
L 577.744686 250.656932 
L 579.543376 248.077863 
L 581.226021 250.494034 
L 583.024711 251.992148 
L 584.765379 255.65119 
L 586.564068 257.524677 
L 588.304736 255.757656 
L 590.103426 254.771109 
L 593.642783 244.707777 
L 595.441473 249.334157 
L 597.182141 255.760255 
L 598.98083 254.970682 
L 600.77952 258.619866 
L 602.404143 256.741931 
L 604.202833 253.057073 
L 607.74219 252.800817 
L 609.482858 251.457902 
L 613.080238 246.01582 
L 614.820905 241.886073 
L 616.619595 240.313461 
L 618.360263 240.198416 
L 620.158952 239.401372 
L 623.582265 236.199516 
L 625.380955 237.4151 
L 627.121623 238.447373 
L 628.920313 238.626832 
L 628.920313 238.626832 
" clip-path="url(#p06e47982c7)" style="fill: none; stroke: #2e4a3f; stroke-width: 1.4; stroke-linecap: round"/>
   </g>
   <g id="line2d_17">
    <path d="M 43.020313 171.176498 
L 656.820313 171.176498 
" clip-path="url(#p06e47982c7)" style="fill: none; stroke-dasharray: 2.96,1.28; stroke-dashoffset: 0; stroke: #948d82; stroke-opacity: 0.8; stroke-width: 0.8"/>
   </g>
   <g id="line2d_18">
    <path d="M 238.720666 332.64 
L 238.720666 27.72 
" clip-path="url(#p06e47982c7)" style="fill: none; stroke-dasharray: 0.7,1.155; stroke-dashoffset: 0; stroke: #948d82; stroke-opacity: 0.6; stroke-width: 0.7"/>
   </g>
   <g id="line2d_19">
    <path d="M 493.032198 332.64 
L 493.032198 27.72 
" clip-path="url(#p06e47982c7)" style="fill: none; stroke-dasharray: 0.7,1.155; stroke-dashoffset: 0; stroke: #948d82; stroke-opacity: 0.6; stroke-width: 0.7"/>
   </g>
   <g id="line2d_20">
    <path d="M 535.446464 332.64 
L 535.446464 27.72 
" clip-path="url(#p06e47982c7)" style="fill: none; stroke-dasharray: 0.7,1.155; stroke-dashoffset: 0; stroke: #948d82; stroke-opacity: 0.6; stroke-width: 0.7"/>
   </g>
   <g id="patch_3">
    <path d="M 43.020313 332.64 
L 43.020313 27.72 
" style="fill: none; stroke: #1a1814; stroke-linejoin: miter; stroke-linecap: square"/>
   </g>
   <g id="patch_4">
    <path d="M 43.020313 332.64 
L 656.820313 332.64 
" style="fill: none; stroke: #1a1814; stroke-linejoin: miter; stroke-linecap: square"/>
   </g>
   <g id="text_17">
    <text style="font-size: 9px; font-family: 'IBM Plex Mono'; text-anchor: start; fill: #6b655c" x="88.559077" y="161.979422" transform="rotate(-0 88.559077 161.979422)">NAR affordability threshold (HAI = 100)</text>
   </g>
   <g id="text_18">
    <text style="font-weight: 600; font-size: 12px; font-family: 'IBM Plex Sans', 'Helvetica Neue', 'Arial', 'DejaVu Sans', sans-serif; text-anchor: middle; fill: #1a1814" x="349.920313" y="12.72" transform="rotate(-0 349.920313 12.72)">Archetype A: HAI Through Three Cycles — San Francisco vs. Seattle (shaded = ±1 rolling-12mo SD)</text>
   </g>
   <g id="legend_1">
    <g id="line2d_21">
     <path d="M 539.621875 40.62 
L 549.621875 40.62 
L 559.621875 40.62 
" style="fill: none; stroke: #6e1f1f; stroke-width: 1.4; stroke-linecap: round"/>
    </g>
    <g id="text_19">
     <text style="font-size: 10px; font-family: 'IBM Plex Sans', 'Helvetica Neue', 'Arial', 'DejaVu Sans', sans-serif; text-anchor: start; fill: #3c3833" x="567.621875" y="44.12" transform="rotate(-0 567.621875 44.12)">San Francisco, CA</text>
    </g>
    <g id="line2d_22">
     <path d="M 539.621875 55.02 
L 549.621875 55.02 
L 559.621875 55.02 
" style="fill: none; stroke: #2e4a3f; stroke-width: 1.4; stroke-linecap: round"/>
    </g>
    <g id="text_20">
     <text style="font-size: 10px; font-family: 'IBM Plex Sans', 'Helvetica Neue', 'Arial', 'DejaVu Sans', sans-serif; text-anchor: start; fill: #3c3833" x="567.621875" y="58.52" transform="rotate(-0 567.621875 58.52)">Seattle, WA</text>
    </g>
   </g>
  </g>
 </g>
 <defs>
  <clipPath id="p06e47982c7">
   <rect x="43.020313" y="27.72" width="613.8" height="304.92"/>
  </clipPath>
 </defs>
</svg>
