<?xml version="1.0" encoding="utf-8" standalone="no"?>
<!DOCTYPE svg PUBLIC "-//W3C//DTD SVG 1.1//EN"
  "http://www.w3.org/Graphics/SVG/1.1/DTD/svg11.dtd">
<svg xmlns:xlink="http://www.w3.org/1999/xlink" width="663.163594pt" height="339.71125pt" viewBox="0 0 663.163594 339.71125" xmlns="http://www.w3.org/2000/svg" version="1.1">
 <metadata>
  <rdf:RDF xmlns:dc="http://purl.org/dc/elements/1.1/" xmlns:cc="http://creativecommons.org/ns#" xmlns:rdf="http://www.w3.org/1999/02/22-rdf-syntax-ns#">
   <cc:Work>
    <dc:type rdf:resource="http://purl.org/dc/dcmitype/StillImage"/>
    <dc:date>2026-07-08T15:36:05.548904</dc:date>
    <dc:format>image/svg+xml</dc:format>
    <dc:creator>
     <cc:Agent>
      <dc:title>Matplotlib v3.10.9, https://matplotlib.org/</dc:title>
     </cc:Agent>
    </dc:creator>
   </cc:Work>
  </rdf:RDF>
 </metadata>
 <defs>
  <style type="text/css">*{stroke-linejoin: round; stroke-linecap: butt}</style>
 </defs>
 <g id="figure_1">
  <g id="patch_1">
   <path d="M 0 339.71125 
L 663.163594 339.71125 
L 663.163594 0 
L 0 0 
L 0 339.71125 
z
" style="fill: none"/>
  </g>
  <g id="axes_1">
   <g id="patch_2">
    <path d="M 45.763594 304.75125 
L 659.563594 304.75125 
L 659.563594 27.55125 
L 45.763594 27.55125 
L 45.763594 304.75125 
z
" style="fill: none"/>
   </g>
   <g id="matplotlib.axis_1">
    <g id="xtick_1">
     <g id="line2d_1">
      <defs>
       <path id="mbb2fa2b972" d="M 0 0 
L 0 4 
" style="stroke: #1a1814; stroke-width: 0.8"/>
      </defs>
      <g>
       <use xlink:href="#mbb2fa2b972" x="97.544323" y="304.75125" style="fill: #1a1814; stroke: #1a1814; stroke-width: 0.8"/>
      </g>
     </g>
     <g id="text_1">
      <text style="font-size: 9px; font-family: 'IBM Plex Sans', 'Helvetica Neue', 'Arial', 'DejaVu Sans', sans-serif; text-anchor: middle; fill: #6b655c" x="97.544323" y="318.91125" transform="rotate(-0 97.544323 318.91125)">2004</text>
     </g>
    </g>
    <g id="xtick_2">
     <g id="line2d_2">
      <g>
       <use xlink:href="#mbb2fa2b972" x="192.871498" y="304.75125" style="fill: #1a1814; stroke: #1a1814; stroke-width: 0.8"/>
      </g>
     </g>
     <g id="text_2">
      <text style="font-size: 9px; font-family: 'IBM Plex Sans', 'Helvetica Neue', 'Arial', 'DejaVu Sans', sans-serif; text-anchor: middle; fill: #6b655c" x="192.871498" y="318.91125" transform="rotate(-0 192.871498 318.91125)">2008</text>
     </g>
    </g>
    <g id="xtick_3">
     <g id="line2d_3">
      <g>
       <use xlink:href="#mbb2fa2b972" x="288.198673" y="304.75125" style="fill: #1a1814; stroke: #1a1814; stroke-width: 0.8"/>
      </g>
     </g>
     <g id="text_3">
      <text style="font-size: 9px; font-family: 'IBM Plex Sans', 'Helvetica Neue', 'Arial', 'DejaVu Sans', sans-serif; text-anchor: middle; fill: #6b655c" x="288.198673" y="318.91125" transform="rotate(-0 288.198673 318.91125)">2012</text>
     </g>
    </g>
    <g id="xtick_4">
     <g id="line2d_4">
      <g>
       <use xlink:href="#mbb2fa2b972" x="383.525848" y="304.75125" style="fill: #1a1814; stroke: #1a1814; stroke-width: 0.8"/>
      </g>
     </g>
     <g id="text_4">
      <text style="font-size: 9px; font-family: 'IBM Plex Sans', 'Helvetica Neue', 'Arial', 'DejaVu Sans', sans-serif; text-anchor: middle; fill: #6b655c" x="383.525848" y="318.91125" transform="rotate(-0 383.525848 318.91125)">2016</text>
     </g>
    </g>
    <g id="xtick_5">
     <g id="line2d_5">
      <g>
       <use xlink:href="#mbb2fa2b972" x="478.853023" y="304.75125" style="fill: #1a1814; stroke: #1a1814; stroke-width: 0.8"/>
      </g>
     </g>
     <g id="text_5">
      <text style="font-size: 9px; font-family: 'IBM Plex Sans', 'Helvetica Neue', 'Arial', 'DejaVu Sans', sans-serif; text-anchor: middle; fill: #6b655c" x="478.853023" y="318.91125" transform="rotate(-0 478.853023 318.91125)">2020</text>
     </g>
    </g>
    <g id="xtick_6">
     <g id="line2d_6">
      <g>
       <use xlink:href="#mbb2fa2b972" x="574.180198" y="304.75125" style="fill: #1a1814; stroke: #1a1814; stroke-width: 0.8"/>
      </g>
     </g>
     <g id="text_6">
      <text style="font-size: 9px; font-family: 'IBM Plex Sans', 'Helvetica Neue', 'Arial', 'DejaVu Sans', sans-serif; text-anchor: middle; fill: #6b655c" x="574.180198" y="318.91125" transform="rotate(-0 574.180198 318.91125)">2024</text>
     </g>
    </g>
    <g id="text_7">
     <text style="font-size: 10px; font-family: 'IBM Plex Sans', 'Helvetica Neue', 'Arial', 'DejaVu Sans', sans-serif; text-anchor: middle; fill: #1a1814" x="352.663594" y="334.11125" transform="rotate(-0 352.663594 334.11125)">Year</text>
    </g>
   </g>
   <g id="matplotlib.axis_2">
    <g id="ytick_1">
     <g id="line2d_7">
      <defs>
       <path id="me7508a9e86" d="M 0 0 
L -4 0 
" style="stroke: #1a1814; stroke-width: 0.8"/>
      </defs>
      <g>
       <use xlink:href="#me7508a9e86" x="45.763594" y="263.749539" style="fill: #1a1814; stroke: #1a1814; stroke-width: 0.8"/>
      </g>
     </g>
     <g id="text_8">
      <text style="font-size: 9px; font-family: 'IBM Plex Sans', 'Helvetica Neue', 'Arial', 'DejaVu Sans', sans-serif; text-anchor: end; fill: #6b655c" x="38.263594" y="267.079539" transform="rotate(-0 38.263594 267.079539)">2%</text>
     </g>
    </g>
    <g id="ytick_2">
     <g id="line2d_8">
      <g>
       <use xlink:href="#me7508a9e86" x="45.763594" y="220.515097" style="fill: #1a1814; stroke: #1a1814; stroke-width: 0.8"/>
      </g>
     </g>
     <g id="text_9">
      <text style="font-size: 9px; font-family: 'IBM Plex Sans', 'Helvetica Neue', 'Arial', 'DejaVu Sans', sans-serif; text-anchor: end; fill: #6b655c" x="38.263594" y="223.845097" transform="rotate(-0 38.263594 223.845097)">4%</text>
     </g>
    </g>
    <g id="ytick_3">
     <g id="line2d_9">
      <g>
       <use xlink:href="#me7508a9e86" x="45.763594" y="177.280654" style="fill: #1a1814; stroke: #1a1814; stroke-width: 0.8"/>
      </g>
     </g>
     <g id="text_10">
      <text style="font-size: 9px; font-family: 'IBM Plex Sans', 'Helvetica Neue', 'Arial', 'DejaVu Sans', sans-serif; text-anchor: end; fill: #6b655c" x="38.263594" y="180.610654" transform="rotate(-0 38.263594 180.610654)">6%</text>
     </g>
    </g>
    <g id="ytick_4">
     <g id="line2d_10">
      <g>
       <use xlink:href="#me7508a9e86" x="45.763594" y="134.046212" style="fill: #1a1814; stroke: #1a1814; stroke-width: 0.8"/>
      </g>
     </g>
     <g id="text_11">
      <text style="font-size: 9px; font-family: 'IBM Plex Sans', 'Helvetica Neue', 'Arial', 'DejaVu Sans', sans-serif; text-anchor: end; fill: #6b655c" x="38.263594" y="137.376212" transform="rotate(-0 38.263594 137.376212)">8%</text>
     </g>
    </g>
    <g id="ytick_5">
     <g id="line2d_11">
      <g>
       <use xlink:href="#me7508a9e86" x="45.763594" y="90.81177" style="fill: #1a1814; stroke: #1a1814; stroke-width: 0.8"/>
      </g>
     </g>
     <g id="text_12">
      <text style="font-size: 9px; font-family: 'IBM Plex Sans', 'Helvetica Neue', 'Arial', 'DejaVu Sans', sans-serif; text-anchor: end; fill: #6b655c" x="38.263594" y="94.14177" transform="rotate(-0 38.263594 94.14177)">10%</text>
     </g>
    </g>
    <g id="ytick_6">
     <g id="line2d_12">
      <g>
       <use xlink:href="#me7508a9e86" x="45.763594" y="47.577327" style="fill: #1a1814; stroke: #1a1814; stroke-width: 0.8"/>
      </g>
     </g>
     <g id="text_13">
      <text style="font-size: 9px; font-family: 'IBM Plex Sans', 'Helvetica Neue', 'Arial', 'DejaVu Sans', sans-serif; text-anchor: end; fill: #6b655c" x="38.263594" y="50.907327" transform="rotate(-0 38.263594 50.907327)">12%</text>
     </g>
    </g>
    <g id="text_14">
     <text style="font-size: 10px; font-family: 'IBM Plex Sans', 'Helvetica Neue', 'Arial', 'DejaVu Sans', sans-serif; text-anchor: middle; fill: #1a1814" x="11" y="166.15125" transform="rotate(-90 11 166.15125)">Rolling SD of YoY Return</text>
    </g>
   </g>
   <g id="line2d_13">
    <path d="M 73.663594 157.67248 
L 75.686279 161.758678 
L 77.51322 168.809947 
L 79.535904 179.273848 
L 85.473463 217.794918 
L 89.518832 240.846282 
L 91.476269 251.259125 
L 93.498954 260.192824 
L 95.456391 266.730764 
L 97.479076 269.922803 
L 99.50176 270.592221 
L 101.393949 269.870882 
L 105.374071 267.185254 
L 107.396756 265.453157 
L 109.354192 262.042595 
L 111.376877 256.433165 
L 113.399562 249.774355 
L 115.356999 242.775962 
L 119.33712 229.319232 
L 125.209431 209.549759 
L 127.232116 204.336164 
L 129.189553 199.965703 
L 131.212237 196.678922 
L 133.169674 194.929323 
L 135.192359 195.427865 
L 137.215044 198.221416 
L 139.172481 203.079697 
L 141.195165 209.382536 
L 143.152602 217.137147 
L 147.197972 234.570211 
L 149.024913 241.740286 
L 151.047597 245.476446 
L 153.005034 244.413058 
L 155.027719 237.447396 
L 156.985156 226.010632 
L 166.968084 159.742171 
L 168.990769 149.522008 
L 171.013453 141.90051 
L 172.840394 136.14314 
L 174.863079 131.69209 
L 176.820516 128.813929 
L 178.843201 127.906149 
L 180.800638 129.045667 
L 182.823322 131.858677 
L 184.846007 136.194829 
L 186.803444 142.126827 
L 188.826129 149.746702 
L 192.80625 167.034366 
L 200.701246 198.971322 
L 202.723931 205.278803 
L 204.681367 209.945943 
L 206.704052 213.063293 
L 208.726737 214.73875 
L 210.684174 214.652517 
L 212.706858 213.239619 
L 214.664295 211.183294 
L 216.68698 209.861717 
L 218.709665 209.18126 
L 220.536606 208.862437 
L 222.559291 208.723283 
L 224.516728 208.990245 
L 226.539412 210.225148 
L 228.496849 212.8284 
L 230.519534 217.008862 
L 232.542219 222.351684 
L 234.499655 228.866107 
L 238.479777 243.571902 
L 240.502462 247.343621 
L 242.525147 244.540069 
L 244.352088 236.627925 
L 246.374772 225.836258 
L 250.354894 200.596979 
L 252.312331 188.263402 
L 254.335016 177.872588 
L 256.3577 168.784156 
L 258.315137 160.915997 
L 260.337822 155.158366 
L 262.295259 152.791216 
L 264.317944 153.468785 
L 266.340628 156.699376 
L 268.167569 161.723691 
L 270.190254 168.171984 
L 272.147691 175.809199 
L 278.150497 200.544196 
L 282.130619 215.574471 
L 284.153304 222.011416 
L 286.110741 225.829771 
L 288.133425 226.931639 
L 292.048299 225.148211 
L 294.070984 224.832938 
L 296.028421 225.68382 
L 298.051105 228.093719 
L 300.008542 231.04175 
L 302.031227 232.868508 
L 304.053912 232.322253 
L 306.011349 228.550609 
L 308.034033 219.138709 
L 309.99147 204.032123 
L 312.014155 185.140191 
L 314.03684 164.191588 
L 315.863781 143.321431 
L 319.843902 103.887591 
L 321.866587 85.985596 
L 323.824024 69.924898 
L 325.846709 56.242553 
L 327.869394 46.679875 
L 329.82683 41.237227 
L 331.849515 40.15125 
L 333.806952 42.786795 
L 335.829637 48.793529 
L 337.852322 58.244513 
L 339.679263 70.475231 
L 341.701947 85.751221 
L 343.659384 103.453076 
L 349.662191 162.159847 
L 351.684875 178.921386 
L 353.642312 192.229247 
L 355.664997 200.601284 
L 357.622434 204.693327 
L 359.645119 205.269173 
L 361.667803 203.382642 
L 363.494744 200.635915 
L 365.517429 197.954401 
L 367.474866 195.888363 
L 369.497551 195.391827 
L 371.454988 197.565433 
L 373.477672 202.919855 
L 375.500357 210.327672 
L 379.480479 227.690623 
L 381.437916 236.615123 
L 383.4606 245.180066 
L 387.375474 260.262457 
L 391.355596 274.136193 
L 393.37828 279.248514 
L 395.335717 279.881084 
L 397.358402 275.824459 
L 399.381087 269.418215 
L 401.338524 261.370397 
L 405.318645 243.739865 
L 407.34133 235.952306 
L 411.190956 222.614853 
L 413.213641 217.039503 
L 415.171077 212.629666 
L 417.193762 209.593757 
L 419.151199 208.083339 
L 421.173884 208.165438 
L 423.196568 209.809574 
L 425.154005 212.869352 
L 427.17669 217.164548 
L 431.156812 227.459181 
L 433.179496 233.004325 
L 435.006438 238.688929 
L 437.029122 243.931653 
L 438.986559 247.845667 
L 441.009244 248.913445 
L 442.966681 247.55029 
L 447.01205 242.260456 
L 448.969487 240.649712 
L 450.992172 240.480786 
L 452.949609 241.758037 
L 454.972293 243.676663 
L 456.994978 245.253639 
L 458.821919 245.386326 
L 460.844604 243.55216 
L 462.802041 239.378593 
L 464.824726 232.710584 
L 468.804847 216.455565 
L 470.827532 209.353456 
L 472.784969 203.287042 
L 474.807654 198.085589 
L 476.76509 194.148155 
L 478.787775 191.757893 
L 480.81046 191.100877 
L 482.702649 192.205445 
L 484.725334 194.944589 
L 486.682771 198.95258 
L 488.705455 204.413534 
L 490.662892 211.204383 
L 492.685577 219.286834 
L 494.708262 228.548796 
L 498.688383 248.364387 
L 500.64582 255.83276 
L 502.668505 258.368654 
L 504.69119 255.29161 
L 506.518131 248.76647 
L 508.540815 241.102466 
L 510.498252 232.668774 
L 512.520937 222.505136 
L 516.501059 196.723718 
L 518.523743 185.904472 
L 520.48118 179.497247 
L 522.503865 177.221997 
L 524.461302 177.832794 
L 526.483987 180.152503 
L 528.506671 182.859143 
L 530.333612 184.682096 
L 532.356297 184.913051 
L 534.313734 184.848939 
L 536.336419 186.739396 
L 538.293856 192.089078 
L 542.339225 208.875224 
L 544.296662 213.9225 
L 546.319347 213.483865 
L 548.276784 207.098306 
L 550.299468 195.954794 
L 552.322153 179.700099 
L 556.171779 134.65358 
L 558.129216 110.739823 
L 560.151901 90.231218 
L 562.109337 75.701409 
L 564.132022 68.419638 
L 566.154707 67.351802 
L 568.112144 70.137079 
L 570.134829 74.699845 
L 572.092265 80.026143 
L 574.11495 85.859155 
L 576.137635 92.92585 
L 578.029824 102.446095 
L 580.052509 115.574214 
L 584.03263 147.272481 
L 585.990067 161.013164 
L 588.012752 170.942591 
L 590.035437 177.1121 
L 591.992873 180.290049 
L 594.015558 181.656018 
L 595.972995 181.580313 
L 597.99568 180.47998 
L 600.018365 179.026719 
L 601.845306 179.198816 
L 603.86799 183.772184 
L 605.825427 193.424794 
L 607.848112 207.057292 
L 609.805549 222.304374 
L 611.828234 235.854055 
L 613.850918 244.143217 
L 615.808355 246.268377 
L 617.83104 245.15073 
L 619.788477 243.101745 
L 621.811162 241.150269 
L 623.833846 239.436064 
L 625.660787 238.273218 
L 627.683472 238.238484 
L 629.640909 239.907298 
L 631.663594 243.606786 
L 631.663594 243.606786 
" clip-path="url(#p912203f0b7)" style="fill: none; stroke: #6e1f1f; stroke-width: 1.4; stroke-linecap: round"/>
   </g>
   <g id="line2d_14">
    <path d="M 73.663594 285.889928 
L 75.686279 284.850669 
L 77.51322 284.250906 
L 79.535904 284.705506 
L 81.493341 285.594235 
L 83.516026 286.692625 
L 85.473463 287.890438 
L 89.518832 289.739115 
L 91.476269 290.403401 
L 93.498954 290.931322 
L 95.456391 291.243925 
L 97.479076 290.99588 
L 99.50176 289.905158 
L 103.416634 285.712934 
L 107.396756 280.806227 
L 109.354192 277.729514 
L 115.356999 267.782254 
L 119.33712 261.990135 
L 121.359805 259.416395 
L 123.38249 257.087402 
L 125.209431 255.495742 
L 131.212237 251.238247 
L 133.169674 249.539431 
L 135.192359 247.358176 
L 137.215044 244.248873 
L 141.195165 236.868141 
L 143.152602 233.52026 
L 145.175287 230.532425 
L 149.024913 226.861626 
L 151.047597 225.929708 
L 153.005034 225.406644 
L 155.027719 225.650998 
L 156.985156 226.663595 
L 159.007841 228.596161 
L 161.030525 231.730447 
L 162.987962 235.792809 
L 165.010647 240.563528 
L 166.968084 245.469346 
L 168.990769 249.943849 
L 171.013453 253.283957 
L 172.840394 255.191744 
L 174.863079 255.420771 
L 176.820516 253.765088 
L 178.843201 250.143134 
L 180.800638 244.404434 
L 182.823322 236.483582 
L 186.803444 218.339274 
L 190.783566 199.7965 
L 192.80625 191.276945 
L 194.828935 183.730994 
L 196.721124 177.134098 
L 202.723931 158.604678 
L 204.681367 152.850387 
L 210.684174 138.464627 
L 212.706858 134.936363 
L 214.664295 132.805248 
L 216.68698 131.526924 
L 218.709665 131.091714 
L 220.536606 131.413641 
L 222.559291 133.08638 
L 224.516728 135.940941 
L 226.539412 140.053215 
L 228.496849 145.300262 
L 230.519534 151.503064 
L 232.542219 159.106705 
L 234.499655 168.18902 
L 236.52234 178.24109 
L 240.502462 200.360507 
L 242.525147 212.826739 
L 244.352088 225.763462 
L 246.374772 237.793913 
L 248.332209 246.138941 
L 250.354894 249.003366 
L 252.312331 246.746676 
L 258.315137 234.443822 
L 260.337822 232.006435 
L 262.295259 230.840113 
L 264.317944 230.688344 
L 266.340628 231.179238 
L 268.167569 232.318191 
L 270.190254 234.201982 
L 272.147691 237.157506 
L 276.127813 244.278911 
L 278.150497 247.33899 
L 280.173182 249.919048 
L 282.130619 251.65185 
L 284.153304 252.57687 
L 286.110741 252.802235 
L 288.133425 252.434877 
L 290.15611 251.926514 
L 294.070984 250.473752 
L 296.028421 250.2348 
L 298.051105 251.879616 
L 300.008542 255.889363 
L 302.031227 260.888448 
L 304.053912 264.869622 
L 306.011349 265.763268 
L 308.034033 261.356504 
L 309.99147 251.822588 
L 312.014155 238.943334 
L 314.03684 224.241776 
L 321.866587 156.065203 
L 323.824024 140.512943 
L 325.846709 127.217795 
L 327.869394 116.199013 
L 329.82683 107.709993 
L 331.849515 101.681734 
L 333.806952 98.231445 
L 335.829637 97.165525 
L 337.852322 98.58015 
L 339.679263 102.730627 
L 341.701947 109.655624 
L 343.659384 119.627837 
L 345.682069 131.881655 
L 349.662191 161.572167 
L 355.664997 210.189096 
L 357.622434 224.216861 
L 359.645119 235.911213 
L 361.667803 244.778006 
L 363.494744 250.361223 
L 365.517429 252.734551 
L 367.474866 252.734732 
L 369.497551 251.87677 
L 371.454988 251.549081 
L 373.477672 252.353668 
L 375.500357 254.280428 
L 377.457794 257.033865 
L 379.480479 260.137761 
L 381.437916 262.815912 
L 383.4606 264.692356 
L 385.483285 265.300412 
L 387.375474 264.886305 
L 389.398159 263.726188 
L 391.355596 262.022905 
L 393.37828 259.925187 
L 395.335717 257.573352 
L 397.358402 255.572872 
L 399.381087 254.433798 
L 401.338524 254.476251 
L 403.361208 255.758002 
L 405.318645 258.069557 
L 407.34133 261.200985 
L 409.364015 264.745715 
L 411.190956 268.321538 
L 415.171077 275.493721 
L 417.193762 279.469217 
L 419.151199 283.568182 
L 421.173884 287.326988 
L 423.196568 290.084337 
L 425.154005 291.644643 
L 427.17669 292.15125 
L 429.134127 292.099598 
L 441.009244 290.573037 
L 447.01205 290.677078 
L 448.969487 290.257305 
L 450.992172 288.431661 
L 452.949609 284.410169 
L 454.972293 277.804738 
L 456.994978 268.840343 
L 460.844604 247.127165 
L 462.802041 236.038624 
L 464.824726 225.220267 
L 466.782163 215.458279 
L 468.804847 206.654757 
L 470.827532 199.427915 
L 472.784969 193.938905 
L 474.807654 190.599514 
L 476.76509 189.272756 
L 478.787775 189.753884 
L 480.81046 191.830861 
L 482.702649 195.2378 
L 484.725334 199.824787 
L 486.682771 205.357937 
L 488.705455 211.896186 
L 490.662892 218.892566 
L 494.708262 233.940229 
L 496.665699 239.548506 
L 498.688383 241.255735 
L 500.64582 238.12141 
L 502.668505 231.298019 
L 504.69119 222.418762 
L 506.518131 213.006462 
L 510.498252 194.47102 
L 512.520937 184.57875 
L 514.478374 173.927863 
L 516.501059 164.167083 
L 518.523743 157.955863 
L 520.48118 156.672488 
L 522.503865 159.211588 
L 524.461302 164.121259 
L 528.506671 175.763839 
L 530.333612 180.774351 
L 534.313734 188.420502 
L 536.336419 193.533582 
L 538.293856 201.480307 
L 542.339225 221.885534 
L 544.296662 227.005055 
L 546.319347 225.837876 
L 548.276784 218.95452 
L 550.299468 207.853145 
L 552.322153 191.451664 
L 554.149094 169.977403 
L 556.171779 144.345489 
L 558.129216 117.959542 
L 560.151901 94.340045 
L 562.109337 76.822065 
L 564.132022 67.101922 
L 566.154707 63.975786 
L 568.112144 64.846243 
L 570.134829 67.476369 
L 572.092265 70.855668 
L 574.11495 75.047629 
L 576.137635 81.077482 
L 578.029824 89.930513 
L 580.052509 102.599913 
L 582.009945 118.544171 
L 585.990067 153.134799 
L 588.012752 167.264363 
L 590.035437 177.869821 
L 591.992873 185.005354 
L 594.015558 189.660532 
L 595.972995 192.183937 
L 597.99568 192.662279 
L 600.018365 191.108667 
L 601.845306 189.554393 
L 603.86799 191.173277 
L 605.825427 197.800904 
L 607.848112 209.451746 
L 609.805549 224.21601 
L 611.828234 238.527603 
L 613.850918 248.689877 
L 615.808355 252.995379 
L 617.83104 253.321077 
L 619.788477 251.722639 
L 621.811162 249.194273 
L 623.833846 246.120433 
L 625.660787 243.02227 
L 627.683472 240.75966 
L 629.640909 239.813072 
L 631.663594 240.430778 
L 631.663594 240.430778 
" clip-path="url(#p912203f0b7)" style="fill: none; stroke: #2e4a3f; stroke-width: 1.4; stroke-linecap: round"/>
   </g>
   <g id="line2d_15">
    <path d="M 192.871498 304.75125 
L 192.871498 27.55125 
" clip-path="url(#p912203f0b7)" style="fill: none; stroke-dasharray: 0.7,1.155; stroke-dashoffset: 0; stroke: #948d82; stroke-opacity: 0.6; stroke-width: 0.7"/>
   </g>
   <g id="line2d_16">
    <path d="M 478.853023 304.75125 
L 478.853023 27.55125 
" clip-path="url(#p912203f0b7)" style="fill: none; stroke-dasharray: 0.7,1.155; stroke-dashoffset: 0; stroke: #948d82; stroke-opacity: 0.6; stroke-width: 0.7"/>
   </g>
   <g id="line2d_17">
    <path d="M 526.549235 304.75125 
L 526.549235 27.55125 
" clip-path="url(#p912203f0b7)" style="fill: none; stroke-dasharray: 0.7,1.155; stroke-dashoffset: 0; stroke: #948d82; stroke-opacity: 0.6; stroke-width: 0.7"/>
   </g>
   <g id="patch_3">
    <path d="M 45.763594 304.75125 
L 45.763594 27.55125 
" style="fill: none; stroke: #1a1814; stroke-linejoin: miter; stroke-linecap: square"/>
   </g>
   <g id="patch_4">
    <path d="M 45.763594 304.75125 
L 659.563594 304.75125 
" style="fill: none; stroke: #1a1814; stroke-linejoin: miter; stroke-linecap: square"/>
   </g>
   <g id="text_15">
    <text style="font-size: 7.5px; font-family: 'IBM Plex Sans', 'Helvetica Neue', 'Arial', 'DejaVu Sans', sans-serif; fill: #6b655c" transform="translate(198.421498 78.149245) rotate(-90)">2008 GFC</text>
   </g>
   <g id="text_16">
    <text style="font-size: 7.5px; font-family: 'IBM Plex Sans', 'Helvetica Neue', 'Arial', 'DejaVu Sans', sans-serif; fill: #6b655c" transform="translate(484.403023 86.653542) rotate(-90)">2020 COVID</text>
   </g>
   <g id="text_17">
    <text style="font-size: 7.5px; font-family: 'IBM Plex Sans', 'Helvetica Neue', 'Arial', 'DejaVu Sans', sans-serif; fill: #6b655c" transform="translate(532.099235 103.70198) rotate(-90)">2022+ rate shock</text>
   </g>
   <g id="text_18">
    <text style="font-weight: 600; font-size: 12px; font-family: 'IBM Plex Sans', 'Helvetica Neue', 'Arial', 'DejaVu Sans', sans-serif; text-anchor: middle; fill: #1a1814" x="352.663594" y="12.55125" transform="rotate(-0 352.663594 12.55125)">Archetype A: Rolling 24-Month Volatility of YoY Price Returns</text>
   </g>
   <g id="legend_1">
    <g id="line2d_18">
     <path d="M 54.763594 40.45125 
L 64.763594 40.45125 
L 74.763594 40.45125 
" style="fill: none; stroke: #6e1f1f; stroke-width: 1.4; stroke-linecap: round"/>
    </g>
    <g id="text_19">
     <text style="font-size: 10px; font-family: 'IBM Plex Sans', 'Helvetica Neue', 'Arial', 'DejaVu Sans', sans-serif; text-anchor: start; fill: #3c3833" x="82.763594" y="43.95125" transform="rotate(-0 82.763594 43.95125)">San Francisco, CA</text>
    </g>
    <g id="line2d_19">
     <path d="M 54.763594 54.85125 
L 64.763594 54.85125 
L 74.763594 54.85125 
" style="fill: none; stroke: #2e4a3f; stroke-width: 1.4; stroke-linecap: round"/>
    </g>
    <g id="text_20">
     <text style="font-size: 10px; font-family: 'IBM Plex Sans', 'Helvetica Neue', 'Arial', 'DejaVu Sans', sans-serif; text-anchor: start; fill: #3c3833" x="82.763594" y="58.35125" transform="rotate(-0 82.763594 58.35125)">Seattle, WA</text>
    </g>
   </g>
  </g>
 </g>
 <defs>
  <clipPath id="p912203f0b7">
   <rect x="45.763594" y="27.55125" width="613.8" height="277.2"/>
  </clipPath>
 </defs>
</svg>
