<?xml version="1.0" encoding="utf-8" standalone="no"?>
<!DOCTYPE svg PUBLIC "-//W3C//DTD SVG 1.1//EN"
  "http://www.w3.org/Graphics/SVG/1.1/DTD/svg11.dtd">
<svg xmlns:xlink="http://www.w3.org/1999/xlink" width="716.220312pt" height="395.32pt" viewBox="0 0 716.220312 395.32" xmlns="http://www.w3.org/2000/svg" version="1.1">
 <metadata>
  <rdf:RDF xmlns:dc="http://purl.org/dc/elements/1.1/" xmlns:cc="http://creativecommons.org/ns#" xmlns:rdf="http://www.w3.org/1999/02/22-rdf-syntax-ns#">
   <cc:Work>
    <dc:type rdf:resource="http://purl.org/dc/dcmitype/StillImage"/>
    <dc:date>2026-07-11T19:41:04.758947</dc:date>
    <dc:format>image/svg+xml</dc:format>
    <dc:creator>
     <cc:Agent>
      <dc:title>Matplotlib v3.10.9, https://matplotlib.org/</dc:title>
     </cc:Agent>
    </dc:creator>
   </cc:Work>
  </rdf:RDF>
 </metadata>
 <defs>
  <style type="text/css">*{stroke-linejoin: round; stroke-linecap: butt}</style>
 </defs>
 <g id="figure_1">
  <g id="patch_1">
   <path d="M 0 395.32 
L 716.220312 395.32 
L 716.220312 0 
L 0 0 
L 0 395.32 
z
" style="fill: none"/>
  </g>
  <g id="axes_1">
   <g id="patch_2">
    <path d="M 43.020313 360.36 
L 712.620313 360.36 
L 712.620313 27.72 
L 43.020313 27.72 
L 43.020313 360.36 
z
" style="fill: none"/>
   </g>
   <g id="matplotlib.axis_1">
    <g id="xtick_1">
     <g id="line2d_1">
      <defs>
       <path id="m8342402bd6" d="M 0 0 
L 0 4 
" style="stroke: #1a1814; stroke-width: 0.8"/>
      </defs>
      <g>
       <use xlink:href="#m8342402bd6" x="71.557766" y="360.36" style="fill: #1a1814; stroke: #1a1814; stroke-width: 0.8"/>
      </g>
     </g>
     <g id="text_1">
      <text style="font-size: 9px; font-family: 'IBM Plex Sans', 'Helvetica Neue', 'Arial', 'DejaVu Sans', sans-serif; text-anchor: middle; fill: #6b655c" x="71.557766" y="374.52" transform="rotate(-0 71.557766 374.52)">2000</text>
     </g>
    </g>
    <g id="xtick_2">
     <g id="line2d_2">
      <g>
       <use xlink:href="#m8342402bd6" x="164.034687" y="360.36" style="fill: #1a1814; stroke: #1a1814; stroke-width: 0.8"/>
      </g>
     </g>
     <g id="text_2">
      <text style="font-size: 9px; font-family: 'IBM Plex Sans', 'Helvetica Neue', 'Arial', 'DejaVu Sans', sans-serif; text-anchor: middle; fill: #6b655c" x="164.034687" y="374.52" transform="rotate(-0 164.034687 374.52)">2004</text>
     </g>
    </g>
    <g id="xtick_3">
     <g id="line2d_3">
      <g>
       <use xlink:href="#m8342402bd6" x="256.511607" y="360.36" style="fill: #1a1814; stroke: #1a1814; stroke-width: 0.8"/>
      </g>
     </g>
     <g id="text_3">
      <text style="font-size: 9px; font-family: 'IBM Plex Sans', 'Helvetica Neue', 'Arial', 'DejaVu Sans', sans-serif; text-anchor: middle; fill: #6b655c" x="256.511607" y="374.52" transform="rotate(-0 256.511607 374.52)">2008</text>
     </g>
    </g>
    <g id="xtick_4">
     <g id="line2d_4">
      <g>
       <use xlink:href="#m8342402bd6" x="348.988528" y="360.36" style="fill: #1a1814; stroke: #1a1814; stroke-width: 0.8"/>
      </g>
     </g>
     <g id="text_4">
      <text style="font-size: 9px; font-family: 'IBM Plex Sans', 'Helvetica Neue', 'Arial', 'DejaVu Sans', sans-serif; text-anchor: middle; fill: #6b655c" x="348.988528" y="374.52" transform="rotate(-0 348.988528 374.52)">2012</text>
     </g>
    </g>
    <g id="xtick_5">
     <g id="line2d_5">
      <g>
       <use xlink:href="#m8342402bd6" x="441.465448" y="360.36" style="fill: #1a1814; stroke: #1a1814; stroke-width: 0.8"/>
      </g>
     </g>
     <g id="text_5">
      <text style="font-size: 9px; font-family: 'IBM Plex Sans', 'Helvetica Neue', 'Arial', 'DejaVu Sans', sans-serif; text-anchor: middle; fill: #6b655c" x="441.465448" y="374.52" transform="rotate(-0 441.465448 374.52)">2016</text>
     </g>
    </g>
    <g id="xtick_6">
     <g id="line2d_6">
      <g>
       <use xlink:href="#m8342402bd6" x="533.942369" y="360.36" style="fill: #1a1814; stroke: #1a1814; stroke-width: 0.8"/>
      </g>
     </g>
     <g id="text_6">
      <text style="font-size: 9px; font-family: 'IBM Plex Sans', 'Helvetica Neue', 'Arial', 'DejaVu Sans', sans-serif; text-anchor: middle; fill: #6b655c" x="533.942369" y="374.52" transform="rotate(-0 533.942369 374.52)">2020</text>
     </g>
    </g>
    <g id="xtick_7">
     <g id="line2d_7">
      <g>
       <use xlink:href="#m8342402bd6" x="626.41929" y="360.36" style="fill: #1a1814; stroke: #1a1814; stroke-width: 0.8"/>
      </g>
     </g>
     <g id="text_7">
      <text style="font-size: 9px; font-family: 'IBM Plex Sans', 'Helvetica Neue', 'Arial', 'DejaVu Sans', sans-serif; text-anchor: middle; fill: #6b655c" x="626.41929" y="374.52" transform="rotate(-0 626.41929 374.52)">2024</text>
     </g>
    </g>
    <g id="text_8">
     <text style="font-size: 10px; font-family: 'IBM Plex Sans', 'Helvetica Neue', 'Arial', 'DejaVu Sans', sans-serif; text-anchor: middle; fill: #1a1814" x="377.820312" y="389.72" transform="rotate(-0 377.820312 389.72)">Year</text>
    </g>
   </g>
   <g id="matplotlib.axis_2">
    <g id="ytick_1">
     <g id="line2d_8">
      <defs>
       <path id="ma2e0c77639" d="M 0 0 
L -4 0 
" style="stroke: #1a1814; stroke-width: 0.8"/>
      </defs>
      <g>
       <use xlink:href="#ma2e0c77639" x="43.020313" y="322.144113" style="fill: #1a1814; stroke: #1a1814; stroke-width: 0.8"/>
      </g>
     </g>
     <g id="text_9">
      <text style="font-size: 9px; font-family: 'IBM Plex Sans', 'Helvetica Neue', 'Arial', 'DejaVu Sans', sans-serif; text-anchor: end; fill: #6b655c" x="35.520313" y="325.474113" transform="rotate(-0 35.520313 325.474113)">50</text>
     </g>
    </g>
    <g id="ytick_2">
     <g id="line2d_9">
      <g>
       <use xlink:href="#ma2e0c77639" x="43.020313" y="277.171852" style="fill: #1a1814; stroke: #1a1814; stroke-width: 0.8"/>
      </g>
     </g>
     <g id="text_10">
      <text style="font-size: 9px; font-family: 'IBM Plex Sans', 'Helvetica Neue', 'Arial', 'DejaVu Sans', sans-serif; text-anchor: end; fill: #6b655c" x="35.520313" y="280.501852" transform="rotate(-0 35.520313 280.501852)">75</text>
     </g>
    </g>
    <g id="ytick_3">
     <g id="line2d_10">
      <g>
       <use xlink:href="#ma2e0c77639" x="43.020313" y="232.19959" style="fill: #1a1814; stroke: #1a1814; stroke-width: 0.8"/>
      </g>
     </g>
     <g id="text_11">
      <text style="font-size: 9px; font-family: 'IBM Plex Sans', 'Helvetica Neue', 'Arial', 'DejaVu Sans', sans-serif; text-anchor: end; fill: #6b655c" x="35.520313" y="235.52959" transform="rotate(-0 35.520313 235.52959)">100</text>
     </g>
    </g>
    <g id="ytick_4">
     <g id="line2d_11">
      <g>
       <use xlink:href="#ma2e0c77639" x="43.020313" y="187.227328" style="fill: #1a1814; stroke: #1a1814; stroke-width: 0.8"/>
      </g>
     </g>
     <g id="text_12">
      <text style="font-size: 9px; font-family: 'IBM Plex Sans', 'Helvetica Neue', 'Arial', 'DejaVu Sans', sans-serif; text-anchor: end; fill: #6b655c" x="35.520313" y="190.557328" transform="rotate(-0 35.520313 190.557328)">125</text>
     </g>
    </g>
    <g id="ytick_5">
     <g id="line2d_12">
      <g>
       <use xlink:href="#ma2e0c77639" x="43.020313" y="142.255067" style="fill: #1a1814; stroke: #1a1814; stroke-width: 0.8"/>
      </g>
     </g>
     <g id="text_13">
      <text style="font-size: 9px; font-family: 'IBM Plex Sans', 'Helvetica Neue', 'Arial', 'DejaVu Sans', sans-serif; text-anchor: end; fill: #6b655c" x="35.520313" y="145.585067" transform="rotate(-0 35.520313 145.585067)">150</text>
     </g>
    </g>
    <g id="ytick_6">
     <g id="line2d_13">
      <g>
       <use xlink:href="#ma2e0c77639" x="43.020313" y="97.282805" style="fill: #1a1814; stroke: #1a1814; stroke-width: 0.8"/>
      </g>
     </g>
     <g id="text_14">
      <text style="font-size: 9px; font-family: 'IBM Plex Sans', 'Helvetica Neue', 'Arial', 'DejaVu Sans', sans-serif; text-anchor: end; fill: #6b655c" x="35.520313" y="100.612805" transform="rotate(-0 35.520313 100.612805)">175</text>
     </g>
    </g>
    <g id="ytick_7">
     <g id="line2d_14">
      <g>
       <use xlink:href="#ma2e0c77639" x="43.020313" y="52.310543" style="fill: #1a1814; stroke: #1a1814; stroke-width: 0.8"/>
      </g>
     </g>
     <g id="text_15">
      <text style="font-size: 9px; font-family: 'IBM Plex Sans', 'Helvetica Neue', 'Arial', 'DejaVu Sans', sans-serif; text-anchor: end; fill: #6b655c" x="35.520313" y="55.640543" transform="rotate(-0 35.520313 55.640543)">200</text>
     </g>
    </g>
    <g id="text_16">
     <text style="font-size: 10px; font-family: 'IBM Plex Sans', 'Helvetica Neue', 'Arial', 'DejaVu Sans', sans-serif; text-anchor: middle; fill: #1a1814" x="11.2" y="194.04" transform="rotate(-90 11.2 194.04)">Housing Affordability Index (HAI)</text>
    </g>
   </g>
   <g id="line2d_15">
    <path d="M 73.456676 302.868737 
L 75.292289 303.681554 
L 77.254496 302.68505 
L 79.153406 302.749767 
L 81.115613 307.895941 
L 83.014524 307.247825 
L 88.837848 307.218199 
L 90.800055 307.1441 
L 92.698965 307.759681 
L 94.661172 305.165556 
L 96.623379 303.181152 
L 98.395695 305.033589 
L 100.357902 305.705695 
L 102.256812 308.872587 
L 104.219019 311.121016 
L 106.117929 312.392963 
L 108.080136 312.96009 
L 110.042344 312.025693 
L 111.941254 311.413959 
L 113.903461 309.858074 
L 115.802371 310.67915 
L 117.764578 314.930128 
L 119.726785 314.411189 
L 121.499101 313.581835 
L 123.461308 315.244959 
L 125.360218 315.770577 
L 127.322425 314.967716 
L 131.183542 314.351682 
L 133.145749 313.820552 
L 135.04466 313.095117 
L 137.006867 314.429017 
L 138.905777 314.975183 
L 140.867984 315.66145 
L 142.830191 315.176448 
L 144.602507 315.301718 
L 146.564714 315.183889 
L 148.463624 316.79566 
L 150.425831 313.998588 
L 152.324741 311.778211 
L 154.286948 316.738902 
L 156.249155 323.79272 
L 158.148065 323.637146 
L 160.110273 322.869684 
L 162.009183 323.74658 
L 163.97139 324.306956 
L 165.933597 323.709769 
L 167.76921 324.077612 
L 169.731417 323.609216 
L 173.592534 333.580441 
L 175.491444 334.855509 
L 177.453651 334.107137 
L 179.415858 333.649372 
L 181.314768 333.823577 
L 183.276975 334.644286 
L 187.138093 337.147559 
L 189.1003 337.309242 
L 190.872616 337.190381 
L 192.834823 340.110485 
L 194.733733 340.102134 
L 196.69594 339.574618 
L 198.59485 338.926061 
L 202.519264 341.213983 
L 204.418174 340.987122 
L 206.380381 343.334649 
L 208.279291 345.24 
L 210.241498 344.689041 
L 212.203706 343.349944 
L 213.976022 343.73205 
L 215.938229 343.895271 
L 217.837139 344.734609 
L 219.799346 344.701256 
L 223.660463 344.28764 
L 225.62267 341.845814 
L 227.52158 340.056061 
L 229.483787 338.7499 
L 231.382697 336.937694 
L 233.344904 335.301487 
L 235.307111 335.81827 
L 237.079428 335.967352 
L 239.041635 334.462912 
L 240.940545 334.089221 
L 242.902752 334.161388 
L 244.801662 336.661043 
L 246.763869 336.302608 
L 248.726076 334.708611 
L 250.624986 332.478717 
L 252.587193 331.496284 
L 254.486103 329.043662 
L 256.44831 326.718082 
L 258.410517 321.973795 
L 260.24613 322.068368 
L 262.208337 321.159928 
L 264.107248 319.113199 
L 266.069455 318.540851 
L 267.968365 319.557284 
L 269.930572 318.656044 
L 271.892779 317.064559 
L 273.791689 310.216803 
L 275.753896 309.720974 
L 277.652806 306.113728 
L 279.615013 294.086171 
L 281.57722 289.245118 
L 283.349536 289.159306 
L 285.311743 286.229674 
L 287.210653 282.394083 
L 289.172861 282.098824 
L 291.071771 289.653618 
L 293.033978 286.7172 
L 294.996185 285.678638 
L 296.895095 282.662869 
L 298.857302 280.912728 
L 300.756212 280.803066 
L 304.680626 286.329571 
L 306.452942 286.561192 
L 308.415149 286.494109 
L 310.314059 288.375086 
L 312.276266 285.514955 
L 314.175177 283.172308 
L 316.137384 279.873678 
L 318.099591 277.051096 
L 319.998501 274.818007 
L 321.960708 271.997277 
L 323.859618 272.133588 
L 325.821825 277.621973 
L 327.784032 277.561754 
L 329.556348 279.805675 
L 331.518555 277.526755 
L 333.417465 277.037395 
L 335.379672 273.091128 
L 337.278582 269.933443 
L 339.240789 269.913742 
L 341.202997 264.416437 
L 343.101907 261.114334 
L 345.064114 259.718722 
L 346.963024 257.996299 
L 348.925231 257.156592 
L 350.887438 255.210126 
L 352.723051 253.990463 
L 354.685258 254.453253 
L 356.584168 253.493525 
L 358.546375 251.679443 
L 360.445285 250.211871 
L 362.407492 248.959059 
L 364.369699 251.827589 
L 368.230817 252.059093 
L 370.129727 253.785055 
L 372.091934 255.915352 
L 374.054141 259.18418 
L 375.826457 263.163864 
L 377.788664 265.358709 
L 379.687574 264.972308 
L 381.649781 269.042825 
L 383.548691 280.544587 
L 385.510898 287.14188 
L 387.473105 289.708774 
L 389.372015 291.230487 
L 391.334223 287.815693 
L 393.233133 289.465081 
L 395.19534 292.902465 
L 397.157547 292.782746 
L 398.929863 291.201015 
L 400.89207 292.076384 
L 402.79098 292.57562 
L 404.753187 291.152864 
L 406.652097 291.071473 
L 410.576511 289.791054 
L 412.475421 290.478725 
L 414.437628 288.871782 
L 416.336539 288.772603 
L 418.298746 287.246593 
L 420.260953 285.000951 
L 423.995476 288.19816 
L 425.894386 287.377325 
L 427.856593 290.596689 
L 429.755503 293.290899 
L 431.71771 294.638747 
L 433.679917 293.015403 
L 435.578827 293.341211 
L 437.541034 292.670637 
L 439.439944 295.335677 
L 441.402151 296.082995 
L 443.364359 294.935545 
L 445.199972 292.105983 
L 447.162179 292.595787 
L 449.061089 290.763922 
L 451.023296 289.624754 
L 452.922206 287.829148 
L 454.884413 284.194052 
L 456.84662 282.594113 
L 458.74553 281.564701 
L 460.707737 280.713864 
L 462.606647 284.77824 
L 464.568854 290.951182 
L 466.531061 290.565742 
L 468.303378 291.153913 
L 470.265585 291.671754 
L 472.164495 289.531338 
L 474.126702 288.921293 
L 476.025612 287.317517 
L 477.987819 288.028968 
L 479.950026 286.505463 
L 481.848936 285.391789 
L 483.811143 287.195433 
L 485.710053 288.256942 
L 487.67226 289.503115 
L 489.634467 292.286938 
L 491.406783 297.877281 
L 493.368991 300.543278 
L 495.267901 301.798305 
L 497.230108 304.304452 
L 499.129018 304.916949 
L 501.091225 304.757048 
L 503.053432 305.158684 
L 504.952342 306.14898 
L 506.914549 308.772768 
L 508.813459 309.244418 
L 510.775666 306.3138 
L 512.737873 302.950769 
L 518.371306 294.656332 
L 520.333514 292.506262 
L 522.232424 287.541826 
L 524.194631 286.111315 
L 526.156838 283.092871 
L 528.055748 282.154697 
L 530.017955 282.657503 
L 531.916865 282.033466 
L 533.879072 281.783925 
L 535.841279 280.715892 
L 537.676892 278.737456 
L 539.639099 279.337349 
L 541.538009 277.657952 
L 543.500216 276.379099 
L 545.399127 274.530202 
L 547.361334 271.419117 
L 549.323541 270.350889 
L 551.222451 270.854949 
L 555.083568 272.319524 
L 557.045775 272.803812 
L 559.007982 275.717994 
L 560.780298 278.861679 
L 562.742505 285.325798 
L 564.641415 287.169334 
L 566.603622 288.038448 
L 568.502532 290.600179 
L 570.46474 290.846715 
L 572.426947 291.509158 
L 574.325857 292.836472 
L 576.288064 295.71362 
L 578.186974 296.468117 
L 580.149181 297.967728 
L 582.111388 303.258032 
L 583.883704 308.608588 
L 585.845911 315.214412 
L 587.744821 324.931872 
L 589.707028 327.469545 
L 591.605938 329.393595 
L 593.568145 326.660481 
L 595.530352 322.214368 
L 597.429263 327.785339 
L 599.39147 332.116258 
L 601.29038 329.371146 
L 603.252587 323.710357 
L 605.214794 322.262886 
L 606.98711 321.686694 
L 608.949317 324.193868 
L 610.848227 322.734931 
L 612.810434 324.234165 
L 614.709344 327.740985 
L 616.671551 329.863322 
L 618.633758 332.846955 
L 620.532668 334.878307 
L 622.494876 338.825241 
L 624.393786 338.118878 
L 626.355993 333.700556 
L 628.3182 331.36207 
L 630.153813 331.67236 
L 632.11602 331.794022 
L 634.01493 333.401485 
L 635.977137 334.198093 
L 637.876047 332.894004 
L 639.838254 331.878965 
L 643.699371 324.604675 
L 645.661578 326.026769 
L 647.560489 328.704617 
L 649.522696 327.40981 
L 651.484903 329.178609 
L 653.257219 327.784075 
L 655.219426 325.539234 
L 659.080543 325.485677 
L 660.979453 324.428672 
L 662.94166 322.552255 
L 664.903867 320.436659 
L 666.802777 317.628148 
L 668.764984 316.375698 
L 670.663894 316.183029 
L 672.626101 315.793863 
L 674.588309 314.782087 
L 676.360625 314.020956 
L 678.322832 315.097944 
L 680.221742 316.345974 
L 682.183949 317.169772 
L 682.183949 317.169772 
" clip-path="url(#pe8585db649)" style="fill: none; stroke: #6e1f1f; stroke-width: 1.4; stroke-linecap: round"/>
   </g>
   <g id="line2d_16">
    <path d="M 73.456676 265.993103 
L 75.292289 267.502124 
L 77.254496 266.288634 
L 79.153406 265.490904 
L 81.115613 270.852973 
L 83.014524 268.281076 
L 88.837848 264.049252 
L 90.800055 262.444229 
L 92.698965 261.805345 
L 94.661172 256.603714 
L 96.623379 252.244011 
L 98.395695 253.710554 
L 100.357902 253.339638 
L 102.256812 256.435112 
L 104.219019 258.404038 
L 106.117929 259.517387 
L 108.080136 259.844917 
L 110.042344 258.063822 
L 111.941254 256.821813 
L 113.903461 254.54009 
L 115.802371 256.036845 
L 117.764578 263.325312 
L 119.726785 262.971363 
L 121.499101 262.050118 
L 123.461308 264.493179 
L 125.360218 264.638717 
L 131.183542 258.242494 
L 133.145749 255.603047 
L 135.04466 252.845549 
L 137.006867 253.738116 
L 138.905777 253.475984 
L 140.867984 253.417522 
L 142.830191 251.561417 
L 146.564714 249.74998 
L 148.463624 251.691155 
L 150.425831 246.822681 
L 152.324741 243.048685 
L 154.286948 251.326748 
L 156.249155 262.759985 
L 158.148065 261.747402 
L 160.110273 259.411228 
L 162.009183 259.70832 
L 163.97139 259.509528 
L 165.933597 257.064427 
L 167.76921 256.142094 
L 169.731417 253.200802 
L 171.630327 260.224901 
L 173.592534 267.91954 
L 175.491444 269.169744 
L 177.453651 266.554437 
L 179.415858 264.407438 
L 181.314768 263.304042 
L 183.276975 263.45677 
L 185.175885 264.278133 
L 187.138093 265.442007 
L 189.1003 265.758037 
L 190.872616 265.236615 
L 192.834823 270.880259 
L 194.733733 270.853081 
L 196.69594 270.149444 
L 198.59485 269.662897 
L 200.557057 273.235155 
L 202.519264 277.128395 
L 204.418174 278.18902 
L 206.380381 283.766963 
L 208.279291 288.563936 
L 210.241498 289.007144 
L 212.203706 287.802882 
L 213.976022 289.854973 
L 215.938229 291.448609 
L 217.837139 294.700251 
L 221.698256 298.48279 
L 223.660463 300.128322 
L 225.62267 297.921245 
L 227.52158 296.881012 
L 229.483787 296.618713 
L 233.344904 293.520353 
L 237.079428 294.915436 
L 239.041635 293.552217 
L 240.940545 294.372336 
L 242.902752 295.719405 
L 244.801662 300.402864 
L 246.763869 300.483792 
L 248.726076 298.748899 
L 250.624986 296.066602 
L 252.587193 295.174639 
L 254.486103 291.891578 
L 256.44831 289.161042 
L 258.410517 283.476051 
L 260.24613 284.461101 
L 262.208337 283.840151 
L 264.107248 281.453666 
L 266.069455 281.286435 
L 267.968365 283.188091 
L 269.930572 282.746915 
L 271.892779 281.327444 
L 273.791689 272.826611 
L 275.753896 272.980599 
L 277.652806 269.192764 
L 279.615013 253.627833 
L 281.57722 247.904053 
L 283.349536 247.90946 
L 285.311743 243.976851 
L 287.210653 238.016586 
L 289.172861 236.888705 
L 291.071771 245.945284 
L 293.033978 241.201557 
L 294.996185 239.882342 
L 296.895095 236.753441 
L 298.857302 234.481489 
L 300.756212 233.150923 
L 304.680626 236.280434 
L 306.452942 234.930275 
L 308.415149 233.804344 
L 310.314059 236.613134 
L 312.276266 232.826212 
L 314.175177 229.721304 
L 318.099591 220.414206 
L 319.998501 216.900538 
L 321.960708 212.060018 
L 323.859618 211.913611 
L 325.821825 219.662979 
L 327.784032 218.347694 
L 329.556348 220.934697 
L 331.518555 216.301062 
L 333.417465 214.162737 
L 335.379672 206.077213 
L 337.278582 199.807973 
L 339.240789 197.377059 
L 341.202997 187.505064 
L 343.101907 180.103574 
L 345.064114 176.138672 
L 346.963024 171.350744 
L 348.925231 167.835095 
L 352.723051 162.55843 
L 354.685258 162.329867 
L 356.584168 158.420213 
L 358.546375 152.770151 
L 360.445285 147.887177 
L 362.407492 143.789901 
L 364.369699 146.398205 
L 366.26861 144.510232 
L 368.230817 142.840407 
L 370.129727 144.610929 
L 372.091934 147.350941 
L 374.054141 152.211862 
L 375.826457 158.329693 
L 377.788664 161.317833 
L 379.687574 159.153968 
L 381.649781 163.641054 
L 383.548691 180.957879 
L 385.510898 190.594026 
L 387.473105 194.244232 
L 389.372015 196.526154 
L 391.334223 190.26556 
L 393.233133 193.249784 
L 395.19534 199.740204 
L 397.157547 200.09835 
L 398.929863 197.684834 
L 400.89207 199.30404 
L 402.79098 199.529908 
L 404.753187 196.096462 
L 406.652097 195.209312 
L 408.614304 193.963537 
L 410.576511 192.992626 
L 412.475421 193.947219 
L 414.437628 190.552082 
L 416.336539 189.918125 
L 418.298746 187.132942 
L 420.260953 182.628698 
L 423.995476 187.460069 
L 425.894386 185.228681 
L 427.856593 190.100611 
L 429.755503 194.01737 
L 431.71771 195.850306 
L 433.679917 192.427116 
L 435.578827 192.613602 
L 437.541034 190.969272 
L 439.439944 196.018064 
L 441.402151 197.987685 
L 443.364359 197.761587 
L 445.199972 194.188424 
L 447.162179 196.755749 
L 449.061089 195.61161 
L 451.023296 196.430582 
L 452.922206 196.346227 
L 454.884413 193.332769 
L 456.84662 193.482091 
L 460.707737 195.367884 
L 462.606647 204.240843 
L 464.568854 216.120563 
L 466.531061 216.693394 
L 470.265585 221.51075 
L 472.164495 219.86925 
L 474.126702 220.565336 
L 476.025612 219.413559 
L 477.987819 221.928447 
L 481.848936 219.912986 
L 483.811143 222.786805 
L 485.710053 224.316543 
L 487.67226 226.222077 
L 489.634467 229.363162 
L 491.406783 237.1975 
L 493.368991 241.139411 
L 495.267901 243.054731 
L 497.230108 246.625657 
L 499.129018 246.820292 
L 501.091225 246.376336 
L 503.053432 246.631815 
L 504.952342 247.552634 
L 506.914549 250.292815 
L 508.813459 249.80924 
L 510.775666 244.311962 
L 512.737873 239.393419 
L 514.510189 236.219823 
L 516.472396 233.248904 
L 518.371306 229.972907 
L 520.333514 227.653038 
L 522.232424 220.531554 
L 524.194631 218.490117 
L 526.156838 213.743262 
L 528.055748 212.261172 
L 530.017955 213.511943 
L 531.916865 213.311061 
L 533.879072 213.979801 
L 535.841279 213.028271 
L 537.676892 210.784301 
L 539.639099 212.417314 
L 541.538009 210.924525 
L 543.500216 210.259105 
L 545.399127 208.910241 
L 547.361334 205.321823 
L 549.323541 204.424999 
L 551.222451 205.7947 
L 555.083568 209.361994 
L 557.045775 210.52661 
L 559.007982 213.721018 
L 560.780298 217.560425 
L 562.742505 226.547386 
L 564.641415 228.901035 
L 566.603622 229.683593 
L 568.502532 232.591583 
L 570.46474 231.641266 
L 572.426947 231.19559 
L 574.325857 231.875414 
L 576.288064 235.046371 
L 578.186974 235.049973 
L 580.149181 236.531092 
L 582.111388 246.526115 
L 583.883704 256.336724 
L 585.845911 267.869686 
L 587.744821 284.042761 
L 589.707028 289.541814 
L 591.605938 293.798711 
L 593.568145 290.924632 
L 595.530352 285.596968 
L 597.429263 294.400366 
L 599.39147 301.51923 
L 601.29038 298.923067 
L 603.252587 292.42419 
L 605.214794 289.860305 
L 606.98711 288.288736 
L 608.949317 290.750436 
L 610.848227 287.444875 
L 612.810434 288.17538 
L 614.709344 291.904519 
L 616.671551 293.77541 
L 618.633758 296.975208 
L 620.532668 298.79346 
L 622.494876 303.579307 
L 624.393786 301.676646 
L 626.355993 294.383089 
L 628.3182 292.36529 
L 630.153813 294.255642 
L 632.11602 295.427729 
L 634.01493 298.290471 
L 635.977137 299.756241 
L 637.876047 298.373768 
L 639.838254 297.601918 
L 641.800461 293.464249 
L 643.699371 289.72862 
L 645.661578 293.348184 
L 647.560489 298.375801 
L 649.522696 297.75806 
L 651.484903 300.613089 
L 653.257219 299.14384 
L 655.219426 296.2609 
L 659.080543 296.060411 
L 660.979453 295.009748 
L 664.903867 290.752 
L 666.802777 287.520989 
L 668.764984 286.290617 
L 670.663894 286.200609 
L 672.626101 285.577021 
L 676.360625 283.071969 
L 680.221742 284.830637 
L 682.183949 284.97104 
L 682.183949 284.97104 
" clip-path="url(#pe8585db649)" style="fill: none; stroke: #8a2b2b; stroke-width: 1.4; stroke-linecap: round"/>
   </g>
   <g id="line2d_17">
    <path d="M 73.456676 206.516686 
L 75.292289 208.853186 
L 79.153406 205.69012 
L 81.115613 212.71555 
L 83.014524 208.890141 
L 84.976731 206.607621 
L 88.837848 203.302355 
L 90.800055 201.586808 
L 92.698965 201.509862 
L 94.661172 194.912672 
L 96.623379 186.729468 
L 98.395695 186.114473 
L 100.357902 182.161941 
L 102.256812 183.66415 
L 104.219019 184.135805 
L 106.117929 183.790412 
L 108.080136 182.444816 
L 110.042344 177.371387 
L 111.941254 173.418994 
L 113.903461 167.80615 
L 115.802371 168.299171 
L 117.764578 177.580056 
L 119.726785 176.382951 
L 121.499101 174.293898 
L 123.461308 178.065706 
L 125.360218 178.639549 
L 127.322425 175.758831 
L 129.221335 173.248307 
L 131.183542 170.423559 
L 133.145749 166.930963 
L 135.04466 163.158052 
L 137.006867 164.899627 
L 138.905777 164.693956 
L 140.867984 164.997106 
L 142.830191 162.257299 
L 144.602507 160.91156 
L 146.564714 158.986988 
L 148.463624 161.539223 
L 150.425831 153.121524 
L 152.324741 146.398141 
L 154.286948 158.693372 
L 156.249155 176.036629 
L 158.148065 173.709977 
L 160.110273 169.305355 
L 162.009183 169.360402 
L 163.97139 168.535756 
L 165.933597 164.97259 
L 167.76921 164.444421 
L 169.731417 161.880894 
L 173.592534 187.838173 
L 175.491444 189.483315 
L 177.453651 185.56872 
L 179.415858 182.18628 
L 181.314768 180.856189 
L 183.276975 181.433312 
L 185.175885 182.932185 
L 187.138093 184.872238 
L 189.1003 183.919485 
L 190.872616 181.851611 
L 192.834823 189.022358 
L 194.733733 186.949797 
L 196.69594 183.043326 
L 198.59485 178.943144 
L 200.557057 181.066555 
L 202.519264 183.353935 
L 204.418174 181.264286 
L 206.380381 187.394615 
L 208.279291 192.916627 
L 210.241498 190.849554 
L 212.203706 186.748183 
L 213.976022 187.939181 
L 215.938229 188.439844 
L 217.837139 191.767815 
L 221.698256 194.803607 
L 223.660463 196.20291 
L 225.62267 190.403231 
L 227.52158 187.298309 
L 229.483787 186.089776 
L 231.382697 183.057709 
L 233.344904 180.32271 
L 235.307111 181.887473 
L 237.079428 182.551579 
L 239.041635 178.017199 
L 240.940545 177.594453 
L 242.902752 179.048722 
L 244.801662 188.233981 
L 246.763869 188.651801 
L 248.726076 185.394477 
L 250.624986 180.345588 
L 252.587193 179.61842 
L 254.486103 174.791756 
L 256.44831 171.22947 
L 258.410517 160.953774 
L 260.24613 163.607692 
L 262.208337 163.161597 
L 264.107248 160.425668 
L 266.069455 162.224985 
L 267.968365 168.211925 
L 269.930572 169.503999 
L 271.892779 169.066148 
L 273.791689 155.371035 
L 275.753896 157.629901 
L 277.652806 152.178504 
L 279.615013 125.646155 
L 281.57722 116.905805 
L 283.349536 119.802085 
L 285.311743 116.209435 
L 287.210653 110.725144 
L 289.172861 113.592628 
L 291.071771 133.464171 
L 293.033978 128.99432 
L 294.996185 129.375322 
L 296.895095 125.797605 
L 298.857302 122.607511 
L 300.756212 120.766061 
L 302.718419 123.715609 
L 304.680626 127.174317 
L 306.452942 126.102968 
L 308.415149 125.892103 
L 310.314059 130.992313 
L 312.276266 124.912625 
L 314.175177 119.897718 
L 318.099591 105.914128 
L 319.998501 100.823638 
L 321.960708 94.579356 
L 323.859618 96.229899 
L 325.821825 110.223073 
L 327.784032 110.333783 
L 329.556348 115.655222 
L 331.518555 109.777238 
L 333.417465 108.173958 
L 335.379672 99.437756 
L 337.278582 93.63207 
L 339.240789 94.226721 
L 341.202997 83.322141 
L 343.101907 76.282585 
L 345.064114 73.980079 
L 346.963024 69.095354 
L 348.925231 65.99677 
L 350.887438 63.288823 
L 352.723051 62.492438 
L 354.685258 65.525908 
L 356.584168 63.680838 
L 362.407492 48.772277 
L 364.369699 52.086006 
L 366.26861 48.207505 
L 368.230817 43.561564 
L 370.129727 42.84 
L 372.091934 43.074166 
L 374.054141 46.513641 
L 375.826457 52.542345 
L 377.788664 55.440215 
L 379.687574 51.843467 
L 381.649781 58.074582 
L 383.548691 82.857617 
L 385.510898 96.881882 
L 387.473105 102.493965 
L 389.372015 105.702422 
L 391.334223 96.993981 
L 393.233133 101.402464 
L 395.19534 110.806612 
L 397.157547 111.602838 
L 398.929863 108.870343 
L 400.89207 112.329304 
L 402.79098 114.010304 
L 404.753187 110.705905 
L 406.652097 111.352836 
L 408.614304 112.239908 
L 410.576511 113.715227 
L 412.475421 117.334999 
L 414.437628 114.383787 
L 416.336539 114.828231 
L 418.298746 111.976053 
L 420.260953 106.770479 
L 422.033269 110.03101 
L 423.995476 113.919838 
L 425.894386 111.686238 
L 427.856593 119.010541 
L 429.755503 125.081383 
L 431.71771 128.248647 
L 433.679917 124.319647 
L 435.578827 124.517613 
L 437.541034 121.795035 
L 439.439944 127.301044 
L 441.402151 128.505458 
L 443.364359 127.143785 
L 445.199972 121.403854 
L 447.162179 123.824577 
L 449.061089 121.659813 
L 451.023296 122.452687 
L 452.922206 122.472566 
L 454.884413 118.648969 
L 456.84662 119.125633 
L 458.74553 120.895497 
L 460.707737 122.334465 
L 462.606647 134.16123 
L 464.568854 149.283302 
L 466.531061 147.743321 
L 468.303378 147.970564 
L 470.265585 148.719025 
L 472.164495 144.041154 
L 474.126702 142.955519 
L 476.025612 139.400757 
L 477.987819 141.05349 
L 479.950026 137.838624 
L 481.848936 134.991377 
L 483.811143 137.986649 
L 487.67226 140.092351 
L 489.634467 143.115572 
L 491.406783 152.615914 
L 493.368991 156.423048 
L 495.267901 157.532826 
L 497.230108 161.668364 
L 499.129018 161.633563 
L 501.091225 160.945997 
L 503.053432 161.990485 
L 504.952342 164.621383 
L 506.914549 170.567335 
L 508.813459 171.855499 
L 510.775666 165.783357 
L 512.737873 161.196521 
L 516.472396 156.177975 
L 518.371306 152.621574 
L 520.333514 150.452887 
L 522.232424 141.631353 
L 524.194631 140.260403 
L 526.156838 135.165752 
L 528.055748 134.848391 
L 530.017955 137.932993 
L 531.916865 138.720199 
L 533.879072 140.192257 
L 535.841279 138.050029 
L 537.676892 133.544234 
L 539.639099 133.923985 
L 541.538009 129.390535 
L 545.399127 123.959767 
L 547.361334 118.947803 
L 549.323541 117.296317 
L 553.184658 118.295475 
L 555.083568 118.890482 
L 557.045775 118.997988 
L 559.007982 123.652479 
L 560.780298 129.09925 
L 562.742505 141.667884 
L 564.641415 143.94633 
L 566.603622 144.159539 
L 568.502532 148.430826 
L 570.46474 148.221855 
L 572.426947 149.827496 
L 574.325857 153.430725 
L 576.288064 160.748296 
L 578.186974 163.143808 
L 580.149181 166.798394 
L 583.883704 191.066075 
L 585.845911 204.723768 
L 587.744821 225.890491 
L 591.605938 240.185817 
L 593.568145 238.67086 
L 595.530352 234.550155 
L 597.429263 249.92549 
L 599.39147 261.470911 
L 601.29038 258.721959 
L 603.252587 249.9161 
L 605.214794 246.677614 
L 606.98711 244.772813 
L 608.949317 248.391405 
L 610.848227 243.940598 
L 612.810434 244.759113 
L 614.709344 249.437078 
L 616.671551 251.329671 
L 618.633758 254.85064 
L 620.532668 256.381292 
L 622.494876 262.074967 
L 624.393786 258.660178 
L 626.355993 247.811435 
L 628.3182 244.424725 
L 630.153813 246.47043 
L 632.11602 247.304449 
L 634.01493 250.271789 
L 635.977137 251.221413 
L 637.876047 248.393187 
L 639.838254 246.592339 
L 643.699371 233.600225 
L 645.661578 237.631356 
L 647.560489 243.673897 
L 649.522696 241.571411 
L 651.484903 244.944355 
L 653.257219 242.114956 
L 655.219426 237.575831 
L 657.118336 237.612081 
L 659.080543 237.915861 
L 660.979453 236.595799 
L 662.94166 233.553431 
L 664.903867 229.866015 
L 666.802777 224.22946 
L 668.764984 221.180335 
L 670.663894 219.884888 
L 672.626101 218.079996 
L 674.588309 215.281996 
L 676.360625 213.005993 
L 678.322832 214.486773 
L 680.221742 216.345408 
L 682.183949 217.086798 
L 682.183949 217.086798 
" clip-path="url(#pe8585db649)" style="fill: none; stroke: #2e4a3f; stroke-width: 1.4; stroke-linecap: round"/>
   </g>
   <g id="line2d_18">
    <path d="M 73.456676 280.288914 
L 75.292289 281.25812 
L 77.254496 279.863064 
L 79.153406 278.670028 
L 81.115613 283.224926 
L 83.014524 280.748119 
L 84.976731 279.467504 
L 90.800055 276.735812 
L 92.698965 276.652121 
L 96.623379 268.512025 
L 98.395695 269.619771 
L 100.357902 269.06931 
L 102.256812 271.972183 
L 104.219019 274.228035 
L 106.117929 275.809736 
L 108.080136 276.764274 
L 110.042344 275.757935 
L 111.941254 275.308405 
L 113.903461 273.794588 
L 115.802371 275.644183 
L 117.764578 282.362636 
L 119.726785 282.774015 
L 121.499101 282.578907 
L 123.461308 285.353544 
L 125.360218 286.381796 
L 127.322425 285.699413 
L 131.183542 285.168509 
L 133.145749 284.546853 
L 135.04466 283.783369 
L 137.006867 285.803885 
L 138.905777 286.741808 
L 140.867984 287.909884 
L 142.830191 286.617375 
L 144.602507 286.160216 
L 146.564714 285.427695 
L 148.463624 287.133987 
L 150.425831 283.4072 
L 152.324741 280.661077 
L 154.286948 287.360239 
L 156.249155 296.426109 
L 158.148065 295.869424 
L 160.110273 294.292012 
L 162.009183 294.837278 
L 163.97139 294.803862 
L 165.933597 293.171892 
L 167.76921 292.765911 
L 169.731417 291.015787 
L 173.592534 303.589782 
L 175.491444 305.270755 
L 177.453651 304.390435 
L 179.415858 303.991862 
L 181.314768 304.414179 
L 183.276975 305.396126 
L 187.138093 307.712182 
L 189.1003 308.450011 
L 190.872616 308.715093 
L 192.834823 313.224505 
L 194.733733 313.846339 
L 198.59485 314.282467 
L 202.519264 319.594381 
L 204.418174 320.29778 
L 206.380381 324.086259 
L 208.279291 327.229197 
L 210.241498 327.294366 
L 212.203706 326.329896 
L 213.976022 327.464059 
L 215.938229 328.26417 
L 217.837139 329.955546 
L 219.799346 330.706887 
L 221.698256 331.186263 
L 223.660463 331.503992 
L 225.62267 328.991871 
L 227.52158 327.142922 
L 229.483787 325.734472 
L 231.382697 323.656352 
L 233.344904 321.783676 
L 235.307111 321.842631 
L 237.079428 321.763396 
L 239.041635 319.809001 
L 240.940545 319.433252 
L 242.902752 319.562612 
L 244.801662 322.446306 
L 246.763869 321.760559 
L 248.726076 319.468507 
L 250.624986 316.523721 
L 252.587193 315.241821 
L 254.486103 312.199116 
L 256.44831 309.486247 
L 258.410517 304.021885 
L 260.24613 304.126387 
L 262.208337 302.802366 
L 264.107248 300.034554 
L 266.069455 299.063299 
L 267.968365 300.064792 
L 269.930572 298.871564 
L 271.892779 297.082582 
L 273.791689 288.991049 
L 275.753896 288.595123 
L 277.652806 284.735042 
L 279.615013 270.705891 
L 281.57722 265.01251 
L 283.349536 264.536647 
L 285.311743 260.550686 
L 287.210653 255.535819 
L 289.172861 255.228234 
L 291.071771 264.094741 
L 293.033978 260.094341 
L 294.996185 258.790044 
L 296.895095 255.497633 
L 298.857302 252.891213 
L 300.756212 251.188823 
L 302.718419 252.446883 
L 304.680626 254.522235 
L 306.452942 253.89465 
L 308.415149 253.645046 
L 310.314059 256.169534 
L 312.276266 252.742861 
L 314.175177 249.892743 
L 318.099591 242.264501 
L 319.998501 239.518255 
L 321.960708 235.922109 
L 323.859618 236.323505 
L 325.821825 243.667499 
L 327.784032 243.842157 
L 329.556348 247.486461 
L 331.518555 245.131713 
L 333.417465 244.986763 
L 335.379672 240.413741 
L 337.278582 237.282209 
L 339.240789 237.216157 
L 341.202997 230.602373 
L 343.101907 225.916733 
L 345.064114 224.088241 
L 346.963024 221.865323 
L 348.925231 220.714794 
L 350.887438 219.007165 
L 352.723051 217.892559 
L 354.685258 219.224951 
L 356.584168 218.466076 
L 358.546375 216.029526 
L 362.407492 210.643855 
L 364.369699 212.349003 
L 368.230817 208.166294 
L 370.129727 208.151949 
L 372.091934 208.399484 
L 374.054141 211.031074 
L 375.826457 214.897544 
L 377.788664 216.587667 
L 379.687574 214.58736 
L 381.649781 217.753941 
L 383.548691 231.127881 
L 385.510898 238.450262 
L 387.473105 241.103409 
L 389.372015 242.660468 
L 391.334223 237.589681 
L 393.233133 239.824488 
L 395.19534 244.641367 
L 397.157547 244.119779 
L 398.929863 241.462104 
L 400.89207 242.197739 
L 402.79098 242.129725 
L 404.753187 239.017894 
L 406.652097 238.048186 
L 408.614304 236.730787 
L 410.576511 235.674326 
L 412.475421 236.122851 
L 414.437628 232.944885 
L 416.336539 231.72 
L 418.298746 228.200639 
L 420.260953 223.348223 
L 422.033269 223.939093 
L 423.995476 225.070629 
L 425.894386 222.359433 
L 427.856593 225.62782 
L 429.755503 228.186784 
L 431.71771 229.164977 
L 433.679917 225.715404 
L 435.578827 225.235186 
L 437.541034 223.066935 
L 439.439944 226.419675 
L 441.402151 226.859277 
L 443.364359 225.257886 
L 445.199972 220.67436 
L 447.162179 221.512594 
L 449.061089 219.167143 
L 451.023296 218.77708 
L 452.922206 217.902718 
L 454.884413 214.663972 
L 456.84662 214.366285 
L 460.707737 215.472165 
L 462.606647 223.25524 
L 464.568854 233.540388 
L 466.531061 232.167975 
L 468.303378 232.208392 
L 470.265585 232.381292 
L 472.164495 228.559491 
L 474.126702 226.904381 
L 476.025612 223.414902 
L 477.987819 223.622447 
L 479.950026 220.511966 
L 481.848936 217.936902 
L 483.811143 219.501612 
L 487.67226 219.91428 
L 489.634467 222.163632 
L 491.406783 229.061397 
L 493.368991 231.772997 
L 495.267901 232.35618 
L 497.230108 234.925296 
L 499.129018 234.403699 
L 501.091225 233.533507 
L 503.053432 233.98069 
L 504.952342 235.66899 
L 506.914549 239.722865 
L 508.813459 240.408788 
L 512.737873 231.145118 
L 514.510189 228.290748 
L 516.472396 225.380378 
L 518.371306 222.09656 
L 520.333514 219.620627 
L 522.232424 212.063177 
L 524.194631 209.805623 
L 526.156838 204.809395 
L 528.055748 203.279475 
L 530.017955 204.357095 
L 531.916865 203.72144 
L 533.879072 203.830787 
L 535.841279 202.283533 
L 537.676892 199.147711 
L 539.639099 199.804256 
L 541.538009 196.772399 
L 543.500216 195.023967 
L 545.399127 192.89955 
L 547.361334 188.70296 
L 549.323541 187.145945 
L 551.222451 187.637807 
L 553.184658 188.375681 
L 555.083568 188.96503 
L 557.045775 189.016287 
L 559.007982 193.064439 
L 560.780298 197.74167 
L 562.742505 207.764229 
L 564.641415 210.074156 
L 566.603622 210.433916 
L 568.502532 213.236485 
L 570.46474 212.054649 
L 572.426947 212.045925 
L 574.325857 213.458005 
L 576.288064 217.780075 
L 578.186974 218.244299 
L 580.149181 219.971296 
L 583.883704 235.851065 
L 585.845911 245.598142 
L 587.744821 261.6845 
L 591.605938 270.989359 
L 593.568145 268.157015 
L 595.530352 263.069549 
L 597.429263 274.699832 
L 599.39147 283.810035 
L 601.29038 281.178297 
L 603.252587 273.874666 
L 605.214794 271.780877 
L 606.98711 270.933763 
L 608.949317 274.600419 
L 610.848227 271.533815 
L 612.810434 272.871957 
L 614.709344 277.37454 
L 616.671551 279.417586 
L 618.633758 282.651944 
L 620.532668 284.218771 
L 622.494876 289.18693 
L 624.393786 286.704542 
L 626.355993 278.207983 
L 628.3182 275.417994 
L 630.153813 277.138389 
L 632.11602 277.991913 
L 634.01493 280.832605 
L 635.977137 282.050886 
L 637.876047 280.083807 
L 639.838254 278.793512 
L 643.699371 268.682218 
L 645.661578 272.394262 
L 647.560489 277.800735 
L 649.522696 276.569136 
L 651.484903 279.561904 
L 653.257219 277.566899 
L 655.219426 274.19105 
L 659.080543 274.773791 
L 660.979453 273.785337 
L 662.94166 271.443783 
L 664.903867 268.654661 
L 666.802777 264.375753 
L 668.764984 262.249051 
L 670.663894 261.496987 
L 672.626101 260.239314 
L 674.588309 258.07003 
L 676.360625 256.309339 
L 678.322832 257.524514 
L 680.221742 258.975548 
L 682.183949 259.682532 
L 682.183949 259.682532 
" clip-path="url(#pe8585db649)" style="fill: none; stroke: #a87333; stroke-width: 1.4; stroke-linecap: round"/>
   </g>
   <g id="line2d_19">
    <path d="M 43.020313 232.19959 
L 712.620313 232.19959 
" clip-path="url(#pe8585db649)" style="fill: none; stroke-dasharray: 2.96,1.28; stroke-dashoffset: 0; stroke: #948d82; stroke-opacity: 0.8; stroke-width: 0.8"/>
   </g>
   <g id="line2d_20">
    <path d="M 256.511607 360.36 
L 256.511607 27.72 
" clip-path="url(#pe8585db649)" style="fill: none; stroke-dasharray: 0.7,1.155; stroke-dashoffset: 0; stroke: #948d82; stroke-opacity: 0.6; stroke-width: 0.7"/>
   </g>
   <g id="line2d_21">
    <path d="M 533.942369 360.36 
L 533.942369 27.72 
" clip-path="url(#pe8585db649)" style="fill: none; stroke-dasharray: 0.7,1.155; stroke-dashoffset: 0; stroke: #948d82; stroke-opacity: 0.6; stroke-width: 0.7"/>
   </g>
   <g id="line2d_22">
    <path d="M 580.212478 360.36 
L 580.212478 27.72 
" clip-path="url(#pe8585db649)" style="fill: none; stroke-dasharray: 0.7,1.155; stroke-dashoffset: 0; stroke: #948d82; stroke-opacity: 0.6; stroke-width: 0.7"/>
   </g>
   <g id="patch_3">
    <path d="M 43.020313 360.36 
L 43.020313 27.72 
" style="fill: none; stroke: #1a1814; stroke-linejoin: miter; stroke-linecap: square"/>
   </g>
   <g id="patch_4">
    <path d="M 43.020312 360.36 
L 712.620313 360.36 
" style="fill: none; stroke: #1a1814; stroke-linejoin: miter; stroke-linecap: square"/>
   </g>
   <g id="text_17">
    <text style="font-size: 9px; font-family: 'IBM Plex Mono'; text-anchor: start; fill: #6b655c" x="92.698965" y="225.004028" transform="rotate(-0 92.698965 225.004028)">NAR affordability threshold (HAI = 100)</text>
   </g>
   <g id="text_18">
    <text style="font-weight: 600; font-size: 12px; font-family: 'IBM Plex Sans', 'Helvetica Neue', 'Arial', 'DejaVu Sans', sans-serif; text-anchor: middle; fill: #1a1814" x="377.820312" y="12.72" transform="rotate(-0 377.820312 12.72)">Cross-Archetype HAI Through Three Cycles (shaded threshold at HAI = 100)</text>
   </g>
   <g id="legend_1">
    <g id="line2d_23">
     <path d="M 560.497813 39.51 
L 569.497813 39.51 
L 578.497813 39.51 
" style="fill: none; stroke: #6e1f1f; stroke-width: 1.4; stroke-linecap: round"/>
    </g>
    <g id="text_19">
     <text style="font-size: 9px; font-family: 'IBM Plex Sans', 'Helvetica Neue', 'Arial', 'DejaVu Sans', sans-serif; text-anchor: start; fill: #3c3833" x="585.697813" y="42.66" transform="rotate(-0 585.697813 42.66)">San Francisco (Archetype A)</text>
    </g>
    <g id="line2d_24">
     <path d="M 560.497813 52.65 
L 569.497813 52.65 
L 578.497813 52.65 
" style="fill: none; stroke: #8a2b2b; stroke-width: 1.4; stroke-linecap: round"/>
    </g>
    <g id="text_20">
     <text style="font-size: 9px; font-family: 'IBM Plex Sans', 'Helvetica Neue', 'Arial', 'DejaVu Sans', sans-serif; text-anchor: start; fill: #3c3833" x="585.697813" y="55.8" transform="rotate(-0 585.697813 55.8)">Seattle (Archetype A)</text>
    </g>
    <g id="line2d_25">
     <path d="M 560.497813 65.79 
L 569.497813 65.79 
L 578.497813 65.79 
" style="fill: none; stroke: #2e4a3f; stroke-width: 1.4; stroke-linecap: round"/>
    </g>
    <g id="text_21">
     <text style="font-size: 9px; font-family: 'IBM Plex Sans', 'Helvetica Neue', 'Arial', 'DejaVu Sans', sans-serif; text-anchor: start; fill: #3c3833" x="585.697813" y="68.94" transform="rotate(-0 585.697813 68.94)">Houston (Archetype B)</text>
    </g>
    <g id="line2d_26">
     <path d="M 560.497813 78.93 
L 569.497813 78.93 
L 578.497813 78.93 
" style="fill: none; stroke: #a87333; stroke-width: 1.4; stroke-linecap: round"/>
    </g>
    <g id="text_22">
     <text style="font-size: 9px; font-family: 'IBM Plex Sans', 'Helvetica Neue', 'Arial', 'DejaVu Sans', sans-serif; text-anchor: start; fill: #3c3833" x="585.697813" y="82.08" transform="rotate(-0 585.697813 82.08)">Washington DC (Archetype C)</text>
    </g>
   </g>
  </g>
 </g>
 <defs>
  <clipPath id="pe8585db649">
   <rect x="43.020313" y="27.72" width="669.6" height="332.64"/>
  </clipPath>
 </defs>
</svg>
