<?xml version="1.0" encoding="utf-8" standalone="no"?>
<!DOCTYPE svg PUBLIC "-//W3C//DTD SVG 1.1//EN"
  "http://www.w3.org/Graphics/SVG/1.1/DTD/svg11.dtd">
<svg xmlns:xlink="http://www.w3.org/1999/xlink" width="692.666853pt" height="503.2pt" viewBox="0 0 692.666853 503.2" xmlns="http://www.w3.org/2000/svg" version="1.1">
 <metadata>
  <rdf:RDF xmlns:dc="http://purl.org/dc/elements/1.1/" xmlns:cc="http://creativecommons.org/ns#" xmlns:rdf="http://www.w3.org/1999/02/22-rdf-syntax-ns#">
   <cc:Work>
    <dc:type rdf:resource="http://purl.org/dc/dcmitype/StillImage"/>
    <dc:date>2026-07-08T15:36:15.140081</dc:date>
    <dc:format>image/svg+xml</dc:format>
    <dc:creator>
     <cc:Agent>
      <dc:title>Matplotlib v3.10.9, https://matplotlib.org/</dc:title>
     </cc:Agent>
    </dc:creator>
   </cc:Work>
  </rdf:RDF>
 </metadata>
 <defs>
  <style type="text/css">*{stroke-linejoin: round; stroke-linecap: butt}</style>
 </defs>
 <g id="figure_1">
  <g id="patch_1">
   <path d="M 0 503.2 
L 692.666853 503.2 
L 692.666853 0 
L 0 0 
L 0 503.2 
z
" style="fill: none"/>
  </g>
  <g id="axes_1">
   <g id="patch_2">
    <path d="M 52.825 293.52 
L 666.625 293.52 
L 666.625 24.72 
L 52.825 24.72 
L 52.825 293.52 
z
" style="fill: none"/>
   </g>
   <g id="patch_3">
    <path d="M 216.671137 293.52 
L 331.497174 293.52 
L 331.497174 24.72 
L 216.671137 24.72 
z
" clip-path="url(#pb2e4499c3c)" style="fill: #6e1f1f; opacity: 0.12; stroke: #6e1f1f; stroke-linejoin: miter"/>
   </g>
   <g id="patch_4">
    <path d="M 506.31822 293.52 
L 506.31822 293.52 
L 506.31822 24.72 
L 506.31822 24.72 
z
" clip-path="url(#pb2e4499c3c)" style="fill: #2e4a3f; opacity: 0.12; stroke: #2e4a3f; stroke-linejoin: miter"/>
   </g>
   <g id="patch_5">
    <path d="M 612.266853 293.52 
L 621.144258 293.52 
L 621.144258 24.72 
L 612.266853 24.72 
z
" clip-path="url(#pb2e4499c3c)" style="fill: #a87333; opacity: 0.12; stroke: #a87333; stroke-linejoin: miter"/>
   </g>
   <g id="matplotlib.axis_1">
    <g id="xtick_1">
     <g id="line2d_1">
      <defs>
       <path id="ma6d20d70ee" d="M 0 0 
L 0 4 
" style="stroke: #1a1814; stroke-width: 0.8"/>
      </defs>
      <g>
       <use xlink:href="#ma6d20d70ee" x="78.984332" y="293.52" style="fill: #1a1814; stroke: #1a1814; stroke-width: 0.8"/>
      </g>
     </g>
    </g>
    <g id="xtick_2">
     <g id="line2d_2">
      <g>
       <use xlink:href="#ma6d20d70ee" x="163.754843" y="293.52" style="fill: #1a1814; stroke: #1a1814; stroke-width: 0.8"/>
      </g>
     </g>
    </g>
    <g id="xtick_3">
     <g id="line2d_3">
      <g>
       <use xlink:href="#ma6d20d70ee" x="248.525354" y="293.52" style="fill: #1a1814; stroke: #1a1814; stroke-width: 0.8"/>
      </g>
     </g>
    </g>
    <g id="xtick_4">
     <g id="line2d_4">
      <g>
       <use xlink:href="#ma6d20d70ee" x="333.295864" y="293.52" style="fill: #1a1814; stroke: #1a1814; stroke-width: 0.8"/>
      </g>
     </g>
    </g>
    <g id="xtick_5">
     <g id="line2d_5">
      <g>
       <use xlink:href="#ma6d20d70ee" x="418.066375" y="293.52" style="fill: #1a1814; stroke: #1a1814; stroke-width: 0.8"/>
      </g>
     </g>
    </g>
    <g id="xtick_6">
     <g id="line2d_6">
      <g>
       <use xlink:href="#ma6d20d70ee" x="502.836885" y="293.52" style="fill: #1a1814; stroke: #1a1814; stroke-width: 0.8"/>
      </g>
     </g>
    </g>
    <g id="xtick_7">
     <g id="line2d_7">
      <g>
       <use xlink:href="#ma6d20d70ee" x="587.607396" y="293.52" style="fill: #1a1814; stroke: #1a1814; stroke-width: 0.8"/>
      </g>
     </g>
    </g>
   </g>
   <g id="matplotlib.axis_2">
    <g id="ytick_1">
     <g id="line2d_8">
      <defs>
       <path id="m973b7ed5c7" d="M 0 0 
L -4 0 
" style="stroke: #1a1814; stroke-width: 0.8"/>
      </defs>
      <g>
       <use xlink:href="#m973b7ed5c7" x="52.825" y="271.805398" style="fill: #1a1814; stroke: #1a1814; stroke-width: 0.8"/>
      </g>
     </g>
     <g id="text_1">
      <text style="font-size: 9px; font-family: 'IBM Plex Sans', 'Helvetica Neue', 'Arial', 'DejaVu Sans', sans-serif; text-anchor: end; fill: #6b655c" x="45.325" y="275.135398" transform="rotate(-0 45.325 275.135398)">$200k</text>
     </g>
    </g>
    <g id="ytick_2">
     <g id="line2d_9">
      <g>
       <use xlink:href="#m973b7ed5c7" x="52.825" y="241.492055" style="fill: #1a1814; stroke: #1a1814; stroke-width: 0.8"/>
      </g>
     </g>
     <g id="text_2">
      <text style="font-size: 9px; font-family: 'IBM Plex Sans', 'Helvetica Neue', 'Arial', 'DejaVu Sans', sans-serif; text-anchor: end; fill: #6b655c" x="45.325" y="244.822055" transform="rotate(-0 45.325 244.822055)">$250k</text>
     </g>
    </g>
    <g id="ytick_3">
     <g id="line2d_10">
      <g>
       <use xlink:href="#m973b7ed5c7" x="52.825" y="211.178712" style="fill: #1a1814; stroke: #1a1814; stroke-width: 0.8"/>
      </g>
     </g>
     <g id="text_3">
      <text style="font-size: 9px; font-family: 'IBM Plex Sans', 'Helvetica Neue', 'Arial', 'DejaVu Sans', sans-serif; text-anchor: end; fill: #6b655c" x="45.325" y="214.508712" transform="rotate(-0 45.325 214.508712)">$300k</text>
     </g>
    </g>
    <g id="ytick_4">
     <g id="line2d_11">
      <g>
       <use xlink:href="#m973b7ed5c7" x="52.825" y="180.865369" style="fill: #1a1814; stroke: #1a1814; stroke-width: 0.8"/>
      </g>
     </g>
     <g id="text_4">
      <text style="font-size: 9px; font-family: 'IBM Plex Sans', 'Helvetica Neue', 'Arial', 'DejaVu Sans', sans-serif; text-anchor: end; fill: #6b655c" x="45.325" y="184.195369" transform="rotate(-0 45.325 184.195369)">$350k</text>
     </g>
    </g>
    <g id="ytick_5">
     <g id="line2d_12">
      <g>
       <use xlink:href="#m973b7ed5c7" x="52.825" y="150.552026" style="fill: #1a1814; stroke: #1a1814; stroke-width: 0.8"/>
      </g>
     </g>
     <g id="text_5">
      <text style="font-size: 9px; font-family: 'IBM Plex Sans', 'Helvetica Neue', 'Arial', 'DejaVu Sans', sans-serif; text-anchor: end; fill: #6b655c" x="45.325" y="153.882026" transform="rotate(-0 45.325 153.882026)">$400k</text>
     </g>
    </g>
    <g id="ytick_6">
     <g id="line2d_13">
      <g>
       <use xlink:href="#m973b7ed5c7" x="52.825" y="120.238683" style="fill: #1a1814; stroke: #1a1814; stroke-width: 0.8"/>
      </g>
     </g>
     <g id="text_6">
      <text style="font-size: 9px; font-family: 'IBM Plex Sans', 'Helvetica Neue', 'Arial', 'DejaVu Sans', sans-serif; text-anchor: end; fill: #6b655c" x="45.325" y="123.568683" transform="rotate(-0 45.325 123.568683)">$450k</text>
     </g>
    </g>
    <g id="ytick_7">
     <g id="line2d_14">
      <g>
       <use xlink:href="#m973b7ed5c7" x="52.825" y="89.92534" style="fill: #1a1814; stroke: #1a1814; stroke-width: 0.8"/>
      </g>
     </g>
     <g id="text_7">
      <text style="font-size: 9px; font-family: 'IBM Plex Sans', 'Helvetica Neue', 'Arial', 'DejaVu Sans', sans-serif; text-anchor: end; fill: #6b655c" x="45.325" y="93.25534" transform="rotate(-0 45.325 93.25534)">$500k</text>
     </g>
    </g>
    <g id="ytick_8">
     <g id="line2d_15">
      <g>
       <use xlink:href="#m973b7ed5c7" x="52.825" y="59.611997" style="fill: #1a1814; stroke: #1a1814; stroke-width: 0.8"/>
      </g>
     </g>
     <g id="text_8">
      <text style="font-size: 9px; font-family: 'IBM Plex Sans', 'Helvetica Neue', 'Arial', 'DejaVu Sans', sans-serif; text-anchor: end; fill: #6b655c" x="45.325" y="62.941997" transform="rotate(-0 45.325 62.941997)">$550k</text>
     </g>
    </g>
    <g id="ytick_9">
     <g id="line2d_16">
      <g>
       <use xlink:href="#m973b7ed5c7" x="52.825" y="29.298654" style="fill: #1a1814; stroke: #1a1814; stroke-width: 0.8"/>
      </g>
     </g>
     <g id="text_9">
      <text style="font-size: 9px; font-family: 'IBM Plex Sans', 'Helvetica Neue', 'Arial', 'DejaVu Sans', sans-serif; text-anchor: end; fill: #6b655c" x="45.325" y="32.628654" transform="rotate(-0 45.325 32.628654)">$600k</text>
     </g>
    </g>
    <g id="text_10">
     <text style="font-size: 10px; font-family: 'IBM Plex Sans', 'Helvetica Neue', 'Arial', 'DejaVu Sans', sans-serif; text-anchor: middle; fill: #1a1814" x="11" y="159.12" transform="rotate(-90 11 159.12)">Price ($)</text>
    </g>
   </g>
   <g id="line2d_17">
    <path d="M 80.725 281.301818 
L 84.206335 281.043477 
L 85.947003 280.664268 
L 87.745693 280.087805 
L 89.48636 279.393954 
L 93.08374 277.568605 
L 101.961144 272.596227 
L 107.125125 269.796604 
L 110.664482 267.109187 
L 121.340577 258.653675 
L 126.562579 255.189601 
L 128.303247 253.794646 
L 130.101937 252.146868 
L 133.641294 248.305395 
L 137.180651 244.122582 
L 140.720009 240.517794 
L 142.518699 238.901813 
L 144.317388 237.495974 
L 149.481369 232.582524 
L 151.280059 230.678408 
L 156.618106 224.417235 
L 161.898131 218.075354 
L 163.696821 216.169777 
L 165.495511 214.44685 
L 168.976846 210.314154 
L 170.717513 207.606973 
L 172.516203 204.426511 
L 174.256871 200.737404 
L 177.85425 192.079607 
L 179.594918 187.664179 
L 181.393608 183.919045 
L 183.134275 180.688727 
L 186.731655 174.373763 
L 191.895635 163.681477 
L 193.694325 158.982055 
L 195.434993 154.118369 
L 197.233683 149.443194 
L 200.77304 141.280299 
L 202.57173 137.716692 
L 204.312397 134.75338 
L 206.111087 132.126763 
L 213.073757 123.552232 
L 214.872447 121.920506 
L 216.613115 121.015353 
L 218.411805 120.531644 
L 220.210494 120.539213 
L 221.951162 121.438387 
L 225.490519 124.45763 
L 227.289209 125.502505 
L 232.511212 127.941928 
L 234.251879 128.407478 
L 236.050569 129.054936 
L 237.791237 130.314521 
L 239.589927 132.068258 
L 246.668641 140.005597 
L 251.948666 147.656127 
L 253.747356 150.639147 
L 255.488024 153.958067 
L 264.365428 172.220747 
L 266.164118 175.533927 
L 267.904786 178.440457 
L 271.502165 183.460747 
L 273.126788 185.97564 
L 274.925478 188.383423 
L 276.666146 190.423573 
L 278.464836 191.821558 
L 280.205503 192.790907 
L 282.004193 193.601627 
L 283.802883 194.542195 
L 285.54355 195.629841 
L 287.34224 196.418024 
L 289.082908 196.678525 
L 290.881598 196.275303 
L 292.680288 195.434694 
L 297.844268 193.351738 
L 299.642958 192.393755 
L 301.383625 191.97536 
L 303.182315 192.193929 
L 308.520362 194.443441 
L 310.26103 195.261375 
L 312.05972 195.921679 
L 313.85841 196.284575 
L 317.281722 195.876227 
L 319.02239 195.772917 
L 324.360437 196.897459 
L 326.159127 197.457722 
L 327.899795 198.251874 
L 329.698484 198.896958 
L 331.439152 199.068909 
L 333.237842 199.075424 
L 335.036532 198.970762 
L 336.719177 198.684592 
L 338.517867 198.042706 
L 347.395271 192.374659 
L 350.934629 189.401816 
L 352.675296 187.808916 
L 361.436656 181.549587 
L 363.235346 180.226749 
L 364.976014 178.633007 
L 375.652108 169.921596 
L 384.413468 165.141842 
L 386.154136 164.587207 
L 387.952826 164.399242 
L 389.751516 164.343407 
L 393.290873 163.658523 
L 395.031541 163.147772 
L 398.62892 162.537959 
L 403.792901 161.247864 
L 407.332258 161.103622 
L 409.130948 160.801389 
L 410.929638 160.339634 
L 412.670305 159.674682 
L 421.489688 155.676195 
L 423.288377 155.363402 
L 426.827735 155.469393 
L 433.90645 155.00298 
L 435.705139 154.349331 
L 437.445807 153.283332 
L 442.66781 149.629244 
L 446.207167 147.67948 
L 448.005857 147.223914 
L 449.746524 147.043415 
L 451.545214 147.060534 
L 453.343904 146.881343 
L 455.084572 146.331536 
L 458.623929 144.492599 
L 465.644622 140.388523 
L 469.183979 138.893413 
L 470.924646 138.545211 
L 481.600741 134.843336 
L 483.399431 134.265539 
L 485.024054 133.417836 
L 486.822744 132.241794 
L 488.563411 130.959034 
L 490.362101 130.12499 
L 492.102769 129.663138 
L 493.901458 129.422972 
L 497.440816 128.669488 
L 499.239506 128.054089 
L 500.980173 127.148453 
L 502.778863 125.88814 
L 504.577553 124.319885 
L 508.058888 120.882993 
L 509.799555 119.442478 
L 511.598245 118.729595 
L 513.338913 118.58047 
L 515.137603 118.276399 
L 516.936293 116.939135 
L 518.67696 114.332279 
L 520.47565 110.986198 
L 522.216317 107.299895 
L 524.015007 103.800682 
L 525.813697 100.636562 
L 529.23701 93.778335 
L 532.776367 85.626464 
L 534.517035 82.043245 
L 536.315725 79.853189 
L 538.114415 79.08852 
L 539.855082 79.444069 
L 541.653772 79.524155 
L 543.39444 79.02739 
L 545.193129 77.687907 
L 546.991819 75.236898 
L 548.616442 71.524475 
L 552.1558 61.695595 
L 553.954489 57.652312 
L 555.695157 55.380316 
L 557.493847 55.406825 
L 559.292537 57.391876 
L 561.033204 60.234304 
L 562.831894 62.177743 
L 564.572562 63.230992 
L 568.169941 64.12283 
L 569.794564 64.287472 
L 571.593254 64.205097 
L 573.333922 63.255549 
L 575.132612 61.664909 
L 576.873279 59.401229 
L 578.671969 57.309492 
L 580.470659 55.611832 
L 582.211326 54.532319 
L 584.010016 53.825346 
L 587.549374 53.068407 
L 589.348063 52.80668 
L 591.030709 51.910109 
L 592.829398 50.023653 
L 594.570066 47.423369 
L 596.368756 45.287227 
L 598.109423 44.239886 
L 601.706803 43.567008 
L 603.447471 42.676905 
L 605.24616 41.382069 
L 606.986828 39.943882 
L 608.785518 38.65708 
L 610.584208 37.675593 
L 612.208831 36.974725 
L 614.007521 36.938182 
L 615.748188 37.111524 
L 621.086235 39.270514 
L 622.884925 39.60741 
L 624.625593 39.571915 
L 626.424283 39.199941 
L 629.96364 38.021222 
L 631.76233 37.905951 
L 633.386953 38.017411 
L 635.185643 38.322648 
L 638.725 39.597346 
L 638.725 39.597346 
" clip-path="url(#pb2e4499c3c)" style="fill: none; stroke: #1a1814; stroke-width: 1.3; stroke-linecap: round"/>
   </g>
   <g id="patch_6">
    <path d="M 52.825 293.52 
L 52.825 24.72 
" style="fill: none; stroke: #1a1814; stroke-linejoin: miter; stroke-linecap: square"/>
   </g>
   <g id="patch_7">
    <path d="M 52.825 293.52 
L 666.625 293.52 
" style="fill: none; stroke: #1a1814; stroke-linejoin: miter; stroke-linecap: square"/>
   </g>
   <g id="text_11">
    <text style="font-size: 8px; font-family: 'IBM Plex Mono'; text-anchor: start; fill: #6e1f1f" x="216.671137" y="44.060594" transform="rotate(-0 216.671137 44.060594)">2008 GFC</text>
   </g>
   <g id="text_12">
    <text style="font-size: 8px; font-family: 'IBM Plex Mono'; text-anchor: start; fill: #2e4a3f" x="506.31822" y="44.060594" transform="rotate(-0 506.31822 44.060594)">2020 COVID</text>
   </g>
   <g id="text_13">
    <text style="font-size: 8px; font-family: 'IBM Plex Mono'; text-anchor: start; fill: #a87333" x="612.266853" y="44.060594" transform="rotate(-0 612.266853 44.060594)">2022+ rate shock</text>
   </g>
   <g id="text_14">
    <text style="font-weight: 600; font-size: 12px; font-family: 'IBM Plex Sans', 'Helvetica Neue', 'Arial', 'DejaVu Sans', sans-serif; text-anchor: middle; fill: #1a1814" x="359.725" y="12.72" transform="rotate(-0 359.725 12.72)">Washington MSA Typical Home Value (2000-2026), with Peak-to-Trough Windows</text>
   </g>
  </g>
  <g id="axes_2">
   <g id="patch_8">
    <path d="M 52.825 468.24 
L 666.625 468.24 
L 666.625 333.84 
L 52.825 333.84 
L 52.825 468.24 
z
" style="fill: none"/>
   </g>
   <g id="FillBetweenPolyCollection_1">
    <defs>
     <path id="m0f6c2d487d" d="M 80.725 -163.250909 
L 80.725 -163.250909 
L 82.407645 -163.250909 
L 84.206335 -163.250909 
L 85.947003 -163.250909 
L 87.745693 -163.250909 
L 89.48636 -163.250909 
L 91.28505 -163.250909 
L 93.08374 -163.250909 
L 94.824407 -163.250909 
L 96.623097 -163.250909 
L 98.363765 -163.250909 
L 100.162455 -163.250909 
L 101.961144 -163.250909 
L 103.585767 -163.250909 
L 105.384457 -163.250909 
L 107.125125 -163.250909 
L 108.923815 -163.250909 
L 110.664482 -163.250909 
L 112.463172 -163.250909 
L 114.261862 -163.250909 
L 116.002529 -163.250909 
L 117.801219 -163.250909 
L 119.541887 -163.250909 
L 121.340577 -163.250909 
L 123.139266 -163.250909 
L 124.763889 -163.250909 
L 126.562579 -163.250909 
L 128.303247 -163.250909 
L 130.101937 -163.250909 
L 131.842604 -163.250909 
L 133.641294 -163.250909 
L 135.439984 -163.250909 
L 137.180651 -163.250909 
L 138.979341 -163.250909 
L 140.720009 -163.250909 
L 142.518699 -163.250909 
L 144.317388 -163.250909 
L 145.942012 -163.250909 
L 147.740701 -163.250909 
L 149.481369 -163.250909 
L 151.280059 -163.250909 
L 153.020726 -163.250909 
L 154.819416 -163.250909 
L 156.618106 -163.250909 
L 158.358774 -163.250909 
L 160.157463 -163.250909 
L 161.898131 -163.250909 
L 163.696821 -163.250909 
L 165.495511 -163.250909 
L 167.178156 -163.250909 
L 168.976846 -163.250909 
L 170.717513 -163.250909 
L 172.516203 -163.250909 
L 174.256871 -163.250909 
L 176.05556 -163.250909 
L 177.85425 -163.250909 
L 179.594918 -163.250909 
L 181.393608 -163.250909 
L 183.134275 -163.250909 
L 184.932965 -163.250909 
L 186.731655 -163.250909 
L 188.356278 -163.250909 
L 190.154968 -163.250909 
L 191.895635 -163.250909 
L 193.694325 -163.250909 
L 195.434993 -163.250909 
L 197.233683 -163.250909 
L 199.032372 -163.250909 
L 200.77304 -163.250909 
L 202.57173 -163.250909 
L 204.312397 -163.250909 
L 206.111087 -163.250909 
L 207.909777 -163.250909 
L 209.5344 -163.250909 
L 211.33309 -163.250909 
L 213.073757 -163.250909 
L 214.872447 -163.250909 
L 216.613115 -163.250909 
L 218.411805 -163.250909 
L 220.210494 -163.239136 
L 221.951162 -161.84039 
L 223.749852 -159.425037 
L 225.490519 -157.14369 
L 227.289209 -155.518294 
L 229.087899 -154.198997 
L 230.712522 -152.912432 
L 232.511212 -151.723556 
L 234.251879 -150.999351 
L 236.050569 -149.992172 
L 237.791237 -148.032777 
L 239.589927 -145.304683 
L 241.388617 -142.230057 
L 243.129284 -139.492961 
L 244.927974 -136.374831 
L 246.668641 -132.957448 
L 248.467331 -128.995069 
L 250.266021 -125.14929 
L 251.948666 -121.056369 
L 253.747356 -116.416017 
L 255.488024 -111.253144 
L 257.286714 -105.419096 
L 259.027381 -99.710885 
L 260.826071 -93.910806 
L 262.624761 -88.423033 
L 264.365428 -82.843924 
L 266.164118 -77.689978 
L 267.904786 -73.168612 
L 269.703476 -69.325851 
L 271.502165 -65.359106 
L 273.126788 -61.446968 
L 274.925478 -57.701447 
L 276.666146 -54.527813 
L 278.464836 -52.353123 
L 280.205503 -50.845215 
L 282.004193 -49.584068 
L 283.802883 -48.120931 
L 285.54355 -46.429 
L 287.34224 -45.202911 
L 289.082908 -44.79768 
L 290.881598 -45.424927 
L 292.680288 -46.732569 
L 294.304911 -47.700979 
L 296.1036 -48.797912 
L 297.844268 -49.972792 
L 299.642958 -51.46302 
L 301.383625 -52.11387 
L 303.182315 -51.773866 
L 304.981005 -50.642391 
L 306.721673 -49.431536 
L 308.520362 -48.274551 
L 310.26103 -47.002183 
L 312.05972 -45.975021 
L 313.85841 -45.410503 
L 315.483033 -45.73997 
L 317.281722 -46.045725 
L 319.02239 -46.206433 
L 320.82108 -45.673922 
L 322.561747 -45.262025 
L 324.360437 -44.457109 
L 326.159127 -43.58557 
L 327.899795 -42.350195 
L 329.698484 -41.34671 
L 331.439152 -41.079225 
L 333.237842 -41.069091 
L 335.036532 -41.231902 
L 336.719177 -41.677064 
L 338.517867 -42.675575 
L 340.258534 -44.368761 
L 342.057224 -45.982517 
L 343.797892 -47.895679 
L 345.596582 -49.577086 
L 347.395271 -51.492725 
L 349.135939 -53.677661 
L 350.934629 -56.117246 
L 352.675296 -58.595144 
L 354.473986 -60.554159 
L 356.272676 -62.411341 
L 357.897299 -64.375399 
L 359.695989 -66.322882 
L 361.436656 -68.332086 
L 363.235346 -70.389877 
L 364.976014 -72.869083 
L 366.774704 -75.187761 
L 368.573393 -77.427161 
L 370.314061 -79.644705 
L 372.112751 -82.092079 
L 373.853418 -84.416932 
L 375.652108 -86.420458 
L 377.450798 -87.980892 
L 379.075421 -89.441796 
L 380.874111 -90.892362 
L 382.614779 -92.557371 
L 384.413468 -93.855789 
L 386.154136 -94.718572 
L 387.952826 -95.010968 
L 389.751516 -95.097826 
L 391.492183 -95.55657 
L 393.290873 -96.163222 
L 395.031541 -96.957742 
L 396.83023 -97.40025 
L 398.62892 -97.90636 
L 400.253543 -98.593745 
L 402.052233 -99.442794 
L 403.792901 -99.913217 
L 405.59159 -100.077873 
L 407.332258 -100.137598 
L 409.130948 -100.607749 
L 410.929638 -101.32605 
L 412.670305 -102.360442 
L 414.468995 -103.636858 
L 416.209663 -104.968671 
L 418.008352 -106.189413 
L 419.807042 -107.515438 
L 421.489688 -108.580442 
L 423.288377 -109.06702 
L 425.029045 -109.010385 
L 426.827735 -108.902141 
L 428.568402 -109.106846 
L 430.367092 -109.282074 
L 432.165782 -109.36441 
L 433.90645 -109.627688 
L 435.705139 -110.644496 
L 437.445807 -112.302753 
L 439.244497 -114.312505 
L 441.043187 -116.144426 
L 442.66781 -117.987011 
L 444.466499 -119.60287 
L 446.207167 -121.020042 
L 448.005857 -121.728715 
L 449.746524 -122.009498 
L 451.545214 -121.982868 
L 453.343904 -122.261615 
L 455.084572 -123.116889 
L 456.883261 -124.473986 
L 458.623929 -125.977517 
L 460.422619 -127.627569 
L 462.221309 -129.292196 
L 463.845932 -130.821055 
L 465.644622 -132.361772 
L 467.385289 -133.514976 
L 469.183979 -134.687548 
L 470.924646 -135.229208 
L 472.723336 -136.227943 
L 474.522026 -137.143671 
L 476.262694 -138.301843 
L 478.061383 -139.195064 
L 479.802051 -140.101232 
L 481.600741 -140.987803 
L 483.399431 -141.886617 
L 485.024054 -143.205295 
L 486.822744 -145.034732 
L 488.563411 -147.030179 
L 490.362101 -148.327608 
L 492.102769 -149.04606 
L 493.901458 -149.419661 
L 495.700148 -149.999395 
L 497.440816 -150.591772 
L 499.239506 -151.54908 
L 500.980173 -152.957876 
L 502.778863 -154.918405 
L 504.577553 -157.357965 
L 506.260198 -160.006643 
L 508.058888 -162.704355 
L 509.799555 -163.250909 
L 511.598245 -163.250909 
L 513.338913 -163.250909 
L 515.137603 -163.250909 
L 516.936293 -163.250909 
L 518.67696 -163.250909 
L 520.47565 -163.250909 
L 522.216317 -163.250909 
L 524.015007 -163.250909 
L 525.813697 -163.250909 
L 527.43832 -163.250909 
L 529.23701 -163.250909 
L 530.977678 -163.250909 
L 532.776367 -163.250909 
L 534.517035 -163.250909 
L 536.315725 -163.250909 
L 538.114415 -163.250909 
L 539.855082 -162.770826 
L 541.653772 -162.662691 
L 543.39444 -163.250909 
L 545.193129 -163.250909 
L 546.991819 -163.250909 
L 548.616442 -163.250909 
L 550.415132 -163.250909 
L 552.1558 -163.250909 
L 553.954489 -163.250909 
L 555.695157 -163.250909 
L 557.493847 -163.217628 
L 559.292537 -160.725486 
L 561.033204 -157.156944 
L 562.831894 -154.717044 
L 564.572562 -153.394738 
L 566.371251 -152.877866 
L 568.169941 -152.275075 
L 569.794564 -152.068374 
L 571.593254 -152.171793 
L 573.333922 -153.363908 
L 575.132612 -155.360884 
L 576.873279 -158.202833 
L 578.671969 -160.828915 
L 580.470659 -162.960251 
L 582.211326 -163.250909 
L 584.010016 -163.250909 
L 585.750684 -163.250909 
L 587.549374 -163.250909 
L 589.348063 -163.250909 
L 591.030709 -163.250909 
L 592.829398 -163.250909 
L 594.570066 -163.250909 
L 596.368756 -163.250909 
L 598.109423 -163.250909 
L 599.908113 -163.250909 
L 601.706803 -163.250909 
L 603.447471 -163.250909 
L 605.24616 -163.250909 
L 606.986828 -163.250909 
L 608.785518 -163.250909 
L 610.584208 -163.250909 
L 612.208831 -163.250909 
L 614.007521 -163.250909 
L 615.748188 -163.044556 
L 617.546878 -162.165097 
L 619.287545 -161.215029 
L 621.086235 -160.474408 
L 622.884925 -160.073354 
L 624.625593 -160.115608 
L 626.424283 -160.55842 
L 628.16495 -161.2699 
L 629.96364 -161.961615 
L 631.76233 -162.098838 
L 633.386953 -161.966151 
L 635.185643 -161.602786 
L 636.92631 -160.862546 
L 638.725 -160.085334 
L 638.725 -163.250909 
L 638.725 -163.250909 
L 636.92631 -163.250909 
L 635.185643 -163.250909 
L 633.386953 -163.250909 
L 631.76233 -163.250909 
L 629.96364 -163.250909 
L 628.16495 -163.250909 
L 626.424283 -163.250909 
L 624.625593 -163.250909 
L 622.884925 -163.250909 
L 621.086235 -163.250909 
L 619.287545 -163.250909 
L 617.546878 -163.250909 
L 615.748188 -163.250909 
L 614.007521 -163.250909 
L 612.208831 -163.250909 
L 610.584208 -163.250909 
L 608.785518 -163.250909 
L 606.986828 -163.250909 
L 605.24616 -163.250909 
L 603.447471 -163.250909 
L 601.706803 -163.250909 
L 599.908113 -163.250909 
L 598.109423 -163.250909 
L 596.368756 -163.250909 
L 594.570066 -163.250909 
L 592.829398 -163.250909 
L 591.030709 -163.250909 
L 589.348063 -163.250909 
L 587.549374 -163.250909 
L 585.750684 -163.250909 
L 584.010016 -163.250909 
L 582.211326 -163.250909 
L 580.470659 -163.250909 
L 578.671969 -163.250909 
L 576.873279 -163.250909 
L 575.132612 -163.250909 
L 573.333922 -163.250909 
L 571.593254 -163.250909 
L 569.794564 -163.250909 
L 568.169941 -163.250909 
L 566.371251 -163.250909 
L 564.572562 -163.250909 
L 562.831894 -163.250909 
L 561.033204 -163.250909 
L 559.292537 -163.250909 
L 557.493847 -163.250909 
L 555.695157 -163.250909 
L 553.954489 -163.250909 
L 552.1558 -163.250909 
L 550.415132 -163.250909 
L 548.616442 -163.250909 
L 546.991819 -163.250909 
L 545.193129 -163.250909 
L 543.39444 -163.250909 
L 541.653772 -163.250909 
L 539.855082 -163.250909 
L 538.114415 -163.250909 
L 536.315725 -163.250909 
L 534.517035 -163.250909 
L 532.776367 -163.250909 
L 530.977678 -163.250909 
L 529.23701 -163.250909 
L 527.43832 -163.250909 
L 525.813697 -163.250909 
L 524.015007 -163.250909 
L 522.216317 -163.250909 
L 520.47565 -163.250909 
L 518.67696 -163.250909 
L 516.936293 -163.250909 
L 515.137603 -163.250909 
L 513.338913 -163.250909 
L 511.598245 -163.250909 
L 509.799555 -163.250909 
L 508.058888 -163.250909 
L 506.260198 -163.250909 
L 504.577553 -163.250909 
L 502.778863 -163.250909 
L 500.980173 -163.250909 
L 499.239506 -163.250909 
L 497.440816 -163.250909 
L 495.700148 -163.250909 
L 493.901458 -163.250909 
L 492.102769 -163.250909 
L 490.362101 -163.250909 
L 488.563411 -163.250909 
L 486.822744 -163.250909 
L 485.024054 -163.250909 
L 483.399431 -163.250909 
L 481.600741 -163.250909 
L 479.802051 -163.250909 
L 478.061383 -163.250909 
L 476.262694 -163.250909 
L 474.522026 -163.250909 
L 472.723336 -163.250909 
L 470.924646 -163.250909 
L 469.183979 -163.250909 
L 467.385289 -163.250909 
L 465.644622 -163.250909 
L 463.845932 -163.250909 
L 462.221309 -163.250909 
L 460.422619 -163.250909 
L 458.623929 -163.250909 
L 456.883261 -163.250909 
L 455.084572 -163.250909 
L 453.343904 -163.250909 
L 451.545214 -163.250909 
L 449.746524 -163.250909 
L 448.005857 -163.250909 
L 446.207167 -163.250909 
L 444.466499 -163.250909 
L 442.66781 -163.250909 
L 441.043187 -163.250909 
L 439.244497 -163.250909 
L 437.445807 -163.250909 
L 435.705139 -163.250909 
L 433.90645 -163.250909 
L 432.165782 -163.250909 
L 430.367092 -163.250909 
L 428.568402 -163.250909 
L 426.827735 -163.250909 
L 425.029045 -163.250909 
L 423.288377 -163.250909 
L 421.489688 -163.250909 
L 419.807042 -163.250909 
L 418.008352 -163.250909 
L 416.209663 -163.250909 
L 414.468995 -163.250909 
L 412.670305 -163.250909 
L 410.929638 -163.250909 
L 409.130948 -163.250909 
L 407.332258 -163.250909 
L 405.59159 -163.250909 
L 403.792901 -163.250909 
L 402.052233 -163.250909 
L 400.253543 -163.250909 
L 398.62892 -163.250909 
L 396.83023 -163.250909 
L 395.031541 -163.250909 
L 393.290873 -163.250909 
L 391.492183 -163.250909 
L 389.751516 -163.250909 
L 387.952826 -163.250909 
L 386.154136 -163.250909 
L 384.413468 -163.250909 
L 382.614779 -163.250909 
L 380.874111 -163.250909 
L 379.075421 -163.250909 
L 377.450798 -163.250909 
L 375.652108 -163.250909 
L 373.853418 -163.250909 
L 372.112751 -163.250909 
L 370.314061 -163.250909 
L 368.573393 -163.250909 
L 366.774704 -163.250909 
L 364.976014 -163.250909 
L 363.235346 -163.250909 
L 361.436656 -163.250909 
L 359.695989 -163.250909 
L 357.897299 -163.250909 
L 356.272676 -163.250909 
L 354.473986 -163.250909 
L 352.675296 -163.250909 
L 350.934629 -163.250909 
L 349.135939 -163.250909 
L 347.395271 -163.250909 
L 345.596582 -163.250909 
L 343.797892 -163.250909 
L 342.057224 -163.250909 
L 340.258534 -163.250909 
L 338.517867 -163.250909 
L 336.719177 -163.250909 
L 335.036532 -163.250909 
L 333.237842 -163.250909 
L 331.439152 -163.250909 
L 329.698484 -163.250909 
L 327.899795 -163.250909 
L 326.159127 -163.250909 
L 324.360437 -163.250909 
L 322.561747 -163.250909 
L 320.82108 -163.250909 
L 319.02239 -163.250909 
L 317.281722 -163.250909 
L 315.483033 -163.250909 
L 313.85841 -163.250909 
L 312.05972 -163.250909 
L 310.26103 -163.250909 
L 308.520362 -163.250909 
L 306.721673 -163.250909 
L 304.981005 -163.250909 
L 303.182315 -163.250909 
L 301.383625 -163.250909 
L 299.642958 -163.250909 
L 297.844268 -163.250909 
L 296.1036 -163.250909 
L 294.304911 -163.250909 
L 292.680288 -163.250909 
L 290.881598 -163.250909 
L 289.082908 -163.250909 
L 287.34224 -163.250909 
L 285.54355 -163.250909 
L 283.802883 -163.250909 
L 282.004193 -163.250909 
L 280.205503 -163.250909 
L 278.464836 -163.250909 
L 276.666146 -163.250909 
L 274.925478 -163.250909 
L 273.126788 -163.250909 
L 271.502165 -163.250909 
L 269.703476 -163.250909 
L 267.904786 -163.250909 
L 266.164118 -163.250909 
L 264.365428 -163.250909 
L 262.624761 -163.250909 
L 260.826071 -163.250909 
L 259.027381 -163.250909 
L 257.286714 -163.250909 
L 255.488024 -163.250909 
L 253.747356 -163.250909 
L 251.948666 -163.250909 
L 250.266021 -163.250909 
L 248.467331 -163.250909 
L 246.668641 -163.250909 
L 244.927974 -163.250909 
L 243.129284 -163.250909 
L 241.388617 -163.250909 
L 239.589927 -163.250909 
L 237.791237 -163.250909 
L 236.050569 -163.250909 
L 234.251879 -163.250909 
L 232.511212 -163.250909 
L 230.712522 -163.250909 
L 229.087899 -163.250909 
L 227.289209 -163.250909 
L 225.490519 -163.250909 
L 223.749852 -163.250909 
L 221.951162 -163.250909 
L 220.210494 -163.250909 
L 218.411805 -163.250909 
L 216.613115 -163.250909 
L 214.872447 -163.250909 
L 213.073757 -163.250909 
L 211.33309 -163.250909 
L 209.5344 -163.250909 
L 207.909777 -163.250909 
L 206.111087 -163.250909 
L 204.312397 -163.250909 
L 202.57173 -163.250909 
L 200.77304 -163.250909 
L 199.032372 -163.250909 
L 197.233683 -163.250909 
L 195.434993 -163.250909 
L 193.694325 -163.250909 
L 191.895635 -163.250909 
L 190.154968 -163.250909 
L 188.356278 -163.250909 
L 186.731655 -163.250909 
L 184.932965 -163.250909 
L 183.134275 -163.250909 
L 181.393608 -163.250909 
L 179.594918 -163.250909 
L 177.85425 -163.250909 
L 176.05556 -163.250909 
L 174.256871 -163.250909 
L 172.516203 -163.250909 
L 170.717513 -163.250909 
L 168.976846 -163.250909 
L 167.178156 -163.250909 
L 165.495511 -163.250909 
L 163.696821 -163.250909 
L 161.898131 -163.250909 
L 160.157463 -163.250909 
L 158.358774 -163.250909 
L 156.618106 -163.250909 
L 154.819416 -163.250909 
L 153.020726 -163.250909 
L 151.280059 -163.250909 
L 149.481369 -163.250909 
L 147.740701 -163.250909 
L 145.942012 -163.250909 
L 144.317388 -163.250909 
L 142.518699 -163.250909 
L 140.720009 -163.250909 
L 138.979341 -163.250909 
L 137.180651 -163.250909 
L 135.439984 -163.250909 
L 133.641294 -163.250909 
L 131.842604 -163.250909 
L 130.101937 -163.250909 
L 128.303247 -163.250909 
L 126.562579 -163.250909 
L 124.763889 -163.250909 
L 123.139266 -163.250909 
L 121.340577 -163.250909 
L 119.541887 -163.250909 
L 117.801219 -163.250909 
L 116.002529 -163.250909 
L 114.261862 -163.250909 
L 112.463172 -163.250909 
L 110.664482 -163.250909 
L 108.923815 -163.250909 
L 107.125125 -163.250909 
L 105.384457 -163.250909 
L 103.585767 -163.250909 
L 101.961144 -163.250909 
L 100.162455 -163.250909 
L 98.363765 -163.250909 
L 96.623097 -163.250909 
L 94.824407 -163.250909 
L 93.08374 -163.250909 
L 91.28505 -163.250909 
L 89.48636 -163.250909 
L 87.745693 -163.250909 
L 85.947003 -163.250909 
L 84.206335 -163.250909 
L 82.407645 -163.250909 
L 80.725 -163.250909 
z
" style="stroke: #6e1f1f; stroke-opacity: 0.4"/>
    </defs>
    <g clip-path="url(#pba74499c8c)">
     <use xlink:href="#m0f6c2d487d" x="0" y="503.2" style="fill: #6e1f1f; fill-opacity: 0.4; stroke: #6e1f1f; stroke-opacity: 0.4"/>
    </g>
   </g>
   <g id="matplotlib.axis_3">
    <g id="xtick_8">
     <g id="line2d_18">
      <g>
       <use xlink:href="#ma6d20d70ee" x="78.984332" y="468.24" style="fill: #1a1814; stroke: #1a1814; stroke-width: 0.8"/>
      </g>
     </g>
     <g id="text_15">
      <text style="font-size: 9px; font-family: 'IBM Plex Sans', 'Helvetica Neue', 'Arial', 'DejaVu Sans', sans-serif; text-anchor: middle; fill: #6b655c" x="78.984332" y="482.4" transform="rotate(-0 78.984332 482.4)">2000</text>
     </g>
    </g>
    <g id="xtick_9">
     <g id="line2d_19">
      <g>
       <use xlink:href="#ma6d20d70ee" x="163.754843" y="468.24" style="fill: #1a1814; stroke: #1a1814; stroke-width: 0.8"/>
      </g>
     </g>
     <g id="text_16">
      <text style="font-size: 9px; font-family: 'IBM Plex Sans', 'Helvetica Neue', 'Arial', 'DejaVu Sans', sans-serif; text-anchor: middle; fill: #6b655c" x="163.754843" y="482.4" transform="rotate(-0 163.754843 482.4)">2004</text>
     </g>
    </g>
    <g id="xtick_10">
     <g id="line2d_20">
      <g>
       <use xlink:href="#ma6d20d70ee" x="248.525354" y="468.24" style="fill: #1a1814; stroke: #1a1814; stroke-width: 0.8"/>
      </g>
     </g>
     <g id="text_17">
      <text style="font-size: 9px; font-family: 'IBM Plex Sans', 'Helvetica Neue', 'Arial', 'DejaVu Sans', sans-serif; text-anchor: middle; fill: #6b655c" x="248.525354" y="482.4" transform="rotate(-0 248.525354 482.4)">2008</text>
     </g>
    </g>
    <g id="xtick_11">
     <g id="line2d_21">
      <g>
       <use xlink:href="#ma6d20d70ee" x="333.295864" y="468.24" style="fill: #1a1814; stroke: #1a1814; stroke-width: 0.8"/>
      </g>
     </g>
     <g id="text_18">
      <text style="font-size: 9px; font-family: 'IBM Plex Sans', 'Helvetica Neue', 'Arial', 'DejaVu Sans', sans-serif; text-anchor: middle; fill: #6b655c" x="333.295864" y="482.4" transform="rotate(-0 333.295864 482.4)">2012</text>
     </g>
    </g>
    <g id="xtick_12">
     <g id="line2d_22">
      <g>
       <use xlink:href="#ma6d20d70ee" x="418.066375" y="468.24" style="fill: #1a1814; stroke: #1a1814; stroke-width: 0.8"/>
      </g>
     </g>
     <g id="text_19">
      <text style="font-size: 9px; font-family: 'IBM Plex Sans', 'Helvetica Neue', 'Arial', 'DejaVu Sans', sans-serif; text-anchor: middle; fill: #6b655c" x="418.066375" y="482.4" transform="rotate(-0 418.066375 482.4)">2016</text>
     </g>
    </g>
    <g id="xtick_13">
     <g id="line2d_23">
      <g>
       <use xlink:href="#ma6d20d70ee" x="502.836885" y="468.24" style="fill: #1a1814; stroke: #1a1814; stroke-width: 0.8"/>
      </g>
     </g>
     <g id="text_20">
      <text style="font-size: 9px; font-family: 'IBM Plex Sans', 'Helvetica Neue', 'Arial', 'DejaVu Sans', sans-serif; text-anchor: middle; fill: #6b655c" x="502.836885" y="482.4" transform="rotate(-0 502.836885 482.4)">2020</text>
     </g>
    </g>
    <g id="xtick_14">
     <g id="line2d_24">
      <g>
       <use xlink:href="#ma6d20d70ee" x="587.607396" y="468.24" style="fill: #1a1814; stroke: #1a1814; stroke-width: 0.8"/>
      </g>
     </g>
     <g id="text_21">
      <text style="font-size: 9px; font-family: 'IBM Plex Sans', 'Helvetica Neue', 'Arial', 'DejaVu Sans', sans-serif; text-anchor: middle; fill: #6b655c" x="587.607396" y="482.4" transform="rotate(-0 587.607396 482.4)">2024</text>
     </g>
    </g>
    <g id="text_22">
     <text style="font-size: 10px; font-family: 'IBM Plex Sans', 'Helvetica Neue', 'Arial', 'DejaVu Sans', sans-serif; text-anchor: middle; fill: #1a1814" x="359.725" y="497.6" transform="rotate(-0 359.725 497.6)">Year</text>
    </g>
   </g>
   <g id="matplotlib.axis_4">
    <g id="ytick_10">
     <g id="line2d_25">
      <g>
       <use xlink:href="#m973b7ed5c7" x="52.825" y="467.131129" style="fill: #1a1814; stroke: #1a1814; stroke-width: 0.8"/>
      </g>
     </g>
     <g id="text_23">
      <text style="font-size: 9px; font-family: 'IBM Plex Sans', 'Helvetica Neue', 'Arial', 'DejaVu Sans', sans-serif; text-anchor: end; fill: #6b655c" x="45.325" y="470.461129" transform="rotate(-0 45.325 470.461129)">−30</text>
     </g>
    </g>
    <g id="ytick_11">
     <g id="line2d_26">
      <g>
       <use xlink:href="#m973b7ed5c7" x="52.825" y="445.934122" style="fill: #1a1814; stroke: #1a1814; stroke-width: 0.8"/>
      </g>
     </g>
     <g id="text_24">
      <text style="font-size: 9px; font-family: 'IBM Plex Sans', 'Helvetica Neue', 'Arial', 'DejaVu Sans', sans-serif; text-anchor: end; fill: #6b655c" x="45.325" y="449.264122" transform="rotate(-0 45.325 449.264122)">−25</text>
     </g>
    </g>
    <g id="ytick_12">
     <g id="line2d_27">
      <g>
       <use xlink:href="#m973b7ed5c7" x="52.825" y="424.737116" style="fill: #1a1814; stroke: #1a1814; stroke-width: 0.8"/>
      </g>
     </g>
     <g id="text_25">
      <text style="font-size: 9px; font-family: 'IBM Plex Sans', 'Helvetica Neue', 'Arial', 'DejaVu Sans', sans-serif; text-anchor: end; fill: #6b655c" x="45.325" y="428.067116" transform="rotate(-0 45.325 428.067116)">−20</text>
     </g>
    </g>
    <g id="ytick_13">
     <g id="line2d_28">
      <g>
       <use xlink:href="#m973b7ed5c7" x="52.825" y="403.54011" style="fill: #1a1814; stroke: #1a1814; stroke-width: 0.8"/>
      </g>
     </g>
     <g id="text_26">
      <text style="font-size: 9px; font-family: 'IBM Plex Sans', 'Helvetica Neue', 'Arial', 'DejaVu Sans', sans-serif; text-anchor: end; fill: #6b655c" x="45.325" y="406.87011" transform="rotate(-0 45.325 406.87011)">−15</text>
     </g>
    </g>
    <g id="ytick_14">
     <g id="line2d_29">
      <g>
       <use xlink:href="#m973b7ed5c7" x="52.825" y="382.343104" style="fill: #1a1814; stroke: #1a1814; stroke-width: 0.8"/>
      </g>
     </g>
     <g id="text_27">
      <text style="font-size: 9px; font-family: 'IBM Plex Sans', 'Helvetica Neue', 'Arial', 'DejaVu Sans', sans-serif; text-anchor: end; fill: #6b655c" x="45.325" y="385.673104" transform="rotate(-0 45.325 385.673104)">−10</text>
     </g>
    </g>
    <g id="ytick_15">
     <g id="line2d_30">
      <g>
       <use xlink:href="#m973b7ed5c7" x="52.825" y="361.146097" style="fill: #1a1814; stroke: #1a1814; stroke-width: 0.8"/>
      </g>
     </g>
     <g id="text_28">
      <text style="font-size: 9px; font-family: 'IBM Plex Sans', 'Helvetica Neue', 'Arial', 'DejaVu Sans', sans-serif; text-anchor: end; fill: #6b655c" x="45.325" y="364.476097" transform="rotate(-0 45.325 364.476097)">−5</text>
     </g>
    </g>
    <g id="ytick_16">
     <g id="line2d_31">
      <g>
       <use xlink:href="#m973b7ed5c7" x="52.825" y="339.949091" style="fill: #1a1814; stroke: #1a1814; stroke-width: 0.8"/>
      </g>
     </g>
     <g id="text_29">
      <text style="font-size: 9px; font-family: 'IBM Plex Sans', 'Helvetica Neue', 'Arial', 'DejaVu Sans', sans-serif; text-anchor: end; fill: #6b655c" x="45.325" y="343.279091" transform="rotate(-0 45.325 343.279091)">0</text>
     </g>
    </g>
    <g id="text_30">
     <text style="font-size: 10px; font-family: 'IBM Plex Sans', 'Helvetica Neue', 'Arial', 'DejaVu Sans', sans-serif; text-anchor: middle; fill: #1a1814" x="21.125" y="401.04" transform="rotate(-90 21.125 401.04)">Drawdown from prior peak (%)</text>
    </g>
   </g>
   <g id="patch_9">
    <path d="M 52.825 468.24 
L 52.825 333.84 
" style="fill: none; stroke: #1a1814; stroke-linejoin: miter; stroke-linecap: square"/>
   </g>
   <g id="patch_10">
    <path d="M 52.825 468.24 
L 666.625 468.24 
" style="fill: none; stroke: #1a1814; stroke-linejoin: miter; stroke-linecap: square"/>
   </g>
  </g>
 </g>
 <defs>
  <clipPath id="pb2e4499c3c">
   <rect x="52.825" y="24.72" width="613.8" height="268.8"/>
  </clipPath>
  <clipPath id="pba74499c8c">
   <rect x="52.825" y="333.84" width="613.8" height="134.4"/>
  </clipPath>
 </defs>
</svg>
