<?xml version="1.0" encoding="utf-8" standalone="no"?>
<!DOCTYPE svg PUBLIC "-//W3C//DTD SVG 1.1//EN"
  "http://www.w3.org/Graphics/SVG/1.1/DTD/svg11.dtd">
<svg xmlns:xlink="http://www.w3.org/1999/xlink" width="604.620313pt" height="339.71125pt" viewBox="0 0 604.620313 339.71125" xmlns="http://www.w3.org/2000/svg" version="1.1">
 <metadata>
  <rdf:RDF xmlns:dc="http://purl.org/dc/elements/1.1/" xmlns:cc="http://creativecommons.org/ns#" xmlns:rdf="http://www.w3.org/1999/02/22-rdf-syntax-ns#">
   <cc:Work>
    <dc:type rdf:resource="http://purl.org/dc/dcmitype/StillImage"/>
    <dc:date>2026-07-08T15:36:15.231205</dc:date>
    <dc:format>image/svg+xml</dc:format>
    <dc:creator>
     <cc:Agent>
      <dc:title>Matplotlib v3.10.9, https://matplotlib.org/</dc:title>
     </cc:Agent>
    </dc:creator>
   </cc:Work>
  </rdf:RDF>
 </metadata>
 <defs>
  <style type="text/css">*{stroke-linejoin: round; stroke-linecap: butt}</style>
 </defs>
 <g id="figure_1">
  <g id="patch_1">
   <path d="M 0 339.71125 
L 604.620313 339.71125 
L 604.620313 0 
L 0 0 
L 0 339.71125 
z
" style="fill: none"/>
  </g>
  <g id="axes_1">
   <g id="patch_2">
    <path d="M 43.020313 304.75125 
L 601.020313 304.75125 
L 601.020313 27.55125 
L 43.020313 27.55125 
L 43.020313 304.75125 
z
" style="fill: none"/>
   </g>
   <g id="FillBetweenPolyCollection_1">
    <path d="M 68.383949 157.056663 
L 68.383949 292.15125 
L 69.913626 292.15125 
L 71.548799 292.15125 
L 73.131224 292.15125 
L 74.766397 292.15125 
L 76.348822 292.15125 
L 77.983994 292.15125 
L 79.619167 292.15125 
L 81.201592 292.15125 
L 82.836764 292.15125 
L 84.419189 292.15125 
L 86.054362 292.15125 
L 87.689535 292.15125 
L 89.166465 292.15125 
L 90.801637 292.15125 
L 92.384062 292.15125 
L 94.019235 292.15125 
L 95.60166 292.15125 
L 97.236832 292.15125 
L 98.872005 292.15125 
L 100.45443 292.15125 
L 102.089603 292.15125 
L 103.672028 292.15125 
L 105.3072 292.15125 
L 106.942373 292.15125 
L 108.419303 292.15125 
L 110.054475 292.15125 
L 111.636901 292.15125 
L 113.272073 292.15125 
L 114.854498 292.15125 
L 116.489671 292.15125 
L 118.124843 292.15125 
L 119.707268 292.15125 
L 121.342441 292.15125 
L 122.924866 292.15125 
L 124.560039 292.15125 
L 126.195211 292.15125 
L 127.672141 292.15125 
L 129.307314 292.15125 
L 130.889739 292.15125 
L 132.524911 292.15125 
L 134.107336 292.15125 
L 135.742509 292.15125 
L 137.377682 292.15125 
L 138.960107 292.15125 
L 140.595279 292.15125 
L 142.177704 292.15125 
L 143.812877 292.15125 
L 145.448049 292.15125 
L 146.977727 292.15125 
L 148.612899 292.15125 
L 150.195325 292.15125 
L 151.830497 292.15125 
L 153.412922 292.15125 
L 155.048095 292.15125 
L 156.683267 292.15125 
L 158.265692 292.15125 
L 159.900865 292.15125 
L 161.48329 292.15125 
L 163.118463 292.15125 
L 164.753635 292.15125 
L 166.230565 292.15125 
L 167.865738 292.15125 
L 169.448163 292.15125 
L 171.083335 292.15125 
L 172.66576 292.15125 
L 174.300933 292.15125 
L 175.936106 292.15125 
L 177.518531 292.15125 
L 179.153703 292.15125 
L 180.736128 292.15125 
L 182.371301 292.15125 
L 184.006473 292.15125 
L 185.483403 292.15125 
L 187.118576 292.15125 
L 188.701001 292.15125 
L 190.336174 292.15125 
L 191.918599 292.15125 
L 193.553771 292.15125 
L 195.188944 292.15125 
L 196.771369 292.15125 
L 198.406541 292.15125 
L 199.988966 292.15125 
L 201.624139 292.15125 
L 203.259312 292.15125 
L 204.736242 292.15125 
L 206.371414 292.15125 
L 207.953839 292.15125 
L 209.589012 292.15125 
L 211.171437 292.15125 
L 212.806609 292.15125 
L 214.441782 292.15125 
L 216.024207 292.15125 
L 217.65938 292.15125 
L 219.241805 292.15125 
L 220.876977 292.15125 
L 222.51215 292.15125 
L 224.041827 292.15125 
L 225.677 292.15125 
L 227.259425 292.15125 
L 228.894598 292.15125 
L 230.477023 292.15125 
L 232.112195 292.15125 
L 233.747368 292.15125 
L 235.329793 292.15125 
L 236.964965 292.15125 
L 238.54739 292.15125 
L 240.182563 292.15125 
L 241.817736 292.15125 
L 243.294666 292.15125 
L 244.929838 292.15125 
L 246.512263 292.15125 
L 248.147436 292.15125 
L 249.729861 292.15125 
L 251.365033 292.15125 
L 253.000206 292.15125 
L 254.582631 292.15125 
L 256.217804 292.15125 
L 257.800229 292.15125 
L 259.435401 292.15125 
L 261.070574 292.15125 
L 262.547504 292.15125 
L 264.182676 292.15125 
L 265.765102 292.15125 
L 267.400274 292.15125 
L 268.982699 292.15125 
L 270.617872 292.15125 
L 272.253044 292.15125 
L 273.835469 292.15125 
L 275.470642 292.15125 
L 277.053067 292.15125 
L 278.68824 292.15125 
L 280.323412 292.15125 
L 281.800342 292.15125 
L 283.435515 292.15125 
L 285.01794 292.15125 
L 286.653112 292.15125 
L 288.235537 292.15125 
L 289.87071 292.15125 
L 289.87071 157.056663 
L 289.87071 157.056663 
L 288.235537 157.056663 
L 286.653112 157.056663 
L 285.01794 157.056663 
L 283.435515 157.056663 
L 281.800342 157.056663 
L 280.323412 157.056663 
L 278.68824 157.056663 
L 277.053067 157.056663 
L 275.470642 157.056663 
L 273.835469 157.056663 
L 272.253044 157.056663 
L 270.617872 157.056663 
L 268.982699 157.056663 
L 267.400274 157.056663 
L 265.765102 157.056663 
L 264.182676 157.056663 
L 262.547504 157.056663 
L 261.070574 157.056663 
L 259.435401 157.056663 
L 257.800229 157.056663 
L 256.217804 157.056663 
L 254.582631 157.056663 
L 253.000206 157.056663 
L 251.365033 157.056663 
L 249.729861 157.056663 
L 248.147436 157.056663 
L 246.512263 157.056663 
L 244.929838 157.056663 
L 243.294666 157.056663 
L 241.817736 157.056663 
L 240.182563 157.056663 
L 238.54739 157.056663 
L 236.964965 157.056663 
L 235.329793 157.056663 
L 233.747368 157.056663 
L 232.112195 157.056663 
L 230.477023 157.056663 
L 228.894598 157.056663 
L 227.259425 157.056663 
L 225.677 157.056663 
L 224.041827 157.056663 
L 222.51215 157.056663 
L 220.876977 157.056663 
L 219.241805 157.056663 
L 217.65938 157.056663 
L 216.024207 157.056663 
L 214.441782 157.056663 
L 212.806609 157.056663 
L 211.171437 157.056663 
L 209.589012 157.056663 
L 207.953839 157.056663 
L 206.371414 157.056663 
L 204.736242 157.056663 
L 203.259312 157.056663 
L 201.624139 157.056663 
L 199.988966 157.056663 
L 198.406541 157.056663 
L 196.771369 157.056663 
L 195.188944 157.056663 
L 193.553771 157.056663 
L 191.918599 157.056663 
L 190.336174 157.056663 
L 188.701001 157.056663 
L 187.118576 157.056663 
L 185.483403 157.056663 
L 184.006473 157.056663 
L 182.371301 157.056663 
L 180.736128 157.056663 
L 179.153703 157.056663 
L 177.518531 157.056663 
L 175.936106 157.056663 
L 174.300933 157.056663 
L 172.66576 157.056663 
L 171.083335 157.056663 
L 169.448163 157.056663 
L 167.865738 157.056663 
L 166.230565 157.056663 
L 164.753635 157.056663 
L 163.118463 157.056663 
L 161.48329 157.056663 
L 159.900865 157.056663 
L 158.265692 157.056663 
L 156.683267 157.056663 
L 155.048095 157.056663 
L 153.412922 157.056663 
L 151.830497 157.056663 
L 150.195325 157.056663 
L 148.612899 157.056663 
L 146.977727 157.056663 
L 145.448049 157.056663 
L 143.812877 157.056663 
L 142.177704 157.056663 
L 140.595279 157.056663 
L 138.960107 157.056663 
L 137.377682 157.056663 
L 135.742509 157.056663 
L 134.107336 157.056663 
L 132.524911 157.056663 
L 130.889739 157.056663 
L 129.307314 157.056663 
L 127.672141 157.056663 
L 126.195211 157.056663 
L 124.560039 157.056663 
L 122.924866 157.056663 
L 121.342441 157.056663 
L 119.707268 157.056663 
L 118.124843 157.056663 
L 116.489671 157.056663 
L 114.854498 157.056663 
L 113.272073 157.056663 
L 111.636901 157.056663 
L 110.054475 157.056663 
L 108.419303 157.056663 
L 106.942373 157.056663 
L 105.3072 157.056663 
L 103.672028 157.056663 
L 102.089603 157.056663 
L 100.45443 157.056663 
L 98.872005 157.056663 
L 97.236832 157.056663 
L 95.60166 157.056663 
L 94.019235 157.056663 
L 92.384062 157.056663 
L 90.801637 157.056663 
L 89.166465 157.056663 
L 87.689535 157.056663 
L 86.054362 157.056663 
L 84.419189 157.056663 
L 82.836764 157.056663 
L 81.201592 157.056663 
L 79.619167 157.056663 
L 77.983994 157.056663 
L 76.348822 157.056663 
L 74.766397 157.056663 
L 73.131224 157.056663 
L 71.548799 157.056663 
L 69.913626 157.056663 
L 68.383949 157.056663 
z
" clip-path="url(#p17b31f8616)" style="fill: #6e1f1f; fill-opacity: 0.06; stroke: #6e1f1f; stroke-opacity: 0.06"/>
    <path d="M 328.429134 157.056663 
L 328.429134 292.15125 
L 330.064307 292.15125 
L 331.646732 292.15125 
L 333.281904 292.15125 
L 334.864329 292.15125 
L 336.499502 292.15125 
L 338.134674 292.15125 
L 339.611604 292.15125 
L 341.246777 292.15125 
L 342.829202 292.15125 
L 344.464375 292.15125 
L 346.0468 292.15125 
L 347.681972 292.15125 
L 349.317145 292.15125 
L 350.89957 292.15125 
L 352.534742 292.15125 
L 352.534742 157.056663 
L 352.534742 157.056663 
L 350.89957 157.056663 
L 349.317145 157.056663 
L 347.681972 157.056663 
L 346.0468 157.056663 
L 344.464375 157.056663 
L 342.829202 157.056663 
L 341.246777 157.056663 
L 339.611604 157.056663 
L 338.134674 157.056663 
L 336.499502 157.056663 
L 334.864329 157.056663 
L 333.281904 157.056663 
L 331.646732 157.056663 
L 330.064307 157.056663 
L 328.429134 157.056663 
z
" clip-path="url(#p17b31f8616)" style="fill: #6e1f1f; fill-opacity: 0.06; stroke: #6e1f1f; stroke-opacity: 0.06"/>
    <path d="M 394.310764 157.056663 
L 394.310764 292.15125 
L 394.310764 157.056663 
L 394.310764 157.056663 
z
" clip-path="url(#p17b31f8616)" style="fill: #6e1f1f; fill-opacity: 0.06; stroke: #6e1f1f; stroke-opacity: 0.06"/>
    <path d="M 397.422867 157.056663 
L 397.422867 292.15125 
L 399.058039 292.15125 
L 399.058039 157.056663 
L 399.058039 157.056663 
L 397.422867 157.056663 
z
" clip-path="url(#p17b31f8616)" style="fill: #6e1f1f; fill-opacity: 0.06; stroke: #6e1f1f; stroke-opacity: 0.06"/>
    <path d="M 419.893303 157.056663 
L 419.893303 292.15125 
L 421.528475 292.15125 
L 423.1109 292.15125 
L 424.746073 292.15125 
L 426.381245 292.15125 
L 427.96367 292.15125 
L 429.598843 292.15125 
L 431.181268 292.15125 
L 432.816441 292.15125 
L 432.816441 157.056663 
L 432.816441 157.056663 
L 431.181268 157.056663 
L 429.598843 157.056663 
L 427.96367 157.056663 
L 426.381245 157.056663 
L 424.746073 157.056663 
L 423.1109 157.056663 
L 421.528475 157.056663 
L 419.893303 157.056663 
z
" clip-path="url(#p17b31f8616)" style="fill: #6e1f1f; fill-opacity: 0.06; stroke: #6e1f1f; stroke-opacity: 0.06"/>
    <path d="M 493.739805 157.056663 
L 493.739805 292.15125 
L 495.374978 292.15125 
L 496.957403 292.15125 
L 498.592576 292.15125 
L 500.175001 292.15125 
L 501.810173 292.15125 
L 503.445346 292.15125 
L 505.027771 292.15125 
L 506.662943 292.15125 
L 508.245369 292.15125 
L 509.880541 292.15125 
L 511.515714 292.15125 
L 512.992644 292.15125 
L 514.627816 292.15125 
L 516.210241 292.15125 
L 517.845414 292.15125 
L 519.427839 292.15125 
L 521.063012 292.15125 
L 522.698184 292.15125 
L 524.280609 292.15125 
L 525.915782 292.15125 
L 527.498207 292.15125 
L 529.133379 292.15125 
L 530.768552 292.15125 
L 532.298229 292.15125 
L 533.933402 292.15125 
L 535.515827 292.15125 
L 537.151 292.15125 
L 538.733425 292.15125 
L 540.368597 292.15125 
L 542.00377 292.15125 
L 543.586195 292.15125 
L 545.221367 292.15125 
L 546.803793 292.15125 
L 548.438965 292.15125 
L 550.074138 292.15125 
L 551.551068 292.15125 
L 553.18624 292.15125 
L 554.768665 292.15125 
L 556.403838 292.15125 
L 557.986263 292.15125 
L 559.621436 292.15125 
L 561.256608 292.15125 
L 562.839033 292.15125 
L 564.474206 292.15125 
L 566.056631 292.15125 
L 567.691803 292.15125 
L 569.326976 292.15125 
L 570.803906 292.15125 
L 572.439079 292.15125 
L 574.021504 292.15125 
L 575.656676 292.15125 
L 575.656676 157.056663 
L 575.656676 157.056663 
L 574.021504 157.056663 
L 572.439079 157.056663 
L 570.803906 157.056663 
L 569.326976 157.056663 
L 567.691803 157.056663 
L 566.056631 157.056663 
L 564.474206 157.056663 
L 562.839033 157.056663 
L 561.256608 157.056663 
L 559.621436 157.056663 
L 557.986263 157.056663 
L 556.403838 157.056663 
L 554.768665 157.056663 
L 553.18624 157.056663 
L 551.551068 157.056663 
L 550.074138 157.056663 
L 548.438965 157.056663 
L 546.803793 157.056663 
L 545.221367 157.056663 
L 543.586195 157.056663 
L 542.00377 157.056663 
L 540.368597 157.056663 
L 538.733425 157.056663 
L 537.151 157.056663 
L 535.515827 157.056663 
L 533.933402 157.056663 
L 532.298229 157.056663 
L 530.768552 157.056663 
L 529.133379 157.056663 
L 527.498207 157.056663 
L 525.915782 157.056663 
L 524.280609 157.056663 
L 522.698184 157.056663 
L 521.063012 157.056663 
L 519.427839 157.056663 
L 517.845414 157.056663 
L 516.210241 157.056663 
L 514.627816 157.056663 
L 512.992644 157.056663 
L 511.515714 157.056663 
L 509.880541 157.056663 
L 508.245369 157.056663 
L 506.662943 157.056663 
L 505.027771 157.056663 
L 503.445346 157.056663 
L 501.810173 157.056663 
L 500.175001 157.056663 
L 498.592576 157.056663 
L 496.957403 157.056663 
L 495.374978 157.056663 
L 493.739805 157.056663 
z
" clip-path="url(#p17b31f8616)" style="fill: #6e1f1f; fill-opacity: 0.06; stroke: #6e1f1f; stroke-opacity: 0.06"/>
   </g>
   <g id="matplotlib.axis_1">
    <g id="xtick_1">
     <g id="line2d_1">
      <defs>
       <path id="m276274aa73" d="M 0 0 
L 0 4 
" style="stroke: #1a1814; stroke-width: 0.8"/>
      </defs>
      <g>
       <use xlink:href="#m276274aa73" x="66.801524" y="304.75125" style="fill: #1a1814; stroke: #1a1814; stroke-width: 0.8"/>
      </g>
     </g>
     <g id="text_1">
      <text style="font-size: 9px; font-family: 'IBM Plex Sans', 'Helvetica Neue', 'Arial', 'DejaVu Sans', sans-serif; text-anchor: middle; fill: #6b655c" x="66.801524" y="318.91125" transform="rotate(-0 66.801524 318.91125)">2000</text>
     </g>
    </g>
    <g id="xtick_2">
     <g id="line2d_2">
      <g>
       <use xlink:href="#m276274aa73" x="143.865624" y="304.75125" style="fill: #1a1814; stroke: #1a1814; stroke-width: 0.8"/>
      </g>
     </g>
     <g id="text_2">
      <text style="font-size: 9px; font-family: 'IBM Plex Sans', 'Helvetica Neue', 'Arial', 'DejaVu Sans', sans-serif; text-anchor: middle; fill: #6b655c" x="143.865624" y="318.91125" transform="rotate(-0 143.865624 318.91125)">2004</text>
     </g>
    </g>
    <g id="xtick_3">
     <g id="line2d_3">
      <g>
       <use xlink:href="#m276274aa73" x="220.929725" y="304.75125" style="fill: #1a1814; stroke: #1a1814; stroke-width: 0.8"/>
      </g>
     </g>
     <g id="text_3">
      <text style="font-size: 9px; font-family: 'IBM Plex Sans', 'Helvetica Neue', 'Arial', 'DejaVu Sans', sans-serif; text-anchor: middle; fill: #6b655c" x="220.929725" y="318.91125" transform="rotate(-0 220.929725 318.91125)">2008</text>
     </g>
    </g>
    <g id="xtick_4">
     <g id="line2d_4">
      <g>
       <use xlink:href="#m276274aa73" x="297.993825" y="304.75125" style="fill: #1a1814; stroke: #1a1814; stroke-width: 0.8"/>
      </g>
     </g>
     <g id="text_4">
      <text style="font-size: 9px; font-family: 'IBM Plex Sans', 'Helvetica Neue', 'Arial', 'DejaVu Sans', sans-serif; text-anchor: middle; fill: #6b655c" x="297.993825" y="318.91125" transform="rotate(-0 297.993825 318.91125)">2012</text>
     </g>
    </g>
    <g id="xtick_5">
     <g id="line2d_5">
      <g>
       <use xlink:href="#m276274aa73" x="375.057926" y="304.75125" style="fill: #1a1814; stroke: #1a1814; stroke-width: 0.8"/>
      </g>
     </g>
     <g id="text_5">
      <text style="font-size: 9px; font-family: 'IBM Plex Sans', 'Helvetica Neue', 'Arial', 'DejaVu Sans', sans-serif; text-anchor: middle; fill: #6b655c" x="375.057926" y="318.91125" transform="rotate(-0 375.057926 318.91125)">2016</text>
     </g>
    </g>
    <g id="xtick_6">
     <g id="line2d_6">
      <g>
       <use xlink:href="#m276274aa73" x="452.122026" y="304.75125" style="fill: #1a1814; stroke: #1a1814; stroke-width: 0.8"/>
      </g>
     </g>
     <g id="text_6">
      <text style="font-size: 9px; font-family: 'IBM Plex Sans', 'Helvetica Neue', 'Arial', 'DejaVu Sans', sans-serif; text-anchor: middle; fill: #6b655c" x="452.122026" y="318.91125" transform="rotate(-0 452.122026 318.91125)">2020</text>
     </g>
    </g>
    <g id="xtick_7">
     <g id="line2d_7">
      <g>
       <use xlink:href="#m276274aa73" x="529.186127" y="304.75125" style="fill: #1a1814; stroke: #1a1814; stroke-width: 0.8"/>
      </g>
     </g>
     <g id="text_7">
      <text style="font-size: 9px; font-family: 'IBM Plex Sans', 'Helvetica Neue', 'Arial', 'DejaVu Sans', sans-serif; text-anchor: middle; fill: #6b655c" x="529.186127" y="318.91125" transform="rotate(-0 529.186127 318.91125)">2024</text>
     </g>
    </g>
    <g id="text_8">
     <text style="font-size: 10px; font-family: 'IBM Plex Sans', 'Helvetica Neue', 'Arial', 'DejaVu Sans', sans-serif; text-anchor: middle; fill: #1a1814" x="322.020313" y="334.11125" transform="rotate(-0 322.020313 334.11125)">Year</text>
    </g>
   </g>
   <g id="matplotlib.axis_2">
    <g id="ytick_1">
     <g id="line2d_8">
      <defs>
       <path id="mea0a02c845" d="M 0 0 
L -4 0 
" style="stroke: #1a1814; stroke-width: 0.8"/>
      </defs>
      <g>
       <use xlink:href="#mea0a02c845" x="43.020313" y="292.15125" style="fill: #1a1814; stroke: #1a1814; stroke-width: 0.8"/>
      </g>
     </g>
     <g id="text_9">
      <text style="font-size: 9px; font-family: 'IBM Plex Sans', 'Helvetica Neue', 'Arial', 'DejaVu Sans', sans-serif; text-anchor: end; fill: #6b655c" x="35.520313" y="295.48125" transform="rotate(-0 35.520313 295.48125)">0</text>
     </g>
    </g>
    <g id="ytick_2">
     <g id="line2d_9">
      <g>
       <use xlink:href="#mea0a02c845" x="43.020313" y="258.377603" style="fill: #1a1814; stroke: #1a1814; stroke-width: 0.8"/>
      </g>
     </g>
     <g id="text_10">
      <text style="font-size: 9px; font-family: 'IBM Plex Sans', 'Helvetica Neue', 'Arial', 'DejaVu Sans', sans-serif; text-anchor: end; fill: #6b655c" x="35.520313" y="261.707603" transform="rotate(-0 35.520313 261.707603)">25</text>
     </g>
    </g>
    <g id="ytick_3">
     <g id="line2d_10">
      <g>
       <use xlink:href="#mea0a02c845" x="43.020313" y="224.603957" style="fill: #1a1814; stroke: #1a1814; stroke-width: 0.8"/>
      </g>
     </g>
     <g id="text_11">
      <text style="font-size: 9px; font-family: 'IBM Plex Sans', 'Helvetica Neue', 'Arial', 'DejaVu Sans', sans-serif; text-anchor: end; fill: #6b655c" x="35.520313" y="227.933957" transform="rotate(-0 35.520313 227.933957)">50</text>
     </g>
    </g>
    <g id="ytick_4">
     <g id="line2d_11">
      <g>
       <use xlink:href="#mea0a02c845" x="43.020313" y="190.83031" style="fill: #1a1814; stroke: #1a1814; stroke-width: 0.8"/>
      </g>
     </g>
     <g id="text_12">
      <text style="font-size: 9px; font-family: 'IBM Plex Sans', 'Helvetica Neue', 'Arial', 'DejaVu Sans', sans-serif; text-anchor: end; fill: #6b655c" x="35.520313" y="194.16031" transform="rotate(-0 35.520313 194.16031)">75</text>
     </g>
    </g>
    <g id="ytick_5">
     <g id="line2d_12">
      <g>
       <use xlink:href="#mea0a02c845" x="43.020313" y="157.056663" style="fill: #1a1814; stroke: #1a1814; stroke-width: 0.8"/>
      </g>
     </g>
     <g id="text_13">
      <text style="font-size: 9px; font-family: 'IBM Plex Sans', 'Helvetica Neue', 'Arial', 'DejaVu Sans', sans-serif; text-anchor: end; fill: #6b655c" x="35.520313" y="160.386663" transform="rotate(-0 35.520313 160.386663)">100</text>
     </g>
    </g>
    <g id="ytick_6">
     <g id="line2d_13">
      <g>
       <use xlink:href="#mea0a02c845" x="43.020313" y="123.283017" style="fill: #1a1814; stroke: #1a1814; stroke-width: 0.8"/>
      </g>
     </g>
     <g id="text_14">
      <text style="font-size: 9px; font-family: 'IBM Plex Sans', 'Helvetica Neue', 'Arial', 'DejaVu Sans', sans-serif; text-anchor: end; fill: #6b655c" x="35.520313" y="126.613017" transform="rotate(-0 35.520313 126.613017)">125</text>
     </g>
    </g>
    <g id="ytick_7">
     <g id="line2d_14">
      <g>
       <use xlink:href="#mea0a02c845" x="43.020313" y="89.50937" style="fill: #1a1814; stroke: #1a1814; stroke-width: 0.8"/>
      </g>
     </g>
     <g id="text_15">
      <text style="font-size: 9px; font-family: 'IBM Plex Sans', 'Helvetica Neue', 'Arial', 'DejaVu Sans', sans-serif; text-anchor: end; fill: #6b655c" x="35.520313" y="92.83937" transform="rotate(-0 35.520313 92.83937)">150</text>
     </g>
    </g>
    <g id="ytick_8">
     <g id="line2d_15">
      <g>
       <use xlink:href="#mea0a02c845" x="43.020313" y="55.735724" style="fill: #1a1814; stroke: #1a1814; stroke-width: 0.8"/>
      </g>
     </g>
     <g id="text_16">
      <text style="font-size: 9px; font-family: 'IBM Plex Sans', 'Helvetica Neue', 'Arial', 'DejaVu Sans', sans-serif; text-anchor: end; fill: #6b655c" x="35.520313" y="59.065724" transform="rotate(-0 35.520313 59.065724)">175</text>
     </g>
    </g>
    <g id="text_17">
     <text style="font-size: 10px; font-family: 'IBM Plex Sans', 'Helvetica Neue', 'Arial', 'DejaVu Sans', sans-serif; text-anchor: middle; fill: #1a1814" x="11.2" y="166.15125" transform="rotate(-90 11.2 166.15125)">Housing Affordability Index (HAI)</text>
    </g>
   </g>
   <g id="line2d_16">
    <path d="M 68.383949 193.171188 
L 69.913626 193.89905 
L 73.131224 191.955423 
L 74.766397 195.376099 
L 76.348822 193.516045 
L 77.983994 192.554318 
L 82.836764 190.50285 
L 84.419189 190.439999 
L 87.689535 184.326881 
L 89.166465 185.158785 
L 90.801637 184.745396 
L 92.384062 186.925419 
L 94.019235 188.619538 
L 95.60166 189.807377 
L 97.236832 190.524224 
L 98.872005 189.768475 
L 100.45443 189.430883 
L 102.089603 188.294024 
L 103.672028 189.683049 
L 105.3072 194.728529 
L 106.942373 195.03747 
L 108.419303 194.890946 
L 110.054475 196.974666 
L 111.636901 197.746871 
L 113.272073 197.23441 
L 116.489671 196.835707 
L 118.124843 196.368851 
L 119.707268 195.795483 
L 121.342441 197.312867 
L 122.924866 198.017237 
L 124.560039 198.894448 
L 126.195211 197.923788 
L 127.672141 197.580467 
L 129.307314 197.030352 
L 130.889739 198.311758 
L 132.524911 195.512984 
L 134.107336 193.450678 
L 135.742509 198.481671 
L 137.377682 205.290034 
L 138.960107 204.87197 
L 140.595279 203.687352 
L 142.177704 204.09684 
L 143.812877 204.071745 
L 145.448049 202.846155 
L 146.977727 202.541268 
L 148.612899 201.226945 
L 151.830497 210.669869 
L 153.412922 211.93226 
L 155.048095 211.271151 
L 156.683267 210.971827 
L 158.265692 211.288982 
L 159.900865 212.026413 
L 163.118463 213.765744 
L 164.753635 214.319845 
L 166.230565 214.518918 
L 167.865738 217.905434 
L 169.448163 218.372425 
L 172.66576 218.699951 
L 175.936106 222.689137 
L 177.518531 223.217382 
L 179.153703 226.062486 
L 180.736128 228.422795 
L 182.371301 228.471737 
L 184.006473 227.747431 
L 185.483403 228.599174 
L 187.118576 229.200048 
L 188.701001 230.470252 
L 190.336174 231.0345 
L 191.918599 231.394506 
L 193.553771 231.633117 
L 195.188944 229.746543 
L 196.771369 228.358004 
L 198.406541 227.300274 
L 199.988966 225.73963 
L 201.624139 224.333272 
L 204.736242 224.318043 
L 206.371414 222.850315 
L 207.953839 222.568131 
L 209.589012 222.665279 
L 211.171437 224.8309 
L 212.806609 224.315912 
L 214.441782 222.594607 
L 216.024207 220.383107 
L 217.65938 219.420416 
L 219.241805 217.13538 
L 220.876977 215.098046 
L 222.51215 210.994373 
L 224.041827 211.072853 
L 225.677 210.078529 
L 227.259425 207.999934 
L 228.894598 207.270533 
L 230.477023 208.022643 
L 232.112195 207.126542 
L 233.747368 205.783037 
L 235.329793 199.70639 
L 236.964965 199.409055 
L 238.54739 196.510178 
L 240.182563 185.974449 
L 241.817736 181.698786 
L 243.294666 181.341418 
L 244.929838 178.348008 
L 246.512263 174.5819 
L 248.147436 174.350908 
L 249.729861 181.009551 
L 251.365033 178.005298 
L 253.000206 177.025786 
L 254.582631 174.553223 
L 256.217804 172.595832 
L 257.800229 171.317357 
L 259.435401 172.262146 
L 261.070574 173.820711 
L 262.547504 173.349402 
L 264.182676 173.161952 
L 265.765102 175.057814 
L 267.400274 172.484422 
L 268.982699 170.344016 
L 272.253044 164.615295 
L 273.835469 162.552896 
L 275.470642 159.852232 
L 277.053067 160.153676 
L 278.68824 165.66893 
L 280.323412 165.800096 
L 281.800342 168.536926 
L 283.435515 166.768537 
L 285.01794 166.659682 
L 286.653112 163.225396 
L 288.235537 160.873651 
L 289.87071 160.824047 
L 291.505883 155.857172 
L 293.088308 152.338311 
L 294.72348 150.965135 
L 296.305905 149.295749 
L 297.941078 148.431715 
L 299.57625 147.149306 
L 301.105928 146.312249 
L 302.7411 147.31286 
L 304.323526 146.742954 
L 307.541123 142.988388 
L 309.176296 140.868557 
L 310.811468 142.149103 
L 314.029066 139.007937 
L 315.611491 138.997164 
L 317.246664 139.18306 
L 318.881836 141.159353 
L 320.358766 144.063027 
L 321.993939 145.33229 
L 323.576364 143.830083 
L 325.211536 146.208149 
L 326.793961 156.251823 
L 328.429134 161.750846 
L 330.064307 163.743328 
L 331.646732 164.912662 
L 333.281904 161.104559 
L 334.864329 162.782873 
L 336.499502 166.400294 
L 338.134674 166.008587 
L 339.611604 164.012704 
L 341.246777 164.565158 
L 342.829202 164.51408 
L 344.464375 162.17713 
L 346.0468 161.448891 
L 347.681972 160.45954 
L 349.317145 159.66615 
L 350.89957 160.002987 
L 352.534742 157.616372 
L 354.117168 156.696497 
L 355.75234 154.053498 
L 357.387513 150.40939 
L 358.864443 150.853126 
L 360.499615 151.702897 
L 362.08204 149.66682 
L 363.717213 152.12134 
L 365.299638 154.043093 
L 366.934811 154.777704 
L 368.569983 152.187115 
L 370.152408 151.826477 
L 371.787581 150.198146 
L 373.370006 152.716014 
L 375.005178 153.04615 
L 376.640351 151.843525 
L 378.170028 148.401349 
L 379.805201 149.030853 
L 381.387626 147.269447 
L 383.022799 146.976514 
L 384.605224 146.319878 
L 386.240396 143.887618 
L 387.875569 143.664059 
L 391.093166 144.494561 
L 392.675592 150.339561 
L 394.310764 158.063587 
L 395.945937 157.032921 
L 399.058039 157.19312 
L 400.640464 154.322992 
L 402.275637 153.080023 
L 403.858062 150.459465 
L 405.493235 150.615328 
L 407.128407 148.279393 
L 408.710832 146.345551 
L 410.346005 147.520629 
L 413.563602 147.830538 
L 415.198775 149.519775 
L 416.675705 154.699917 
L 418.310878 156.736297 
L 419.893303 157.174261 
L 421.528475 159.103637 
L 423.1109 158.711923 
L 424.746073 158.05842 
L 426.381245 158.394249 
L 427.96367 159.662143 
L 429.598843 162.706555 
L 431.181268 163.221676 
L 434.451613 156.264768 
L 439.146141 149.469405 
L 440.781313 147.610008 
L 442.363738 141.934451 
L 443.998911 140.239054 
L 445.634084 136.486945 
L 447.216509 135.337992 
L 448.851681 136.147273 
L 450.434106 135.669903 
L 452.069279 135.752022 
L 453.704451 134.590052 
L 455.234129 132.235086 
L 456.869302 132.728143 
L 458.451727 130.451254 
L 460.086899 129.138202 
L 461.669324 127.542789 
L 463.304497 124.391199 
L 464.939669 123.221899 
L 466.522094 123.591282 
L 469.739692 124.58801 
L 471.374865 124.626504 
L 473.010037 127.666619 
L 474.486967 131.179165 
L 476.12214 138.705991 
L 477.704565 140.440719 
L 479.339737 140.710895 
L 480.922162 142.815592 
L 482.557335 141.928047 
L 484.192508 141.921495 
L 485.774933 142.981951 
L 487.410105 146.227775 
L 488.99253 146.576402 
L 490.627703 147.873357 
L 493.739805 159.798879 
L 495.374978 167.118821 
L 496.957403 179.199489 
L 500.175001 186.18733 
L 501.810173 184.060272 
L 503.445346 180.239645 
L 505.027771 188.973852 
L 506.662943 195.815509 
L 508.245369 193.839104 
L 509.880541 188.354162 
L 511.515714 186.78175 
L 512.992644 186.145578 
L 514.627816 188.899194 
L 516.210241 186.59621 
L 517.845414 187.601139 
L 519.427839 190.982527 
L 521.063012 192.516831 
L 522.698184 194.945796 
L 524.280609 196.122465 
L 525.915782 199.853494 
L 527.498207 197.98925 
L 529.133379 191.608433 
L 530.768552 189.513184 
L 532.298229 190.80518 
L 533.933402 191.446167 
L 535.515827 193.579493 
L 537.151 194.494408 
L 538.733425 193.017155 
L 540.368597 192.048158 
L 543.586195 184.454694 
L 545.221367 187.242396 
L 546.803793 191.302594 
L 548.438965 190.377678 
L 550.074138 192.625212 
L 551.551068 191.126986 
L 553.18624 188.591763 
L 556.403838 189.029394 
L 557.986263 188.287077 
L 559.621436 186.528597 
L 561.256608 184.433999 
L 562.839033 181.220588 
L 564.474206 179.62346 
L 566.056631 179.058669 
L 567.691803 178.114171 
L 570.803906 175.162805 
L 572.439079 176.075388 
L 574.021504 177.165097 
L 575.656676 177.696034 
L 575.656676 177.696034 
" clip-path="url(#p17b31f8616)" style="fill: none; stroke: #a87333; stroke-width: 1.4; stroke-linecap: round"/>
   </g>
   <g id="line2d_17">
    <path d="M 68.383949 92.664138 
L 69.913626 93.633712 
L 71.548799 91.0184 
L 73.131224 88.704794 
L 74.766397 95.172599 
L 76.348822 90.903574 
L 77.983994 88.457596 
L 82.836764 82.80477 
L 84.419189 82.197113 
L 86.054362 75.218062 
L 87.689535 69.532959 
L 89.166465 71.703615 
L 90.801637 71.305749 
L 92.384062 76.232015 
L 94.019235 80.143985 
L 95.60166 83.006202 
L 97.236832 84.897042 
L 98.872005 83.784007 
L 100.45443 83.525685 
L 102.089603 81.649311 
L 103.672028 84.89057 
L 105.3072 95.500104 
L 106.942373 95.956779 
L 108.419303 95.493244 
L 110.054475 99.542215 
L 111.636901 100.941671 
L 113.272073 99.739242 
L 116.489671 98.599675 
L 118.124843 97.484675 
L 119.707268 96.151051 
L 121.342441 99.0716 
L 122.924866 100.340505 
L 124.560039 101.964039 
L 126.195211 101.039123 
L 127.672141 101.390117 
L 129.307314 101.322822 
L 130.889739 104.911118 
L 132.524911 100.363707 
L 134.107336 97.319109 
L 135.742509 108.234731 
L 137.377682 122.506366 
L 138.960107 122.58866 
L 140.595279 121.189008 
L 142.177704 122.868933 
L 143.812877 123.700599 
L 145.448049 122.125086 
L 146.977727 122.306842 
L 148.612899 120.58033 
L 151.830497 139.746128 
L 153.412922 142.759461 
L 155.048095 142.178471 
L 156.683267 142.268838 
L 158.265692 143.490215 
L 159.900865 145.469074 
L 163.118463 149.85266 
L 164.753635 149.894237 
L 166.230565 149.302675 
L 167.865738 154.626436 
L 169.448163 154.595487 
L 172.66576 153.439857 
L 175.936106 159.324908 
L 177.518531 159.525087 
L 179.153703 164.227508 
L 180.736128 168.057137 
L 182.371301 167.418716 
L 184.006473 166.157904 
L 185.483403 167.978052 
L 187.118576 169.302612 
L 188.701001 171.92706 
L 190.336174 173.169399 
L 191.918599 174.010229 
L 193.553771 174.61193 
L 195.188944 171.088096 
L 196.771369 168.53607 
L 198.406541 166.62878 
L 199.988966 163.752088 
L 201.624139 161.178386 
L 203.259312 161.35851 
L 204.736242 161.337451 
L 206.371414 158.601864 
L 207.953839 158.152407 
L 209.589012 158.432785 
L 211.171437 162.689816 
L 212.806609 161.788806 
L 214.441782 158.571634 
L 216.024207 154.417314 
L 217.65938 152.662865 
L 219.241805 148.375587 
L 220.876977 144.567627 
L 222.51215 137.330232 
L 224.041827 138.09491 
L 225.677 136.821148 
L 227.259425 133.511331 
L 228.894598 132.758844 
L 230.477023 134.781442 
L 232.112195 133.715218 
L 233.747368 131.824622 
L 235.329793 121.19338 
L 236.964965 121.287529 
L 238.54739 116.60381 
L 240.182563 97.987313 
L 241.817736 91.016208 
L 243.294666 91.215064 
L 244.929838 86.658686 
L 246.512263 80.757936 
L 248.147436 81.243115 
L 249.729861 94.013417 
L 251.365033 89.528413 
L 253.000206 88.667082 
L 254.582631 85.192199 
L 256.217804 82.656776 
L 257.800229 81.3347 
L 259.435401 83.893134 
L 261.070574 87.062291 
L 262.547504 86.706676 
L 264.182676 86.842131 
L 265.765102 90.563311 
L 267.400274 86.590492 
L 268.982699 83.377102 
L 272.253044 74.521159 
L 273.835469 71.487385 
L 275.470642 67.382206 
L 277.053067 68.383925 
L 278.68824 78.200373 
L 280.323412 78.355468 
L 281.800342 82.921302 
L 283.435515 79.862345 
L 285.01794 79.612448 
L 286.653112 73.728833 
L 288.235537 69.676467 
L 289.87071 69.524519 
L 291.505883 61.034446 
L 293.088308 54.995696 
L 294.72348 52.594286 
L 296.305905 49.688995 
L 299.57625 46.758559 
L 301.105928 46.126112 
L 302.7411 48.586376 
L 304.323526 48.396876 
L 305.958698 46.101579 
L 307.541123 43.660905 
L 309.176296 40.909821 
L 310.811468 43.803898 
L 314.029066 40.15125 
L 315.611491 40.898187 
L 317.246664 41.960755 
L 318.881836 44.773772 
L 320.358766 49.120864 
L 321.993939 50.798383 
L 323.576364 47.920432 
L 325.211536 51.435402 
L 326.793961 67.629037 
L 328.429134 76.357922 
L 330.064307 79.305433 
L 331.646732 80.898083 
L 333.281904 74.220552 
L 334.864329 76.66213 
L 336.499502 82.348921 
L 338.134674 82.684144 
L 339.611604 80.365086 
L 341.246777 82.260103 
L 342.829202 83.149509 
L 344.464375 80.305161 
L 346.0468 80.097176 
L 347.681972 79.46962 
L 349.317145 79.163038 
L 350.89957 80.668211 
L 352.534742 77.821223 
L 354.117168 77.326243 
L 355.75234 74.115356 
L 357.387513 68.797949 
L 358.864443 69.928702 
L 360.499615 71.69093 
L 362.08204 68.923704 
L 363.717213 73.187472 
L 365.299638 76.602081 
L 366.934811 78.153054 
L 368.569983 74.526575 
L 370.152408 74.373033 
L 371.787581 72.254903 
L 373.370006 76.554124 
L 375.005178 77.459656 
L 376.640351 75.417524 
L 378.170028 69.910218 
L 379.805201 70.694533 
L 381.387626 67.778214 
L 383.022799 67.133783 
L 384.605224 65.924797 
L 386.240396 61.957686 
L 387.875569 61.416751 
L 391.093166 62.323038 
L 392.675592 71.236901 
L 394.310764 83.095892 
L 395.945937 82.542115 
L 399.058039 84.852238 
L 400.640464 81.475422 
L 402.275637 80.602849 
L 403.858062 77.649586 
L 405.493235 78.903983 
L 407.128407 76.406378 
L 408.710832 74.528762 
L 410.346005 77.283749 
L 413.563602 79.704349 
L 415.198775 82.110733 
L 416.675705 89.662103 
L 418.310878 92.586591 
L 419.893303 93.157197 
L 421.528475 95.928238 
L 423.1109 95.277266 
L 424.746073 94.239838 
L 426.381245 94.662776 
L 427.96367 96.463102 
L 429.598843 100.890041 
L 431.181268 101.582071 
L 432.816441 96.374967 
L 434.451613 92.011021 
L 439.146141 84.39711 
L 440.781313 82.473621 
L 442.363738 75.04277 
L 443.998911 73.391614 
L 445.634084 68.795143 
L 447.216509 67.947189 
L 448.851681 69.889042 
L 450.434106 69.984611 
L 452.069279 70.865244 
L 453.704451 68.872954 
L 455.234129 65.183322 
L 456.869302 65.532776 
L 458.451727 61.941874 
L 460.086899 59.716323 
L 461.669324 57.082836 
L 463.304497 52.217756 
L 464.939669 50.179441 
L 466.522094 50.344417 
L 468.157267 50.777454 
L 469.739692 51.05341 
L 471.374865 50.749981 
L 473.010037 54.741205 
L 474.486967 59.429221 
L 476.12214 69.946401 
L 477.704565 72.097438 
L 479.339737 72.128356 
L 480.922162 74.829679 
L 482.557335 73.178851 
L 484.192508 72.809483 
L 485.774933 73.999937 
L 487.410105 78.39613 
L 488.99253 78.55645 
L 490.627703 80.111604 
L 493.739805 98.158372 
L 495.374978 109.127376 
L 496.957403 127.024562 
L 500.175001 137.63133 
L 501.810173 134.724483 
L 503.445346 129.358736 
L 505.027771 142.244429 
L 506.662943 152.350668 
L 508.245369 149.649413 
L 509.880541 141.872659 
L 511.515714 140.484782 
L 512.992644 140.45611 
L 514.627816 145.253779 
L 516.210241 142.846814 
L 517.845414 145.122798 
L 519.427839 150.69854 
L 521.063012 153.645622 
L 522.698184 157.798507 
L 524.280609 160.185869 
L 525.915782 166.039038 
L 527.498207 164.226734 
L 529.133379 156.336826 
L 530.768552 152.996742 
L 532.298229 154.248723 
L 533.933402 154.628031 
L 535.515827 157.062382 
L 537.151 157.845203 
L 538.733425 155.338858 
L 540.368597 153.525689 
L 543.586195 141.997087 
L 545.221367 145.395704 
L 546.803793 150.609597 
L 548.438965 148.844666 
L 550.074138 152.18427 
L 551.551068 150.252928 
L 553.18624 146.870185 
L 556.403838 147.833648 
L 557.986263 146.968129 
L 559.621436 144.684599 
L 561.256608 141.936373 
L 562.839033 137.634802 
L 564.474206 135.590549 
L 566.056631 134.984268 
L 567.691803 133.850918 
L 569.326976 131.789825 
L 570.803906 130.157169 
L 572.439079 131.617757 
L 574.021504 133.317919 
L 575.656676 134.241557 
L 575.656676 134.241557 
" clip-path="url(#p17b31f8616)" style="fill: none; stroke: #2e4a3f; stroke-width: 1.4; stroke-linecap: round"/>
   </g>
   <g id="line2d_18">
    <path d="M 43.020313 157.056663 
L 601.020313 157.056663 
" clip-path="url(#p17b31f8616)" style="fill: none; stroke-dasharray: 2.96,1.28; stroke-dashoffset: 0; stroke: #948d82; stroke-opacity: 0.7; stroke-width: 0.8"/>
   </g>
   <g id="patch_3">
    <path d="M 43.020313 304.75125 
L 43.020313 27.55125 
" style="fill: none; stroke: #1a1814; stroke-linejoin: miter; stroke-linecap: square"/>
   </g>
   <g id="patch_4">
    <path d="M 43.020313 304.75125 
L 601.020313 304.75125 
" style="fill: none; stroke: #1a1814; stroke-linejoin: miter; stroke-linecap: square"/>
   </g>
   <g id="text_18">
    <text style="font-size: 9px; font-family: 'IBM Plex Mono'; text-anchor: start; fill: #6b655c" x="76.348822" y="154.354772" transform="rotate(-0 76.348822 154.354772)">NAR affordability threshold (100)</text>
   </g>
   <g id="text_19">
    <text style="font-weight: 600; font-size: 12px; font-family: 'IBM Plex Sans', 'Helvetica Neue', 'Arial', 'DejaVu Sans', sans-serif; text-anchor: middle; fill: #1a1814" x="322.020313" y="12.55125" transform="rotate(-0 322.020313 12.55125)">Washington MSA Affordability, 2000-2026: DC Core vs. Fairfax County Income</text>
   </g>
   <g id="legend_1">
    <g id="line2d_19">
     <path d="M 361.464063 40.65125 
L 371.464063 40.65125 
L 381.464063 40.65125 
" style="fill: none; stroke: #a87333; stroke-width: 1.4; stroke-linecap: round"/>
    </g>
    <g id="text_20">
     <text style="font-size: 10px; font-family: 'IBM Plex Sans', 'Helvetica Neue', 'Arial', 'DejaVu Sans', sans-serif; text-anchor: start; fill: #3c3833" x="389.464063" y="44.15125" transform="rotate(-0 389.464063 44.15125)">Washington MSA (District core income)</text>
    </g>
    <g id="line2d_20">
     <path d="M 361.464063 55.371562 
L 371.464063 55.371562 
L 381.464063 55.371562 
" style="fill: none; stroke: #2e4a3f; stroke-width: 1.4; stroke-linecap: round"/>
    </g>
    <g id="text_21">
     <text style="font-size: 10px; font-family: 'IBM Plex Sans', 'Helvetica Neue', 'Arial', 'DejaVu Sans', sans-serif; text-anchor: start; fill: #3c3833" x="389.464063" y="58.871562" transform="rotate(-0 389.464063 58.871562)">Washington MSA (Fairfax County, VA income)</text>
    </g>
   </g>
  </g>
 </g>
 <defs>
  <clipPath id="p17b31f8616">
   <rect x="43.020313" y="27.55125" width="558" height="277.2"/>
  </clipPath>
 </defs>
</svg>
