<?xml version="1.0" encoding="utf-8" standalone="no"?>
<!DOCTYPE svg PUBLIC "-//W3C//DTD SVG 1.1//EN"
  "http://www.w3.org/Graphics/SVG/1.1/DTD/svg11.dtd">
<svg xmlns:xlink="http://www.w3.org/1999/xlink" width="604.3pt" height="339.88pt" viewBox="0 0 604.3 339.88" xmlns="http://www.w3.org/2000/svg" version="1.1">
 <metadata>
  <rdf:RDF xmlns:dc="http://purl.org/dc/elements/1.1/" xmlns:cc="http://creativecommons.org/ns#" xmlns:rdf="http://www.w3.org/1999/02/22-rdf-syntax-ns#">
   <cc:Work>
    <dc:type rdf:resource="http://purl.org/dc/dcmitype/StillImage"/>
    <dc:date>2026-07-08T15:36:10.432051</dc:date>
    <dc:format>image/svg+xml</dc:format>
    <dc:creator>
     <cc:Agent>
      <dc:title>Matplotlib v3.10.9, https://matplotlib.org/</dc:title>
     </cc:Agent>
    </dc:creator>
   </cc:Work>
  </rdf:RDF>
 </metadata>
 <defs>
  <style type="text/css">*{stroke-linejoin: round; stroke-linecap: butt}</style>
 </defs>
 <g id="figure_1">
  <g id="patch_1">
   <path d="M 0 339.88 
L 604.3 339.88 
L 604.3 0 
L 0 0 
L 0 339.88 
z
" style="fill: none"/>
  </g>
  <g id="axes_1">
   <g id="patch_2">
    <path d="M 42.7 304.92 
L 600.7 304.92 
L 600.7 27.72 
L 42.7 27.72 
L 42.7 304.92 
z
" style="fill: none"/>
   </g>
   <g id="FillBetweenPolyCollection_1">
    <defs>
     <path id="mfb6cf96e83" d="M 85.73405 -148.661628 
L 85.73405 -139.868823 
L 87.369222 -145.433079 
L 88.846152 -144.688414 
L 90.481325 -147.070062 
L 92.06375 -144.86308 
L 93.698922 -144.857042 
L 95.281347 -145.637973 
L 96.91652 -147.445097 
L 98.551693 -152.613272 
L 100.134118 -156.62089 
L 101.76929 -161.916506 
L 103.351715 -162.351981 
L 104.986888 -154.657177 
L 106.62206 -156.173548 
L 108.09899 -158.554768 
L 109.734163 -155.076477 
L 111.316588 -154.850673 
L 112.951761 -158.135768 
L 114.534186 -161.138924 
L 116.169358 -164.309665 
L 117.804531 -167.293741 
L 119.386956 -170.027213 
L 121.022128 -168.048593 
L 122.604553 -167.925648 
L 124.239726 -167.595505 
L 125.874899 -170.022658 
L 127.351829 -171.014392 
L 128.987001 -173.050933 
L 130.569426 -171.578808 
L 132.204599 -179.612062 
L 133.787024 -184.965175 
L 135.422196 -173.676434 
L 137.057369 -155.607291 
L 138.639794 -157.036616 
L 140.274967 -161.067888 
L 141.857392 -160.804131 
L 143.492564 -161.466885 
L 145.127737 -164.903497 
L 146.657414 -165.447808 
L 148.292587 -168.028642 
L 149.875012 -155.221081 
L 151.510185 -141.21501 
L 153.09261 -140.330863 
L 154.727782 -144.255838 
L 156.362955 -147.238487 
L 157.94538 -148.352716 
L 159.580552 -147.801317 
L 161.162977 -146.395556 
L 162.79815 -144.674589 
L 164.433323 -146.461483 
L 165.910253 -149.915669 
L 167.545425 -145.991291 
L 169.12785 -149.035115 
L 170.763023 -152.938579 
L 172.345448 -157.002264 
L 173.98062 -154.955623 
L 175.615793 -152.758374 
L 177.198218 -154.805986 
L 178.833391 -148.706135 
L 180.415816 -142.398106 
L 182.050988 -144.006552 
L 183.686161 -147.961062 
L 185.163091 -146.889776 
L 186.798263 -146.441655 
L 188.380689 -142.895755 
L 190.015861 -141.038863 
L 191.598286 -139.879994 
L 193.233459 -138.620572 
L 194.868631 -144.655918 
L 196.451056 -148.551349 
L 198.086229 -149.582566 
L 199.668654 -151.989712 
L 201.303827 -153.828616 
L 202.938999 -151.93647 
L 204.415929 -151.023428 
L 206.051102 -154.710224 
L 207.633527 -154.746954 
L 209.268699 -153.506213 
L 210.851124 -145.309197 
L 212.486297 -146.031904 
L 214.12147 -149.654328 
L 215.703895 -154.681651 
L 217.339067 -155.463983 
L 218.921492 -159.618744 
L 220.556665 -162.174108 
L 222.191837 -169.711859 
L 223.721515 -166.126618 
L 225.356687 -165.688809 
L 226.939113 -167.385879 
L 228.574285 -165.197195 
L 230.15671 -160.386159 
L 231.791883 -160.65347 
L 233.427055 -162.561814 
L 235.00948 -175.895803 
L 236.644653 -174.634977 
L 238.227078 -179.81847 
L 239.862251 -199.832292 
L 241.497423 -203.353649 
L 242.974353 -198.054553 
L 244.609526 -199.507761 
L 246.191951 -202.850018 
L 247.827123 -199.419552 
L 249.409548 -181.872149 
L 251.044721 -188.575065 
L 252.679894 -191.547867 
L 254.262319 -196.975805 
L 255.897491 -203.427477 
L 257.479916 -209.244276 
L 259.115089 -206.461707 
L 260.750261 -203.147437 
L 262.227191 -204.182563 
L 263.862364 -204.714365 
L 265.444789 -201.003751 
L 267.079962 -208.442133 
L 268.662387 -213.492667 
L 270.297559 -218.950114 
L 271.932732 -223.680157 
L 273.515157 -226.430747 
L 275.150329 -229.998592 
L 276.732754 -226.960987 
L 278.367927 -213.597384 
L 280.0031 -214.053917 
L 281.48003 -209.526232 
L 283.115202 -215.975208 
L 284.697627 -219.442756 
L 286.3328 -228.986687 
L 287.915225 -234.85893 
L 289.550397 -234.178509 
L 291.18557 -242.938906 
L 292.767995 -247.372487 
L 294.403168 -247.619487 
L 295.985593 -250.163604 
L 297.620765 -251.918189 
L 299.255938 -253.867916 
L 300.785615 -255.572221 
L 302.420788 -254.09757 
L 304.003213 -258.062399 
L 305.638386 -264.23108 
L 307.220811 -269.969726 
L 308.855983 -276.286901 
L 310.491156 -274.186941 
L 312.073581 -278.119652 
L 313.708753 -282.475623 
L 315.291179 -282.939329 
L 316.926351 -282.656518 
L 318.561524 -279.640547 
L 320.038454 -274.413439 
L 321.673626 -272.771547 
L 323.256051 -277.58735 
L 324.891224 -271.658787 
L 326.473649 -242.101394 
L 328.108821 -222.823737 
L 329.743994 -212.973257 
L 331.326419 -206.746562 
L 332.961592 -214.615846 
L 334.544017 -210.339256 
L 336.179189 -201.336735 
L 337.814362 -201.44657 
L 339.291292 -205.61187 
L 340.926464 -204.29693 
L 342.50889 -207.07001 
L 344.144062 -216.924553 
L 345.726487 -219.16329 
L 347.36166 -219.018069 
L 348.996832 -217.699028 
L 350.579257 -213.84311 
L 352.21443 -218.358788 
L 353.796855 -219.466309 
L 355.432028 -222.284254 
L 357.0672 -226.742709 
L 358.54413 -223.701468 
L 360.179303 -219.912594 
L 361.761728 -222.097001 
L 363.3969 -214.501332 
L 364.979325 -207.247441 
L 366.614498 -202.794995 
L 368.249671 -206.152311 
L 369.832096 -205.572736 
L 371.467268 -208.137593 
L 373.049693 -202.383507 
L 374.684866 -201.059908 
L 376.320038 -203.378253 
L 377.849716 -210.008618 
L 379.484889 -208.398357 
L 381.067314 -212.142041 
L 382.702486 -211.785445 
L 384.284911 -211.696543 
L 385.920084 -215.203079 
L 387.555256 -214.479513 
L 389.137681 -212.730606 
L 390.772854 -211.353124 
L 392.355279 -198.732709 
L 393.990452 -180.051438 
L 395.625624 -179.430121 
L 397.102554 -177.872468 
L 398.737727 -176.112773 
L 400.320152 -180.541062 
L 401.955324 -181.767724 
L 403.537749 -185.738397 
L 405.172922 -185.349914 
L 406.808095 -190.090619 
L 408.39052 -194.587975 
L 410.025692 -194.047704 
L 411.608117 -193.559663 
L 413.24329 -192.91526 
L 414.878462 -190.353265 
L 416.355392 -180.387591 
L 417.990565 -175.441808 
L 419.57299 -173.039004 
L 421.208163 -167.48825 
L 422.790588 -166.624207 
L 424.42576 -166.75605 
L 426.060933 -165.695867 
L 427.643358 -163.672966 
L 429.27853 -157.986331 
L 430.860956 -157.267442 
L 432.496128 -164.879753 
L 434.131301 -171.541953 
L 435.608231 -174.490255 
L 437.243403 -177.090281 
L 438.825828 -179.896643 
L 440.461001 -181.027801 
L 442.043426 -187.463363 
L 443.678599 -187.192856 
L 445.313771 -190.360198 
L 446.896196 -189.669408 
L 448.531369 -187.20732 
L 450.113794 -187.955263 
L 451.748966 -187.898383 
L 453.384139 -191.078812 
L 454.913816 -196.427971 
L 456.548989 -197.319887 
L 458.131414 -202.489218 
L 459.766587 -205.858202 
L 461.349012 -207.728203 
L 462.984184 -211.342336 
L 464.619357 -211.709858 
L 466.201782 -210.509907 
L 467.836954 -209.842922 
L 469.41938 -209.585727 
L 471.054552 -210.435341 
L 472.689725 -207.203461 
L 474.166655 -202.475891 
L 475.801827 -188.792414 
L 477.384252 -184.659042 
L 479.019425 -182.946795 
L 480.60185 -177.186544 
L 482.237023 -176.599326 
L 483.872195 -174.761674 
L 485.45462 -171.156568 
L 487.089793 -163.759755 
L 488.672218 -161.701389 
L 490.30739 -159.078466 
L 491.942563 -146.188751 
L 493.419493 -133.13013 
L 495.054666 -115.816728 
L 496.637091 -89.433831 
L 498.272263 -78.281083 
L 499.854688 -67.973907 
L 501.489861 -68.287409 
L 503.125033 -73.047453 
L 504.707458 -58.60207 
L 506.342631 -47.56 
L 507.925056 -52.504138 
L 509.560229 -65.813785 
L 511.195401 -74.039765 
L 512.672331 -81.232956 
L 514.307504 -82.488101 
L 515.889929 -88.479451 
L 517.525101 -88.624115 
L 519.107526 -84.360429 
L 520.742699 -83.014426 
L 522.377872 -80.983334 
L 523.960297 -79.250104 
L 525.595469 -73.648368 
L 527.177894 -76.956043 
L 528.813067 -87.379946 
L 530.448239 -90.485858 
L 531.977917 -88.632027 
L 533.61309 -87.781242 
L 535.195515 -85.271715 
L 536.830687 -84.708097 
L 538.413112 -87.394787 
L 540.048285 -88.949105 
L 541.683457 -94.632264 
L 543.265882 -99.636074 
L 544.901055 -96.59469 
L 546.48348 -92.031003 
L 548.118653 -94.080757 
L 549.753825 -90.817193 
L 551.230755 -93.564206 
L 552.865928 -97.77602 
L 554.448353 -98.022294 
L 556.083525 -98.477372 
L 557.66595 -100.262754 
L 559.301123 -103.396612 
L 560.936296 -106.180499 
L 562.518721 -110.235173 
L 564.153893 -111.631228 
L 565.736318 -112.057035 
L 567.371491 -113.064988 
L 569.006663 -115.595579 
L 570.483593 -117.600059 
L 572.118766 -116.153498 
L 573.701191 -114.908771 
L 575.336364 -115.284968 
L 575.336364 -130.38109 
L 575.336364 -130.38109 
L 573.701191 -132.190453 
L 572.118766 -134.53862 
L 570.483593 -135.954526 
L 569.006663 -133.559308 
L 567.371491 -130.681137 
L 565.736318 -128.200085 
L 564.153893 -126.121689 
L 562.518721 -121.623536 
L 560.936296 -114.782289 
L 559.301123 -110.4381 
L 557.66595 -107.690814 
L 556.083525 -106.924408 
L 554.448353 -107.966718 
L 552.865928 -108.283066 
L 551.230755 -103.72038 
L 549.753825 -100.997934 
L 548.118653 -104.254545 
L 546.48348 -102.240024 
L 544.901055 -109.357061 
L 543.265882 -114.108181 
L 541.683457 -106.761697 
L 540.048285 -99.680335 
L 538.413112 -97.753467 
L 536.830687 -94.972966 
L 535.195515 -96.245049 
L 533.61309 -99.471631 
L 531.977917 -100.233074 
L 530.448239 -102.333757 
L 528.813067 -98.892882 
L 527.177894 -88.345281 
L 525.595469 -85.051889 
L 523.960297 -90.456492 
L 522.377872 -91.682136 
L 520.742699 -96.457366 
L 519.107526 -98.7699 
L 517.525101 -103.549102 
L 515.889929 -105.276022 
L 514.307504 -102.663598 
L 512.672331 -110.913777 
L 511.195401 -114.424832 
L 509.560229 -116.390553 
L 507.925056 -112.677758 
L 506.342631 -112.307946 
L 504.707458 -123.584117 
L 503.125033 -138.860511 
L 501.489861 -135.654895 
L 499.854688 -133.039863 
L 498.272263 -136.568025 
L 496.637091 -139.213969 
L 495.054666 -153.748075 
L 493.419493 -162.836106 
L 491.942563 -172.043664 
L 490.30739 -183.799179 
L 488.672218 -188.240867 
L 487.089793 -190.813222 
L 485.45462 -197.56187 
L 483.872195 -200.9221 
L 482.237023 -202.188282 
L 480.60185 -201.197105 
L 479.019425 -203.693603 
L 477.384252 -202.393504 
L 475.801827 -202.664555 
L 474.166655 -213.277273 
L 472.689725 -219.078756 
L 471.054552 -224.844386 
L 469.41938 -225.901818 
L 467.836954 -226.79482 
L 466.201782 -227.157802 
L 464.619357 -226.859338 
L 462.984184 -224.034402 
L 461.349012 -217.960001 
L 459.766587 -214.618417 
L 458.131414 -212.700869 
L 456.548989 -209.10667 
L 454.913816 -210.732677 
L 453.384139 -207.371766 
L 451.748966 -206.411094 
L 450.113794 -209.19982 
L 448.531369 -211.469497 
L 446.896196 -214.970197 
L 445.313771 -213.665923 
L 443.678599 -206.984889 
L 442.043426 -204.064224 
L 440.461001 -193.447041 
L 438.825828 -190.385951 
L 437.243403 -186.317499 
L 435.608231 -183.659102 
L 434.131301 -182.164568 
L 432.496128 -179.96004 
L 430.860956 -175.834405 
L 429.27853 -177.605643 
L 427.643358 -183.413018 
L 426.060933 -186.475856 
L 424.42576 -187.434754 
L 422.790588 -186.237477 
L 421.208163 -185.306159 
L 419.57299 -187.749738 
L 417.990565 -187.492226 
L 416.355392 -189.905944 
L 414.878462 -198.305205 
L 413.24329 -201.587343 
L 411.608117 -203.086198 
L 410.025692 -204.525392 
L 408.39052 -209.775227 
L 406.808095 -208.768621 
L 405.172922 -207.294729 
L 403.537749 -210.101114 
L 401.955324 -207.200142 
L 400.320152 -206.328183 
L 398.737727 -201.713765 
L 397.102554 -201.400907 
L 395.625624 -200.282533 
L 393.990452 -196.684306 
L 392.355279 -207.235234 
L 390.772854 -217.476921 
L 389.137681 -218.881081 
L 387.555256 -220.553466 
L 385.920084 -220.751329 
L 384.284911 -216.866541 
L 382.702486 -216.816066 
L 381.067314 -217.99216 
L 379.484889 -217.551179 
L 377.849716 -220.620373 
L 376.320038 -216.154984 
L 374.684866 -215.841103 
L 373.049693 -216.845736 
L 371.467268 -221.735214 
L 369.832096 -219.037105 
L 368.249671 -218.840215 
L 366.614498 -214.602452 
L 364.979325 -216.272587 
L 363.3969 -220.754129 
L 361.761728 -227.316936 
L 360.179303 -225.183612 
L 358.54413 -228.91216 
L 357.0672 -232.173791 
L 355.432028 -226.569447 
L 353.796855 -223.873897 
L 352.21443 -225.840565 
L 350.579257 -224.65131 
L 348.996832 -227.792706 
L 347.36166 -229.325578 
L 345.726487 -230.895139 
L 344.144062 -234.384446 
L 342.50889 -237.851317 
L 340.926464 -243.873907 
L 339.291292 -249.24542 
L 337.814362 -248.128584 
L 336.179189 -249.777588 
L 334.544017 -258.954054 
L 332.961592 -263.199422 
L 331.326419 -254.234579 
L 329.743994 -254.210092 
L 328.108821 -255.208227 
L 326.473649 -263.040617 
L 324.891224 -281.390852 
L 323.256051 -287.507542 
L 321.673626 -285.37054 
L 320.038454 -289.330467 
L 318.561524 -295.757335 
L 316.926351 -299.39015 
L 315.291179 -299.56 
L 313.708753 -298.628864 
L 312.073581 -294.003852 
L 310.491156 -290.439104 
L 308.855983 -294.744853 
L 307.220811 -291.663941 
L 305.638386 -287.602096 
L 304.003213 -284.149891 
L 302.420788 -284.548048 
L 300.785615 -288.937343 
L 299.255938 -289.10217 
L 297.620765 -285.817215 
L 295.985593 -281.581985 
L 294.403168 -274.683529 
L 292.767995 -270.479598 
L 291.18557 -261.305142 
L 289.550397 -248.986096 
L 287.915225 -249.455186 
L 286.3328 -244.104564 
L 284.697627 -236.760704 
L 283.115202 -237.128981 
L 281.48003 -232.215334 
L 280.0031 -237.974425 
L 278.367927 -238.64497 
L 276.732754 -252.331314 
L 275.150329 -252.484341 
L 273.515157 -243.98148 
L 271.932732 -236.891738 
L 270.297559 -228.227268 
L 268.662387 -220.047808 
L 267.079962 -215.404119 
L 265.444789 -211.089967 
L 263.862364 -217.238476 
L 262.227191 -217.362659 
L 260.750261 -216.326779 
L 259.115089 -219.698475 
L 257.479916 -222.617621 
L 255.897491 -224.874747 
L 254.262319 -225.159707 
L 252.679894 -223.671626 
L 251.044721 -227.380936 
L 249.409548 -225.443268 
L 247.827123 -246.309177 
L 246.191951 -248.421791 
L 244.609526 -241.162466 
L 242.974353 -235.67079 
L 241.497423 -235.970439 
L 239.862251 -222.595986 
L 238.227078 -191.320613 
L 236.644653 -185.966112 
L 235.00948 -189.071858 
L 233.427055 -175.932077 
L 231.791883 -176.99402 
L 230.15671 -179.759014 
L 228.574285 -186.52122 
L 226.939113 -187.810764 
L 225.356687 -184.21906 
L 223.721515 -182.918913 
L 222.191837 -184.463912 
L 220.556665 -172.137904 
L 218.921492 -167.807079 
L 217.339067 -162.631504 
L 215.703895 -162.008162 
L 214.12147 -157.27557 
L 212.486297 -154.601322 
L 210.851124 -156.131708 
L 209.268699 -165.690546 
L 207.633527 -167.261027 
L 206.051102 -166.480555 
L 204.415929 -161.402025 
L 202.938999 -161.772753 
L 201.303827 -162.905421 
L 199.668654 -159.457349 
L 198.086229 -156.003263 
L 196.451056 -154.698286 
L 194.868631 -152.591651 
L 193.233459 -147.415743 
L 191.598286 -148.861289 
L 190.015861 -150.483086 
L 188.380689 -151.713961 
L 186.798263 -154.601301 
L 185.163091 -155.121001 
L 183.686161 -156.352012 
L 182.050988 -152.378237 
L 180.415816 -149.990864 
L 178.833391 -154.357333 
L 177.198218 -160.107908 
L 175.615793 -158.116058 
L 173.98062 -160.340502 
L 172.345448 -162.398588 
L 170.763023 -158.536287 
L 169.12785 -154.888223 
L 167.545425 -153.925618 
L 165.910253 -163.862878 
L 164.433323 -163.319695 
L 162.79815 -163.264839 
L 161.162977 -165.294153 
L 159.580552 -166.785836 
L 157.94538 -167.350063 
L 156.362955 -165.893118 
L 154.727782 -162.337235 
L 153.09261 -158.694977 
L 151.510185 -160.991025 
L 149.875012 -172.487446 
L 148.292587 -184.354931 
L 146.657414 -181.980257 
L 145.127737 -181.503574 
L 143.492564 -178.052297 
L 141.857392 -177.120942 
L 140.274967 -176.963595 
L 138.639794 -172.480373 
L 137.057369 -169.41209 
L 135.422196 -184.868878 
L 133.787024 -197.347821 
L 132.204599 -189.704087 
L 130.569426 -181.465242 
L 128.987001 -184.926797 
L 127.351829 -183.242982 
L 125.874899 -181.633292 
L 124.239726 -178.764175 
L 122.604553 -179.020045 
L 121.022128 -178.499521 
L 119.386956 -179.887508 
L 117.804531 -175.327636 
L 116.169358 -171.560239 
L 114.534186 -169.270513 
L 112.951761 -167.420619 
L 111.316588 -165.137053 
L 109.734163 -166.020534 
L 108.09899 -169.833456 
L 106.62206 -168.176364 
L 104.986888 -167.378635 
L 103.351715 -177.624537 
L 101.76929 -179.013063 
L 100.134118 -173.458593 
L 98.551693 -169.825914 
L 96.91652 -165.186737 
L 95.281347 -164.392713 
L 93.698922 -164.505973 
L 92.06375 -165.411682 
L 90.481325 -166.108593 
L 88.846152 -160.849674 
L 87.369222 -158.916173 
L 85.73405 -148.661628 
z
" style="stroke: #2e4a3f; stroke-opacity: 0.15"/>
    </defs>
    <g clip-path="url(#p341c9c6c14)">
     <use xlink:href="#mfb6cf96e83" x="0" y="339.88" style="fill: #2e4a3f; fill-opacity: 0.15; stroke: #2e4a3f; stroke-opacity: 0.15"/>
    </g>
   </g>
   <g id="patch_3">
    <path d="M 201.356574 304.92 
L 316.926351 304.92 
L 316.926351 27.72 
L 201.356574 27.72 
z
" clip-path="url(#p341c9c6c14)" style="fill: #948d82; opacity: 0.12; stroke: #948d82; stroke-linejoin: miter"/>
   </g>
   <g id="patch_4">
    <path d="M 451.801714 304.92 
L 490.30739 304.92 
L 490.30739 27.72 
L 451.801714 27.72 
z
" clip-path="url(#p341c9c6c14)" style="fill: #948d82; opacity: 0.12; stroke: #948d82; stroke-linejoin: miter"/>
   </g>
   <g id="patch_5">
    <path d="M 490.360138 304.92 
L 569.006663 304.92 
L 569.006663 27.72 
L 490.360138 27.72 
z
" clip-path="url(#p341c9c6c14)" style="fill: #948d82; opacity: 0.12; stroke: #948d82; stroke-linejoin: miter"/>
   </g>
   <g id="matplotlib.axis_1">
    <g id="xtick_1">
     <g id="line2d_1">
      <defs>
       <path id="ma7006bede2" d="M 0 0 
L 0 4 
" style="stroke: #1a1814; stroke-width: 0.8"/>
      </defs>
      <g>
       <use xlink:href="#ma7006bede2" x="66.481211" y="304.92" style="fill: #1a1814; stroke: #1a1814; stroke-width: 0.8"/>
      </g>
     </g>
     <g id="text_1">
      <text style="font-size: 9px; font-family: 'IBM Plex Sans', 'Helvetica Neue', 'Arial', 'DejaVu Sans', sans-serif; text-anchor: middle; fill: #6b655c" x="66.481211" y="319.08" transform="rotate(-0 66.481211 319.08)">2000</text>
     </g>
    </g>
    <g id="xtick_2">
     <g id="line2d_2">
      <g>
       <use xlink:href="#ma7006bede2" x="143.545312" y="304.92" style="fill: #1a1814; stroke: #1a1814; stroke-width: 0.8"/>
      </g>
     </g>
     <g id="text_2">
      <text style="font-size: 9px; font-family: 'IBM Plex Sans', 'Helvetica Neue', 'Arial', 'DejaVu Sans', sans-serif; text-anchor: middle; fill: #6b655c" x="143.545312" y="319.08" transform="rotate(-0 143.545312 319.08)">2004</text>
     </g>
    </g>
    <g id="xtick_3">
     <g id="line2d_3">
      <g>
       <use xlink:href="#ma7006bede2" x="220.609412" y="304.92" style="fill: #1a1814; stroke: #1a1814; stroke-width: 0.8"/>
      </g>
     </g>
     <g id="text_3">
      <text style="font-size: 9px; font-family: 'IBM Plex Sans', 'Helvetica Neue', 'Arial', 'DejaVu Sans', sans-serif; text-anchor: middle; fill: #6b655c" x="220.609412" y="319.08" transform="rotate(-0 220.609412 319.08)">2008</text>
     </g>
    </g>
    <g id="xtick_4">
     <g id="line2d_4">
      <g>
       <use xlink:href="#ma7006bede2" x="297.673513" y="304.92" style="fill: #1a1814; stroke: #1a1814; stroke-width: 0.8"/>
      </g>
     </g>
     <g id="text_4">
      <text style="font-size: 9px; font-family: 'IBM Plex Sans', 'Helvetica Neue', 'Arial', 'DejaVu Sans', sans-serif; text-anchor: middle; fill: #6b655c" x="297.673513" y="319.08" transform="rotate(-0 297.673513 319.08)">2012</text>
     </g>
    </g>
    <g id="xtick_5">
     <g id="line2d_5">
      <g>
       <use xlink:href="#ma7006bede2" x="374.737613" y="304.92" style="fill: #1a1814; stroke: #1a1814; stroke-width: 0.8"/>
      </g>
     </g>
     <g id="text_5">
      <text style="font-size: 9px; font-family: 'IBM Plex Sans', 'Helvetica Neue', 'Arial', 'DejaVu Sans', sans-serif; text-anchor: middle; fill: #6b655c" x="374.737613" y="319.08" transform="rotate(-0 374.737613 319.08)">2016</text>
     </g>
    </g>
    <g id="xtick_6">
     <g id="line2d_6">
      <g>
       <use xlink:href="#ma7006bede2" x="451.801714" y="304.92" style="fill: #1a1814; stroke: #1a1814; stroke-width: 0.8"/>
      </g>
     </g>
     <g id="text_6">
      <text style="font-size: 9px; font-family: 'IBM Plex Sans', 'Helvetica Neue', 'Arial', 'DejaVu Sans', sans-serif; text-anchor: middle; fill: #6b655c" x="451.801714" y="319.08" transform="rotate(-0 451.801714 319.08)">2020</text>
     </g>
    </g>
    <g id="xtick_7">
     <g id="line2d_7">
      <g>
       <use xlink:href="#ma7006bede2" x="528.865814" y="304.92" style="fill: #1a1814; stroke: #1a1814; stroke-width: 0.8"/>
      </g>
     </g>
     <g id="text_7">
      <text style="font-size: 9px; font-family: 'IBM Plex Sans', 'Helvetica Neue', 'Arial', 'DejaVu Sans', sans-serif; text-anchor: middle; fill: #6b655c" x="528.865814" y="319.08" transform="rotate(-0 528.865814 319.08)">2024</text>
     </g>
    </g>
    <g id="text_8">
     <text style="font-size: 10px; font-family: 'IBM Plex Sans', 'Helvetica Neue', 'Arial', 'DejaVu Sans', sans-serif; text-anchor: middle; fill: #1a1814" x="321.7" y="334.28" transform="rotate(-0 321.7 334.28)">Year</text>
    </g>
   </g>
   <g id="matplotlib.axis_2">
    <g id="ytick_1">
     <g id="line2d_8">
      <defs>
       <path id="m0f319f8bc6" d="M 0 0 
L -4 0 
" style="stroke: #1a1814; stroke-width: 0.8"/>
      </defs>
      <g>
       <use xlink:href="#m0f319f8bc6" x="42.7" y="301.202141" style="fill: #1a1814; stroke: #1a1814; stroke-width: 0.8"/>
      </g>
     </g>
     <g id="text_9">
      <text style="font-size: 9px; font-family: 'IBM Plex Sans', 'Helvetica Neue', 'Arial', 'DejaVu Sans', sans-serif; text-anchor: end; fill: #6b655c" x="35.2" y="304.532141" transform="rotate(-0 35.2 304.532141)">60</text>
     </g>
    </g>
    <g id="ytick_2">
     <g id="line2d_9">
      <g>
       <use xlink:href="#m0f319f8bc6" x="42.7" y="266.428121" style="fill: #1a1814; stroke: #1a1814; stroke-width: 0.8"/>
      </g>
     </g>
     <g id="text_10">
      <text style="font-size: 9px; font-family: 'IBM Plex Sans', 'Helvetica Neue', 'Arial', 'DejaVu Sans', sans-serif; text-anchor: end; fill: #6b655c" x="35.2" y="269.758121" transform="rotate(-0 35.2 269.758121)">80</text>
     </g>
    </g>
    <g id="ytick_3">
     <g id="line2d_10">
      <g>
       <use xlink:href="#m0f319f8bc6" x="42.7" y="231.654101" style="fill: #1a1814; stroke: #1a1814; stroke-width: 0.8"/>
      </g>
     </g>
     <g id="text_11">
      <text style="font-size: 9px; font-family: 'IBM Plex Sans', 'Helvetica Neue', 'Arial', 'DejaVu Sans', sans-serif; text-anchor: end; fill: #6b655c" x="35.2" y="234.984101" transform="rotate(-0 35.2 234.984101)">100</text>
     </g>
    </g>
    <g id="ytick_4">
     <g id="line2d_11">
      <g>
       <use xlink:href="#m0f319f8bc6" x="42.7" y="196.880081" style="fill: #1a1814; stroke: #1a1814; stroke-width: 0.8"/>
      </g>
     </g>
     <g id="text_12">
      <text style="font-size: 9px; font-family: 'IBM Plex Sans', 'Helvetica Neue', 'Arial', 'DejaVu Sans', sans-serif; text-anchor: end; fill: #6b655c" x="35.2" y="200.210081" transform="rotate(-0 35.2 200.210081)">120</text>
     </g>
    </g>
    <g id="ytick_5">
     <g id="line2d_12">
      <g>
       <use xlink:href="#m0f319f8bc6" x="42.7" y="162.106061" style="fill: #1a1814; stroke: #1a1814; stroke-width: 0.8"/>
      </g>
     </g>
     <g id="text_13">
      <text style="font-size: 9px; font-family: 'IBM Plex Sans', 'Helvetica Neue', 'Arial', 'DejaVu Sans', sans-serif; text-anchor: end; fill: #6b655c" x="35.2" y="165.436061" transform="rotate(-0 35.2 165.436061)">140</text>
     </g>
    </g>
    <g id="ytick_6">
     <g id="line2d_13">
      <g>
       <use xlink:href="#m0f319f8bc6" x="42.7" y="127.332042" style="fill: #1a1814; stroke: #1a1814; stroke-width: 0.8"/>
      </g>
     </g>
     <g id="text_14">
      <text style="font-size: 9px; font-family: 'IBM Plex Sans', 'Helvetica Neue', 'Arial', 'DejaVu Sans', sans-serif; text-anchor: end; fill: #6b655c" x="35.2" y="130.662042" transform="rotate(-0 35.2 130.662042)">160</text>
     </g>
    </g>
    <g id="ytick_7">
     <g id="line2d_14">
      <g>
       <use xlink:href="#m0f319f8bc6" x="42.7" y="92.558022" style="fill: #1a1814; stroke: #1a1814; stroke-width: 0.8"/>
      </g>
     </g>
     <g id="text_15">
      <text style="font-size: 9px; font-family: 'IBM Plex Sans', 'Helvetica Neue', 'Arial', 'DejaVu Sans', sans-serif; text-anchor: end; fill: #6b655c" x="35.2" y="95.888022" transform="rotate(-0 35.2 95.888022)">180</text>
     </g>
    </g>
    <g id="ytick_8">
     <g id="line2d_15">
      <g>
       <use xlink:href="#m0f319f8bc6" x="42.7" y="57.784002" style="fill: #1a1814; stroke: #1a1814; stroke-width: 0.8"/>
      </g>
     </g>
     <g id="text_16">
      <text style="font-size: 9px; font-family: 'IBM Plex Sans', 'Helvetica Neue', 'Arial', 'DejaVu Sans', sans-serif; text-anchor: end; fill: #6b655c" x="35.2" y="61.114002" transform="rotate(-0 35.2 61.114002)">200</text>
     </g>
    </g>
    <g id="text_17">
     <text style="font-size: 10px; font-family: 'IBM Plex Sans', 'Helvetica Neue', 'Arial', 'DejaVu Sans', sans-serif; text-anchor: middle; fill: #1a1814" x="11" y="166.32" transform="rotate(-90 11 166.32)">HAI</text>
    </g>
   </g>
   <g id="line2d_16">
    <path d="M 68.063636 206.830527 
L 69.593314 209.088849 
L 72.810912 206.031617 
L 74.446084 212.821982 
L 76.028509 209.124568 
L 77.663682 206.918419 
L 80.881279 203.723746 
L 82.516452 202.065599 
L 84.098877 201.991228 
L 85.73405 195.614775 
L 87.369222 187.705374 
L 88.846152 187.110956 
L 90.481325 183.290673 
L 92.06375 184.742619 
L 93.698922 185.198493 
L 95.281347 184.864657 
L 96.91652 183.564083 
L 98.551693 178.660407 
L 100.134118 174.840258 
L 101.76929 169.415216 
L 103.351715 169.891741 
L 104.986888 178.862094 
L 106.62206 177.705044 
L 108.09899 175.685888 
L 109.734163 179.331495 
L 111.316588 179.886137 
L 112.951761 177.101806 
L 114.534186 174.675282 
L 116.169358 171.945048 
L 117.804531 168.569311 
L 119.386956 164.922639 
L 121.022128 166.605943 
L 122.604553 166.407153 
L 124.239726 166.70016 
L 125.874899 164.052025 
L 127.351829 162.751313 
L 128.987001 160.891135 
L 130.569426 163.357975 
L 132.204599 155.221926 
L 133.787024 148.723502 
L 135.422196 160.607344 
L 137.057369 177.370309 
L 138.639794 175.121505 
L 140.274967 170.864258 
L 141.857392 170.917463 
L 143.492564 170.120409 
L 145.127737 166.676464 
L 146.657414 166.165967 
L 148.292587 163.688214 
L 151.510185 188.776983 
L 153.09261 190.36708 
L 154.727782 186.583463 
L 156.362955 183.314198 
L 157.94538 182.028611 
L 159.580552 182.586423 
L 161.162977 184.035145 
L 162.79815 185.910286 
L 164.433323 184.989411 
L 165.910253 182.990727 
L 167.545425 189.921546 
L 169.12785 187.918331 
L 170.763023 184.142567 
L 172.345448 180.179574 
L 175.615793 184.442784 
L 177.198218 182.423053 
L 180.415816 193.685515 
L 182.050988 191.687606 
L 183.686161 187.723463 
L 185.163091 188.874611 
L 186.798263 189.358522 
L 188.380689 192.575142 
L 191.598286 195.509358 
L 193.233459 196.861842 
L 194.868631 191.256215 
L 196.451056 188.255182 
L 198.086229 187.087085 
L 199.668654 184.15647 
L 201.303827 181.512981 
L 202.938999 183.025389 
L 204.415929 183.667274 
L 206.051102 179.284611 
L 207.633527 178.876009 
L 209.268699 180.28162 
L 210.851124 189.159547 
L 212.486297 189.563387 
L 214.12147 186.415051 
L 215.703895 181.535093 
L 217.339067 180.832257 
L 218.921492 176.167089 
L 220.556665 172.723994 
L 222.191837 162.792114 
L 223.721515 165.357234 
L 225.356687 164.926065 
L 226.939113 162.281678 
L 228.574285 164.020792 
L 230.15671 169.807413 
L 231.791883 171.056255 
L 233.427055 170.633054 
L 235.00948 157.39617 
L 236.644653 159.579455 
L 238.227078 154.310458 
L 239.862251 128.665861 
L 241.497423 120.217956 
L 242.974353 123.017329 
L 244.609526 119.544886 
L 246.191951 114.244095 
L 247.827123 117.015635 
L 249.409548 136.222292 
L 251.044721 131.901999 
L 252.679894 132.270253 
L 254.262319 128.812244 
L 255.897491 125.728888 
L 257.479916 123.949051 
L 259.115089 126.799909 
L 260.750261 130.142892 
L 262.227191 129.107389 
L 263.862364 128.903579 
L 265.444789 133.833141 
L 267.079962 127.956874 
L 268.662387 123.109762 
L 271.932732 109.594052 
L 273.515157 104.673886 
L 275.150329 98.638533 
L 276.732754 100.23385 
L 278.367927 113.758823 
L 280.0031 113.865829 
L 281.48003 119.009217 
L 283.115202 113.327906 
L 284.697627 111.77827 
L 286.3328 103.334375 
L 287.915225 97.722942 
L 289.550397 98.297697 
L 291.18557 87.757976 
L 292.767995 80.953958 
L 294.403168 78.728492 
L 295.985593 74.007206 
L 297.620765 71.012298 
L 299.255938 68.394957 
L 300.785615 67.625218 
L 302.420788 70.557191 
L 304.003213 68.773855 
L 308.855983 54.364123 
L 310.491156 57.566977 
L 312.073581 53.818248 
L 313.708753 49.327757 
L 315.291179 48.630336 
L 316.926351 48.856666 
L 318.561524 52.181059 
L 320.038454 58.008047 
L 321.673626 60.808957 
L 323.256051 57.332554 
L 324.891224 63.35518 
L 326.473649 87.308994 
L 328.108821 100.864018 
L 329.743994 106.288326 
L 331.326419 109.38943 
L 332.961592 100.972366 
L 334.544017 105.233345 
L 336.179189 114.322838 
L 337.814362 115.092423 
L 339.291292 112.451355 
L 340.926464 115.794582 
L 342.50889 117.419337 
L 344.144062 114.2255 
L 345.726487 114.850786 
L 347.36166 115.708176 
L 348.996832 117.134133 
L 350.579257 120.63279 
L 352.21443 117.780323 
L 353.796855 118.209897 
L 355.432028 115.45315 
L 357.0672 110.42175 
L 358.54413 113.573186 
L 360.179303 117.331897 
L 361.761728 115.173032 
L 363.3969 122.25227 
L 364.979325 128.119986 
L 366.614498 131.181276 
L 368.249671 127.383737 
L 369.832096 127.575079 
L 371.467268 124.943597 
L 373.049693 130.265379 
L 374.684866 131.429494 
L 376.320038 130.113381 
L 377.849716 124.565504 
L 379.484889 126.905232 
L 381.067314 124.812899 
L 382.702486 125.579244 
L 384.284911 125.598458 
L 385.920084 121.902796 
L 387.555256 122.36351 
L 389.137681 124.074157 
L 390.772854 125.464977 
L 392.355279 136.896028 
L 393.990452 151.512128 
L 395.625624 150.023673 
L 397.102554 150.243312 
L 398.737727 150.966731 
L 400.320152 146.445378 
L 401.955324 145.396067 
L 403.537749 141.960245 
L 405.172922 143.557679 
L 406.808095 140.45038 
L 408.39052 137.698399 
L 410.025692 140.593452 
L 413.24329 142.628699 
L 414.878462 145.550765 
L 416.355392 154.733233 
L 417.990565 158.412983 
L 419.57299 159.485629 
L 421.208163 163.482795 
L 422.790588 163.449158 
L 424.42576 162.784598 
L 426.060933 163.794138 
L 427.643358 166.337008 
L 429.27853 172.084013 
L 430.860956 173.329076 
L 432.496128 167.460104 
L 434.131301 163.026739 
L 437.243403 158.17611 
L 438.825828 154.738703 
L 440.461001 152.642579 
L 442.043426 144.116206 
L 443.678599 142.791127 
L 445.313771 137.866939 
L 446.896196 137.560197 
L 448.531369 140.541591 
L 450.113794 141.302458 
L 451.748966 142.725262 
L 453.384139 140.654711 
L 454.913816 136.299676 
L 456.548989 136.666722 
L 458.131414 132.284957 
L 461.349012 127.035898 
L 462.984184 122.191631 
L 464.619357 120.595402 
L 467.836954 121.561129 
L 469.41938 122.136228 
L 471.054552 122.240137 
L 472.689725 126.738891 
L 474.166655 132.003418 
L 475.801827 144.151516 
L 477.384252 146.353727 
L 479.019425 146.559801 
L 480.60185 150.688175 
L 482.237023 150.486196 
L 483.872195 152.038113 
L 485.45462 155.520781 
L 487.089793 162.593512 
L 488.672218 164.908872 
L 490.30739 168.441178 
L 493.419493 191.896882 
L 495.054666 205.097599 
L 496.637091 225.5561 
L 499.854688 239.373115 
L 501.489861 237.908848 
L 503.125033 233.926018 
L 504.707458 248.786906 
L 506.342631 259.946027 
L 507.925056 257.289052 
L 509.560229 248.777831 
L 511.195401 245.647702 
L 512.672331 243.806634 
L 514.307504 247.304151 
L 515.889929 243.002264 
L 517.525101 243.793392 
L 519.107526 248.314836 
L 520.742699 250.144104 
L 522.377872 253.547265 
L 523.960297 255.026702 
L 525.595469 260.529872 
L 527.177894 257.229338 
L 528.813067 246.743586 
L 530.448239 243.470192 
L 531.977917 245.44745 
L 533.61309 246.253564 
L 535.195515 249.121618 
L 536.830687 250.039469 
L 538.413112 247.305873 
L 540.048285 245.56528 
L 543.265882 233.007872 
L 544.901055 236.904125 
L 546.48348 242.744487 
L 548.118653 240.712349 
L 549.753825 243.972436 
L 551.230755 241.237707 
L 552.865928 236.850457 
L 554.448353 236.885494 
L 556.083525 237.17911 
L 557.66595 235.903216 
L 559.301123 232.962644 
L 560.936296 229.398606 
L 562.518721 223.950646 
L 564.153893 221.003542 
L 565.736318 219.75144 
L 567.371491 218.006937 
L 569.006663 215.302556 
L 570.483593 213.102707 
L 572.118766 214.533941 
L 573.701191 216.330388 
L 575.336364 217.046971 
L 575.336364 217.046971 
" clip-path="url(#p341c9c6c14)" style="fill: none; stroke: #2e4a3f; stroke-width: 1.4; stroke-linecap: round"/>
   </g>
   <g id="line2d_17">
    <path d="M 42.7 231.654101 
L 600.7 231.654101 
" clip-path="url(#p341c9c6c14)" style="fill: none; stroke-dasharray: 2.96,1.28; stroke-dashoffset: 0; stroke: #948d82; stroke-opacity: 0.7; stroke-width: 0.8"/>
   </g>
   <g id="patch_6">
    <path d="M 42.7 304.92 
L 42.7 27.72 
" style="fill: none; stroke: #1a1814; stroke-linejoin: miter; stroke-linecap: square"/>
   </g>
   <g id="patch_7">
    <path d="M 42.7 304.92 
L 600.7 304.92 
" style="fill: none; stroke: #1a1814; stroke-linejoin: miter; stroke-linecap: square"/>
   </g>
   <g id="text_18">
    <text style="font-size: 9px; font-family: 'IBM Plex Mono'; text-anchor: start; fill: #6b655c" x="68.063636" y="226.437998" transform="rotate(-0 68.063636 226.437998)">NAR Affordability Threshold (100)</text>
   </g>
   <g id="text_19">
    <text style="font-weight: 600; font-size: 12px; font-family: 'IBM Plex Sans', 'Helvetica Neue', 'Arial', 'DejaVu Sans', sans-serif; text-anchor: middle; fill: #1a1814" x="321.7" y="12.72" transform="rotate(-0 321.7 12.72)">Houston MSA: Housing Affordability Index Through Three Shocks (2000-2026)</text>
   </g>
   <g id="legend_1">
    <g id="line2d_18">
     <path d="M 51.7 290.42 
L 61.7 290.42 
L 71.7 290.42 
" style="fill: none; stroke: #2e4a3f; stroke-width: 1.4; stroke-linecap: round"/>
    </g>
    <g id="text_20">
     <text style="font-size: 10px; font-family: 'IBM Plex Sans', 'Helvetica Neue', 'Arial', 'DejaVu Sans', sans-serif; text-anchor: start; fill: #3c3833" x="79.7" y="293.92" transform="rotate(-0 79.7 293.92)">Houston MSA HAI (Harris County income)</text>
    </g>
   </g>
  </g>
 </g>
 <defs>
  <clipPath id="p341c9c6c14">
   <rect x="42.7" y="27.72" width="558" height="277.2"/>
  </clipPath>
 </defs>
</svg>
