<?xml version="1.0" encoding="utf-8" standalone="no"?>
<!DOCTYPE svg PUBLIC "-//W3C//DTD SVG 1.1//EN"
  "http://www.w3.org/Graphics/SVG/1.1/DTD/svg11.dtd">
<svg xmlns:xlink="http://www.w3.org/1999/xlink" width="704.6pt" height="632.26pt" viewBox="0 0 704.6 632.26" xmlns="http://www.w3.org/2000/svg" version="1.1">
 <metadata>
  <rdf:RDF xmlns:dc="http://purl.org/dc/elements/1.1/" xmlns:cc="http://creativecommons.org/ns#" xmlns:rdf="http://www.w3.org/1999/02/22-rdf-syntax-ns#">
   <cc:Work>
    <dc:type rdf:resource="http://purl.org/dc/dcmitype/StillImage"/>
    <dc:date>2026-07-08T15:36:10.342785</dc:date>
    <dc:format>image/svg+xml</dc:format>
    <dc:creator>
     <cc:Agent>
      <dc:title>Matplotlib v3.10.9, https://matplotlib.org/</dc:title>
     </cc:Agent>
    </dc:creator>
   </cc:Work>
  </rdf:RDF>
 </metadata>
 <defs>
  <style type="text/css">*{stroke-linejoin: round; stroke-linecap: butt}</style>
 </defs>
 <g id="figure_1">
  <g id="patch_1">
   <path d="M 0 632.26 
L 704.6 632.26 
L 704.6 -0 
L 0 -0 
L 0 632.26 
z
" style="fill: none"/>
  </g>
  <g id="axes_1">
   <g id="patch_2">
    <path d="M 59.3 397.493333 
L 701 397.493333 
L 701 27.48 
L 59.3 27.48 
L 59.3 397.493333 
z
" style="fill: none"/>
   </g>
   <g id="patch_3">
    <path d="M 241.75506 397.493333 
L 374.660304 397.493333 
L 374.660304 27.48 
L 241.75506 27.48 
z
" clip-path="url(#p9b56a0a7f9)" style="fill: #948d82; opacity: 0.15; stroke: #948d82; stroke-linejoin: miter"/>
   </g>
   <g id="patch_4">
    <path d="M 529.766971 397.493333 
L 574.048499 397.493333 
L 574.048499 27.48 
L 529.766971 27.48 
z
" clip-path="url(#p9b56a0a7f9)" style="fill: #948d82; opacity: 0.15; stroke: #948d82; stroke-linejoin: miter"/>
   </g>
   <g id="patch_5">
    <path d="M 574.109158 397.493333 
L 664.552663 397.493333 
L 664.552663 27.48 
L 574.109158 27.48 
z
" clip-path="url(#p9b56a0a7f9)" style="fill: #948d82; opacity: 0.15; stroke: #948d82; stroke-linejoin: miter"/>
   </g>
   <g id="matplotlib.axis_1">
    <g id="xtick_1">
     <g id="line2d_1">
      <defs>
       <path id="m3fb68d4f4e" d="M 0 0 
L 0 4 
" style="stroke: #1a1814; stroke-width: 0.8"/>
      </defs>
      <g>
       <use xlink:href="#m3fb68d4f4e" x="86.648393" y="397.493333" style="fill: #1a1814; stroke: #1a1814; stroke-width: 0.8"/>
      </g>
     </g>
    </g>
    <g id="xtick_2">
     <g id="line2d_2">
      <g>
       <use xlink:href="#m3fb68d4f4e" x="175.272109" y="397.493333" style="fill: #1a1814; stroke: #1a1814; stroke-width: 0.8"/>
      </g>
     </g>
    </g>
    <g id="xtick_3">
     <g id="line2d_3">
      <g>
       <use xlink:href="#m3fb68d4f4e" x="263.895824" y="397.493333" style="fill: #1a1814; stroke: #1a1814; stroke-width: 0.8"/>
      </g>
     </g>
    </g>
    <g id="xtick_4">
     <g id="line2d_4">
      <g>
       <use xlink:href="#m3fb68d4f4e" x="352.51954" y="397.493333" style="fill: #1a1814; stroke: #1a1814; stroke-width: 0.8"/>
      </g>
     </g>
    </g>
    <g id="xtick_5">
     <g id="line2d_5">
      <g>
       <use xlink:href="#m3fb68d4f4e" x="441.143255" y="397.493333" style="fill: #1a1814; stroke: #1a1814; stroke-width: 0.8"/>
      </g>
     </g>
    </g>
    <g id="xtick_6">
     <g id="line2d_6">
      <g>
       <use xlink:href="#m3fb68d4f4e" x="529.766971" y="397.493333" style="fill: #1a1814; stroke: #1a1814; stroke-width: 0.8"/>
      </g>
     </g>
    </g>
    <g id="xtick_7">
     <g id="line2d_7">
      <g>
       <use xlink:href="#m3fb68d4f4e" x="618.390686" y="397.493333" style="fill: #1a1814; stroke: #1a1814; stroke-width: 0.8"/>
      </g>
     </g>
    </g>
   </g>
   <g id="matplotlib.axis_2">
    <g id="ytick_1">
     <g id="line2d_8">
      <defs>
       <path id="me2eed81752" d="M 0 0 
L -4 0 
" style="stroke: #1a1814; stroke-width: 0.8"/>
      </defs>
      <g>
       <use xlink:href="#me2eed81752" x="59.3" y="382.612906" style="fill: #1a1814; stroke: #1a1814; stroke-width: 0.8"/>
      </g>
     </g>
     <g id="text_1">
      <text style="font-size: 9px; font-family: 'IBM Plex Sans', 'Helvetica Neue', 'Arial', 'DejaVu Sans', sans-serif; text-anchor: end; fill: #6b655c" x="51.8" y="385.942906" transform="rotate(-0 51.8 385.942906)">125000</text>
     </g>
    </g>
    <g id="ytick_2">
     <g id="line2d_9">
      <g>
       <use xlink:href="#me2eed81752" x="59.3" y="339.504138" style="fill: #1a1814; stroke: #1a1814; stroke-width: 0.8"/>
      </g>
     </g>
     <g id="text_2">
      <text style="font-size: 9px; font-family: 'IBM Plex Sans', 'Helvetica Neue', 'Arial', 'DejaVu Sans', sans-serif; text-anchor: end; fill: #6b655c" x="51.8" y="342.834138" transform="rotate(-0 51.8 342.834138)">150000</text>
     </g>
    </g>
    <g id="ytick_3">
     <g id="line2d_10">
      <g>
       <use xlink:href="#me2eed81752" x="59.3" y="296.395369" style="fill: #1a1814; stroke: #1a1814; stroke-width: 0.8"/>
      </g>
     </g>
     <g id="text_3">
      <text style="font-size: 9px; font-family: 'IBM Plex Sans', 'Helvetica Neue', 'Arial', 'DejaVu Sans', sans-serif; text-anchor: end; fill: #6b655c" x="51.8" y="299.725369" transform="rotate(-0 51.8 299.725369)">175000</text>
     </g>
    </g>
    <g id="ytick_4">
     <g id="line2d_11">
      <g>
       <use xlink:href="#me2eed81752" x="59.3" y="253.286601" style="fill: #1a1814; stroke: #1a1814; stroke-width: 0.8"/>
      </g>
     </g>
     <g id="text_4">
      <text style="font-size: 9px; font-family: 'IBM Plex Sans', 'Helvetica Neue', 'Arial', 'DejaVu Sans', sans-serif; text-anchor: end; fill: #6b655c" x="51.8" y="256.616601" transform="rotate(-0 51.8 256.616601)">200000</text>
     </g>
    </g>
    <g id="ytick_5">
     <g id="line2d_12">
      <g>
       <use xlink:href="#me2eed81752" x="59.3" y="210.177833" style="fill: #1a1814; stroke: #1a1814; stroke-width: 0.8"/>
      </g>
     </g>
     <g id="text_5">
      <text style="font-size: 9px; font-family: 'IBM Plex Sans', 'Helvetica Neue', 'Arial', 'DejaVu Sans', sans-serif; text-anchor: end; fill: #6b655c" x="51.8" y="213.507833" transform="rotate(-0 51.8 213.507833)">225000</text>
     </g>
    </g>
    <g id="ytick_6">
     <g id="line2d_13">
      <g>
       <use xlink:href="#me2eed81752" x="59.3" y="167.069064" style="fill: #1a1814; stroke: #1a1814; stroke-width: 0.8"/>
      </g>
     </g>
     <g id="text_6">
      <text style="font-size: 9px; font-family: 'IBM Plex Sans', 'Helvetica Neue', 'Arial', 'DejaVu Sans', sans-serif; text-anchor: end; fill: #6b655c" x="51.8" y="170.399064" transform="rotate(-0 51.8 170.399064)">250000</text>
     </g>
    </g>
    <g id="ytick_7">
     <g id="line2d_14">
      <g>
       <use xlink:href="#me2eed81752" x="59.3" y="123.960296" style="fill: #1a1814; stroke: #1a1814; stroke-width: 0.8"/>
      </g>
     </g>
     <g id="text_7">
      <text style="font-size: 9px; font-family: 'IBM Plex Sans', 'Helvetica Neue', 'Arial', 'DejaVu Sans', sans-serif; text-anchor: end; fill: #6b655c" x="51.8" y="127.290296" transform="rotate(-0 51.8 127.290296)">275000</text>
     </g>
    </g>
    <g id="ytick_8">
     <g id="line2d_15">
      <g>
       <use xlink:href="#me2eed81752" x="59.3" y="80.851528" style="fill: #1a1814; stroke: #1a1814; stroke-width: 0.8"/>
      </g>
     </g>
     <g id="text_8">
      <text style="font-size: 9px; font-family: 'IBM Plex Sans', 'Helvetica Neue', 'Arial', 'DejaVu Sans', sans-serif; text-anchor: end; fill: #6b655c" x="51.8" y="84.181528" transform="rotate(-0 51.8 84.181528)">300000</text>
     </g>
    </g>
    <g id="ytick_9">
     <g id="line2d_16">
      <g>
       <use xlink:href="#me2eed81752" x="59.3" y="37.742759" style="fill: #1a1814; stroke: #1a1814; stroke-width: 0.8"/>
      </g>
     </g>
     <g id="text_9">
      <text style="font-size: 9px; font-family: 'IBM Plex Sans', 'Helvetica Neue', 'Arial', 'DejaVu Sans', sans-serif; text-anchor: end; fill: #6b655c" x="51.8" y="41.072759" transform="rotate(-0 51.8 41.072759)">325000</text>
     </g>
    </g>
    <g id="text_10">
     <text style="font-size: 10px; font-family: 'IBM Plex Sans', 'Helvetica Neue', 'Arial', 'DejaVu Sans', sans-serif; text-anchor: middle; fill: #1a1814" x="11.4" y="212.486667" transform="rotate(-90 11.4 212.486667)">Typical home price ($)</text>
    </g>
   </g>
   <g id="line2d_17">
    <path d="M 88.468182 380.563151 
L 90.227311 380.52262 
L 92.107759 380.674545 
L 95.807997 380.499962 
L 99.508234 379.834268 
L 101.388682 379.322066 
L 103.208471 378.655746 
L 105.08892 378.0986 
L 108.789157 376.326082 
L 110.669605 375.88035 
L 112.368075 375.958263 
L 114.248523 376.696508 
L 116.068312 377.138924 
L 117.948761 377.274817 
L 121.648998 376.725534 
L 123.529446 376.712138 
L 127.229684 376.249156 
L 129.049473 375.842778 
L 130.929921 375.541754 
L 134.508839 375.251441 
L 136.389287 374.675879 
L 143.789762 370.700546 
L 147.489999 368.52748 
L 149.370448 367.660047 
L 151.190237 367.015103 
L 156.649603 365.571682 
L 164.050078 363.726428 
L 177.091897 360.616769 
L 178.851027 359.26633 
L 184.431712 352.256295 
L 186.251501 351.062017 
L 188.13195 349.459793 
L 190.012398 348.272029 
L 191.832187 346.801575 
L 199.293321 341.622285 
L 200.991791 340.523337 
L 204.692028 338.946022 
L 208.392265 338.102853 
L 210.272714 337.85603 
L 212.153162 337.72201 
L 215.853399 337.790038 
L 221.434085 337.110245 
L 223.132555 337.196509 
L 225.013003 337.084658 
L 226.832792 336.693573 
L 234.293926 332.855849 
L 237.994163 330.414671 
L 241.694401 327.931001 
L 243.574849 327.12228 
L 245.273319 326.931875 
L 247.153767 327.201042 
L 248.973556 327.054089 
L 250.854004 326.398672 
L 252.673793 325.361903 
L 260.134927 322.411977 
L 263.835165 321.418804 
L 265.715613 321.823155 
L 267.474742 322.553523 
L 269.355191 323.504759 
L 273.055428 324.302513 
L 276.755665 325.346237 
L 278.636114 326.236917 
L 282.336351 328.689293 
L 286.036588 331.675117 
L 287.917037 333.285666 
L 289.615506 333.915465 
L 291.495955 334.09098 
L 295.196192 333.579966 
L 297.015981 332.932288 
L 298.896429 332.066495 
L 300.776878 331.609789 
L 302.596666 331.683849 
L 304.477115 332.226996 
L 306.296904 332.361297 
L 308.177352 332.123591 
L 311.75627 331.856193 
L 313.636719 331.430586 
L 315.456507 330.649995 
L 317.336956 330.021553 
L 319.156745 330.095228 
L 321.037193 331.144463 
L 324.73743 334.912013 
L 326.617879 336.414535 
L 328.437668 337.443256 
L 332.198565 339.266599 
L 333.897034 340.322026 
L 337.597271 342.997768 
L 339.47772 344.047923 
L 341.297509 344.735903 
L 343.177957 345.097588 
L 346.878194 345.427624 
L 348.758643 345.783485 
L 350.578432 346.917872 
L 352.45888 347.926824 
L 354.339329 348.419357 
L 357.978906 347.686722 
L 359.798695 347.527538 
L 361.679143 347.510791 
L 363.498932 347.147638 
L 365.379381 346.500204 
L 369.079618 344.939602 
L 374.660304 343.196737 
L 376.540752 342.499356 
L 378.239222 341.50671 
L 380.11967 339.946703 
L 381.939459 338.166458 
L 383.819907 336.047254 
L 394.920619 321.215714 
L 398.681516 316.443891 
L 402.260434 311.229317 
L 411.541357 298.021139 
L 413.361146 295.262912 
L 415.241594 292.875943 
L 418.941832 287.329622 
L 424.401198 278.133655 
L 426.220987 275.477529 
L 429.921224 270.56746 
L 433.682121 265.933661 
L 435.50191 263.886186 
L 437.382358 261.991212 
L 441.082596 258.55846 
L 444.722173 254.585807 
L 446.602622 253.276497 
L 452.122648 249.901284 
L 454.003096 249.058777 
L 455.883545 248.404137 
L 457.703334 247.50544 
L 459.583782 246.335142 
L 461.403571 244.832989 
L 463.284019 243.474802 
L 465.164468 242.33387 
L 466.862937 241.595871 
L 468.743386 240.622067 
L 470.563175 239.26636 
L 474.263412 236.953396 
L 476.14386 236.36257 
L 479.844098 234.874092 
L 481.724546 233.736957 
L 487.305232 229.744011 
L 489.003701 228.768117 
L 490.88415 227.454005 
L 492.703939 226.038956 
L 494.584387 224.277292 
L 501.984862 218.304612 
L 503.86531 217.130597 
L 507.565547 214.445197 
L 509.445996 212.997974 
L 511.144465 211.498635 
L 513.024914 210.072044 
L 514.844703 209.008887 
L 516.725151 208.209314 
L 522.305837 206.447235 
L 524.125626 205.618036 
L 526.006074 204.495621 
L 529.706311 201.282815 
L 533.345889 198.055682 
L 535.226337 196.614527 
L 537.046126 195.721135 
L 540.746363 195.79835 
L 542.626812 195.08887 
L 544.50726 193.020061 
L 546.327049 189.876382 
L 548.207498 186.023344 
L 553.788183 171.710254 
L 557.367101 161.269779 
L 559.18689 155.327701 
L 561.067339 148.438908 
L 562.887127 140.892815 
L 564.767576 133.924666 
L 566.648024 128.529292 
L 568.467813 124.481245 
L 570.348262 120.005362 
L 572.16805 114.365899 
L 574.048499 108.011116 
L 575.928947 99.867854 
L 579.507865 79.901457 
L 581.327654 69.57939 
L 583.208103 60.13015 
L 585.027891 52.070537 
L 586.90834 46.64256 
L 588.788788 44.298788 
L 590.608577 44.45315 
L 592.489026 45.389922 
L 594.308814 46.514299 
L 596.189263 48.630016 
L 599.768181 54.817899 
L 601.648629 56.882955 
L 603.468418 57.68906 
L 605.348867 57.410637 
L 607.168655 55.963652 
L 610.929552 52.731148 
L 612.749341 52.089927 
L 614.62979 52.043857 
L 616.449578 52.554903 
L 618.330027 53.296332 
L 620.210475 53.307091 
L 621.969604 52.632057 
L 625.669842 49.049839 
L 627.55029 48.094097 
L 629.370079 48.305539 
L 631.250527 48.955193 
L 633.130976 49.344711 
L 634.950765 49.456424 
L 636.831213 49.810787 
L 638.651002 50.406224 
L 640.53145 50.724238 
L 642.411899 50.830627 
L 644.110368 51.091289 
L 645.990817 52.218383 
L 653.391291 58.708383 
L 655.27174 59.962316 
L 657.091529 60.785214 
L 658.971977 61.489454 
L 660.791766 61.822545 
L 662.672214 61.789813 
L 664.552663 62.013661 
L 666.251132 62.574788 
L 668.131581 63.549429 
L 669.95137 64.79171 
L 671.831818 66.529394 
L 671.831818 66.529394 
" clip-path="url(#p9b56a0a7f9)" style="fill: none; stroke: #2e4a3f; stroke-width: 1.4; stroke-linecap: round"/>
   </g>
   <g id="patch_6">
    <path d="M 59.3 397.493333 
L 59.3 27.48 
" style="fill: none; stroke: #1a1814; stroke-linejoin: miter; stroke-linecap: square"/>
   </g>
   <g id="patch_7">
    <path d="M 59.3 397.493333 
L 701 397.493333 
" style="fill: none; stroke: #1a1814; stroke-linejoin: miter; stroke-linecap: square"/>
   </g>
   <g id="text_11">
    <text style="font-weight: 600; font-size: 12px; font-family: 'IBM Plex Sans', 'Helvetica Neue', 'Arial', 'DejaVu Sans', sans-serif; text-anchor: middle; fill: #1a1814" x="380.15" y="12.48" transform="rotate(-0 380.15 12.48)">Houston MSA: Home Prices and the Three Shock Windows (2000-2026)</text>
   </g>
   <g id="legend_1">
    <g id="line2d_18">
     <path d="M 68.3 40.58 
L 78.3 40.58 
L 88.3 40.58 
" style="fill: none; stroke: #2e4a3f; stroke-width: 1.4; stroke-linecap: round"/>
    </g>
    <g id="text_12">
     <text style="font-size: 10px; font-family: 'IBM Plex Sans', 'Helvetica Neue', 'Arial', 'DejaVu Sans', sans-serif; text-anchor: start; fill: #3c3833" x="96.3" y="44.08" transform="rotate(-0 96.3 44.08)">Houston MSA typical home price (Zillow ZHVI)</text>
    </g>
   </g>
  </g>
  <g id="axes_2">
   <g id="patch_8">
    <path d="M 59.3 597.3 
L 701 597.3 
L 701 412.293333 
L 59.3 412.293333 
L 59.3 597.3 
z
" style="fill: none"/>
   </g>
   <g id="FillBetweenPolyCollection_1">
    <defs>
     <path id="m517657a0cd" d="M 88.468182 -211.557273 
L 88.468182 -211.557273 
L 90.227311 -211.557273 
L 92.107759 -210.353918 
L 93.927548 -211.073212 
L 95.807997 -211.557273 
L 97.627786 -211.557273 
L 99.508234 -211.557273 
L 101.388682 -211.557273 
L 103.208471 -211.557273 
L 105.08892 -211.557273 
L 106.908709 -211.557273 
L 108.789157 -211.557273 
L 110.669605 -211.557273 
L 112.368075 -210.953036 
L 114.248523 -205.227745 
L 116.068312 -201.796681 
L 117.948761 -200.742796 
L 119.76855 -202.551232 
L 121.648998 -205.002638 
L 123.529446 -205.106528 
L 125.349235 -206.466426 
L 127.229684 -208.697082 
L 129.049473 -211.557273 
L 130.929921 -211.557273 
L 132.810369 -211.557273 
L 134.508839 -211.557273 
L 136.389287 -211.557273 
L 138.209076 -211.557273 
L 140.089525 -211.557273 
L 141.909314 -211.557273 
L 143.789762 -211.557273 
L 145.67021 -211.557273 
L 147.489999 -211.557273 
L 149.370448 -211.557273 
L 151.190237 -211.557273 
L 153.070685 -211.557273 
L 154.951133 -211.557273 
L 156.649603 -211.557273 
L 158.530051 -211.557273 
L 160.34984 -211.557273 
L 162.230289 -211.557273 
L 164.050078 -211.557273 
L 165.930526 -211.557273 
L 167.810974 -211.557273 
L 169.630763 -211.557273 
L 171.511212 -211.557273 
L 173.331001 -211.557273 
L 175.211449 -211.557273 
L 177.091897 -211.557273 
L 178.851027 -211.557273 
L 180.731475 -211.557273 
L 182.551264 -211.557273 
L 184.431712 -211.557273 
L 186.251501 -211.557273 
L 188.13195 -211.557273 
L 190.012398 -211.557273 
L 191.832187 -211.557273 
L 193.712635 -211.557273 
L 195.532424 -211.557273 
L 197.412873 -211.557273 
L 199.293321 -211.557273 
L 200.991791 -211.557273 
L 202.872239 -211.557273 
L 204.692028 -211.557273 
L 206.572476 -211.557273 
L 208.392265 -211.557273 
L 210.272714 -211.557273 
L 212.153162 -211.557273 
L 213.972951 -211.557273 
L 215.853399 -211.025694 
L 217.673188 -211.557273 
L 219.553637 -211.557273 
L 221.434085 -211.557273 
L 223.132555 -210.98763 
L 225.013003 -211.557273 
L 226.832792 -211.557273 
L 228.71324 -211.557273 
L 230.533029 -211.557273 
L 232.413478 -211.557273 
L 234.293926 -211.557273 
L 236.113715 -211.557273 
L 237.994163 -211.557273 
L 239.813952 -211.557273 
L 241.694401 -211.557273 
L 243.574849 -211.557273 
L 245.273319 -211.557273 
L 247.153767 -209.84654 
L 248.973556 -210.78052 
L 250.854004 -211.557273 
L 252.673793 -211.557273 
L 254.554242 -211.557273 
L 256.43469 -211.557273 
L 258.254479 -211.557273 
L 260.134927 -211.557273 
L 261.954716 -211.557273 
L 263.835165 -211.557273 
L 265.715613 -209.038546 
L 267.474742 -204.489049 
L 269.355191 -198.563746 
L 271.174979 -196.319244 
L 273.055428 -193.594498 
L 274.875217 -190.289648 
L 276.755665 -187.093086 
L 278.636114 -181.544993 
L 280.455902 -173.98511 
L 282.336351 -166.26901 
L 284.15614 -157.270308 
L 286.036588 -147.670156 
L 287.917037 -137.63796 
L 289.615506 -133.714904 
L 291.495955 -132.621616 
L 293.315743 -133.867952 
L 295.196192 -135.804748 
L 297.015981 -139.83917 
L 298.896429 -145.232237 
L 300.776878 -148.077087 
L 302.596666 -147.615763 
L 304.477115 -144.232469 
L 306.296904 -143.395903 
L 308.177352 -144.876587 
L 310.057801 -145.601549 
L 311.75627 -146.542221 
L 313.636719 -149.193349 
L 315.456507 -154.055694 
L 317.336956 -157.97029 
L 319.156745 -157.511367 
L 321.037193 -150.975627 
L 322.917642 -139.189936 
L 324.73743 -127.507359 
L 326.617879 -118.148068 
L 328.437668 -111.740112 
L 330.318116 -106.150967 
L 332.198565 -100.382407 
L 333.897034 -93.808096 
L 335.777483 -85.022688 
L 337.597271 -77.140757 
L 339.47772 -70.599287 
L 341.297509 -66.313825 
L 343.177957 -64.060871 
L 345.058406 -63.263543 
L 346.878194 -62.005059 
L 348.758643 -59.788378 
L 350.578432 -52.722222 
L 352.45888 -46.437405 
L 354.339329 -43.369394 
L 356.098458 -45.497353 
L 357.978906 -47.933018 
L 359.798695 -48.924579 
L 361.679143 -49.028901 
L 363.498932 -51.291 
L 365.379381 -55.323902 
L 367.259829 -60.562086 
L 369.079618 -65.044975 
L 370.960066 -68.624441 
L 372.779855 -72.538188 
L 374.660304 -75.901373 
L 376.540752 -80.245395 
L 378.239222 -86.42864 
L 380.11967 -96.146008 
L 381.939459 -107.235244 
L 383.819907 -120.435882 
L 385.639696 -135.743043 
L 387.520145 -151.884637 
L 389.400593 -168.281058 
L 391.220382 -182.451368 
L 393.10083 -198.143072 
L 394.920619 -211.557273 
L 396.801068 -211.557273 
L 398.681516 -211.557273 
L 400.379986 -211.557273 
L 402.260434 -211.557273 
L 404.080223 -211.557273 
L 405.960671 -211.557273 
L 407.78046 -211.557273 
L 409.660909 -211.557273 
L 411.541357 -211.557273 
L 413.361146 -211.557273 
L 415.241594 -211.557273 
L 417.061383 -211.557273 
L 418.941832 -211.557273 
L 420.82228 -211.557273 
L 422.52075 -211.557273 
L 424.401198 -211.557273 
L 426.220987 -211.557273 
L 428.101435 -211.557273 
L 429.921224 -211.557273 
L 431.801673 -211.557273 
L 433.682121 -211.557273 
L 435.50191 -211.557273 
L 437.382358 -211.557273 
L 439.202147 -211.557273 
L 441.082596 -211.557273 
L 442.963044 -211.557273 
L 444.722173 -211.557273 
L 446.602622 -211.557273 
L 448.422411 -211.557273 
L 450.302859 -211.557273 
L 452.122648 -211.557273 
L 454.003096 -211.557273 
L 455.883545 -211.557273 
L 457.703334 -211.557273 
L 459.583782 -211.557273 
L 461.403571 -211.557273 
L 463.284019 -211.557273 
L 465.164468 -211.557273 
L 466.862937 -211.557273 
L 468.743386 -211.557273 
L 470.563175 -211.557273 
L 472.443623 -211.557273 
L 474.263412 -211.557273 
L 476.14386 -211.557273 
L 478.024309 -211.557273 
L 479.844098 -211.557273 
L 481.724546 -211.557273 
L 483.544335 -211.557273 
L 485.424783 -211.557273 
L 487.305232 -211.557273 
L 489.003701 -211.557273 
L 490.88415 -211.557273 
L 492.703939 -211.557273 
L 494.584387 -211.557273 
L 496.404176 -211.557273 
L 498.284624 -211.557273 
L 500.165073 -211.557273 
L 501.984862 -211.557273 
L 503.86531 -211.557273 
L 505.685099 -211.557273 
L 507.565547 -211.557273 
L 509.445996 -211.557273 
L 511.144465 -211.557273 
L 513.024914 -211.557273 
L 514.844703 -211.557273 
L 516.725151 -211.557273 
L 518.54494 -211.557273 
L 520.425388 -211.557273 
L 522.305837 -211.557273 
L 524.125626 -211.557273 
L 526.006074 -211.557273 
L 527.825863 -211.557273 
L 529.706311 -211.557273 
L 531.58676 -211.557273 
L 533.345889 -211.557273 
L 535.226337 -211.557273 
L 537.046126 -211.557273 
L 538.926575 -211.545627 
L 540.746363 -211.226527 
L 542.626812 -211.557273 
L 544.50726 -211.557273 
L 546.327049 -211.557273 
L 548.207498 -211.557273 
L 550.027286 -211.557273 
L 551.907735 -211.557273 
L 553.788183 -211.557273 
L 555.486653 -211.557273 
L 557.367101 -211.557273 
L 559.18689 -211.557273 
L 561.067339 -211.557273 
L 562.887127 -211.557273 
L 564.767576 -211.557273 
L 566.648024 -211.557273 
L 568.467813 -211.557273 
L 570.348262 -211.557273 
L 572.16805 -211.557273 
L 574.048499 -211.557273 
L 575.928947 -211.557273 
L 577.627417 -211.557273 
L 579.507865 -211.557273 
L 581.327654 -211.557273 
L 583.208103 -211.557273 
L 585.027891 -211.557273 
L 586.90834 -211.557273 
L 588.788788 -211.557273 
L 590.608577 -211.076839 
L 592.489026 -208.161251 
L 594.308814 -204.661764 
L 596.189263 -198.076853 
L 598.069711 -188.197684 
L 599.768181 -178.817824 
L 601.648629 -172.390589 
L 603.468418 -169.881685 
L 605.348867 -170.748241 
L 607.168655 -175.251805 
L 609.049104 -180.415589 
L 610.929552 -185.31258 
L 612.749341 -187.308302 
L 614.62979 -187.451689 
L 616.449578 -185.861121 
L 618.330027 -183.553513 
L 620.210475 -183.520027 
L 621.969604 -185.620989 
L 623.850053 -191.10151 
L 625.669842 -196.770205 
L 627.55029 -199.744837 
L 629.370079 -199.086749 
L 631.250527 -197.06478 
L 633.130976 -195.852452 
L 634.950765 -195.504758 
L 636.831213 -194.401847 
L 638.651002 -192.548622 
L 640.53145 -191.558844 
L 642.411899 -191.22772 
L 644.110368 -190.416441 
L 645.990817 -186.908499 
L 647.810606 -181.870263 
L 649.691054 -176.70386 
L 651.510843 -171.297589 
L 653.391291 -166.709164 
L 655.27174 -162.806451 
L 657.091529 -160.245283 
L 658.971977 -158.053422 
L 660.791766 -157.016716 
L 662.672214 -157.118592 
L 664.552663 -156.421891 
L 666.251132 -154.675451 
L 668.131581 -151.642 
L 669.95137 -147.775553 
L 671.831818 -142.367222 
L 671.831818 -211.557273 
L 671.831818 -211.557273 
L 669.95137 -211.557273 
L 668.131581 -211.557273 
L 666.251132 -211.557273 
L 664.552663 -211.557273 
L 662.672214 -211.557273 
L 660.791766 -211.557273 
L 658.971977 -211.557273 
L 657.091529 -211.557273 
L 655.27174 -211.557273 
L 653.391291 -211.557273 
L 651.510843 -211.557273 
L 649.691054 -211.557273 
L 647.810606 -211.557273 
L 645.990817 -211.557273 
L 644.110368 -211.557273 
L 642.411899 -211.557273 
L 640.53145 -211.557273 
L 638.651002 -211.557273 
L 636.831213 -211.557273 
L 634.950765 -211.557273 
L 633.130976 -211.557273 
L 631.250527 -211.557273 
L 629.370079 -211.557273 
L 627.55029 -211.557273 
L 625.669842 -211.557273 
L 623.850053 -211.557273 
L 621.969604 -211.557273 
L 620.210475 -211.557273 
L 618.330027 -211.557273 
L 616.449578 -211.557273 
L 614.62979 -211.557273 
L 612.749341 -211.557273 
L 610.929552 -211.557273 
L 609.049104 -211.557273 
L 607.168655 -211.557273 
L 605.348867 -211.557273 
L 603.468418 -211.557273 
L 601.648629 -211.557273 
L 599.768181 -211.557273 
L 598.069711 -211.557273 
L 596.189263 -211.557273 
L 594.308814 -211.557273 
L 592.489026 -211.557273 
L 590.608577 -211.557273 
L 588.788788 -211.557273 
L 586.90834 -211.557273 
L 585.027891 -211.557273 
L 583.208103 -211.557273 
L 581.327654 -211.557273 
L 579.507865 -211.557273 
L 577.627417 -211.557273 
L 575.928947 -211.557273 
L 574.048499 -211.557273 
L 572.16805 -211.557273 
L 570.348262 -211.557273 
L 568.467813 -211.557273 
L 566.648024 -211.557273 
L 564.767576 -211.557273 
L 562.887127 -211.557273 
L 561.067339 -211.557273 
L 559.18689 -211.557273 
L 557.367101 -211.557273 
L 555.486653 -211.557273 
L 553.788183 -211.557273 
L 551.907735 -211.557273 
L 550.027286 -211.557273 
L 548.207498 -211.557273 
L 546.327049 -211.557273 
L 544.50726 -211.557273 
L 542.626812 -211.557273 
L 540.746363 -211.557273 
L 538.926575 -211.557273 
L 537.046126 -211.557273 
L 535.226337 -211.557273 
L 533.345889 -211.557273 
L 531.58676 -211.557273 
L 529.706311 -211.557273 
L 527.825863 -211.557273 
L 526.006074 -211.557273 
L 524.125626 -211.557273 
L 522.305837 -211.557273 
L 520.425388 -211.557273 
L 518.54494 -211.557273 
L 516.725151 -211.557273 
L 514.844703 -211.557273 
L 513.024914 -211.557273 
L 511.144465 -211.557273 
L 509.445996 -211.557273 
L 507.565547 -211.557273 
L 505.685099 -211.557273 
L 503.86531 -211.557273 
L 501.984862 -211.557273 
L 500.165073 -211.557273 
L 498.284624 -211.557273 
L 496.404176 -211.557273 
L 494.584387 -211.557273 
L 492.703939 -211.557273 
L 490.88415 -211.557273 
L 489.003701 -211.557273 
L 487.305232 -211.557273 
L 485.424783 -211.557273 
L 483.544335 -211.557273 
L 481.724546 -211.557273 
L 479.844098 -211.557273 
L 478.024309 -211.557273 
L 476.14386 -211.557273 
L 474.263412 -211.557273 
L 472.443623 -211.557273 
L 470.563175 -211.557273 
L 468.743386 -211.557273 
L 466.862937 -211.557273 
L 465.164468 -211.557273 
L 463.284019 -211.557273 
L 461.403571 -211.557273 
L 459.583782 -211.557273 
L 457.703334 -211.557273 
L 455.883545 -211.557273 
L 454.003096 -211.557273 
L 452.122648 -211.557273 
L 450.302859 -211.557273 
L 448.422411 -211.557273 
L 446.602622 -211.557273 
L 444.722173 -211.557273 
L 442.963044 -211.557273 
L 441.082596 -211.557273 
L 439.202147 -211.557273 
L 437.382358 -211.557273 
L 435.50191 -211.557273 
L 433.682121 -211.557273 
L 431.801673 -211.557273 
L 429.921224 -211.557273 
L 428.101435 -211.557273 
L 426.220987 -211.557273 
L 424.401198 -211.557273 
L 422.52075 -211.557273 
L 420.82228 -211.557273 
L 418.941832 -211.557273 
L 417.061383 -211.557273 
L 415.241594 -211.557273 
L 413.361146 -211.557273 
L 411.541357 -211.557273 
L 409.660909 -211.557273 
L 407.78046 -211.557273 
L 405.960671 -211.557273 
L 404.080223 -211.557273 
L 402.260434 -211.557273 
L 400.379986 -211.557273 
L 398.681516 -211.557273 
L 396.801068 -211.557273 
L 394.920619 -211.557273 
L 393.10083 -211.557273 
L 391.220382 -211.557273 
L 389.400593 -211.557273 
L 387.520145 -211.557273 
L 385.639696 -211.557273 
L 383.819907 -211.557273 
L 381.939459 -211.557273 
L 380.11967 -211.557273 
L 378.239222 -211.557273 
L 376.540752 -211.557273 
L 374.660304 -211.557273 
L 372.779855 -211.557273 
L 370.960066 -211.557273 
L 369.079618 -211.557273 
L 367.259829 -211.557273 
L 365.379381 -211.557273 
L 363.498932 -211.557273 
L 361.679143 -211.557273 
L 359.798695 -211.557273 
L 357.978906 -211.557273 
L 356.098458 -211.557273 
L 354.339329 -211.557273 
L 352.45888 -211.557273 
L 350.578432 -211.557273 
L 348.758643 -211.557273 
L 346.878194 -211.557273 
L 345.058406 -211.557273 
L 343.177957 -211.557273 
L 341.297509 -211.557273 
L 339.47772 -211.557273 
L 337.597271 -211.557273 
L 335.777483 -211.557273 
L 333.897034 -211.557273 
L 332.198565 -211.557273 
L 330.318116 -211.557273 
L 328.437668 -211.557273 
L 326.617879 -211.557273 
L 324.73743 -211.557273 
L 322.917642 -211.557273 
L 321.037193 -211.557273 
L 319.156745 -211.557273 
L 317.336956 -211.557273 
L 315.456507 -211.557273 
L 313.636719 -211.557273 
L 311.75627 -211.557273 
L 310.057801 -211.557273 
L 308.177352 -211.557273 
L 306.296904 -211.557273 
L 304.477115 -211.557273 
L 302.596666 -211.557273 
L 300.776878 -211.557273 
L 298.896429 -211.557273 
L 297.015981 -211.557273 
L 295.196192 -211.557273 
L 293.315743 -211.557273 
L 291.495955 -211.557273 
L 289.615506 -211.557273 
L 287.917037 -211.557273 
L 286.036588 -211.557273 
L 284.15614 -211.557273 
L 282.336351 -211.557273 
L 280.455902 -211.557273 
L 278.636114 -211.557273 
L 276.755665 -211.557273 
L 274.875217 -211.557273 
L 273.055428 -211.557273 
L 271.174979 -211.557273 
L 269.355191 -211.557273 
L 267.474742 -211.557273 
L 265.715613 -211.557273 
L 263.835165 -211.557273 
L 261.954716 -211.557273 
L 260.134927 -211.557273 
L 258.254479 -211.557273 
L 256.43469 -211.557273 
L 254.554242 -211.557273 
L 252.673793 -211.557273 
L 250.854004 -211.557273 
L 248.973556 -211.557273 
L 247.153767 -211.557273 
L 245.273319 -211.557273 
L 243.574849 -211.557273 
L 241.694401 -211.557273 
L 239.813952 -211.557273 
L 237.994163 -211.557273 
L 236.113715 -211.557273 
L 234.293926 -211.557273 
L 232.413478 -211.557273 
L 230.533029 -211.557273 
L 228.71324 -211.557273 
L 226.832792 -211.557273 
L 225.013003 -211.557273 
L 223.132555 -211.557273 
L 221.434085 -211.557273 
L 219.553637 -211.557273 
L 217.673188 -211.557273 
L 215.853399 -211.557273 
L 213.972951 -211.557273 
L 212.153162 -211.557273 
L 210.272714 -211.557273 
L 208.392265 -211.557273 
L 206.572476 -211.557273 
L 204.692028 -211.557273 
L 202.872239 -211.557273 
L 200.991791 -211.557273 
L 199.293321 -211.557273 
L 197.412873 -211.557273 
L 195.532424 -211.557273 
L 193.712635 -211.557273 
L 191.832187 -211.557273 
L 190.012398 -211.557273 
L 188.13195 -211.557273 
L 186.251501 -211.557273 
L 184.431712 -211.557273 
L 182.551264 -211.557273 
L 180.731475 -211.557273 
L 178.851027 -211.557273 
L 177.091897 -211.557273 
L 175.211449 -211.557273 
L 173.331001 -211.557273 
L 171.511212 -211.557273 
L 169.630763 -211.557273 
L 167.810974 -211.557273 
L 165.930526 -211.557273 
L 164.050078 -211.557273 
L 162.230289 -211.557273 
L 160.34984 -211.557273 
L 158.530051 -211.557273 
L 156.649603 -211.557273 
L 154.951133 -211.557273 
L 153.070685 -211.557273 
L 151.190237 -211.557273 
L 149.370448 -211.557273 
L 147.489999 -211.557273 
L 145.67021 -211.557273 
L 143.789762 -211.557273 
L 141.909314 -211.557273 
L 140.089525 -211.557273 
L 138.209076 -211.557273 
L 136.389287 -211.557273 
L 134.508839 -211.557273 
L 132.810369 -211.557273 
L 130.929921 -211.557273 
L 129.049473 -211.557273 
L 127.229684 -211.557273 
L 125.349235 -211.557273 
L 123.529446 -211.557273 
L 121.648998 -211.557273 
L 119.76855 -211.557273 
L 117.948761 -211.557273 
L 116.068312 -211.557273 
L 114.248523 -211.557273 
L 112.368075 -211.557273 
L 110.669605 -211.557273 
L 108.789157 -211.557273 
L 106.908709 -211.557273 
L 105.08892 -211.557273 
L 103.208471 -211.557273 
L 101.388682 -211.557273 
L 99.508234 -211.557273 
L 97.627786 -211.557273 
L 95.807997 -211.557273 
L 93.927548 -211.557273 
L 92.107759 -211.557273 
L 90.227311 -211.557273 
L 88.468182 -211.557273 
z
" style="stroke: #6e1f1f; stroke-opacity: 0.5"/>
    </defs>
    <g clip-path="url(#pa29dc0bb68)">
     <use xlink:href="#m517657a0cd" x="0" y="632.26" style="fill: #6e1f1f; fill-opacity: 0.5; stroke: #6e1f1f; stroke-opacity: 0.5"/>
    </g>
   </g>
   <g id="patch_9">
    <path d="M 241.75506 597.3 
L 374.660304 597.3 
L 374.660304 412.293333 
L 241.75506 412.293333 
z
" clip-path="url(#pa29dc0bb68)" style="fill: #948d82; opacity: 0.15; stroke: #948d82; stroke-linejoin: miter"/>
   </g>
   <g id="patch_10">
    <path d="M 529.766971 597.3 
L 574.048499 597.3 
L 574.048499 412.293333 
L 529.766971 412.293333 
z
" clip-path="url(#pa29dc0bb68)" style="fill: #948d82; opacity: 0.15; stroke: #948d82; stroke-linejoin: miter"/>
   </g>
   <g id="patch_11">
    <path d="M 574.109158 597.3 
L 664.552663 597.3 
L 664.552663 412.293333 
L 574.109158 412.293333 
z
" clip-path="url(#pa29dc0bb68)" style="fill: #948d82; opacity: 0.15; stroke: #948d82; stroke-linejoin: miter"/>
   </g>
   <g id="matplotlib.axis_3">
    <g id="xtick_8">
     <g id="line2d_19">
      <g>
       <use xlink:href="#m3fb68d4f4e" x="86.648393" y="597.3" style="fill: #1a1814; stroke: #1a1814; stroke-width: 0.8"/>
      </g>
     </g>
     <g id="text_13">
      <text style="font-size: 9px; font-family: 'IBM Plex Sans', 'Helvetica Neue', 'Arial', 'DejaVu Sans', sans-serif; text-anchor: middle; fill: #6b655c" x="86.648393" y="611.46" transform="rotate(-0 86.648393 611.46)">2000</text>
     </g>
    </g>
    <g id="xtick_9">
     <g id="line2d_20">
      <g>
       <use xlink:href="#m3fb68d4f4e" x="175.272109" y="597.3" style="fill: #1a1814; stroke: #1a1814; stroke-width: 0.8"/>
      </g>
     </g>
     <g id="text_14">
      <text style="font-size: 9px; font-family: 'IBM Plex Sans', 'Helvetica Neue', 'Arial', 'DejaVu Sans', sans-serif; text-anchor: middle; fill: #6b655c" x="175.272109" y="611.46" transform="rotate(-0 175.272109 611.46)">2004</text>
     </g>
    </g>
    <g id="xtick_10">
     <g id="line2d_21">
      <g>
       <use xlink:href="#m3fb68d4f4e" x="263.895824" y="597.3" style="fill: #1a1814; stroke: #1a1814; stroke-width: 0.8"/>
      </g>
     </g>
     <g id="text_15">
      <text style="font-size: 9px; font-family: 'IBM Plex Sans', 'Helvetica Neue', 'Arial', 'DejaVu Sans', sans-serif; text-anchor: middle; fill: #6b655c" x="263.895824" y="611.46" transform="rotate(-0 263.895824 611.46)">2008</text>
     </g>
    </g>
    <g id="xtick_11">
     <g id="line2d_22">
      <g>
       <use xlink:href="#m3fb68d4f4e" x="352.51954" y="597.3" style="fill: #1a1814; stroke: #1a1814; stroke-width: 0.8"/>
      </g>
     </g>
     <g id="text_16">
      <text style="font-size: 9px; font-family: 'IBM Plex Sans', 'Helvetica Neue', 'Arial', 'DejaVu Sans', sans-serif; text-anchor: middle; fill: #6b655c" x="352.51954" y="611.46" transform="rotate(-0 352.51954 611.46)">2012</text>
     </g>
    </g>
    <g id="xtick_12">
     <g id="line2d_23">
      <g>
       <use xlink:href="#m3fb68d4f4e" x="441.143255" y="597.3" style="fill: #1a1814; stroke: #1a1814; stroke-width: 0.8"/>
      </g>
     </g>
     <g id="text_17">
      <text style="font-size: 9px; font-family: 'IBM Plex Sans', 'Helvetica Neue', 'Arial', 'DejaVu Sans', sans-serif; text-anchor: middle; fill: #6b655c" x="441.143255" y="611.46" transform="rotate(-0 441.143255 611.46)">2016</text>
     </g>
    </g>
    <g id="xtick_13">
     <g id="line2d_24">
      <g>
       <use xlink:href="#m3fb68d4f4e" x="529.766971" y="597.3" style="fill: #1a1814; stroke: #1a1814; stroke-width: 0.8"/>
      </g>
     </g>
     <g id="text_18">
      <text style="font-size: 9px; font-family: 'IBM Plex Sans', 'Helvetica Neue', 'Arial', 'DejaVu Sans', sans-serif; text-anchor: middle; fill: #6b655c" x="529.766971" y="611.46" transform="rotate(-0 529.766971 611.46)">2020</text>
     </g>
    </g>
    <g id="xtick_14">
     <g id="line2d_25">
      <g>
       <use xlink:href="#m3fb68d4f4e" x="618.390686" y="597.3" style="fill: #1a1814; stroke: #1a1814; stroke-width: 0.8"/>
      </g>
     </g>
     <g id="text_19">
      <text style="font-size: 9px; font-family: 'IBM Plex Sans', 'Helvetica Neue', 'Arial', 'DejaVu Sans', sans-serif; text-anchor: middle; fill: #6b655c" x="618.390686" y="611.46" transform="rotate(-0 618.390686 611.46)">2024</text>
     </g>
    </g>
    <g id="text_20">
     <text style="font-size: 10px; font-family: 'IBM Plex Sans', 'Helvetica Neue', 'Arial', 'DejaVu Sans', sans-serif; text-anchor: middle; fill: #1a1814" x="380.15" y="626.66" transform="rotate(-0 380.15 626.66)">Year</text>
    </g>
   </g>
   <g id="matplotlib.axis_4">
    <g id="ytick_10">
     <g id="line2d_26">
      <g>
       <use xlink:href="#me2eed81752" x="59.3" y="593.084261" style="fill: #1a1814; stroke: #1a1814; stroke-width: 0.8"/>
      </g>
     </g>
     <g id="text_21">
      <text style="font-size: 9px; font-family: 'IBM Plex Sans', 'Helvetica Neue', 'Arial', 'DejaVu Sans', sans-serif; text-anchor: end; fill: #6b655c" x="51.8" y="596.414261" transform="rotate(-0 51.8 596.414261)">−10</text>
     </g>
    </g>
    <g id="ytick_11">
     <g id="line2d_27">
      <g>
       <use xlink:href="#me2eed81752" x="59.3" y="558.607954" style="fill: #1a1814; stroke: #1a1814; stroke-width: 0.8"/>
      </g>
     </g>
     <g id="text_22">
      <text style="font-size: 9px; font-family: 'IBM Plex Sans', 'Helvetica Neue', 'Arial', 'DejaVu Sans', sans-serif; text-anchor: end; fill: #6b655c" x="51.8" y="561.937954" transform="rotate(-0 51.8 561.937954)">−8</text>
     </g>
    </g>
    <g id="ytick_12">
     <g id="line2d_28">
      <g>
       <use xlink:href="#me2eed81752" x="59.3" y="524.131647" style="fill: #1a1814; stroke: #1a1814; stroke-width: 0.8"/>
      </g>
     </g>
     <g id="text_23">
      <text style="font-size: 9px; font-family: 'IBM Plex Sans', 'Helvetica Neue', 'Arial', 'DejaVu Sans', sans-serif; text-anchor: end; fill: #6b655c" x="51.8" y="527.461647" transform="rotate(-0 51.8 527.461647)">−6</text>
     </g>
    </g>
    <g id="ytick_13">
     <g id="line2d_29">
      <g>
       <use xlink:href="#me2eed81752" x="59.3" y="489.655341" style="fill: #1a1814; stroke: #1a1814; stroke-width: 0.8"/>
      </g>
     </g>
     <g id="text_24">
      <text style="font-size: 9px; font-family: 'IBM Plex Sans', 'Helvetica Neue', 'Arial', 'DejaVu Sans', sans-serif; text-anchor: end; fill: #6b655c" x="51.8" y="492.985341" transform="rotate(-0 51.8 492.985341)">−4</text>
     </g>
    </g>
    <g id="ytick_14">
     <g id="line2d_30">
      <g>
       <use xlink:href="#me2eed81752" x="59.3" y="455.179034" style="fill: #1a1814; stroke: #1a1814; stroke-width: 0.8"/>
      </g>
     </g>
     <g id="text_25">
      <text style="font-size: 9px; font-family: 'IBM Plex Sans', 'Helvetica Neue', 'Arial', 'DejaVu Sans', sans-serif; text-anchor: end; fill: #6b655c" x="51.8" y="458.509034" transform="rotate(-0 51.8 458.509034)">−2</text>
     </g>
    </g>
    <g id="ytick_15">
     <g id="line2d_31">
      <g>
       <use xlink:href="#me2eed81752" x="59.3" y="420.702727" style="fill: #1a1814; stroke: #1a1814; stroke-width: 0.8"/>
      </g>
     </g>
     <g id="text_26">
      <text style="font-size: 9px; font-family: 'IBM Plex Sans', 'Helvetica Neue', 'Arial', 'DejaVu Sans', sans-serif; text-anchor: end; fill: #6b655c" x="51.8" y="424.032727" transform="rotate(-0 51.8 424.032727)">0</text>
     </g>
    </g>
    <g id="text_27">
     <text style="font-size: 10px; font-family: 'IBM Plex Sans', 'Helvetica Neue', 'Arial', 'DejaVu Sans', sans-serif; text-anchor: middle; fill: #1a1814" x="27.479688" y="504.796667" transform="rotate(-90 27.479688 504.796667)">Drawdown from running peak (%)</text>
    </g>
   </g>
   <g id="patch_12">
    <path d="M 59.3 597.3 
L 59.3 412.293333 
" style="fill: none; stroke: #1a1814; stroke-linejoin: miter; stroke-linecap: square"/>
   </g>
   <g id="patch_13">
    <path d="M 59.3 597.3 
L 701 597.3 
" style="fill: none; stroke: #1a1814; stroke-linejoin: miter; stroke-linecap: square"/>
   </g>
  </g>
 </g>
 <defs>
  <clipPath id="p9b56a0a7f9">
   <rect x="59.3" y="27.48" width="641.7" height="370.013333"/>
  </clipPath>
  <clipPath id="pa29dc0bb68">
   <rect x="59.3" y="412.293333" width="641.7" height="185.006667"/>
  </clipPath>
 </defs>
</svg>
