<?xml version="1.0" encoding="utf-8" standalone="no"?>
<!DOCTYPE svg PUBLIC "-//W3C//DTD SVG 1.1//EN"
  "http://www.w3.org/Graphics/SVG/1.1/DTD/svg11.dtd">
<svg xmlns:xlink="http://www.w3.org/1999/xlink" width="495.020312pt" height="397.52pt" viewBox="0 0 495.020312 397.52" xmlns="http://www.w3.org/2000/svg" version="1.1">
 <metadata>
  <rdf:RDF xmlns:dc="http://purl.org/dc/elements/1.1/" xmlns:cc="http://creativecommons.org/ns#" xmlns:rdf="http://www.w3.org/1999/02/22-rdf-syntax-ns#">
   <cc:Work>
    <dc:type rdf:resource="http://purl.org/dc/dcmitype/StillImage"/>
    <dc:date>2026-07-11T20:24:51.419979</dc:date>
    <dc:format>image/svg+xml</dc:format>
    <dc:creator>
     <cc:Agent>
      <dc:title>Matplotlib v3.10.9, https://matplotlib.org/</dc:title>
     </cc:Agent>
    </dc:creator>
   </cc:Work>
  </rdf:RDF>
 </metadata>
 <defs>
  <style type="text/css">*{stroke-linejoin: round; stroke-linecap: butt}</style>
 </defs>
 <g id="figure_1">
  <g id="patch_1">
   <path d="M 0 397.52 
L 495.020312 397.52 
L 495.020312 0 
L 0 0 
L 0 397.52 
z
" style="fill: none"/>
  </g>
  <g id="axes_1">
   <g id="patch_2">
    <path d="M 45.020313 360.36 
L 491.420312 360.36 
L 491.420312 27.72 
L 45.020313 27.72 
L 45.020313 360.36 
z
" style="fill: none"/>
   </g>
   <g id="PathCollection_1">
    <path d="M 313.960993 353.717717 
C 316.20931 353.717717 318.365844 352.824451 319.955644 351.234651 
C 321.545444 349.644851 322.43871 347.488317 322.43871 345.24 
C 322.43871 342.991683 321.545444 340.835149 319.955644 339.245349 
C 318.365844 337.655549 316.20931 336.762283 313.960993 336.762283 
C 311.712676 336.762283 309.556142 337.655549 307.966342 339.245349 
C 306.376541 340.835149 305.483276 342.991683 305.483276 345.24 
C 305.483276 347.488317 306.376541 349.644851 307.966342 351.234651 
C 309.556142 352.824451 311.712676 353.717717 313.960993 353.717717 
z
" clip-path="url(#p85774c05f1)" style="fill: #6e1f1f; fill-opacity: 0.85; stroke: #ffffff; stroke-opacity: 0.85; stroke-width: 0.603805"/>
    <path d="M 295.374103 336.082056 
C 298.026134 336.082056 300.569901 335.028393 302.44517 333.153124 
C 304.320439 331.277854 305.374103 328.734087 305.374103 326.082056 
C 305.374103 323.430025 304.320439 320.886257 302.44517 319.010988 
C 300.569901 317.135719 298.026134 316.082056 295.374103 316.082056 
C 292.722072 316.082056 290.178304 317.135719 288.303035 319.010988 
C 286.427766 320.886257 285.374103 323.430025 285.374103 326.082056 
C 285.374103 328.734087 286.427766 331.277854 288.303035 333.153124 
C 290.178304 335.028393 292.722072 336.082056 295.374103 336.082056 
z
" clip-path="url(#p85774c05f1)" style="fill: #6e1f1f; fill-opacity: 0.85; stroke: #ffffff; stroke-opacity: 0.85; stroke-width: 0.603805"/>
    <path d="M 319.326323 326.490556 
C 321.526915 326.490556 323.637672 325.616251 325.193726 324.060198 
C 326.749779 322.504144 327.624083 320.393387 327.624083 318.192795 
C 327.624083 315.992203 326.749779 313.881446 325.193726 312.325392 
C 323.637672 310.769339 321.526915 309.895035 319.326323 309.895035 
C 317.125731 309.895035 315.014974 310.769339 313.45892 312.325392 
C 311.902867 313.881446 311.028563 315.992203 311.028563 318.192795 
C 311.028563 320.393387 311.902867 322.504144 313.45892 324.060198 
C 315.014974 325.616251 317.125731 326.490556 319.326323 326.490556 
z
" clip-path="url(#p85774c05f1)" style="fill: #6e1f1f; fill-opacity: 0.85; stroke: #ffffff; stroke-opacity: 0.85; stroke-width: 0.603805"/>
    <path d="M 169.724917 309.845922 
C 171.631703 309.845922 173.460648 309.088348 174.80895 307.740047 
C 176.157251 306.391746 176.914825 304.5628 176.914825 302.656015 
C 176.914825 300.749229 176.157251 298.920283 174.80895 297.571982 
C 173.460648 296.223681 171.631703 295.466107 169.724917 295.466107 
C 167.818132 295.466107 165.989186 296.223681 164.640885 297.571982 
C 163.292584 298.920283 162.53501 300.749229 162.53501 302.656015 
C 162.53501 304.5628 163.292584 306.391746 164.640885 307.740047 
C 165.989186 309.088348 167.818132 309.845922 169.724917 309.845922 
z
" clip-path="url(#p85774c05f1)" style="fill: #6e1f1f; fill-opacity: 0.85; stroke: #ffffff; stroke-opacity: 0.85; stroke-width: 0.603805"/>
    <path d="M 374.450852 287.820063 
C 376.190007 287.820063 377.858164 287.12909 379.087932 285.899322 
C 380.3177 284.669554 381.008673 283.001397 381.008673 281.262242 
C 381.008673 279.523088 380.3177 277.85493 379.087932 276.625162 
C 377.858164 275.395395 376.190007 274.704421 374.450852 274.704421 
C 372.711698 274.704421 371.04354 275.395395 369.813772 276.625162 
C 368.584004 277.85493 367.893031 279.523088 367.893031 281.262242 
C 367.893031 283.001397 368.584004 284.669554 369.813772 285.899322 
C 371.04354 287.12909 372.711698 287.820063 374.450852 287.820063 
z
" clip-path="url(#p85774c05f1)" style="fill: #6e1f1f; fill-opacity: 0.85; stroke: #ffffff; stroke-opacity: 0.85; stroke-width: 0.603805"/>
    <path d="M 179.9511 284.25426 
C 181.688825 284.25426 183.355612 283.563854 184.584369 282.335097 
C 185.813126 281.106339 186.503532 279.439553 186.503532 277.701828 
C 186.503532 275.964102 185.813126 274.297316 184.584369 273.068558 
C 183.355612 271.839801 181.688825 271.149396 179.9511 271.149396 
C 178.213375 271.149396 176.546588 271.839801 175.317831 273.068558 
C 174.089073 274.297316 173.398668 275.964102 173.398668 277.701828 
C 173.398668 279.439553 174.089073 281.106339 175.317831 282.335097 
C 176.546588 283.563854 178.213375 284.25426 179.9511 284.25426 
z
" clip-path="url(#p85774c05f1)" style="fill: #6e1f1f; fill-opacity: 0.85; stroke: #ffffff; stroke-opacity: 0.85; stroke-width: 0.603805"/>
    <path d="M 204.401374 282.0885 
C 205.750531 282.0885 207.044612 281.552474 207.99861 280.598476 
C 208.952608 279.644478 209.488634 278.350397 209.488634 277.00124 
C 209.488634 275.652084 208.952608 274.358003 207.99861 273.404005 
C 207.044612 272.450007 205.750531 271.913981 204.401374 271.913981 
C 203.052217 271.913981 201.758137 272.450007 200.804139 273.404005 
C 199.85014 274.358003 199.314115 275.652084 199.314115 277.00124 
C 199.314115 278.350397 199.85014 279.644478 200.804139 280.598476 
C 201.758137 281.552474 203.052217 282.0885 204.401374 282.0885 
z
" clip-path="url(#p85774c05f1)" style="fill: #6e1f1f; fill-opacity: 0.85; stroke: #ffffff; stroke-opacity: 0.85; stroke-width: 0.603805"/>
    <path d="M 231.035927 279.656799 
C 232.719355 279.656799 234.33406 278.987966 235.524424 277.797602 
C 236.714787 276.607239 237.38362 274.992533 237.38362 273.309105 
C 237.38362 271.625677 236.714787 270.010971 235.524424 268.820608 
C 234.33406 267.630244 232.719355 266.961411 231.035927 266.961411 
C 229.352498 266.961411 227.737793 267.630244 226.547429 268.820608 
C 225.357066 270.010971 224.688233 271.625677 224.688233 273.309105 
C 224.688233 274.992533 225.357066 276.607239 226.547429 277.797602 
C 227.737793 278.987966 229.352498 279.656799 231.035927 279.656799 
z
" clip-path="url(#p85774c05f1)" style="fill: #6e1f1f; fill-opacity: 0.85; stroke: #ffffff; stroke-opacity: 0.85; stroke-width: 0.603805"/>
    <path d="M 174.28501 277.449834 
C 176.167418 277.449834 177.972981 276.701946 179.304044 275.370882 
C 180.635107 274.039819 181.382996 272.234256 181.382996 270.351848 
C 181.382996 268.46944 180.635107 266.663878 179.304044 265.332814 
C 177.972981 264.001751 176.167418 263.253862 174.28501 263.253862 
C 172.402602 263.253862 170.59704 264.001751 169.265976 265.332814 
C 167.934913 266.663878 167.187024 268.46944 167.187024 270.351848 
C 167.187024 272.234256 167.934913 274.039819 169.265976 275.370882 
C 170.59704 276.701946 172.402602 277.449834 174.28501 277.449834 
z
" clip-path="url(#p85774c05f1)" style="fill: #6e1f1f; fill-opacity: 0.85; stroke: #ffffff; stroke-opacity: 0.85; stroke-width: 0.603805"/>
    <path d="M 376.161485 269.784775 
C 377.58732 269.784775 378.954949 269.218284 379.963166 268.210067 
C 380.971384 267.201849 381.537874 265.834221 381.537874 264.408386 
C 381.537874 262.982551 380.971384 261.614922 379.963166 260.606705 
C 378.954949 259.598487 377.58732 259.031997 376.161485 259.031997 
C 374.73565 259.031997 373.368022 259.598487 372.359804 260.606705 
C 371.351587 261.614922 370.785096 262.982551 370.785096 264.408386 
C 370.785096 265.834221 371.351587 267.201849 372.359804 268.210067 
C 373.368022 269.218284 374.73565 269.784775 376.161485 269.784775 
z
" clip-path="url(#p85774c05f1)" style="fill: #6e1f1f; fill-opacity: 0.85; stroke: #ffffff; stroke-opacity: 0.85; stroke-width: 0.603805"/>
    <path d="M 421.130192 266.278417 
C 422.780952 266.278417 424.364323 265.622563 425.531586 264.4553 
C 426.698849 263.288037 427.354703 261.704666 427.354703 260.053906 
C 427.354703 258.403147 426.698849 256.819776 425.531586 255.652513 
C 424.364323 254.48525 422.780952 253.829396 421.130192 253.829396 
C 419.479433 253.829396 417.896062 254.48525 416.728799 255.652513 
C 415.561536 256.819776 414.905682 258.403147 414.905682 260.053906 
C 414.905682 261.704666 415.561536 263.288037 416.728799 264.4553 
C 417.896062 265.622563 419.479433 266.278417 421.130192 266.278417 
z
" clip-path="url(#p85774c05f1)" style="fill: #6e1f1f; fill-opacity: 0.85; stroke: #ffffff; stroke-opacity: 0.85; stroke-width: 0.603805"/>
    <path d="M 161.620591 260.487636 
C 162.847402 260.487636 164.024131 260.000219 164.891617 259.132733 
C 165.759104 258.265246 166.246521 257.088517 166.246521 255.861706 
C 166.246521 254.634895 165.759104 253.458166 164.891617 252.59068 
C 164.024131 251.723194 162.847402 251.235776 161.620591 251.235776 
C 160.39378 251.235776 159.217051 251.723194 158.349565 252.59068 
C 157.482078 253.458166 156.994661 254.634895 156.994661 255.861706 
C 156.994661 257.088517 157.482078 258.265246 158.349565 259.132733 
C 159.217051 260.000219 160.39378 260.487636 161.620591 260.487636 
z
" clip-path="url(#p85774c05f1)" style="fill: #6e1f1f; fill-opacity: 0.85; stroke: #ffffff; stroke-opacity: 0.85; stroke-width: 0.603805"/>
    <path d="M 263.024128 258.884009 
C 264.982971 258.884009 266.861849 258.105752 268.24696 256.720641 
C 269.632071 255.33553 270.410327 253.456653 270.410327 251.49781 
C 270.410327 249.538967 269.632071 247.660089 268.24696 246.274978 
C 266.861849 244.889867 264.982971 244.111611 263.024128 244.111611 
C 261.065286 244.111611 259.186408 244.889867 257.801297 246.274978 
C 256.416186 247.660089 255.63793 249.538967 255.63793 251.49781 
C 255.63793 253.456653 256.416186 255.33553 257.801297 256.720641 
C 259.186408 258.105752 261.065286 258.884009 263.024128 258.884009 
z
" clip-path="url(#p85774c05f1)" style="fill: #6e1f1f; fill-opacity: 0.85; stroke: #ffffff; stroke-opacity: 0.85; stroke-width: 0.603805"/>
    <path d="M 242.201819 248.750641 
C 243.929955 248.750641 245.587543 248.064045 246.80952 246.842068 
C 248.031497 245.620092 248.718092 243.962503 248.718092 242.234367 
C 248.718092 240.506231 248.031497 238.848643 246.80952 237.626666 
C 245.587543 236.404689 243.929955 235.718094 242.201819 235.718094 
C 240.473683 235.718094 238.816094 236.404689 237.594118 237.626666 
C 236.372141 238.848643 235.685545 240.506231 235.685545 242.234367 
C 235.685545 243.962503 236.372141 245.620092 237.594118 246.842068 
C 238.816094 248.064045 240.473683 248.750641 242.201819 248.750641 
z
" clip-path="url(#p85774c05f1)" style="fill: #6e1f1f; fill-opacity: 0.85; stroke: #ffffff; stroke-opacity: 0.85; stroke-width: 0.603805"/>
    <path d="M 471.129403 229.446456 
C 472.47884 229.446456 473.77319 228.910319 474.727386 227.956123 
C 475.681582 227.001927 476.217719 225.707577 476.217719 224.35814 
C 476.217719 223.008703 475.681582 221.714354 474.727386 220.760158 
C 473.77319 219.805962 472.47884 219.269825 471.129403 219.269825 
C 469.779966 219.269825 468.485617 219.805962 467.531421 220.760158 
C 466.577225 221.714354 466.041088 223.008703 466.041088 224.35814 
C 466.041088 225.707577 466.577225 227.001927 467.531421 227.956123 
C 468.485617 228.910319 469.779966 229.446456 471.129403 229.446456 
z
" clip-path="url(#p85774c05f1)" style="fill: #6e1f1f; fill-opacity: 0.85; stroke: #ffffff; stroke-opacity: 0.85; stroke-width: 0.603805"/>
    <path d="M 436.602515 215.266188 
C 438.011448 215.266188 439.362864 214.706414 440.35913 213.710148 
C 441.355396 212.713882 441.915171 211.362465 441.915171 209.953533 
C 441.915171 208.5446 441.355396 207.193184 440.35913 206.196918 
C 439.362864 205.200652 438.011448 204.640877 436.602515 204.640877 
C 435.193582 204.640877 433.842166 205.200652 432.8459 206.196918 
C 431.849634 207.193184 431.289859 208.5446 431.289859 209.953533 
C 431.289859 211.362465 431.849634 212.713882 432.8459 213.710148 
C 433.842166 214.706414 435.193582 215.266188 436.602515 215.266188 
z
" clip-path="url(#p85774c05f1)" style="fill: #6e1f1f; fill-opacity: 0.85; stroke: #ffffff; stroke-opacity: 0.85; stroke-width: 0.603805"/>
    <path d="M 262.350049 214.438507 
C 263.864964 214.438507 265.318035 213.836625 266.389242 212.765419 
C 267.460448 211.694212 268.062331 210.24114 268.062331 208.726225 
C 268.062331 207.211311 267.460448 205.758239 266.389242 204.687032 
C 265.318035 203.615826 263.864964 203.013944 262.350049 203.013944 
C 260.835134 203.013944 259.382062 203.615826 258.310856 204.687032 
C 257.239649 205.758239 256.637767 207.211311 256.637767 208.726225 
C 256.637767 210.24114 257.239649 211.694212 258.310856 212.765419 
C 259.382062 213.836625 260.835134 214.438507 262.350049 214.438507 
z
" clip-path="url(#p85774c05f1)" style="fill: #6e1f1f; fill-opacity: 0.85; stroke: #ffffff; stroke-opacity: 0.85; stroke-width: 0.603805"/>
    <path d="M 177.559267 206.129036 
C 178.816981 206.129036 180.023352 205.629341 180.91269 204.740003 
C 181.802028 203.850665 182.301723 202.644294 182.301723 201.38658 
C 182.301723 200.128866 181.802028 198.922496 180.91269 198.033157 
C 180.023352 197.143819 178.816981 196.644124 177.559267 196.644124 
C 176.301553 196.644124 175.095183 197.143819 174.205845 198.033157 
C 173.316506 198.922496 172.816811 200.128866 172.816811 201.38658 
C 172.816811 202.644294 173.316506 203.850665 174.205845 204.740003 
C 175.095183 205.629341 176.301553 206.129036 177.559267 206.129036 
z
" clip-path="url(#p85774c05f1)" style="fill: #6e1f1f; fill-opacity: 0.85; stroke: #ffffff; stroke-opacity: 0.85; stroke-width: 0.603805"/>
    <path d="M 377.494364 203.434157 
C 378.754271 203.434157 379.962744 202.933591 380.853633 202.042703 
C 381.744521 201.151814 382.245087 199.943341 382.245087 198.683434 
C 382.245087 197.423528 381.744521 196.215054 380.853633 195.324166 
C 379.962744 194.433278 378.754271 193.932711 377.494364 193.932711 
C 376.234458 193.932711 375.025984 194.433278 374.135096 195.324166 
C 373.244208 196.215054 372.743641 197.423528 372.743641 198.683434 
C 372.743641 199.943341 373.244208 201.151814 374.135096 202.042703 
C 375.025984 202.933591 376.234458 203.434157 377.494364 203.434157 
z
" clip-path="url(#p85774c05f1)" style="fill: #6e1f1f; fill-opacity: 0.85; stroke: #ffffff; stroke-opacity: 0.85; stroke-width: 0.603805"/>
    <path d="M 354.377539 176.355798 
C 355.573048 176.355798 356.719754 175.880817 357.565107 175.035464 
C 358.41046 174.190111 358.885441 173.043405 358.885441 171.847895 
C 358.885441 170.652386 358.41046 169.50568 357.565107 168.660327 
C 356.719754 167.814974 355.573048 167.339993 354.377539 167.339993 
C 353.182029 167.339993 352.035324 167.814974 351.189971 168.660327 
C 350.344618 169.50568 349.869637 170.652386 349.869637 171.847895 
C 349.869637 173.043405 350.344618 174.190111 351.189971 175.035464 
C 352.035324 175.880817 353.182029 176.355798 354.377539 176.355798 
z
" clip-path="url(#p85774c05f1)" style="fill: #6e1f1f; fill-opacity: 0.85; stroke: #ffffff; stroke-opacity: 0.85; stroke-width: 0.603805"/>
    <path d="M 140.317332 167.089432 
C 141.432624 167.089432 142.502386 166.646322 143.291016 165.857691 
C 144.079646 165.069061 144.522756 163.999299 144.522756 162.884008 
C 144.522756 161.768716 144.079646 160.698954 143.291016 159.910324 
C 142.502386 159.121694 141.432624 158.678584 140.317332 158.678584 
C 139.202041 158.678584 138.132279 159.121694 137.343648 159.910324 
C 136.555018 160.698954 136.111908 161.768716 136.111908 162.884008 
C 136.111908 163.999299 136.555018 165.069061 137.343648 165.857691 
C 138.132279 166.646322 139.202041 167.089432 140.317332 167.089432 
z
" clip-path="url(#p85774c05f1)" style="fill: #6e1f1f; fill-opacity: 0.85; stroke: #ffffff; stroke-opacity: 0.85; stroke-width: 0.603805"/>
    <path d="M 144.743432 161.352446 
C 145.798567 161.352446 146.81063 160.933236 147.556723 160.187142 
C 148.302817 159.441048 148.722027 158.428986 148.722027 157.37385 
C 148.722027 156.318714 148.302817 155.306652 147.556723 154.560558 
C 146.81063 153.814465 145.798567 153.395255 144.743432 153.395255 
C 143.688296 153.395255 142.676233 153.814465 141.93014 154.560558 
C 141.184046 155.306652 140.764836 156.318714 140.764836 157.37385 
C 140.764836 158.428986 141.184046 159.441048 141.93014 160.187142 
C 142.676233 160.933236 143.688296 161.352446 144.743432 161.352446 
z
" clip-path="url(#p85774c05f1)" style="fill: #6e1f1f; fill-opacity: 0.85; stroke: #ffffff; stroke-opacity: 0.85; stroke-width: 0.603805"/>
    <path d="M 189.2477 162.064806 
C 190.564909 162.064806 191.828346 161.541474 192.759753 160.610066 
C 193.691161 159.678659 194.214493 158.415222 194.214493 157.098013 
C 194.214493 155.780805 193.691161 154.517368 192.759753 153.58596 
C 191.828346 152.654553 190.564909 152.131221 189.2477 152.131221 
C 187.930491 152.131221 186.667055 152.654553 185.735647 153.58596 
C 184.80424 154.517368 184.280907 155.780805 184.280907 157.098013 
C 184.280907 158.415222 184.80424 159.678659 185.735647 160.610066 
C 186.667055 161.541474 187.930491 162.064806 189.2477 162.064806 
z
" clip-path="url(#p85774c05f1)" style="fill: #6e1f1f; fill-opacity: 0.85; stroke: #ffffff; stroke-opacity: 0.85; stroke-width: 0.603805"/>
    <path d="M 178.062582 158.069478 
C 179.218956 158.069478 180.328124 157.610046 181.145804 156.792366 
C 181.963484 155.974686 182.422916 154.865518 182.422916 153.709144 
C 182.422916 152.55277 181.963484 151.443603 181.145804 150.625923 
C 180.328124 149.808243 179.218956 149.34881 178.062582 149.34881 
C 176.906208 149.34881 175.79704 149.808243 174.97936 150.625923 
C 174.16168 151.443603 173.702248 152.55277 173.702248 153.709144 
C 173.702248 154.865518 174.16168 155.974686 174.97936 156.792366 
C 175.79704 157.610046 176.906208 158.069478 178.062582 158.069478 
z
" clip-path="url(#p85774c05f1)" style="fill: #6e1f1f; fill-opacity: 0.85; stroke: #ffffff; stroke-opacity: 0.85; stroke-width: 0.603805"/>
    <path d="M 284.098906 156.867039 
C 284.994037 156.867039 285.852626 156.511399 286.485579 155.878446 
C 287.118533 155.245493 287.474172 154.386904 287.474172 153.491773 
C 287.474172 152.596642 287.118533 151.738052 286.485579 151.105099 
C 285.852626 150.472146 284.994037 150.116507 284.098906 150.116507 
C 283.203775 150.116507 282.345186 150.472146 281.712233 151.105099 
C 281.079279 151.738052 280.72364 152.596642 280.72364 153.491773 
C 280.72364 154.386904 281.079279 155.245493 281.712233 155.878446 
C 282.345186 156.511399 283.203775 156.867039 284.098906 156.867039 
z
" clip-path="url(#p85774c05f1)" style="fill: #6e1f1f; fill-opacity: 0.85; stroke: #ffffff; stroke-opacity: 0.85; stroke-width: 0.603805"/>
    <path d="M 183.638744 152.933735 
C 184.861913 152.933735 186.035148 152.447765 186.900059 151.582854 
C 187.76497 150.717943 188.250941 149.544707 188.250941 148.321538 
C 188.250941 147.098369 187.76497 145.925133 186.900059 145.060222 
C 186.035148 144.195311 184.861913 143.709341 183.638744 143.709341 
C 182.415575 143.709341 181.242339 144.195311 180.377428 145.060222 
C 179.512517 145.925133 179.026546 147.098369 179.026546 148.321538 
C 179.026546 149.544707 179.512517 150.717943 180.377428 151.582854 
C 181.242339 152.447765 182.415575 152.933735 183.638744 152.933735 
z
" clip-path="url(#p85774c05f1)" style="fill: #6e1f1f; fill-opacity: 0.85; stroke: #ffffff; stroke-opacity: 0.85; stroke-width: 0.603805"/>
    <path d="M 243.842674 141.382557 
C 245.081439 141.382557 246.269635 140.89039 247.145574 140.014451 
C 248.021513 139.138512 248.513679 137.950317 248.513679 136.711552 
C 248.513679 135.472787 248.021513 134.284592 247.145574 133.408653 
C 246.269635 132.532714 245.081439 132.040547 243.842674 132.040547 
C 242.603909 132.040547 241.415714 132.532714 240.539775 133.408653 
C 239.663836 134.284592 239.17167 135.472787 239.17167 136.711552 
C 239.17167 137.950317 239.663836 139.138512 240.539775 140.014451 
C 241.415714 140.89039 242.603909 141.382557 243.842674 141.382557 
z
" clip-path="url(#p85774c05f1)" style="fill: #6e1f1f; fill-opacity: 0.85; stroke: #ffffff; stroke-opacity: 0.85; stroke-width: 0.603805"/>
    <path d="M 119.976771 134.105434 
C 120.984105 134.105434 121.950317 133.705216 122.66261 132.992923 
C 123.374902 132.28063 123.77512 131.314418 123.77512 130.307085 
C 123.77512 129.299751 123.374902 128.333539 122.66261 127.621246 
C 121.950317 126.908954 120.984105 126.508735 119.976771 126.508735 
C 118.969437 126.508735 118.003226 126.908954 117.290933 127.621246 
C 116.57864 128.333539 116.178422 129.299751 116.178422 130.307085 
C 116.178422 131.314418 116.57864 132.28063 117.290933 132.992923 
C 118.003226 133.705216 118.969437 134.105434 119.976771 134.105434 
z
" clip-path="url(#p85774c05f1)" style="fill: #6e1f1f; fill-opacity: 0.85; stroke: #ffffff; stroke-opacity: 0.85; stroke-width: 0.603805"/>
    <path d="M 117.265427 54.767037 
C 118.205578 54.767037 119.107349 54.393511 119.772136 53.728724 
C 120.436923 53.063937 120.810449 52.162166 120.810449 51.222015 
C 120.810449 50.281865 120.436923 49.380093 119.772136 48.715306 
C 119.107349 48.050519 118.205578 47.676993 117.265427 47.676993 
C 116.325276 47.676993 115.423505 48.050519 114.758718 48.715306 
C 114.093931 49.380093 113.720405 50.281865 113.720405 51.222015 
C 113.720405 52.162166 114.093931 53.063937 114.758718 53.728724 
C 115.423505 54.393511 116.325276 54.767037 117.265427 54.767037 
z
" clip-path="url(#p85774c05f1)" style="fill: #6e1f1f; fill-opacity: 0.85; stroke: #ffffff; stroke-opacity: 0.85; stroke-width: 0.603805"/>
    <path d="M 65.311222 46.002278 
C 66.149867 46.002278 66.954277 45.66908 67.54729 45.076068 
C 68.140302 44.483056 68.473499 43.678646 68.473499 42.84 
C 68.473499 42.001354 68.140302 41.196944 67.54729 40.603932 
C 66.954277 40.01092 66.149867 39.677722 65.311222 39.677722 
C 64.472576 39.677722 63.668166 40.01092 63.075154 40.603932 
C 62.482141 41.196944 62.148944 42.001354 62.148944 42.84 
C 62.148944 43.678646 62.482141 44.483056 63.075154 45.076068 
C 63.668166 45.66908 64.472576 46.002278 65.311222 46.002278 
z
" clip-path="url(#p85774c05f1)" style="fill: #6e1f1f; fill-opacity: 0.85; stroke: #ffffff; stroke-opacity: 0.85; stroke-width: 0.603805"/>
   </g>
   <g id="matplotlib.axis_1">
    <g id="xtick_1">
     <g id="line2d_1">
      <defs>
       <path id="m68e5fa4f1c" d="M 0 0 
L 0 4 
" style="stroke: #1a1814; stroke-width: 0.8"/>
      </defs>
      <g>
       <use xlink:href="#m68e5fa4f1c" x="102.916024" y="360.36" style="fill: #1a1814; stroke: #1a1814; stroke-width: 0.8"/>
      </g>
     </g>
     <g id="text_1">
      <text style="font-size: 9px; font-family: 'IBM Plex Sans', 'Helvetica Neue', 'Arial', 'DejaVu Sans', sans-serif; text-anchor: middle; fill: #6b655c" x="102.916024" y="374.52" transform="rotate(-0 102.916024 374.52)">4%</text>
     </g>
    </g>
    <g id="xtick_2">
     <g id="line2d_2">
      <g>
       <use xlink:href="#m68e5fa4f1c" x="169.305549" y="360.36" style="fill: #1a1814; stroke: #1a1814; stroke-width: 0.8"/>
      </g>
     </g>
     <g id="text_2">
      <text style="font-size: 9px; font-family: 'IBM Plex Sans', 'Helvetica Neue', 'Arial', 'DejaVu Sans', sans-serif; text-anchor: middle; fill: #6b655c" x="169.305549" y="374.52" transform="rotate(-0 169.305549 374.52)">6%</text>
     </g>
    </g>
    <g id="xtick_3">
     <g id="line2d_3">
      <g>
       <use xlink:href="#m68e5fa4f1c" x="235.695074" y="360.36" style="fill: #1a1814; stroke: #1a1814; stroke-width: 0.8"/>
      </g>
     </g>
     <g id="text_3">
      <text style="font-size: 9px; font-family: 'IBM Plex Sans', 'Helvetica Neue', 'Arial', 'DejaVu Sans', sans-serif; text-anchor: middle; fill: #6b655c" x="235.695074" y="374.52" transform="rotate(-0 235.695074 374.52)">8%</text>
     </g>
    </g>
    <g id="xtick_4">
     <g id="line2d_4">
      <g>
       <use xlink:href="#m68e5fa4f1c" x="302.0846" y="360.36" style="fill: #1a1814; stroke: #1a1814; stroke-width: 0.8"/>
      </g>
     </g>
     <g id="text_4">
      <text style="font-size: 9px; font-family: 'IBM Plex Sans', 'Helvetica Neue', 'Arial', 'DejaVu Sans', sans-serif; text-anchor: middle; fill: #6b655c" x="302.0846" y="374.52" transform="rotate(-0 302.0846 374.52)">10%</text>
     </g>
    </g>
    <g id="xtick_5">
     <g id="line2d_5">
      <g>
       <use xlink:href="#m68e5fa4f1c" x="368.474125" y="360.36" style="fill: #1a1814; stroke: #1a1814; stroke-width: 0.8"/>
      </g>
     </g>
     <g id="text_5">
      <text style="font-size: 9px; font-family: 'IBM Plex Sans', 'Helvetica Neue', 'Arial', 'DejaVu Sans', sans-serif; text-anchor: middle; fill: #6b655c" x="368.474125" y="374.52" transform="rotate(-0 368.474125 374.52)">12%</text>
     </g>
    </g>
    <g id="xtick_6">
     <g id="line2d_6">
      <g>
       <use xlink:href="#m68e5fa4f1c" x="434.86365" y="360.36" style="fill: #1a1814; stroke: #1a1814; stroke-width: 0.8"/>
      </g>
     </g>
     <g id="text_6">
      <text style="font-size: 9px; font-family: 'IBM Plex Sans', 'Helvetica Neue', 'Arial', 'DejaVu Sans', sans-serif; text-anchor: middle; fill: #6b655c" x="434.86365" y="374.52" transform="rotate(-0 434.86365 374.52)">14%</text>
     </g>
    </g>
    <g id="text_7">
     <text style="font-size: 10px; font-family: 'IBM Plex Sans', 'Helvetica Neue', 'Arial', 'DejaVu Sans', sans-serif; text-anchor: middle; fill: #1a1814" x="268.220312" y="391.92" transform="rotate(-0 268.220312 391.92)">Price Return Volatility (Full Horizon)</text>
    </g>
   </g>
   <g id="matplotlib.axis_2">
    <g id="ytick_1">
     <g id="line2d_7">
      <defs>
       <path id="maaa6b8fe9a" d="M 0 0 
L -4 0 
" style="stroke: #1a1814; stroke-width: 0.8"/>
      </defs>
      <g>
       <use xlink:href="#maaa6b8fe9a" x="45.020313" y="327.443877" style="fill: #1a1814; stroke: #1a1814; stroke-width: 0.8"/>
      </g>
     </g>
     <g id="text_8">
      <text style="font-size: 9px; font-family: 'IBM Plex Sans', 'Helvetica Neue', 'Arial', 'DejaVu Sans', sans-serif; text-anchor: end; fill: #6b655c" x="37.520313" y="330.773877" transform="rotate(-0 37.520313 330.773877)">60</text>
     </g>
    </g>
    <g id="ytick_2">
     <g id="line2d_8">
      <g>
       <use xlink:href="#maaa6b8fe9a" x="45.020313" y="281.119968" style="fill: #1a1814; stroke: #1a1814; stroke-width: 0.8"/>
      </g>
     </g>
     <g id="text_9">
      <text style="font-size: 9px; font-family: 'IBM Plex Sans', 'Helvetica Neue', 'Arial', 'DejaVu Sans', sans-serif; text-anchor: end; fill: #6b655c" x="37.520313" y="284.449968" transform="rotate(-0 37.520313 284.449968)">80</text>
     </g>
    </g>
    <g id="ytick_3">
     <g id="line2d_9">
      <g>
       <use xlink:href="#maaa6b8fe9a" x="45.020313" y="234.796059" style="fill: #1a1814; stroke: #1a1814; stroke-width: 0.8"/>
      </g>
     </g>
     <g id="text_10">
      <text style="font-size: 9px; font-family: 'IBM Plex Sans', 'Helvetica Neue', 'Arial', 'DejaVu Sans', sans-serif; text-anchor: end; fill: #6b655c" x="37.520313" y="238.126059" transform="rotate(-0 37.520313 238.126059)">100</text>
     </g>
    </g>
    <g id="ytick_4">
     <g id="line2d_10">
      <g>
       <use xlink:href="#maaa6b8fe9a" x="45.020313" y="188.47215" style="fill: #1a1814; stroke: #1a1814; stroke-width: 0.8"/>
      </g>
     </g>
     <g id="text_11">
      <text style="font-size: 9px; font-family: 'IBM Plex Sans', 'Helvetica Neue', 'Arial', 'DejaVu Sans', sans-serif; text-anchor: end; fill: #6b655c" x="37.520313" y="191.80215" transform="rotate(-0 37.520313 191.80215)">120</text>
     </g>
    </g>
    <g id="ytick_5">
     <g id="line2d_11">
      <g>
       <use xlink:href="#maaa6b8fe9a" x="45.020313" y="142.148241" style="fill: #1a1814; stroke: #1a1814; stroke-width: 0.8"/>
      </g>
     </g>
     <g id="text_12">
      <text style="font-size: 9px; font-family: 'IBM Plex Sans', 'Helvetica Neue', 'Arial', 'DejaVu Sans', sans-serif; text-anchor: end; fill: #6b655c" x="37.520313" y="145.478241" transform="rotate(-0 37.520313 145.478241)">140</text>
     </g>
    </g>
    <g id="ytick_6">
     <g id="line2d_12">
      <g>
       <use xlink:href="#maaa6b8fe9a" x="45.020313" y="95.824332" style="fill: #1a1814; stroke: #1a1814; stroke-width: 0.8"/>
      </g>
     </g>
     <g id="text_13">
      <text style="font-size: 9px; font-family: 'IBM Plex Sans', 'Helvetica Neue', 'Arial', 'DejaVu Sans', sans-serif; text-anchor: end; fill: #6b655c" x="37.520313" y="99.154332" transform="rotate(-0 37.520313 99.154332)">160</text>
     </g>
    </g>
    <g id="ytick_7">
     <g id="line2d_13">
      <g>
       <use xlink:href="#maaa6b8fe9a" x="45.020313" y="49.500423" style="fill: #1a1814; stroke: #1a1814; stroke-width: 0.8"/>
      </g>
     </g>
     <g id="text_14">
      <text style="font-size: 9px; font-family: 'IBM Plex Sans', 'Helvetica Neue', 'Arial', 'DejaVu Sans', sans-serif; text-anchor: end; fill: #6b655c" x="37.520313" y="52.830423" transform="rotate(-0 37.520313 52.830423)">180</text>
     </g>
    </g>
    <g id="text_15">
     <text style="font-size: 10px; font-family: 'IBM Plex Sans', 'Helvetica Neue', 'Arial', 'DejaVu Sans', sans-serif; text-anchor: middle; fill: #1a1814" x="11.2" y="194.04" transform="rotate(-90 11.2 194.04)">Average Housing Affordability Index (HAI)</text>
    </g>
   </g>
   <g id="line2d_14"/>
   <g id="line2d_15"/>
   <g id="line2d_16"/>
   <g id="line2d_17"/>
   <g id="line2d_18"/>
   <g id="line2d_19">
    <path d="M 45.020313 234.796059 
L 491.420312 234.796059 
" clip-path="url(#p85774c05f1)" style="fill: none; stroke-dasharray: 2.96,1.28; stroke-dashoffset: 0; stroke: #948d82; stroke-opacity: 0.7; stroke-width: 0.8"/>
   </g>
   <g id="patch_3">
    <path d="M 45.020313 360.36 
L 45.020313 27.72 
" style="fill: none; stroke: #1a1814; stroke-linejoin: miter; stroke-linecap: square"/>
   </g>
   <g id="patch_4">
    <path d="M 45.020313 360.36 
L 491.420312 360.36 
" style="fill: none; stroke: #1a1814; stroke-linejoin: miter; stroke-linecap: square"/>
   </g>
   <g id="text_16">
    <text style="font-weight: 700; font-size: 9px; font-family: 'IBM Plex Sans'; text-anchor: start" x="320.599945" y="347.615859" transform="rotate(-0 320.599945 347.615859)">Los Angeles</text>
   </g>
   <g id="text_17">
    <text style="font-weight: 700; font-size: 9px; font-family: 'IBM Plex Sans'; text-anchor: end" x="285.415674" y="328.512056" transform="rotate(-0 285.415674 328.512056)">San Francisco</text>
   </g>
   <g id="text_18">
    <text style="font-weight: 700; font-size: 9px; font-family: 'IBM Plex Sans'; text-anchor: start" x="269.663081" y="253.92781" transform="rotate(-0 269.663081 253.92781)">Seattle</text>
   </g>
   <g id="text_19">
    <text style="font-weight: 700; font-size: 9px; font-family: 'IBM Plex Sans'; text-anchor: start" x="248.840771" y="244.651008" transform="rotate(-0 248.840771 244.651008)">Washington</text>
   </g>
   <g id="text_20">
    <text style="font-weight: 700; font-size: 9px; font-family: 'IBM Plex Sans'; text-anchor: start" x="184.19822" y="203.81658" transform="rotate(-0 184.19822 203.81658)">Dallas</text>
   </g>
   <g id="text_21">
    <text style="font-weight: 700; font-size: 9px; font-family: 'IBM Plex Sans'; text-anchor: start" x="146.956285" y="165.314008" transform="rotate(-0 146.956285 165.314008)">Houston</text>
   </g>
   <g id="text_22">
    <text style="font-weight: 700; font-size: 9px; font-family: 'IBM Plex Sans'; text-anchor: start" x="71.950174" y="45.256641" transform="rotate(-0 71.950174 45.256641)">Pittsburgh</text>
   </g>
   <g id="text_23">
    <text style="font-size: 9px; font-family: 'IBM Plex Mono'; text-anchor: start; fill: #6b655c" x="69.721261" y="227.847473" transform="rotate(-0 69.721261 227.847473)">NAR Affordability Threshold (100)</text>
   </g>
   <g id="text_24">
    <text style="font-weight: 600; font-size: 12px; font-family: 'IBM Plex Sans', 'Helvetica Neue', 'Arial', 'DejaVu Sans', sans-serif; text-anchor: middle; fill: #1a1814" x="268.220312" y="12.72" transform="rotate(-0 268.220312 12.72)">U.S. Metros: Volatility vs. Affordability Space (2015–2026)</text>
   </g>
   <g id="legend_1">
    <g id="text_25">
     <text style="font-size: 10px; font-family: 'IBM Plex Sans', 'Helvetica Neue', 'Arial', 'DejaVu Sans', sans-serif; text-anchor: start" x="412.871094" y="54.52" transform="rotate(-0 412.871094 54.52)">Avg Price ($)</text>
    </g>
    <g id="line2d_20">
     <defs>
      <path id="m496ef6d197" d="M 0 4.734068 
C 1.25549 4.734068 2.459727 4.235257 3.347492 3.347492 
C 4.235257 2.459727 4.734068 1.25549 4.734068 0 
C 4.734068 -1.25549 4.235257 -2.459727 3.347492 -3.347492 
C 2.459727 -4.235257 1.25549 -4.734068 0 -4.734068 
C -1.25549 -4.734068 -2.459727 -4.235257 -3.347492 -3.347492 
C -4.235257 -2.459727 -4.734068 -1.25549 -4.734068 0 
C -4.734068 1.25549 -4.235257 2.459727 -3.347492 3.347492 
C -2.459727 4.235257 -1.25549 4.734068 0 4.734068 
z
" style="stroke: #ffffff; stroke-opacity: 0.85; stroke-width: 0.603805"/>
     </defs>
     <g>
      <use xlink:href="#m496ef6d197" x="420.079687" y="93.540312" style="fill: #6e1f1f; fill-opacity: 0.85; stroke: #ffffff; stroke-opacity: 0.85; stroke-width: 0.603805"/>
     </g>
    </g>
    <g id="text_26">
     <text style="font-size: 10px; font-family: 'IBM Plex Sans', 'Helvetica Neue', 'Arial', 'DejaVu Sans', sans-serif; text-anchor: start; fill: #3c3833" x="448.079687" y="97.040312" transform="rotate(-0 448.079687 97.040312)">300K</text>
    </g>
    <g id="line2d_21">
     <defs>
      <path id="m4d64f063ba" d="M 0 6.241674 
C 1.655311 6.241674 3.243048 5.584012 4.41353 4.41353 
C 5.584012 3.243048 6.241674 1.655311 6.241674 0 
C 6.241674 -1.655311 5.584012 -3.243048 4.41353 -4.41353 
C 3.243048 -5.584012 1.655311 -6.241674 0 -6.241674 
C -1.655311 -6.241674 -3.243048 -5.584012 -4.41353 -4.41353 
C -5.584012 -3.243048 -6.241674 -1.655311 -6.241674 0 
C -6.241674 1.655311 -5.584012 3.243048 -4.41353 4.41353 
C -3.243048 5.584012 -1.655311 6.241674 0 6.241674 
z
" style="stroke: #ffffff; stroke-opacity: 0.85; stroke-width: 0.603805"/>
     </defs>
     <g>
      <use xlink:href="#m4d64f063ba" x="420.079687" y="135.940313" style="fill: #6e1f1f; fill-opacity: 0.85; stroke: #ffffff; stroke-opacity: 0.85; stroke-width: 0.603805"/>
     </g>
    </g>
    <g id="text_27">
     <text style="font-size: 10px; font-family: 'IBM Plex Sans', 'Helvetica Neue', 'Arial', 'DejaVu Sans', sans-serif; text-anchor: start; fill: #3c3833" x="448.079687" y="139.440313" transform="rotate(-0 448.079687 139.440313)">450K</text>
    </g>
    <g id="line2d_22">
     <defs>
      <path id="me0d0fa81ab" d="M 0 7.450207 
C 1.975818 7.450207 3.870977 6.665206 5.268092 5.268092 
C 6.665206 3.870977 7.450207 1.975818 7.450207 0 
C 7.450207 -1.975818 6.665206 -3.870977 5.268092 -5.268092 
C 3.870977 -6.665206 1.975818 -7.450207 0 -7.450207 
C -1.975818 -7.450207 -3.870977 -6.665206 -5.268092 -5.268092 
C -6.665206 -3.870977 -7.450207 -1.975818 -7.450207 0 
C -7.450207 1.975818 -6.665206 3.870977 -5.268092 5.268092 
C -3.870977 6.665206 -1.975818 7.450207 0 7.450207 
z
" style="stroke: #ffffff; stroke-opacity: 0.85; stroke-width: 0.603805"/>
     </defs>
     <g>
      <use xlink:href="#me0d0fa81ab" x="420.079687" y="178.340312" style="fill: #6e1f1f; fill-opacity: 0.85; stroke: #ffffff; stroke-opacity: 0.85; stroke-width: 0.603805"/>
     </g>
    </g>
    <g id="text_28">
     <text style="font-size: 10px; font-family: 'IBM Plex Sans', 'Helvetica Neue', 'Arial', 'DejaVu Sans', sans-serif; text-anchor: start; fill: #3c3833" x="448.079687" y="181.840312" transform="rotate(-0 448.079687 181.840312)">600K</text>
    </g>
    <g id="line2d_23">
     <defs>
      <path id="m9fe0ab53dc" d="M 0 8.488384 
C 2.251146 8.488384 4.410394 7.593995 6.002194 6.002194 
C 7.593995 4.410394 8.488384 2.251146 8.488384 0 
C 8.488384 -2.251146 7.593995 -4.410394 6.002194 -6.002194 
C 4.410394 -7.593995 2.251146 -8.488384 0 -8.488384 
C -2.251146 -8.488384 -4.410394 -7.593995 -6.002194 -6.002194 
C -7.593995 -4.410394 -8.488384 -2.251146 -8.488384 0 
C -8.488384 2.251146 -7.593995 4.410394 -6.002194 6.002194 
C -4.410394 7.593995 -2.251146 8.488384 0 8.488384 
z
" style="stroke: #ffffff; stroke-opacity: 0.85; stroke-width: 0.603805"/>
     </defs>
     <g>
      <use xlink:href="#m9fe0ab53dc" x="420.079687" y="220.740312" style="fill: #6e1f1f; fill-opacity: 0.85; stroke: #ffffff; stroke-opacity: 0.85; stroke-width: 0.603805"/>
     </g>
    </g>
    <g id="text_29">
     <text style="font-size: 10px; font-family: 'IBM Plex Sans', 'Helvetica Neue', 'Arial', 'DejaVu Sans', sans-serif; text-anchor: start; fill: #3c3833" x="448.079687" y="224.240312" transform="rotate(-0 448.079687 224.240312)">750K</text>
    </g>
    <g id="line2d_24">
     <defs>
      <path id="m6dc938e9bd" d="M 0 9.412745 
C 2.496289 9.412745 4.890673 8.420958 6.655816 6.655816 
C 8.420958 4.890673 9.412745 2.496289 9.412745 0 
C 9.412745 -2.496289 8.420958 -4.890673 6.655816 -6.655816 
C 4.890673 -8.420958 2.496289 -9.412745 0 -9.412745 
C -2.496289 -9.412745 -4.890673 -8.420958 -6.655816 -6.655816 
C -8.420958 -4.890673 -9.412745 -2.496289 -9.412745 0 
C -9.412745 2.496289 -8.420958 4.890673 -6.655816 6.655816 
C -4.890673 8.420958 -2.496289 9.412745 0 9.412745 
z
" style="stroke: #ffffff; stroke-opacity: 0.85; stroke-width: 0.603805"/>
     </defs>
     <g>
      <use xlink:href="#m6dc938e9bd" x="420.079687" y="263.140312" style="fill: #6e1f1f; fill-opacity: 0.85; stroke: #ffffff; stroke-opacity: 0.85; stroke-width: 0.603805"/>
     </g>
    </g>
    <g id="text_30">
     <text style="font-size: 10px; font-family: 'IBM Plex Sans', 'Helvetica Neue', 'Arial', 'DejaVu Sans', sans-serif; text-anchor: start; fill: #3c3833" x="448.079687" y="266.640312" transform="rotate(-0 448.079687 266.640312)">900K</text>
    </g>
   </g>
  </g>
 </g>
 <defs>
  <clipPath id="p85774c05f1">
   <rect x="45.020313" y="27.72" width="446.4" height="332.64"/>
  </clipPath>
 </defs>
</svg>
