<?xml version="1.0" encoding="utf-8" standalone="no"?>
<!DOCTYPE svg PUBLIC "-//W3C//DTD SVG 1.1//EN"
  "http://www.w3.org/Graphics/SVG/1.1/DTD/svg11.dtd">
<svg xmlns:xlink="http://www.w3.org/1999/xlink" width="651.234844pt" height="296.38pt" viewBox="0 0 651.234844 296.38" xmlns="http://www.w3.org/2000/svg" version="1.1">
 <metadata>
  <rdf:RDF xmlns:dc="http://purl.org/dc/elements/1.1/" xmlns:cc="http://creativecommons.org/ns#" xmlns:rdf="http://www.w3.org/1999/02/22-rdf-syntax-ns#">
   <cc:Work>
    <dc:type rdf:resource="http://purl.org/dc/dcmitype/StillImage"/>
    <dc:date>2026-07-08T15:36:05.655324</dc:date>
    <dc:format>image/svg+xml</dc:format>
    <dc:creator>
     <cc:Agent>
      <dc:title>Matplotlib v3.10.9, https://matplotlib.org/</dc:title>
     </cc:Agent>
    </dc:creator>
   </cc:Work>
  </rdf:RDF>
 </metadata>
 <defs>
  <style type="text/css">*{stroke-linejoin: round; stroke-linecap: butt}</style>
 </defs>
 <g id="figure_1">
  <g id="patch_1">
   <path d="M 0 296.38 
L 651.234844 296.38 
L 651.234844 0 
L 0 0 
L 0 296.38 
z
" style="fill: none"/>
  </g>
  <g id="axes_1">
   <g id="patch_2">
    <path d="M 33.834844 276.82 
L 647.634844 276.82 
L 647.634844 27.34 
L 33.834844 27.34 
L 33.834844 276.82 
z
" style="fill: none"/>
   </g>
   <g id="matplotlib.axis_1">
    <g id="xtick_1">
     <g id="line2d_1">
      <defs>
       <path id="md47870ecce" d="M 0 0 
L 0 4 
" style="stroke: #1a1814; stroke-width: 0.8"/>
      </defs>
      <g>
       <use xlink:href="#md47870ecce" x="101.206223" y="276.82" style="fill: #1a1814; stroke: #1a1814; stroke-width: 0.8"/>
      </g>
     </g>
     <g id="text_1">
      <text style="font-size: 9px; font-family: 'IBM Plex Sans', 'Helvetica Neue', 'Arial', 'DejaVu Sans', sans-serif; text-anchor: middle; fill: #6b655c" x="101.206223" y="290.98" transform="rotate(-0 101.206223 290.98)">1980</text>
     </g>
    </g>
    <g id="xtick_2">
     <g id="line2d_2">
      <g>
       <use xlink:href="#md47870ecce" x="213.941912" y="276.82" style="fill: #1a1814; stroke: #1a1814; stroke-width: 0.8"/>
      </g>
     </g>
     <g id="text_2">
      <text style="font-size: 9px; font-family: 'IBM Plex Sans', 'Helvetica Neue', 'Arial', 'DejaVu Sans', sans-serif; text-anchor: middle; fill: #6b655c" x="213.941912" y="290.98" transform="rotate(-0 213.941912 290.98)">1990</text>
     </g>
    </g>
    <g id="xtick_3">
     <g id="line2d_3">
      <g>
       <use xlink:href="#md47870ecce" x="326.64674" y="276.82" style="fill: #1a1814; stroke: #1a1814; stroke-width: 0.8"/>
      </g>
     </g>
     <g id="text_3">
      <text style="font-size: 9px; font-family: 'IBM Plex Sans', 'Helvetica Neue', 'Arial', 'DejaVu Sans', sans-serif; text-anchor: middle; fill: #6b655c" x="326.64674" y="290.98" transform="rotate(-0 326.64674 290.98)">2000</text>
     </g>
    </g>
    <g id="xtick_4">
     <g id="line2d_4">
      <g>
       <use xlink:href="#md47870ecce" x="439.38243" y="276.82" style="fill: #1a1814; stroke: #1a1814; stroke-width: 0.8"/>
      </g>
     </g>
     <g id="text_4">
      <text style="font-size: 9px; font-family: 'IBM Plex Sans', 'Helvetica Neue', 'Arial', 'DejaVu Sans', sans-serif; text-anchor: middle; fill: #6b655c" x="439.38243" y="290.98" transform="rotate(-0 439.38243 290.98)">2010</text>
     </g>
    </g>
    <g id="xtick_5">
     <g id="line2d_5">
      <g>
       <use xlink:href="#md47870ecce" x="552.087258" y="276.82" style="fill: #1a1814; stroke: #1a1814; stroke-width: 0.8"/>
      </g>
     </g>
     <g id="text_5">
      <text style="font-size: 9px; font-family: 'IBM Plex Sans', 'Helvetica Neue', 'Arial', 'DejaVu Sans', sans-serif; text-anchor: middle; fill: #6b655c" x="552.087258" y="290.98" transform="rotate(-0 552.087258 290.98)">2020</text>
     </g>
    </g>
   </g>
   <g id="matplotlib.axis_2">
    <g id="ytick_1">
     <g id="line2d_6">
      <defs>
       <path id="mb6984e2430" d="M 0 0 
L -4 0 
" style="stroke: #1a1814; stroke-width: 0.8"/>
      </defs>
      <g>
       <use xlink:href="#mb6984e2430" x="33.834844" y="233.218838" style="fill: #1a1814; stroke: #1a1814; stroke-width: 0.8"/>
      </g>
     </g>
     <g id="text_6">
      <text style="font-size: 9px; font-family: 'IBM Plex Sans', 'Helvetica Neue', 'Arial', 'DejaVu Sans', sans-serif; text-anchor: end; fill: #6b655c" x="26.334844" y="236.548838" transform="rotate(-0 26.334844 236.548838)">-10%</text>
     </g>
    </g>
    <g id="ytick_2">
     <g id="line2d_7">
      <g>
       <use xlink:href="#mb6984e2430" x="33.834844" y="187.576626" style="fill: #1a1814; stroke: #1a1814; stroke-width: 0.8"/>
      </g>
     </g>
     <g id="text_7">
      <text style="font-size: 9px; font-family: 'IBM Plex Sans', 'Helvetica Neue', 'Arial', 'DejaVu Sans', sans-serif; text-anchor: end; fill: #6b655c" x="26.334844" y="190.906626" transform="rotate(-0 26.334844 190.906626)">0%</text>
     </g>
    </g>
    <g id="ytick_3">
     <g id="line2d_8">
      <g>
       <use xlink:href="#mb6984e2430" x="33.834844" y="141.934415" style="fill: #1a1814; stroke: #1a1814; stroke-width: 0.8"/>
      </g>
     </g>
     <g id="text_8">
      <text style="font-size: 9px; font-family: 'IBM Plex Sans', 'Helvetica Neue', 'Arial', 'DejaVu Sans', sans-serif; text-anchor: end; fill: #6b655c" x="26.334844" y="145.264415" transform="rotate(-0 26.334844 145.264415)">10%</text>
     </g>
    </g>
    <g id="ytick_4">
     <g id="line2d_9">
      <g>
       <use xlink:href="#mb6984e2430" x="33.834844" y="96.292203" style="fill: #1a1814; stroke: #1a1814; stroke-width: 0.8"/>
      </g>
     </g>
     <g id="text_9">
      <text style="font-size: 9px; font-family: 'IBM Plex Sans', 'Helvetica Neue', 'Arial', 'DejaVu Sans', sans-serif; text-anchor: end; fill: #6b655c" x="26.334844" y="99.622203" transform="rotate(-0 26.334844 99.622203)">20%</text>
     </g>
    </g>
    <g id="ytick_5">
     <g id="line2d_10">
      <g>
       <use xlink:href="#mb6984e2430" x="33.834844" y="50.649991" style="fill: #1a1814; stroke: #1a1814; stroke-width: 0.8"/>
      </g>
     </g>
     <g id="text_10">
      <text style="font-size: 9px; font-family: 'IBM Plex Sans', 'Helvetica Neue', 'Arial', 'DejaVu Sans', sans-serif; text-anchor: end; fill: #6b655c" x="26.334844" y="53.979991" transform="rotate(-0 26.334844 53.979991)">30%</text>
     </g>
    </g>
   </g>
   <g id="line2d_11">
    <path d="M 61.734844 107.519699 
L 64.574067 82.940436 
L 67.413291 96.337371 
L 70.190792 81.028805 
L 72.999154 56.962654 
L 75.838378 92.825706 
L 78.677601 93.845404 
L 81.455103 128.788498 
L 84.263465 149.474179 
L 87.102688 141.328404 
L 89.941912 116.841348 
L 92.719413 108.014022 
L 95.527776 79.09628 
L 98.366999 61.452367 
L 101.206223 71.172763 
L 104.014585 78.57837 
L 106.822947 96.07549 
L 109.662171 131.984571 
L 112.501394 157.845094 
L 115.278896 160.857198 
L 118.087258 181.458905 
L 120.926481 178.474479 
L 123.765705 201.634387 
L 126.543206 248.215988 
L 129.351568 228.15188 
L 132.190792 188.964832 
L 135.030015 138.741338 
L 137.807517 82.738263 
L 140.615879 104.264926 
L 143.455103 152.268313 
L 146.294326 172.117472 
L 149.102688 170.839916 
L 151.911051 164.153877 
L 154.750274 158.12706 
L 157.589498 154.115397 
L 160.366999 154.395265 
L 163.175361 148.696871 
L 166.014585 139.879084 
L 168.853808 143.319057 
L 171.63131 138.84947 
L 174.439672 135.565921 
L 177.278896 128.060376 
L 180.118119 115.7912 
L 182.89562 114.549088 
L 185.703983 107.784066 
L 188.543206 101.79344 
L 191.38243 93.963587 
L 194.190792 82.263392 
L 196.999154 81.761012 
L 199.838378 68.062559 
L 205.455103 82.167483 
L 208.263465 86.343709 
L 211.102688 117.421998 
L 213.941912 135.630488 
L 219.527776 185.042311 
L 222.366999 203.441352 
L 225.206223 213.695603 
L 227.983724 213.708587 
L 230.792086 211.31643 
L 233.63131 198.228834 
L 236.470533 194.195129 
L 239.278896 194.121386 
L 242.087258 193.708566 
L 244.926481 200.230166 
L 247.765705 201.438909 
L 250.543206 200.769773 
L 253.351568 202.006885 
L 256.190792 198.794374 
L 259.030015 194.591675 
L 261.807517 195.218669 
L 264.615879 195.117084 
L 267.455103 199.795801 
L 270.294326 193.077861 
L 273.071827 189.07652 
L 278.719413 178.067832 
L 281.558637 183.742681 
L 284.366999 184.20214 
L 287.175361 182.238356 
L 290.014585 175.684511 
L 292.853808 168.159224 
L 295.63131 154.758414 
L 298.439672 144.425128 
L 301.278896 139.673678 
L 304.118119 133.872245 
L 306.89562 131.284002 
L 309.703983 129.236957 
L 312.543206 133.614801 
L 315.38243 135.330861 
L 318.159931 131.261633 
L 320.968293 128.422871 
L 323.807517 107.612698 
L 326.64674 90.088069 
L 329.455103 75.604458 
L 332.263465 71.490906 
L 335.102688 85.026568 
L 337.941912 97.079138 
L 340.719413 122.384983 
L 346.366999 165.967327 
L 349.206223 175.520736 
L 351.983724 173.092261 
L 354.792086 165.547766 
L 357.63131 154.332817 
L 360.470533 155.982483 
L 363.248034 165.469998 
L 366.056397 172.038284 
L 368.89562 160.868379 
L 371.734844 156.695681 
L 374.543206 138.623795 
L 377.351568 107.835693 
L 380.190792 109.964448 
L 383.030015 97.368159 
L 385.807517 87.983981 
L 388.615879 106.298486 
L 391.455103 106.873375 
L 394.294326 121.016847 
L 397.071827 149.608598 
L 399.88019 159.917508 
L 402.719413 179.208711 
L 405.558637 185.594127 
L 408.336138 188.156862 
L 411.1445 194.95436 
L 413.983724 199.820793 
L 416.822947 210.447452 
L 419.63131 226.29333 
L 422.439672 239.48784 
L 425.278896 236.193247 
L 428.118119 233.668823 
L 430.89562 232.958398 
L 436.543206 216.184183 
L 439.38243 210.900002 
L 442.159931 194.047366 
L 444.968293 186.075659 
L 447.807517 191.314205 
L 450.64674 199.793061 
L 453.424241 204.95785 
L 456.232604 204.361547 
L 459.071827 201.823158 
L 461.911051 192.638992 
L 464.719413 180.48613 
L 467.527776 171.211572 
L 470.366999 156.249075 
L 473.206223 142.684208 
L 475.983724 125.676793 
L 478.792086 114.690982 
L 481.63131 117.688377 
L 484.470533 119.536933 
L 487.248034 122.722904 
L 490.056397 131.554663 
L 492.89562 136.115383 
L 495.734844 137.139495 
L 498.512345 136.695835 
L 501.320707 129.449514 
L 504.159931 125.817177 
L 506.999154 128.050981 
L 509.807517 142.671335 
L 512.615879 153.069973 
L 515.455103 160.529661 
L 518.294326 167.505536 
L 521.071827 165.303749 
L 523.88019 167.644569 
L 526.719413 165.115112 
L 532.336138 139.395974 
L 535.1445 139.060276 
L 537.983724 155.004031 
L 540.822947 172.271057 
L 543.600449 193.659256 
L 546.408811 200.416069 
L 549.248034 190.555496 
L 552.087258 193.746169 
L 554.89562 196.383464 
L 557.703983 205.050342 
L 560.543206 205.917591 
L 563.38243 201.56188 
L 566.159931 188.580286 
L 568.968293 177.585115 
L 571.807517 159.203222 
L 574.64674 142.338596 
L 577.424241 104.703406 
L 580.232604 125.498598 
L 583.071827 151.95955 
L 585.911051 181.224867 
L 588.688552 205.409116 
L 591.496914 188.981827 
L 594.336138 179.120025 
L 597.175361 154.905779 
L 599.983724 168.245083 
L 602.792086 172.108777 
L 605.63131 177.837903 
L 608.470533 182.264447 
L 611.248034 188.811239 
L 614.056397 185.522651 
L 616.89562 180.10523 
L 619.734844 188.417512 
L 619.734844 188.417512 
" clip-path="url(#pbfcdbd639f)" style="fill: none; stroke: #6e1f1f; stroke-width: 1.1; stroke-linecap: round"/>
   </g>
   <g id="line2d_12">
    <path d="M 64.574067 93.998624 
L 67.413291 110.375116 
L 70.190792 91.812238 
L 72.999154 89.369055 
L 75.838378 55.103818 
L 78.677601 59.502694 
L 81.455103 42.343686 
L 84.263465 39.543506 
L 87.102688 66.611489 
L 89.941912 82.183065 
L 92.719413 104.333067 
L 95.527776 124.980212 
L 98.366999 118.658519 
L 101.206223 110.240352 
L 104.014585 145.618051 
L 106.822947 141.031135 
L 109.662171 166.807141 
L 112.501394 202.92847 
L 115.278896 164.920204 
L 118.087258 175.233075 
L 120.926481 175.075893 
L 123.765705 265.48 
L 126.543206 223.234604 
L 129.351568 240.814919 
L 132.190792 194.650745 
L 135.030015 53.36372 
L 137.807517 148.896786 
L 140.615879 129.859531 
L 143.455103 175.313396 
L 146.294326 175.240894 
L 149.102688 171.221501 
L 151.911051 166.345496 
L 154.750274 167.237293 
L 157.589498 170.483895 
L 160.366999 169.492323 
L 163.175361 172.87951 
L 166.014585 175.16123 
L 168.853808 171.635249 
L 171.63131 173.272045 
L 174.439672 172.027701 
L 177.278896 168.968447 
L 180.118119 166.321675 
L 182.89562 164.03206 
L 185.703983 160.375456 
L 188.543206 160.423563 
L 191.38243 156.825073 
L 194.190792 154.032939 
L 196.999154 152.976242 
L 199.838378 148.621456 
L 202.677601 140.509299 
L 205.455103 121.138312 
L 208.263465 106.504083 
L 213.941912 51.474009 
L 216.719413 38.68 
L 219.527776 56.810714 
L 222.366999 104.606801 
L 225.206223 147.932183 
L 227.983724 182.484747 
L 230.792086 191.538709 
L 233.63131 178.732392 
L 236.470533 179.509309 
L 239.278896 178.986313 
L 242.087258 175.290236 
L 244.926481 179.534161 
L 247.765705 180.865252 
L 250.543206 179.62958 
L 253.351568 180.465302 
L 256.190792 178.475965 
L 259.030015 173.964962 
L 261.807517 171.192487 
L 264.615879 174.802295 
L 267.455103 180.485389 
L 270.294326 178.594321 
L 273.071827 179.760392 
L 275.88019 173.95346 
L 278.719413 168.616842 
L 281.558637 170.369513 
L 284.366999 169.94717 
L 287.175361 171.756257 
L 290.014585 171.992564 
L 292.853808 167.212028 
L 295.63131 160.853714 
L 298.439672 152.63336 
L 301.278896 146.833085 
L 306.89562 141.404026 
L 309.703983 139.791927 
L 315.38243 146.478644 
L 320.968293 144.030027 
L 323.807517 145.123767 
L 326.64674 138.587343 
L 329.455103 145.856952 
L 332.263465 152.79624 
L 335.102688 150.083636 
L 337.941912 154.388082 
L 340.719413 154.360091 
L 343.527776 155.474578 
L 346.366999 160.065587 
L 349.206223 164.387342 
L 351.983724 164.580423 
L 354.792086 165.729847 
L 357.63131 165.495843 
L 360.470533 167.090894 
L 363.248034 171.267899 
L 366.056397 171.177734 
L 368.89562 161.105892 
L 371.734844 160.101519 
L 374.543206 148.761299 
L 377.351568 133.589789 
L 380.190792 137.175768 
L 383.030015 126.130282 
L 385.807517 116.920446 
L 388.615879 119.050473 
L 391.455103 109.122899 
L 394.294326 106.871538 
L 397.071827 110.635675 
L 399.88019 114.96636 
L 402.719413 126.106569 
L 405.558637 134.127119 
L 408.336138 146.30188 
L 411.1445 160.327545 
L 413.983724 167.799092 
L 416.822947 181.164042 
L 419.63131 199.017841 
L 422.439672 213.391256 
L 425.278896 222.404959 
L 428.118119 224.557847 
L 430.89562 235.638293 
L 433.703983 235.593906 
L 436.543206 233.229725 
L 439.38243 234.846492 
L 442.159931 219.376133 
L 444.968293 205.013558 
L 447.807517 207.496454 
L 450.64674 215.518331 
L 453.424241 219.480214 
L 456.232604 217.468668 
L 459.071827 209.206608 
L 461.911051 199.634788 
L 464.719413 190.804191 
L 470.366999 175.449041 
L 473.206223 164.642417 
L 475.983724 148.995955 
L 478.792086 144.882889 
L 481.63131 145.797576 
L 484.470533 142.815143 
L 487.248034 142.845977 
L 490.056397 146.591783 
L 492.89562 149.933158 
L 495.734844 151.629161 
L 501.320707 141.917872 
L 504.159931 136.398819 
L 506.999154 129.499959 
L 509.807517 129.294528 
L 512.615879 129.728068 
L 515.455103 132.97856 
L 518.294326 132.781697 
L 521.071827 126.391325 
L 523.88019 129.146528 
L 526.719413 126.225077 
L 529.558637 127.347728 
L 532.336138 136.516167 
L 537.983724 165.166269 
L 540.822947 172.977266 
L 543.600449 183.723373 
L 546.408811 181.265466 
L 549.248034 172.949843 
L 552.087258 169.572652 
L 554.89562 170.122995 
L 557.703983 164.523429 
L 560.543206 157.644765 
L 563.38243 155.236745 
L 566.159931 126.858112 
L 568.968293 113.133294 
L 571.807517 106.643652 
L 574.64674 93.598981 
L 577.424241 87.621576 
L 580.232604 131.54356 
L 583.071827 164.19304 
L 585.911051 183.011678 
L 588.688552 208.658169 
L 591.496914 188.940568 
L 594.336138 176.77577 
L 597.175361 162.366899 
L 599.983724 166.840181 
L 602.792086 165.960001 
L 605.63131 164.273914 
L 608.470533 171.937083 
L 611.248034 176.853944 
L 614.056397 180.401073 
L 616.89562 177.790207 
L 619.734844 185.365751 
L 619.734844 185.365751 
" clip-path="url(#pbfcdbd639f)" style="fill: none; stroke: #2e4a3f; stroke-width: 1.1; stroke-linecap: round"/>
   </g>
   <g id="line2d_13">
    <path d="M 326.64674 276.82 
L 326.64674 27.34 
" clip-path="url(#pbfcdbd639f)" style="fill: none; stroke-dasharray: 2.96,1.28; stroke-dashoffset: 0; stroke: #948d82; stroke-width: 0.8"/>
   </g>
   <g id="patch_3">
    <path d="M 33.834844 276.82 
L 33.834844 27.34 
" style="fill: none; stroke: #1a1814; stroke-linejoin: miter; stroke-linecap: square"/>
   </g>
   <g id="patch_4">
    <path d="M 33.834844 276.82 
L 647.634844 276.82 
" style="fill: none; stroke: #1a1814; stroke-linejoin: miter; stroke-linecap: square"/>
   </g>
   <g id="text_11">
    <text style="font-size: 8px; font-family: 'IBM Plex Sans', 'Helvetica Neue', 'Arial', 'DejaVu Sans', sans-serif; text-anchor: start; fill: #6b655c" x="331.337631" y="51.375494" transform="rotate(-0 331.337631 51.375494)">Zillow coverage starts here →</text>
   </g>
   <g id="text_12">
    <text style="font-weight: 600; font-size: 11.5px; font-family: 'IBM Plex Sans', 'Helvetica Neue', 'Arial', 'DejaVu Sans', sans-serif; text-anchor: middle; fill: #1a1814" x="340.734844" y="12.34" transform="rotate(-0 340.734844 12.34)">Long-History Sanity Check: FHFA HPI YoY Return, 1975–2026 (coarser than the Zillow series above)</text>
   </g>
   <g id="legend_1">
    <g id="line2d_14">
     <path d="M 42.834844 40.44 
L 52.834844 40.44 
L 62.834844 40.44 
" style="fill: none; stroke: #6e1f1f; stroke-width: 1.1; stroke-linecap: round"/>
    </g>
    <g id="text_13">
     <text style="font-size: 10px; font-family: 'IBM Plex Sans', 'Helvetica Neue', 'Arial', 'DejaVu Sans', sans-serif; text-anchor: start; fill: #3c3833" x="70.834844" y="43.94" transform="rotate(-0 70.834844 43.94)">San Francisco (FHFA, quarterly, NSA)</text>
    </g>
    <g id="line2d_15">
     <path d="M 42.834844 55.04 
L 52.834844 55.04 
L 62.834844 55.04 
" style="fill: none; stroke: #2e4a3f; stroke-width: 1.1; stroke-linecap: round"/>
    </g>
    <g id="text_14">
     <text style="font-size: 10px; font-family: 'IBM Plex Sans', 'Helvetica Neue', 'Arial', 'DejaVu Sans', sans-serif; text-anchor: start; fill: #3c3833" x="70.834844" y="58.54" transform="rotate(-0 70.834844 58.54)">Seattle (FHFA, quarterly, NSA)</text>
    </g>
   </g>
  </g>
 </g>
 <defs>
  <clipPath id="pbfcdbd639f">
   <rect x="33.834844" y="27.34" width="613.8" height="249.48"/>
  </clipPath>
 </defs>
</svg>
