<?xml version="1.0" encoding="utf-8" standalone="no"?>
<!DOCTYPE svg PUBLIC "-//W3C//DTD SVG 1.1//EN"
  "http://www.w3.org/Graphics/SVG/1.1/DTD/svg11.dtd">
<svg xmlns:xlink="http://www.w3.org/1999/xlink" width="718.963594pt" height="367.43125pt" viewBox="0 0 718.963594 367.43125" xmlns="http://www.w3.org/2000/svg" version="1.1">
 <metadata>
  <rdf:RDF xmlns:dc="http://purl.org/dc/elements/1.1/" xmlns:cc="http://creativecommons.org/ns#" xmlns:rdf="http://www.w3.org/1999/02/22-rdf-syntax-ns#">
   <cc:Work>
    <dc:type rdf:resource="http://purl.org/dc/dcmitype/StillImage"/>
    <dc:date>2026-07-11T18:10:48.189912</dc:date>
    <dc:format>image/svg+xml</dc:format>
    <dc:creator>
     <cc:Agent>
      <dc:title>Matplotlib v3.10.9, https://matplotlib.org/</dc:title>
     </cc:Agent>
    </dc:creator>
   </cc:Work>
  </rdf:RDF>
 </metadata>
 <defs>
  <style type="text/css">*{stroke-linejoin: round; stroke-linecap: butt}</style>
 </defs>
 <g id="figure_1">
  <g id="patch_1">
   <path d="M 0 367.43125 
L 718.963594 367.43125 
L 718.963594 0 
L 0 0 
L 0 367.43125 
z
" style="fill: none"/>
  </g>
  <g id="axes_1">
   <g id="patch_2">
    <path d="M 45.763594 332.47125 
L 715.363594 332.47125 
L 715.363594 27.55125 
L 45.763594 27.55125 
L 45.763594 332.47125 
z
" style="fill: none"/>
   </g>
   <g id="matplotlib.axis_1">
    <g id="xtick_1">
     <g id="line2d_1">
      <defs>
       <path id="me1e584a6bd" d="M 0 0 
L 0 4 
" style="stroke: #1a1814; stroke-width: 0.8"/>
      </defs>
      <g>
       <use xlink:href="#me1e584a6bd" x="102.251662" y="332.47125" style="fill: #1a1814; stroke: #1a1814; stroke-width: 0.8"/>
      </g>
     </g>
     <g id="text_1">
      <text style="font-size: 9px; font-family: 'IBM Plex Sans', 'Helvetica Neue', 'Arial', 'DejaVu Sans', sans-serif; text-anchor: middle; fill: #6b655c" x="102.251662" y="346.63125" transform="rotate(-0 102.251662 346.63125)">2004</text>
     </g>
    </g>
    <g id="xtick_2">
     <g id="line2d_2">
      <g>
       <use xlink:href="#me1e584a6bd" x="206.244944" y="332.47125" style="fill: #1a1814; stroke: #1a1814; stroke-width: 0.8"/>
      </g>
     </g>
     <g id="text_2">
      <text style="font-size: 9px; font-family: 'IBM Plex Sans', 'Helvetica Neue', 'Arial', 'DejaVu Sans', sans-serif; text-anchor: middle; fill: #6b655c" x="206.244944" y="346.63125" transform="rotate(-0 206.244944 346.63125)">2008</text>
     </g>
    </g>
    <g id="xtick_3">
     <g id="line2d_3">
      <g>
       <use xlink:href="#me1e584a6bd" x="310.238226" y="332.47125" style="fill: #1a1814; stroke: #1a1814; stroke-width: 0.8"/>
      </g>
     </g>
     <g id="text_3">
      <text style="font-size: 9px; font-family: 'IBM Plex Sans', 'Helvetica Neue', 'Arial', 'DejaVu Sans', sans-serif; text-anchor: middle; fill: #6b655c" x="310.238226" y="346.63125" transform="rotate(-0 310.238226 346.63125)">2012</text>
     </g>
    </g>
    <g id="xtick_4">
     <g id="line2d_4">
      <g>
       <use xlink:href="#me1e584a6bd" x="414.231508" y="332.47125" style="fill: #1a1814; stroke: #1a1814; stroke-width: 0.8"/>
      </g>
     </g>
     <g id="text_4">
      <text style="font-size: 9px; font-family: 'IBM Plex Sans', 'Helvetica Neue', 'Arial', 'DejaVu Sans', sans-serif; text-anchor: middle; fill: #6b655c" x="414.231508" y="346.63125" transform="rotate(-0 414.231508 346.63125)">2016</text>
     </g>
    </g>
    <g id="xtick_5">
     <g id="line2d_5">
      <g>
       <use xlink:href="#me1e584a6bd" x="518.224789" y="332.47125" style="fill: #1a1814; stroke: #1a1814; stroke-width: 0.8"/>
      </g>
     </g>
     <g id="text_5">
      <text style="font-size: 9px; font-family: 'IBM Plex Sans', 'Helvetica Neue', 'Arial', 'DejaVu Sans', sans-serif; text-anchor: middle; fill: #6b655c" x="518.224789" y="346.63125" transform="rotate(-0 518.224789 346.63125)">2020</text>
     </g>
    </g>
    <g id="xtick_6">
     <g id="line2d_6">
      <g>
       <use xlink:href="#me1e584a6bd" x="622.218071" y="332.47125" style="fill: #1a1814; stroke: #1a1814; stroke-width: 0.8"/>
      </g>
     </g>
     <g id="text_6">
      <text style="font-size: 9px; font-family: 'IBM Plex Sans', 'Helvetica Neue', 'Arial', 'DejaVu Sans', sans-serif; text-anchor: middle; fill: #6b655c" x="622.218071" y="346.63125" transform="rotate(-0 622.218071 346.63125)">2024</text>
     </g>
    </g>
    <g id="text_7">
     <text style="font-size: 10px; font-family: 'IBM Plex Sans', 'Helvetica Neue', 'Arial', 'DejaVu Sans', sans-serif; text-anchor: middle; fill: #1a1814" x="380.563594" y="361.83125" transform="rotate(-0 380.563594 361.83125)">Year</text>
    </g>
   </g>
   <g id="matplotlib.axis_2">
    <g id="ytick_1">
     <g id="line2d_7">
      <defs>
       <path id="m00c5e07fe3" d="M 0 0 
L -4 0 
" style="stroke: #1a1814; stroke-width: 0.8"/>
      </defs>
      <g>
       <use xlink:href="#m00c5e07fe3" x="45.763594" y="323.389627" style="fill: #1a1814; stroke: #1a1814; stroke-width: 0.8"/>
      </g>
     </g>
     <g id="text_8">
      <text style="font-size: 9px; font-family: 'IBM Plex Sans', 'Helvetica Neue', 'Arial', 'DejaVu Sans', sans-serif; text-anchor: end; fill: #6b655c" x="38.263594" y="326.719627" transform="rotate(-0 38.263594 326.719627)">0%</text>
     </g>
    </g>
    <g id="ytick_2">
     <g id="line2d_8">
      <g>
       <use xlink:href="#m00c5e07fe3" x="45.763594" y="277.701162" style="fill: #1a1814; stroke: #1a1814; stroke-width: 0.8"/>
      </g>
     </g>
     <g id="text_9">
      <text style="font-size: 9px; font-family: 'IBM Plex Sans', 'Helvetica Neue', 'Arial', 'DejaVu Sans', sans-serif; text-anchor: end; fill: #6b655c" x="38.263594" y="281.031162" transform="rotate(-0 38.263594 281.031162)">2%</text>
     </g>
    </g>
    <g id="ytick_3">
     <g id="line2d_9">
      <g>
       <use xlink:href="#m00c5e07fe3" x="45.763594" y="232.012697" style="fill: #1a1814; stroke: #1a1814; stroke-width: 0.8"/>
      </g>
     </g>
     <g id="text_10">
      <text style="font-size: 9px; font-family: 'IBM Plex Sans', 'Helvetica Neue', 'Arial', 'DejaVu Sans', sans-serif; text-anchor: end; fill: #6b655c" x="38.263594" y="235.342697" transform="rotate(-0 38.263594 235.342697)">4%</text>
     </g>
    </g>
    <g id="ytick_4">
     <g id="line2d_10">
      <g>
       <use xlink:href="#m00c5e07fe3" x="45.763594" y="186.324232" style="fill: #1a1814; stroke: #1a1814; stroke-width: 0.8"/>
      </g>
     </g>
     <g id="text_11">
      <text style="font-size: 9px; font-family: 'IBM Plex Sans', 'Helvetica Neue', 'Arial', 'DejaVu Sans', sans-serif; text-anchor: end; fill: #6b655c" x="38.263594" y="189.654232" transform="rotate(-0 38.263594 189.654232)">6%</text>
     </g>
    </g>
    <g id="ytick_5">
     <g id="line2d_11">
      <g>
       <use xlink:href="#m00c5e07fe3" x="45.763594" y="140.635767" style="fill: #1a1814; stroke: #1a1814; stroke-width: 0.8"/>
      </g>
     </g>
     <g id="text_12">
      <text style="font-size: 9px; font-family: 'IBM Plex Sans', 'Helvetica Neue', 'Arial', 'DejaVu Sans', sans-serif; text-anchor: end; fill: #6b655c" x="38.263594" y="143.965767" transform="rotate(-0 38.263594 143.965767)">8%</text>
     </g>
    </g>
    <g id="ytick_6">
     <g id="line2d_12">
      <g>
       <use xlink:href="#m00c5e07fe3" x="45.763594" y="94.947302" style="fill: #1a1814; stroke: #1a1814; stroke-width: 0.8"/>
      </g>
     </g>
     <g id="text_13">
      <text style="font-size: 9px; font-family: 'IBM Plex Sans', 'Helvetica Neue', 'Arial', 'DejaVu Sans', sans-serif; text-anchor: end; fill: #6b655c" x="38.263594" y="98.277302" transform="rotate(-0 38.263594 98.277302)">10%</text>
     </g>
    </g>
    <g id="ytick_7">
     <g id="line2d_13">
      <g>
       <use xlink:href="#m00c5e07fe3" x="45.763594" y="49.258837" style="fill: #1a1814; stroke: #1a1814; stroke-width: 0.8"/>
      </g>
     </g>
     <g id="text_14">
      <text style="font-size: 9px; font-family: 'IBM Plex Sans', 'Helvetica Neue', 'Arial', 'DejaVu Sans', sans-serif; text-anchor: end; fill: #6b655c" x="38.263594" y="52.588837" transform="rotate(-0 38.263594 52.588837)">12%</text>
     </g>
    </g>
    <g id="text_15">
     <text style="font-size: 10px; font-family: 'IBM Plex Sans', 'Helvetica Neue', 'Arial', 'DejaVu Sans', sans-serif; text-anchor: middle; fill: #1a1814" x="11" y="180.01125" transform="rotate(-90 11 180.01125)">Rolling SD of YoY return</text>
    </g>
   </g>
   <g id="line2d_14">
    <path d="M 76.199957 165.603082 
L 78.406523 169.921216 
L 80.399549 177.372721 
L 82.606114 188.430561 
L 89.083451 229.138119 
L 93.496581 253.497897 
L 95.631967 264.501782 
L 97.838532 273.942565 
L 99.973918 280.851603 
L 102.180483 284.224826 
L 104.387048 284.93224 
L 106.451254 284.169958 
L 110.793205 281.331891 
L 112.99977 279.501479 
L 115.135156 275.89733 
L 117.341721 269.969504 
L 119.548286 262.932735 
L 121.683672 255.537108 
L 126.025623 241.316562 
L 132.43178 220.424958 
L 134.638345 214.915435 
L 136.773731 210.296903 
L 138.980296 206.823562 
L 141.115682 204.974654 
L 143.322247 205.501493 
L 145.528812 208.453609 
L 147.664198 213.587649 
L 149.870763 220.248243 
L 152.006148 228.443012 
L 156.419279 246.865591 
L 158.412305 254.442645 
L 160.618871 258.390873 
L 162.754256 257.267127 
L 164.960821 249.906088 
L 167.096207 237.820163 
L 171.509337 209.194465 
L 175.851288 180.701897 
L 177.986674 167.79025 
L 180.193239 156.989982 
L 182.399804 148.935882 
L 184.392831 142.851719 
L 186.599396 138.148023 
L 188.734782 135.106496 
L 190.941347 134.147189 
L 193.076733 135.351387 
L 195.283298 138.324066 
L 197.489863 142.906342 
L 199.625249 149.175045 
L 201.831814 157.22743 
L 206.173765 175.496356 
L 210.444536 192.444229 
L 214.786487 209.24608 
L 216.993052 215.911579 
L 219.128438 220.84363 
L 221.335003 224.137923 
L 223.541568 225.908481 
L 225.676954 225.817353 
L 227.883519 224.324257 
L 230.018905 222.151214 
L 232.22547 220.754623 
L 234.432035 220.035543 
L 236.425062 219.698623 
L 238.631627 219.551571 
L 240.767012 219.833685 
L 242.973578 221.138682 
L 245.108963 223.889697 
L 247.315528 228.307446 
L 249.522094 233.95353 
L 251.657479 240.837718 
L 255.99943 256.378226 
L 258.205995 260.36403 
L 260.41256 257.401347 
L 262.405587 249.040103 
L 264.612152 237.635892 
L 268.954103 210.964011 
L 271.089489 197.93037 
L 273.296054 186.949764 
L 275.502619 177.345465 
L 277.638005 169.030703 
L 279.84457 162.946264 
L 281.979956 160.444754 
L 284.186521 161.160782 
L 286.393086 164.574744 
L 288.386113 169.884243 
L 290.592678 176.698546 
L 292.728064 184.769255 
L 299.27658 210.908232 
L 301.483145 218.755591 
L 303.61853 226.791637 
L 305.825096 233.593949 
L 307.960481 237.629037 
L 310.167046 238.793447 
L 314.437818 236.90879 
L 316.644383 236.575623 
L 318.779769 237.474801 
L 320.986334 240.021488 
L 323.121719 243.136852 
L 325.328285 245.067298 
L 327.53485 244.490037 
L 329.670235 240.504312 
L 331.876801 230.558184 
L 334.012186 214.594136 
L 336.218752 194.629883 
L 338.425317 172.49222 
L 340.418343 150.437455 
L 344.760294 108.765318 
L 346.966859 89.847191 
L 349.102245 72.874874 
L 351.30881 58.415908 
L 353.515375 48.310445 
L 355.650761 42.558868 
L 357.857326 41.41125 
L 359.992712 44.196391 
L 362.199277 50.544071 
L 364.405842 60.531502 
L 366.398869 73.456445 
L 368.605434 89.599513 
L 370.74082 108.30614 
L 377.289336 170.345156 
L 379.495901 188.058094 
L 381.631287 202.121319 
L 383.837852 210.96856 
L 385.973237 215.29287 
L 388.179803 215.901403 
L 390.386368 213.907791 
L 392.379394 211.005157 
L 394.58596 208.171438 
L 396.721345 205.98813 
L 398.92791 205.46341 
L 401.063296 207.760392 
L 403.269861 213.418735 
L 405.476426 221.247026 
L 409.818377 239.595512 
L 411.953763 249.026574 
L 414.160328 258.07767 
L 418.431099 274.01615 
L 422.77305 288.677371 
L 424.979616 294.079871 
L 427.115001 294.748347 
L 429.321566 290.461464 
L 431.528132 283.691597 
L 433.663517 275.186978 
L 438.005468 256.555723 
L 440.212033 248.326135 
L 444.411625 234.231637 
L 446.61819 228.339826 
L 448.753576 223.679683 
L 450.960141 220.471453 
L 453.095527 218.875302 
L 455.302092 218.962062 
L 457.508657 220.69952 
L 459.644043 223.932974 
L 461.850608 228.471969 
L 466.192559 239.350934 
L 468.399124 245.210825 
L 470.392151 251.218091 
L 472.598716 256.758397 
L 474.734101 260.894573 
L 476.940667 262.022959 
L 479.076052 260.58243 
L 483.489183 254.992341 
L 485.624568 253.29017 
L 487.831134 253.111655 
L 489.966519 254.461405 
L 492.173084 256.488933 
L 494.37965 258.15542 
L 496.372676 258.295638 
L 498.579241 256.357363 
L 500.714627 251.946901 
L 502.921192 244.90041 
L 507.263143 227.722743 
L 509.469708 220.217512 
L 511.605094 213.806764 
L 513.811659 208.310072 
L 515.947045 204.149146 
L 518.15361 201.623211 
L 520.360175 200.928902 
L 522.424381 202.096166 
L 524.630946 204.990786 
L 526.766332 209.226274 
L 528.972897 214.997197 
L 531.108283 222.1735 
L 533.314848 230.714718 
L 535.521413 240.502396 
L 539.863364 261.442736 
L 541.99875 269.33502 
L 544.205315 272.014854 
L 546.41188 268.763154 
L 548.404907 261.867641 
L 550.611472 253.768622 
L 552.746858 244.856227 
L 554.953423 234.115693 
L 559.295374 206.870901 
L 561.501939 195.437545 
L 563.637325 188.66664 
L 565.84389 186.262245 
L 567.979275 186.907712 
L 570.185841 189.359089 
L 572.392406 192.219361 
L 574.385432 194.145786 
L 576.591998 194.38985 
L 578.727383 194.322099 
L 580.933948 196.31986 
L 583.069334 201.973194 
L 587.482464 219.712136 
L 589.61785 225.045899 
L 591.824415 224.582367 
L 593.959801 217.834358 
L 596.166366 206.058331 
L 598.372931 188.881007 
L 602.572523 141.27761 
L 604.707909 116.006488 
L 606.914474 94.333799 
L 609.04986 78.979265 
L 611.256425 71.284175 
L 613.46299 70.155728 
L 615.598376 73.0991 
L 617.804941 77.920852 
L 619.940326 83.549474 
L 622.146892 89.713573 
L 624.353457 97.181379 
L 626.417663 107.242002 
L 628.624228 121.115284 
L 632.966179 154.61277 
L 635.101565 169.133386 
L 637.30813 179.626415 
L 639.514695 186.14611 
L 641.650081 189.504442 
L 643.856646 190.947945 
L 645.992032 190.867943 
L 648.198597 189.705155 
L 650.405162 188.169405 
L 652.398189 188.35127 
L 654.604754 193.184226 
L 656.740139 203.384727 
L 658.946705 217.791016 
L 661.08209 233.903535 
L 663.288655 248.222307 
L 665.495221 256.981969 
L 667.630606 259.227754 
L 669.837171 258.046669 
L 671.972557 255.881383 
L 674.179122 253.819139 
L 676.385687 252.007634 
L 678.378714 250.778785 
L 680.585279 250.742079 
L 682.720665 252.505616 
L 684.92723 256.415089 
L 684.92723 256.415089 
" clip-path="url(#p712b52d05c)" style="fill: none; stroke: #6e1f1f; stroke-width: 1.4; stroke-linecap: round"/>
   </g>
   <g id="line2d_15">
    <path d="M 76.199957 301.098258 
L 78.406523 300.000009 
L 80.399549 299.366204 
L 82.606114 299.846607 
L 84.7415 300.785781 
L 86.948065 301.946516 
L 89.083451 303.212318 
L 93.496581 305.165927 
L 95.631967 305.867919 
L 97.838532 306.425805 
L 99.973918 306.756152 
L 102.180483 306.494028 
L 104.387048 305.341396 
L 108.657819 300.911217 
L 112.99977 295.726002 
L 115.135156 292.474652 
L 121.683672 281.962778 
L 126.025623 275.841893 
L 128.232188 273.122065 
L 130.438753 270.660876 
L 132.43178 268.978873 
L 138.980296 264.479719 
L 141.115682 262.684476 
L 143.322247 260.379412 
L 145.528812 257.093622 
L 149.870763 249.293954 
L 152.006148 245.756044 
L 154.212714 242.598618 
L 158.412305 238.719461 
L 160.618871 237.734646 
L 162.754256 237.181892 
L 164.960821 237.440116 
L 167.096207 238.510189 
L 169.302772 240.552449 
L 171.509337 243.86464 
L 173.644723 248.157585 
L 175.851288 253.199094 
L 177.986674 258.38337 
L 180.193239 263.11185 
L 182.399804 266.641545 
L 184.392831 268.657619 
L 186.599396 268.899646 
L 188.734782 267.149986 
L 190.941347 263.322446 
L 193.076733 257.258013 
L 195.283298 248.887567 
L 197.489863 239.395913 
L 203.967199 210.118095 
L 206.173765 201.114964 
L 208.38033 193.140699 
L 210.444536 186.169357 
L 216.993052 166.588192 
L 219.128438 160.507282 
L 225.676954 145.304975 
L 227.883519 141.576444 
L 230.018905 139.324365 
L 232.22547 137.973483 
L 234.432035 137.51357 
L 236.425062 137.853769 
L 238.631627 139.621454 
L 240.767012 142.638043 
L 242.973578 146.983733 
L 245.108963 152.528607 
L 247.315528 159.083485 
L 249.522094 167.118715 
L 251.657479 176.71655 
L 253.864044 187.339183 
L 258.205995 210.714117 
L 260.41256 223.887942 
L 262.405587 237.558964 
L 264.612152 250.272274 
L 266.747538 259.090971 
L 268.954103 262.117984 
L 271.089489 259.733202 
L 277.638005 246.732028 
L 279.84457 244.156294 
L 281.979956 242.92377 
L 284.186521 242.763387 
L 286.393086 243.282144 
L 288.386113 244.485745 
L 290.592678 246.476462 
L 292.728064 249.599743 
L 297.070014 257.125365 
L 299.27658 260.359137 
L 301.483145 263.085641 
L 303.61853 264.916799 
L 305.825096 265.894323 
L 307.960481 266.13248 
L 310.167046 265.74427 
L 312.373612 265.207052 
L 316.644383 263.671831 
L 318.779769 263.419315 
L 320.986334 265.157492 
L 323.121719 269.394835 
L 325.328285 274.677673 
L 327.53485 278.884822 
L 329.670235 279.829192 
L 331.876801 275.172296 
L 334.012186 265.097227 
L 336.218752 251.486937 
L 338.425317 235.950906 
L 346.966859 163.904574 
L 349.102245 147.469556 
L 351.30881 133.419764 
L 353.515375 121.775546 
L 355.650761 112.804682 
L 357.857326 106.434255 
L 359.992712 102.788124 
L 362.199277 101.661702 
L 364.405842 103.156623 
L 366.398869 107.542684 
L 368.605434 114.86075 
L 370.74082 125.398994 
L 372.947385 138.348348 
L 375.082771 153.384012 
L 377.289336 169.724118 
L 383.837852 221.100584 
L 385.973237 235.924577 
L 388.179803 248.28271 
L 390.386368 257.652789 
L 392.379394 263.552914 
L 394.58596 266.060954 
L 396.721345 266.061145 
L 398.92791 265.154485 
L 401.063296 264.808196 
L 403.269861 265.658452 
L 405.476426 267.694576 
L 407.611812 270.604301 
L 409.818377 273.884377 
L 411.953763 276.714542 
L 414.160328 278.697494 
L 416.366893 279.340064 
L 418.431099 278.902452 
L 420.637665 277.676486 
L 422.77305 275.876523 
L 424.979616 273.659737 
L 427.115001 271.17441 
L 429.321566 269.060381 
L 431.528132 267.856652 
L 433.663517 267.901515 
L 435.870082 269.256019 
L 438.005468 271.698779 
L 440.212033 275.00795 
L 442.418598 278.753881 
L 444.411625 282.532671 
L 446.61819 286.264558 
L 450.960141 294.313102 
L 453.095527 298.644727 
L 455.302092 302.616886 
L 457.508657 305.530745 
L 459.644043 307.179615 
L 461.850608 307.714977 
L 463.985994 307.660393 
L 476.940667 306.047183 
L 483.489183 306.15713 
L 485.624568 305.713531 
L 487.831134 303.784262 
L 489.966519 299.534506 
L 492.173084 292.554145 
L 494.37965 283.080924 
L 498.579241 260.135289 
L 500.714627 248.417353 
L 502.921192 236.984936 
L 505.056578 226.66885 
L 507.263143 217.365633 
L 509.469708 209.72859 
L 511.605094 203.928019 
L 513.811659 200.399081 
L 515.947045 198.997016 
L 518.15361 199.505453 
L 520.360175 201.700321 
L 522.424381 205.30064 
L 524.630946 210.147988 
L 526.766332 215.995205 
L 528.972897 222.904569 
L 531.108283 230.29807 
L 535.521413 246.199851 
L 537.656799 252.126459 
L 539.863364 253.930591 
L 541.99875 250.618359 
L 544.205315 243.407667 
L 546.41188 234.024416 
L 548.404907 224.077866 
L 552.746858 204.490337 
L 554.953423 194.036574 
L 557.088808 182.781134 
L 559.295374 172.466324 
L 561.501939 165.90255 
L 563.637325 164.546329 
L 565.84389 167.229551 
L 567.979275 172.417898 
L 572.392406 184.721322 
L 574.385432 190.016234 
L 578.727383 198.096387 
L 580.933948 203.499689 
L 583.069334 211.897477 
L 587.482464 233.460922 
L 589.61785 238.871031 
L 591.824415 237.637602 
L 593.959801 230.363541 
L 596.166366 218.632042 
L 598.372931 201.299601 
L 600.365958 178.606442 
L 602.572523 151.51964 
L 604.707909 123.636004 
L 606.914474 98.675846 
L 609.04986 80.16353 
L 611.256425 69.891664 
L 613.46299 66.588086 
L 615.598376 67.507951 
L 617.804941 70.287365 
L 619.940326 73.858476 
L 622.146892 78.288376 
L 624.353457 84.660489 
L 626.417663 94.016025 
L 628.624228 107.404551 
L 630.759614 124.253817 
L 635.101565 160.807838 
L 637.30813 175.739408 
L 639.514695 186.94684 
L 641.650081 194.487393 
L 643.856646 199.406802 
L 645.992032 202.073438 
L 648.198597 202.578931 
L 650.405162 200.937134 
L 652.398189 199.294639 
L 654.604754 201.005412 
L 656.740139 208.009228 
L 658.946705 220.321382 
L 661.08209 235.923677 
L 663.288655 251.047608 
L 665.495221 261.786701 
L 667.630606 266.336587 
L 669.837171 266.680772 
L 671.972557 264.991605 
L 674.179122 262.319727 
L 676.385687 259.071414 
L 678.378714 255.797396 
L 680.585279 253.406359 
L 682.720665 252.406042 
L 684.92723 253.058809 
L 684.92723 253.058809 
" clip-path="url(#p712b52d05c)" style="fill: none; stroke: #8a2b2b; stroke-width: 1.4; stroke-linecap: round"/>
   </g>
   <g id="line2d_16">
    <path d="M 76.199957 296.300799 
L 80.399549 292.112037 
L 82.606114 290.450971 
L 84.7415 289.435407 
L 86.948065 288.957804 
L 89.083451 288.863241 
L 91.290016 289.030555 
L 93.496581 289.592361 
L 95.631967 290.531119 
L 97.838532 291.720937 
L 99.973918 293.32798 
L 102.180483 295.626089 
L 104.387048 298.634914 
L 106.451254 302.183608 
L 108.657819 304.876732 
L 110.793205 305.93709 
L 112.99977 305.034995 
L 115.135156 303.480513 
L 117.341721 301.09345 
L 119.548286 298.361181 
L 123.890237 291.701539 
L 130.438753 280.838218 
L 132.43178 278.087899 
L 134.638345 276.691599 
L 136.773731 276.215453 
L 138.980296 276.413704 
L 141.115682 276.923543 
L 143.322247 277.672579 
L 147.664198 279.600509 
L 149.870763 280.344694 
L 152.006148 280.779549 
L 154.212714 280.583367 
L 156.419279 279.68122 
L 158.412305 277.424115 
L 160.618871 274.073459 
L 162.754256 270.487699 
L 164.960821 267.62067 
L 167.096207 265.503287 
L 169.302772 264.29829 
L 171.509337 263.912518 
L 173.644723 264.551813 
L 175.851288 266.207493 
L 177.986674 268.866397 
L 180.193239 272.699004 
L 182.399804 277.673009 
L 184.392831 283.214296 
L 186.599396 288.01469 
L 188.734782 291.938076 
L 190.941347 294.600614 
L 193.076733 296.852472 
L 195.283298 298.275899 
L 197.489863 299.128518 
L 199.625249 299.410068 
L 206.173765 299.514419 
L 208.38033 299.661029 
L 210.444536 300.034104 
L 214.786487 301.064553 
L 216.993052 300.547359 
L 219.128438 298.59317 
L 221.335003 295.517644 
L 223.541568 291.297738 
L 227.883519 280.708298 
L 232.22547 269.572246 
L 234.432035 264.760538 
L 236.425062 261.441092 
L 238.631627 259.491694 
L 240.767012 258.597593 
L 242.973578 258.65722 
L 245.108963 259.89535 
L 247.315528 262.048575 
L 249.522094 265.001631 
L 253.864044 271.989989 
L 255.99943 275.580582 
L 258.205995 278.782847 
L 260.41256 280.862549 
L 262.405587 282.100267 
L 264.612152 282.643214 
L 266.747538 282.565952 
L 268.954103 281.739829 
L 271.089489 280.721259 
L 273.296054 280.216072 
L 275.502619 280.069939 
L 277.638005 280.057885 
L 279.84457 280.236993 
L 281.979956 280.821241 
L 284.186521 282.057773 
L 286.393086 283.764996 
L 288.386113 285.087127 
L 290.592678 285.074785 
L 292.728064 283.464255 
L 294.934629 280.430686 
L 297.070014 276.859896 
L 299.27658 273.806922 
L 301.483145 271.841271 
L 303.61853 270.721278 
L 305.825096 270.112338 
L 307.960481 269.745882 
L 310.167046 269.935867 
L 312.373612 271.120737 
L 314.437818 273.237802 
L 316.644383 276.133677 
L 318.779769 279.700866 
L 320.986334 283.781315 
L 323.121719 287.336649 
L 325.328285 288.9787 
L 327.53485 288.36238 
L 329.670235 286.243222 
L 331.876801 283.318925 
L 334.012186 279.208107 
L 340.418343 265.045846 
L 342.624908 261.130404 
L 344.760294 257.800112 
L 346.966859 254.955143 
L 351.30881 249.68305 
L 353.515375 246.436791 
L 359.992712 235.992659 
L 362.199277 233.423709 
L 366.398869 229.590486 
L 368.605434 227.94012 
L 370.74082 226.873802 
L 372.947385 226.706751 
L 375.082771 227.625094 
L 377.289336 229.426135 
L 379.495901 232.091796 
L 381.631287 235.472988 
L 383.837852 239.809689 
L 388.179803 248.888578 
L 390.386368 253.780764 
L 394.58596 266.103608 
L 396.721345 272.953291 
L 401.063296 285.999393 
L 405.476426 297.96175 
L 407.611812 303.539365 
L 409.818377 307.874837 
L 411.953763 310.131561 
L 414.160328 309.302531 
L 416.366893 306.311144 
L 418.431099 302.572936 
L 420.637665 298.264796 
L 424.979616 289.268916 
L 431.528132 276.103343 
L 433.663517 272.052151 
L 435.870082 268.440839 
L 438.005468 265.652785 
L 440.212033 263.517877 
L 442.418598 262.010483 
L 444.411625 260.900714 
L 446.61819 260.543532 
L 448.753576 261.103742 
L 450.960141 262.436145 
L 453.095527 264.427825 
L 455.302092 266.833686 
L 457.508657 269.763625 
L 459.644043 273.023074 
L 461.850608 276.850882 
L 468.399124 289.328492 
L 470.392151 293.862123 
L 474.734101 302.068229 
L 479.076052 309.305448 
L 481.282617 312.288887 
L 483.489183 314.083111 
L 485.624568 314.797819 
L 489.966519 315.078669 
L 492.173084 314.965873 
L 494.37965 314.504492 
L 496.372676 313.836813 
L 498.579241 313.330611 
L 500.714627 313.042753 
L 502.921192 313.029698 
L 507.263143 313.222035 
L 509.469708 313.065431 
L 513.811659 312.412073 
L 518.15361 312.148164 
L 522.424381 311.981838 
L 526.766332 311.561406 
L 528.972897 311.017337 
L 531.108283 310.276312 
L 533.314848 309.758816 
L 535.521413 309.826205 
L 537.656799 310.250333 
L 539.863364 310.064276 
L 541.99875 308.337341 
L 544.205315 304.961417 
L 546.41188 300.222813 
L 548.404907 294.357134 
L 550.611472 287.226524 
L 552.746858 278.505339 
L 554.953423 267.437598 
L 559.295374 240.843138 
L 561.501939 229.068231 
L 563.637325 219.932159 
L 565.84389 212.923764 
L 567.979275 207.522093 
L 570.185841 203.261729 
L 574.385432 196.186715 
L 576.591998 193.01384 
L 578.727383 190.584949 
L 580.933948 189.916824 
L 583.069334 191.693819 
L 585.275899 196.097837 
L 587.482464 202.686269 
L 589.61785 210.914891 
L 591.824415 220.290128 
L 593.959801 229.943442 
L 596.166366 238.613695 
L 598.372931 243.597803 
L 600.365958 241.945344 
L 602.572523 232.282367 
L 604.707909 216.816073 
L 609.04986 180.565568 
L 611.256425 164.786024 
L 613.46299 152.038972 
L 615.598376 142.039821 
L 617.804941 134.322448 
L 619.940326 128.51478 
L 622.146892 124.720336 
L 624.353457 123.481961 
L 626.417663 125.088403 
L 628.624228 129.929826 
L 630.759614 137.874963 
L 632.966179 148.42138 
L 635.101565 160.931054 
L 637.30813 174.933971 
L 639.514695 190.288749 
L 643.856646 225.016289 
L 648.198597 262.600971 
L 650.405162 279.287851 
L 652.398189 292.148607 
L 654.604754 299.104051 
L 656.740139 300.825521 
L 658.946705 300.027894 
L 661.08209 299.051542 
L 665.495221 297.901661 
L 667.630606 296.935331 
L 674.179122 293.533349 
L 676.385687 292.38488 
L 678.378714 291.533552 
L 680.585279 291.563118 
L 682.720665 292.690101 
L 684.92723 294.507975 
L 684.92723 294.507975 
" clip-path="url(#p712b52d05c)" style="fill: none; stroke: #2e4a3f; stroke-width: 1.4; stroke-linecap: round"/>
   </g>
   <g id="line2d_17">
    <path d="M 76.199957 278.788715 
L 80.399549 285.801295 
L 82.606114 288.574503 
L 84.7415 290.809604 
L 86.948065 292.658533 
L 97.838532 300.48683 
L 102.180483 303.442427 
L 104.387048 305.062269 
L 106.451254 306.735566 
L 108.657819 308.342238 
L 110.793205 309.678353 
L 112.99977 310.044855 
L 115.135156 308.287675 
L 117.341721 303.576847 
L 119.548286 296.716512 
L 121.683672 288.677659 
L 123.890237 281.054048 
L 126.025623 274.325519 
L 132.43178 256.560002 
L 134.638345 251.293393 
L 136.773731 246.514416 
L 138.980296 242.192442 
L 141.115682 238.795428 
L 143.322247 236.980911 
L 145.528812 237.007399 
L 147.664198 238.659814 
L 149.870763 241.430682 
L 152.006148 245.078379 
L 154.212714 249.598159 
L 156.419279 254.845592 
L 158.412305 260.411265 
L 160.618871 265.671226 
L 162.754256 269.21242 
L 164.960821 268.50632 
L 167.096207 261.695383 
L 169.302772 249.563761 
L 171.509337 234.375306 
L 175.851288 198.913527 
L 177.986674 180.841214 
L 180.193239 163.869316 
L 184.392831 135.329712 
L 186.599396 123.758384 
L 188.734782 114.356714 
L 190.941347 107.377736 
L 193.076733 102.68619 
L 195.283298 99.709043 
L 197.489863 98.185586 
L 199.625249 98.497337 
L 201.831814 101.076678 
L 203.967199 105.844908 
L 206.173765 112.502287 
L 208.38033 120.652949 
L 210.444536 130.33707 
L 212.651101 141.506402 
L 214.786487 153.327164 
L 216.993052 164.62606 
L 219.128438 174.804326 
L 221.335003 183.761249 
L 223.541568 191.644939 
L 225.676954 197.543589 
L 227.883519 201.448727 
L 230.018905 204.228979 
L 234.432035 209.459132 
L 238.631627 215.02638 
L 240.767012 218.580869 
L 242.973578 223.12824 
L 249.522094 239.633646 
L 251.657479 245.214986 
L 253.864044 250.590667 
L 255.99943 254.844115 
L 258.205995 256.387423 
L 260.41256 253.926424 
L 262.405587 247.476179 
L 264.612152 237.561628 
L 271.089489 200.920023 
L 273.296054 191.06195 
L 275.502619 183.328764 
L 277.638005 177.693284 
L 279.84457 174.286546 
L 281.979956 173.330307 
L 284.186521 174.720699 
L 286.393086 178.503689 
L 288.386113 184.278044 
L 290.592678 191.997828 
L 292.728064 201.388383 
L 294.934629 211.783863 
L 299.27658 233.241158 
L 307.960481 275.484916 
L 310.167046 284.552233 
L 312.373612 291.213669 
L 314.437818 295.20988 
L 316.644383 296.690619 
L 318.779769 296.82193 
L 320.986334 296.585442 
L 323.121719 296.041649 
L 325.328285 294.505025 
L 327.53485 291.299043 
L 329.670235 285.944064 
L 331.876801 278.601873 
L 336.218752 261.861106 
L 340.418343 246.690373 
L 342.624908 240.410296 
L 344.760294 235.489708 
L 346.966859 232.059254 
L 349.102245 229.885285 
L 351.30881 228.782866 
L 353.515375 228.645373 
L 355.650761 229.706139 
L 357.857326 231.919567 
L 359.992712 234.919764 
L 362.199277 238.592645 
L 364.405842 243.183772 
L 366.398869 249.192674 
L 368.605434 256.433956 
L 372.947385 272.776307 
L 375.082771 281.231021 
L 377.289336 289.161056 
L 379.495901 295.240276 
L 381.631287 297.573894 
L 383.837852 295.790765 
L 385.973237 291.813441 
L 390.386368 282.345504 
L 392.379394 278.248597 
L 396.721345 271.586036 
L 398.92791 268.682429 
L 401.063296 266.334204 
L 403.269861 265.022538 
L 405.476426 264.746627 
L 407.611812 265.280697 
L 409.818377 266.576359 
L 411.953763 268.484869 
L 414.160328 271.167764 
L 416.366893 274.45671 
L 420.637665 282.269148 
L 422.77305 286.982831 
L 427.115001 297.466723 
L 429.321566 302.22012 
L 431.528132 306.188889 
L 433.663517 309.50662 
L 435.870082 311.957864 
L 438.005468 313.752588 
L 440.212033 314.777606 
L 442.418598 315.284315 
L 444.411625 315.353206 
L 446.61819 314.871307 
L 450.960141 312.537032 
L 453.095527 312.063907 
L 455.302092 311.93684 
L 457.508657 311.684865 
L 466.192559 309.633222 
L 470.392151 309.105795 
L 472.598716 308.981358 
L 481.282617 309.115305 
L 483.489183 309.275234 
L 485.624568 309.950383 
L 487.831134 311.287241 
L 492.173084 314.669219 
L 494.37965 316.35407 
L 496.372676 317.724539 
L 498.579241 318.466606 
L 500.714627 318.61125 
L 507.263143 318.537755 
L 509.469708 318.368574 
L 511.605094 318.06054 
L 513.811659 317.91498 
L 518.15361 317.94003 
L 520.360175 317.606704 
L 522.424381 316.713941 
L 524.630946 315.58069 
L 526.766332 314.669603 
L 528.972897 314.004478 
L 533.314848 313.237202 
L 535.521413 312.380838 
L 537.656799 309.74368 
L 539.863364 304.823613 
L 544.205315 291.644684 
L 552.746858 267.566484 
L 554.953423 260.060913 
L 557.088808 251.661722 
L 559.295374 244.068409 
L 561.501939 238.994732 
L 563.637325 237.333559 
L 565.84389 238.146217 
L 567.979275 240.416126 
L 572.392406 246.039034 
L 574.385432 248.812532 
L 576.591998 251.675636 
L 578.727383 254.897542 
L 580.933948 258.722052 
L 585.275899 268.077897 
L 587.482464 271.827376 
L 589.61785 273.028209 
L 591.824415 271.567402 
L 593.959801 268.170148 
L 596.166366 263.583096 
L 598.372931 257.693506 
L 600.365958 250.352285 
L 604.707909 232.563395 
L 606.914474 225.407039 
L 609.04986 221.969959 
L 611.256425 222.666174 
L 613.46299 226.294129 
L 615.598376 230.673955 
L 617.804941 234.610666 
L 619.940326 237.749862 
L 624.353457 243.125191 
L 626.417663 246.392673 
L 628.624228 250.620964 
L 635.101565 265.823554 
L 637.30813 270.23704 
L 639.514695 273.648699 
L 641.650081 276.119245 
L 643.856646 277.84533 
L 645.992032 278.83763 
L 648.198597 279.026961 
L 652.398189 277.726168 
L 654.604754 278.556683 
L 656.740139 281.610104 
L 658.946705 286.647723 
L 661.08209 292.263924 
L 663.288655 296.595111 
L 665.495221 297.919146 
L 667.630606 296.44582 
L 669.837171 293.804857 
L 674.179122 288.074403 
L 678.378714 282.848162 
L 680.585279 281.168847 
L 682.720665 280.427386 
L 684.92723 280.555099 
L 684.92723 280.555099 
" clip-path="url(#p712b52d05c)" style="fill: none; stroke: #a87333; stroke-width: 1.4; stroke-linecap: round"/>
   </g>
   <g id="line2d_18">
    <path d="M 206.244944 332.47125 
L 206.244944 27.55125 
" clip-path="url(#p712b52d05c)" style="fill: none; stroke-dasharray: 0.7,1.155; stroke-dashoffset: 0; stroke: #948d82; stroke-opacity: 0.6; stroke-width: 0.7"/>
   </g>
   <g id="line2d_19">
    <path d="M 518.224789 332.47125 
L 518.224789 27.55125 
" clip-path="url(#p712b52d05c)" style="fill: none; stroke-dasharray: 0.7,1.155; stroke-dashoffset: 0; stroke: #948d82; stroke-opacity: 0.6; stroke-width: 0.7"/>
   </g>
   <g id="line2d_20">
    <path d="M 570.25702 332.47125 
L 570.25702 27.55125 
" clip-path="url(#p712b52d05c)" style="fill: none; stroke-dasharray: 0.7,1.155; stroke-dashoffset: 0; stroke: #948d82; stroke-opacity: 0.6; stroke-width: 0.7"/>
   </g>
   <g id="patch_3">
    <path d="M 45.763594 332.47125 
L 45.763594 27.55125 
" style="fill: none; stroke: #1a1814; stroke-linejoin: miter; stroke-linecap: square"/>
   </g>
   <g id="patch_4">
    <path d="M 45.763594 332.47125 
L 715.363594 332.47125 
" style="fill: none; stroke: #1a1814; stroke-linejoin: miter; stroke-linecap: square"/>
   </g>
   <g id="text_16">
    <text style="font-weight: 600; font-size: 12px; font-family: 'IBM Plex Sans', 'Helvetica Neue', 'Arial', 'DejaVu Sans', sans-serif; text-anchor: middle; fill: #1a1814" x="380.563594" y="12.55125" transform="rotate(-0 380.563594 12.55125)">Cross-Archetype Rolling 24-Month Volatility of YoY Price Returns</text>
   </g>
   <g id="legend_1">
    <g id="line2d_21">
     <path d="M 53.863594 39.34125 
L 62.863594 39.34125 
L 71.863594 39.34125 
" style="fill: none; stroke: #6e1f1f; stroke-width: 1.4; stroke-linecap: round"/>
    </g>
    <g id="text_17">
     <text style="font-size: 9px; font-family: 'IBM Plex Sans', 'Helvetica Neue', 'Arial', 'DejaVu Sans', sans-serif; text-anchor: start; fill: #3c3833" x="79.063594" y="42.49125" transform="rotate(-0 79.063594 42.49125)">San Francisco (Archetype A)</text>
    </g>
    <g id="line2d_22">
     <path d="M 53.863594 52.48125 
L 62.863594 52.48125 
L 71.863594 52.48125 
" style="fill: none; stroke: #8a2b2b; stroke-width: 1.4; stroke-linecap: round"/>
    </g>
    <g id="text_18">
     <text style="font-size: 9px; font-family: 'IBM Plex Sans', 'Helvetica Neue', 'Arial', 'DejaVu Sans', sans-serif; text-anchor: start; fill: #3c3833" x="79.063594" y="55.63125" transform="rotate(-0 79.063594 55.63125)">Seattle (Archetype A)</text>
    </g>
    <g id="line2d_23">
     <path d="M 53.863594 65.62125 
L 62.863594 65.62125 
L 71.863594 65.62125 
" style="fill: none; stroke: #2e4a3f; stroke-width: 1.4; stroke-linecap: round"/>
    </g>
    <g id="text_19">
     <text style="font-size: 9px; font-family: 'IBM Plex Sans', 'Helvetica Neue', 'Arial', 'DejaVu Sans', sans-serif; text-anchor: start; fill: #3c3833" x="79.063594" y="68.77125" transform="rotate(-0 79.063594 68.77125)">Houston (Archetype B)</text>
    </g>
    <g id="line2d_24">
     <path d="M 53.863594 78.76125 
L 62.863594 78.76125 
L 71.863594 78.76125 
" style="fill: none; stroke: #a87333; stroke-width: 1.4; stroke-linecap: round"/>
    </g>
    <g id="text_20">
     <text style="font-size: 9px; font-family: 'IBM Plex Sans', 'Helvetica Neue', 'Arial', 'DejaVu Sans', sans-serif; text-anchor: start; fill: #3c3833" x="79.063594" y="81.91125" transform="rotate(-0 79.063594 81.91125)">Washington DC (Archetype C)</text>
    </g>
   </g>
  </g>
 </g>
 <defs>
  <clipPath id="p712b52d05c">
   <rect x="45.763594" y="27.55125" width="669.6" height="304.92"/>
  </clipPath>
 </defs>
</svg>
