<?xml version="1.0" encoding="utf-8" standalone="no"?>
<!DOCTYPE svg PUBLIC "-//W3C//DTD SVG 1.1//EN"
  "http://www.w3.org/Graphics/SVG/1.1/DTD/svg11.dtd">
<svg xmlns:xlink="http://www.w3.org/1999/xlink" width="604.620313pt" height="339.71125pt" viewBox="0 0 604.620313 339.71125" xmlns="http://www.w3.org/2000/svg" version="1.1">
 <metadata>
  <rdf:RDF xmlns:dc="http://purl.org/dc/elements/1.1/" xmlns:cc="http://creativecommons.org/ns#" xmlns:rdf="http://www.w3.org/1999/02/22-rdf-syntax-ns#">
   <cc:Work>
    <dc:type rdf:resource="http://purl.org/dc/dcmitype/StillImage"/>
    <dc:date>2026-07-11T20:24:51.563244</dc:date>
    <dc:format>image/svg+xml</dc:format>
    <dc:creator>
     <cc:Agent>
      <dc:title>Matplotlib v3.10.9, https://matplotlib.org/</dc:title>
     </cc:Agent>
    </dc:creator>
   </cc:Work>
  </rdf:RDF>
 </metadata>
 <defs>
  <style type="text/css">*{stroke-linejoin: round; stroke-linecap: butt}</style>
 </defs>
 <g id="figure_1">
  <g id="patch_1">
   <path d="M 0 339.71125 
L 604.620313 339.71125 
L 604.620313 0 
L 0 0 
L 0 339.71125 
z
" style="fill: none"/>
  </g>
  <g id="axes_1">
   <g id="patch_2">
    <path d="M 43.020313 304.75125 
L 601.020313 304.75125 
L 601.020313 27.55125 
L 43.020313 27.55125 
L 43.020313 304.75125 
z
" style="fill: none"/>
   </g>
   <g id="matplotlib.axis_1">
    <g id="xtick_1">
     <g id="line2d_1">
      <defs>
       <path id="mda2c867b09" d="M 0 0 
L 0 4 
" style="stroke: #1a1814; stroke-width: 0.8"/>
      </defs>
      <g>
       <use xlink:href="#mda2c867b09" x="66.801524" y="304.75125" style="fill: #1a1814; stroke: #1a1814; stroke-width: 0.8"/>
      </g>
     </g>
     <g id="text_1">
      <text style="font-size: 9px; font-family: 'IBM Plex Sans', 'Helvetica Neue', 'Arial', 'DejaVu Sans', sans-serif; text-anchor: middle; fill: #6b655c" x="66.801524" y="318.91125" transform="rotate(-0 66.801524 318.91125)">2000</text>
     </g>
    </g>
    <g id="xtick_2">
     <g id="line2d_2">
      <g>
       <use xlink:href="#mda2c867b09" x="143.865624" y="304.75125" style="fill: #1a1814; stroke: #1a1814; stroke-width: 0.8"/>
      </g>
     </g>
     <g id="text_2">
      <text style="font-size: 9px; font-family: 'IBM Plex Sans', 'Helvetica Neue', 'Arial', 'DejaVu Sans', sans-serif; text-anchor: middle; fill: #6b655c" x="143.865624" y="318.91125" transform="rotate(-0 143.865624 318.91125)">2004</text>
     </g>
    </g>
    <g id="xtick_3">
     <g id="line2d_3">
      <g>
       <use xlink:href="#mda2c867b09" x="220.929725" y="304.75125" style="fill: #1a1814; stroke: #1a1814; stroke-width: 0.8"/>
      </g>
     </g>
     <g id="text_3">
      <text style="font-size: 9px; font-family: 'IBM Plex Sans', 'Helvetica Neue', 'Arial', 'DejaVu Sans', sans-serif; text-anchor: middle; fill: #6b655c" x="220.929725" y="318.91125" transform="rotate(-0 220.929725 318.91125)">2008</text>
     </g>
    </g>
    <g id="xtick_4">
     <g id="line2d_4">
      <g>
       <use xlink:href="#mda2c867b09" x="297.993825" y="304.75125" style="fill: #1a1814; stroke: #1a1814; stroke-width: 0.8"/>
      </g>
     </g>
     <g id="text_4">
      <text style="font-size: 9px; font-family: 'IBM Plex Sans', 'Helvetica Neue', 'Arial', 'DejaVu Sans', sans-serif; text-anchor: middle; fill: #6b655c" x="297.993825" y="318.91125" transform="rotate(-0 297.993825 318.91125)">2012</text>
     </g>
    </g>
    <g id="xtick_5">
     <g id="line2d_5">
      <g>
       <use xlink:href="#mda2c867b09" x="375.057926" y="304.75125" style="fill: #1a1814; stroke: #1a1814; stroke-width: 0.8"/>
      </g>
     </g>
     <g id="text_5">
      <text style="font-size: 9px; font-family: 'IBM Plex Sans', 'Helvetica Neue', 'Arial', 'DejaVu Sans', sans-serif; text-anchor: middle; fill: #6b655c" x="375.057926" y="318.91125" transform="rotate(-0 375.057926 318.91125)">2016</text>
     </g>
    </g>
    <g id="xtick_6">
     <g id="line2d_6">
      <g>
       <use xlink:href="#mda2c867b09" x="452.122026" y="304.75125" style="fill: #1a1814; stroke: #1a1814; stroke-width: 0.8"/>
      </g>
     </g>
     <g id="text_6">
      <text style="font-size: 9px; font-family: 'IBM Plex Sans', 'Helvetica Neue', 'Arial', 'DejaVu Sans', sans-serif; text-anchor: middle; fill: #6b655c" x="452.122026" y="318.91125" transform="rotate(-0 452.122026 318.91125)">2020</text>
     </g>
    </g>
    <g id="xtick_7">
     <g id="line2d_7">
      <g>
       <use xlink:href="#mda2c867b09" x="529.186127" y="304.75125" style="fill: #1a1814; stroke: #1a1814; stroke-width: 0.8"/>
      </g>
     </g>
     <g id="text_7">
      <text style="font-size: 9px; font-family: 'IBM Plex Sans', 'Helvetica Neue', 'Arial', 'DejaVu Sans', sans-serif; text-anchor: middle; fill: #6b655c" x="529.186127" y="318.91125" transform="rotate(-0 529.186127 318.91125)">2024</text>
     </g>
    </g>
    <g id="text_8">
     <text style="font-size: 10px; font-family: 'IBM Plex Sans', 'Helvetica Neue', 'Arial', 'DejaVu Sans', sans-serif; text-anchor: middle; fill: #1a1814" x="322.020313" y="334.11125" transform="rotate(-0 322.020313 334.11125)">Year</text>
    </g>
   </g>
   <g id="matplotlib.axis_2">
    <g id="ytick_1">
     <g id="line2d_8">
      <defs>
       <path id="me14a658651" d="M 0 0 
L -4 0 
" style="stroke: #1a1814; stroke-width: 0.8"/>
      </defs>
      <g>
       <use xlink:href="#me14a658651" x="43.020313" y="300.679657" style="fill: #1a1814; stroke: #1a1814; stroke-width: 0.8"/>
      </g>
     </g>
     <g id="text_9">
      <text style="font-size: 9px; font-family: 'IBM Plex Sans', 'Helvetica Neue', 'Arial', 'DejaVu Sans', sans-serif; text-anchor: end; fill: #6b655c" x="35.520313" y="304.009657" transform="rotate(-0 35.520313 304.009657)">40</text>
     </g>
    </g>
    <g id="ytick_2">
     <g id="line2d_9">
      <g>
       <use xlink:href="#me14a658651" x="43.020313" y="265.12137" style="fill: #1a1814; stroke: #1a1814; stroke-width: 0.8"/>
      </g>
     </g>
     <g id="text_10">
      <text style="font-size: 9px; font-family: 'IBM Plex Sans', 'Helvetica Neue', 'Arial', 'DejaVu Sans', sans-serif; text-anchor: end; fill: #6b655c" x="35.520313" y="268.45137" transform="rotate(-0 35.520313 268.45137)">60</text>
     </g>
    </g>
    <g id="ytick_3">
     <g id="line2d_10">
      <g>
       <use xlink:href="#me14a658651" x="43.020313" y="229.563083" style="fill: #1a1814; stroke: #1a1814; stroke-width: 0.8"/>
      </g>
     </g>
     <g id="text_11">
      <text style="font-size: 9px; font-family: 'IBM Plex Sans', 'Helvetica Neue', 'Arial', 'DejaVu Sans', sans-serif; text-anchor: end; fill: #6b655c" x="35.520313" y="232.893083" transform="rotate(-0 35.520313 232.893083)">80</text>
     </g>
    </g>
    <g id="ytick_4">
     <g id="line2d_11">
      <g>
       <use xlink:href="#me14a658651" x="43.020313" y="194.004796" style="fill: #1a1814; stroke: #1a1814; stroke-width: 0.8"/>
      </g>
     </g>
     <g id="text_12">
      <text style="font-size: 9px; font-family: 'IBM Plex Sans', 'Helvetica Neue', 'Arial', 'DejaVu Sans', sans-serif; text-anchor: end; fill: #6b655c" x="35.520313" y="197.334796" transform="rotate(-0 35.520313 197.334796)">100</text>
     </g>
    </g>
    <g id="ytick_5">
     <g id="line2d_12">
      <g>
       <use xlink:href="#me14a658651" x="43.020313" y="158.446509" style="fill: #1a1814; stroke: #1a1814; stroke-width: 0.8"/>
      </g>
     </g>
     <g id="text_13">
      <text style="font-size: 9px; font-family: 'IBM Plex Sans', 'Helvetica Neue', 'Arial', 'DejaVu Sans', sans-serif; text-anchor: end; fill: #6b655c" x="35.520313" y="161.776509" transform="rotate(-0 35.520313 161.776509)">120</text>
     </g>
    </g>
    <g id="ytick_6">
     <g id="line2d_13">
      <g>
       <use xlink:href="#me14a658651" x="43.020313" y="122.888222" style="fill: #1a1814; stroke: #1a1814; stroke-width: 0.8"/>
      </g>
     </g>
     <g id="text_14">
      <text style="font-size: 9px; font-family: 'IBM Plex Sans', 'Helvetica Neue', 'Arial', 'DejaVu Sans', sans-serif; text-anchor: end; fill: #6b655c" x="35.520313" y="126.218222" transform="rotate(-0 35.520313 126.218222)">140</text>
     </g>
    </g>
    <g id="ytick_7">
     <g id="line2d_14">
      <g>
       <use xlink:href="#me14a658651" x="43.020313" y="87.329935" style="fill: #1a1814; stroke: #1a1814; stroke-width: 0.8"/>
      </g>
     </g>
     <g id="text_15">
      <text style="font-size: 9px; font-family: 'IBM Plex Sans', 'Helvetica Neue', 'Arial', 'DejaVu Sans', sans-serif; text-anchor: end; fill: #6b655c" x="35.520313" y="90.659935" transform="rotate(-0 35.520313 90.659935)">160</text>
     </g>
    </g>
    <g id="ytick_8">
     <g id="line2d_15">
      <g>
       <use xlink:href="#me14a658651" x="43.020313" y="51.771648" style="fill: #1a1814; stroke: #1a1814; stroke-width: 0.8"/>
      </g>
     </g>
     <g id="text_16">
      <text style="font-size: 9px; font-family: 'IBM Plex Sans', 'Helvetica Neue', 'Arial', 'DejaVu Sans', sans-serif; text-anchor: end; fill: #6b655c" x="35.520313" y="55.101648" transform="rotate(-0 35.520313 55.101648)">180</text>
     </g>
    </g>
    <g id="text_17">
     <text style="font-size: 10px; font-family: 'IBM Plex Sans', 'Helvetica Neue', 'Arial', 'DejaVu Sans', sans-serif; text-anchor: middle; fill: #1a1814" x="11.2" y="166.15125" transform="rotate(-90 11.2 166.15125)">Housing Affordability Index (HAI)</text>
    </g>
   </g>
   <g id="line2d_16">
    <path d="M 68.383949 241.53337 
L 69.913626 242.491274 
L 71.548799 241.112486 
L 73.131224 239.933361 
L 74.766397 244.435147 
L 76.348822 241.98722 
L 77.983994 240.721538 
L 82.836764 238.0217 
L 84.419189 237.938985 
L 87.689535 229.893807 
L 89.166465 230.988636 
L 90.801637 230.444594 
L 92.384062 233.313617 
L 94.019235 235.543165 
L 95.60166 237.106422 
L 97.236832 238.049829 
L 98.872005 237.055225 
L 100.45443 236.610937 
L 102.089603 235.114772 
L 103.672028 236.942799 
L 105.3072 243.582912 
L 106.942373 243.989493 
L 108.419303 243.79666 
L 110.054475 246.538944 
L 111.636901 247.555205 
L 113.272073 246.880779 
L 116.489671 246.356066 
L 118.124843 245.741659 
L 119.707268 244.987078 
L 121.342441 246.984033 
L 122.924866 247.91102 
L 124.560039 249.065475 
L 126.195211 247.788037 
L 127.672141 247.336209 
L 129.307314 246.61223 
L 130.889739 248.298626 
L 132.524911 244.615295 
L 134.107336 241.901194 
L 135.742509 248.52224 
L 137.377682 257.482396 
L 138.960107 256.932202 
L 140.595279 255.373184 
L 142.177704 255.912092 
L 143.812877 255.879065 
L 145.448049 254.266125 
L 146.977727 253.864878 
L 148.612899 252.135162 
L 151.830497 264.562537 
L 153.412922 266.223908 
L 155.048095 265.353854 
L 156.683267 264.959928 
L 158.265692 265.37732 
L 159.900865 266.347817 
L 163.118463 268.636866 
L 164.753635 269.366092 
L 166.230565 269.628083 
L 167.865738 274.084913 
L 169.448163 274.699496 
L 172.66576 275.130538 
L 175.936106 280.380512 
L 177.518531 281.075709 
L 179.153703 284.820012 
L 180.736128 287.926302 
L 182.371301 287.990711 
L 184.006473 287.037487 
L 185.483403 288.158425 
L 187.118576 288.949206 
L 188.701001 290.62086 
L 190.336174 291.36344 
L 191.918599 291.837226 
L 193.553771 292.15125 
L 195.188944 289.668422 
L 196.771369 287.841033 
L 198.406541 286.449006 
L 199.988966 284.395118 
L 201.624139 282.544278 
L 203.259312 282.602547 
L 204.736242 282.524236 
L 206.371414 280.59263 
L 207.953839 280.221262 
L 209.589012 280.349114 
L 211.171437 283.199182 
L 212.806609 282.521431 
L 214.441782 280.256106 
L 216.024207 277.345658 
L 217.65938 276.078706 
L 219.241805 273.071481 
L 220.876977 270.390245 
L 222.51215 264.989601 
L 224.041827 265.092884 
L 225.677 263.784302 
L 227.259425 261.048764 
L 228.894598 260.088835 
L 230.477023 261.07865 
L 232.112195 259.899336 
L 233.747368 258.131214 
L 235.329793 250.134033 
L 236.964965 249.742724 
L 238.54739 245.927653 
L 240.182563 232.062091 
L 241.817736 226.435098 
L 243.294666 225.964784 
L 244.929838 222.025301 
L 246.512263 217.06891 
L 248.147436 216.764913 
L 249.729861 225.52803 
L 251.365033 221.574278 
L 253.000206 220.28519 
L 254.582631 217.03117 
L 256.217804 214.455142 
L 257.800229 212.772603 
L 259.435401 214.015994 
L 261.070574 216.067145 
L 262.547504 215.446879 
L 264.182676 215.200185 
L 265.765102 217.695237 
L 267.400274 214.308521 
L 268.982699 211.491636 
L 272.253044 203.952344 
L 273.835469 201.238121 
L 275.470642 197.683908 
L 277.053067 198.080624 
L 278.68824 205.338982 
L 280.323412 205.511604 
L 281.800342 209.113413 
L 283.435515 206.786122 
L 285.01794 206.642862 
L 286.653112 202.123165 
L 288.235537 199.028149 
L 289.87071 198.962867 
L 291.505883 192.426203 
L 293.088308 187.795201 
L 294.72348 185.98803 
L 296.305905 183.791033 
L 297.941078 182.653919 
L 299.57625 180.966203 
L 301.105928 179.864593 
L 302.7411 181.181449 
L 304.323526 180.431423 
L 305.958698 178.023285 
L 309.176296 172.700414 
L 310.811468 174.385679 
L 314.029066 170.251742 
L 315.611491 170.237565 
L 317.246664 170.482213 
L 318.881836 173.083117 
L 320.358766 176.904502 
L 321.993939 178.574917 
L 323.576364 176.597935 
L 325.211536 179.727592 
L 326.793961 192.945584 
L 328.429134 200.182582 
L 330.064307 202.804791 
L 331.646732 204.343694 
L 333.281904 199.332035 
L 334.864329 201.540783 
L 336.499502 206.301495 
L 338.134674 205.785989 
L 339.611604 203.159303 
L 341.246777 203.886361 
L 342.829202 203.81914 
L 344.464375 200.743594 
L 346.0468 199.785193 
L 347.681972 198.483156 
L 349.317145 197.439015 
L 350.89957 197.88231 
L 352.534742 194.741401 
L 354.117168 193.530798 
L 355.75234 190.052475 
L 357.387513 185.256641 
L 358.864443 185.840621 
L 360.499615 186.958963 
L 362.08204 184.279381 
L 363.717213 187.509657 
L 365.299638 190.038782 
L 366.934811 191.005568 
L 368.569983 187.596219 
L 370.152408 187.121601 
L 371.787581 184.978633 
L 373.370006 188.292278 
L 375.005178 188.726754 
L 376.640351 187.144037 
L 378.170028 182.613957 
L 379.805201 183.442416 
L 381.387626 181.124315 
L 383.022799 180.7388 
L 384.605224 179.874633 
L 386.240396 176.673653 
L 387.875569 176.379438 
L 391.093166 177.472422 
L 392.675592 185.164743 
L 394.310764 195.329959 
L 395.945937 193.973549 
L 397.422867 194.013495 
L 399.058039 194.184379 
L 400.640464 190.407143 
L 402.275637 188.771332 
L 403.858062 185.322542 
L 405.493235 185.527667 
L 407.128407 182.453456 
L 408.710832 179.90842 
L 410.346005 181.454884 
L 413.563602 181.86274 
L 415.198775 184.085863 
L 416.675705 190.903196 
L 418.310878 193.583177 
L 419.893303 194.15956 
L 421.528475 196.698719 
L 423.1109 196.183203 
L 424.746073 195.323159 
L 426.381245 195.765127 
L 427.96367 197.433741 
L 429.598843 201.440345 
L 431.181268 202.118269 
L 434.451613 192.96262 
L 435.928543 190.141534 
L 437.563716 187.2651 
L 439.146141 184.019573 
L 440.781313 181.572511 
L 442.363738 174.103185 
L 443.998911 171.871956 
L 445.634084 166.933987 
L 447.216509 165.421906 
L 448.851681 166.486961 
L 450.434106 165.858718 
L 452.069279 165.96679 
L 453.704451 164.437578 
L 455.234129 161.338321 
L 456.869302 161.98721 
L 458.451727 158.990707 
L 460.086899 157.262663 
L 461.669324 155.163017 
L 463.304497 151.015362 
L 464.939669 149.476503 
L 466.522094 149.96263 
L 468.157267 150.691899 
L 469.739692 151.274376 
L 471.374865 151.325036 
L 473.010037 155.325984 
L 474.486967 159.948675 
L 476.12214 169.854366 
L 477.704565 172.137357 
L 479.339737 172.492923 
L 480.922162 175.262812 
L 482.557335 174.094757 
L 484.192508 174.086135 
L 485.774933 175.481749 
L 487.410105 179.753421 
L 488.99253 180.212231 
L 490.627703 181.919091 
L 493.739805 197.613693 
L 495.374978 207.247113 
L 496.957403 223.145894 
L 500.175001 232.342254 
L 501.810173 229.542936 
L 503.445346 224.514793 
L 505.027771 236.00946 
L 506.662943 245.013432 
L 508.245369 242.412383 
L 509.880541 235.193916 
L 511.515714 233.124541 
L 512.992644 232.287306 
L 514.627816 235.911206 
L 516.210241 232.880361 
L 517.845414 234.202899 
L 519.427839 238.65298 
L 521.063012 240.672203 
L 522.698184 243.868846 
L 524.280609 245.417403 
L 525.915782 250.32763 
L 527.498207 247.874188 
L 529.133379 239.476704 
L 530.768552 236.719248 
L 532.298229 238.419583 
L 533.933402 239.263153 
L 535.515827 242.070721 
L 537.151 243.274796 
L 538.733425 241.330655 
L 540.368597 240.055405 
L 543.586195 230.062015 
L 545.221367 233.730774 
L 546.803793 239.074205 
L 548.438965 237.856967 
L 550.074138 240.814837 
L 551.551068 238.843095 
L 553.18624 235.506611 
L 556.403838 236.082557 
L 557.986263 235.105628 
L 559.621436 232.791378 
L 561.256608 230.034779 
L 562.839033 225.805766 
L 564.474206 223.703863 
L 566.056631 222.960568 
L 567.691803 221.71756 
L 569.326976 219.573571 
L 570.803906 217.833411 
L 572.439079 219.034417 
L 574.021504 220.46853 
L 575.656676 221.167271 
L 575.656676 221.167271 
" clip-path="url(#p3b89e10c40)" style="fill: none; stroke: #a87333; stroke-width: 1.4; stroke-linecap: round"/>
   </g>
   <g id="line2d_17">
    <path d="M 68.383949 109.260915 
L 69.913626 110.536925 
L 71.548799 107.09504 
L 73.131224 104.050215 
L 74.766397 112.562179 
L 76.348822 106.943923 
L 77.983994 103.72489 
L 82.836764 96.28548 
L 84.419189 95.485771 
L 86.054362 86.300981 
L 87.689535 78.819092 
L 89.166465 81.675788 
L 90.801637 81.152175 
L 92.384062 87.635395 
L 94.019235 92.783749 
L 95.60166 96.550574 
L 97.236832 99.039017 
L 98.872005 97.574206 
L 100.45443 97.234241 
L 102.089603 94.764836 
L 103.672028 99.0305 
L 105.3072 112.993193 
L 106.942373 113.5942 
L 108.419303 112.984165 
L 110.054475 118.31282 
L 111.636901 120.154575 
L 113.272073 118.572116 
L 116.489671 117.072388 
L 118.124843 115.604991 
L 119.707268 113.849872 
L 121.342441 117.693465 
L 122.924866 119.363409 
L 124.560039 121.500064 
L 126.195211 120.282827 
L 127.672141 120.744753 
L 129.307314 120.65619 
L 130.889739 125.378572 
L 132.524911 119.393945 
L 134.107336 115.387097 
L 135.742509 129.752617 
L 137.377682 148.534824 
L 138.960107 148.643127 
L 140.595279 146.801114 
L 142.177704 149.011982 
L 143.812877 150.106496 
L 145.448049 148.03304 
L 146.977727 148.27224 
L 148.612899 146.000062 
L 151.830497 171.223239 
L 153.412922 175.188941 
L 155.048095 174.424328 
L 156.683267 174.543256 
L 158.265692 176.150651 
L 159.900865 178.754931 
L 163.118463 184.523956 
L 164.753635 184.578674 
L 166.230565 183.800148 
L 167.865738 190.806491 
L 169.448163 190.765761 
L 172.66576 189.244892 
L 175.936106 196.989923 
L 177.518531 197.253368 
L 179.153703 203.441996 
L 180.736128 208.481986 
L 182.371301 207.641791 
L 184.006473 205.982497 
L 185.483403 208.377905 
L 187.118576 210.121095 
L 188.701001 213.575004 
L 190.336174 215.209986 
L 191.918599 216.316562 
L 193.553771 217.108431 
L 195.188944 212.470883 
L 196.771369 209.112286 
L 198.406541 206.602195 
L 199.988966 202.816319 
L 201.624139 199.429196 
L 203.259312 199.666248 
L 204.736242 199.638533 
L 206.371414 196.03836 
L 207.953839 195.446851 
L 209.589012 195.815842 
L 211.171437 201.418315 
L 212.806609 200.232539 
L 214.441782 195.998575 
L 216.024207 190.531276 
L 217.65938 188.22233 
L 219.241805 182.580052 
L 220.876977 177.56858 
L 222.51215 168.043795 
L 224.041827 169.050152 
L 225.677 167.373815 
L 227.259425 163.017926 
L 228.894598 162.027613 
L 230.477023 164.689457 
L 232.112195 163.286252 
L 233.747368 160.79813 
L 235.329793 146.806868 
L 236.964965 146.930773 
L 238.54739 140.766757 
L 240.182563 116.266488 
L 241.817736 107.092155 
L 243.294666 107.353859 
L 244.929838 101.357431 
L 246.512263 93.591741 
L 248.147436 94.230261 
L 249.729861 111.036637 
L 251.365033 105.13414 
L 253.000206 104.000584 
L 254.582631 99.427459 
L 256.217804 96.090712 
L 257.800229 94.350791 
L 259.435401 97.717822 
L 261.070574 101.888596 
L 262.547504 101.420588 
L 264.182676 101.598854 
L 265.765102 106.49612 
L 267.400274 101.267685 
L 268.982699 97.038698 
L 272.253044 85.383821 
L 273.835469 81.391218 
L 275.470642 75.988591 
L 277.053067 77.306905 
L 278.68824 90.225856 
L 280.323412 90.429968 
L 281.800342 96.438842 
L 283.435515 92.413097 
L 285.01794 92.084219 
L 286.653112 84.341078 
L 288.235537 79.007956 
L 289.87071 78.807985 
L 291.505883 67.634611 
L 293.088308 59.687306 
L 294.72348 56.526926 
L 296.305905 52.703414 
L 297.941078 50.677447 
L 299.57625 48.846808 
L 301.105928 48.014477 
L 302.7411 51.252311 
L 304.323526 51.002918 
L 305.958698 47.982189 
L 307.541123 44.770137 
L 309.176296 41.149568 
L 310.811468 44.958322 
L 314.029066 40.15125 
L 315.611491 41.134258 
L 317.246664 42.532652 
L 318.881836 46.234728 
L 320.358766 51.955724 
L 321.993939 54.163426 
L 323.576364 50.375894 
L 325.211536 55.001775 
L 326.793961 76.313434 
L 328.429134 87.801095 
L 330.064307 91.680171 
L 331.646732 93.77618 
L 333.281904 84.988206 
L 334.864329 88.201449 
L 336.499502 95.685558 
L 338.134674 96.126729 
L 339.611604 93.07473 
L 341.246777 95.56867 
L 342.829202 96.739174 
L 344.464375 92.995866 
L 346.0468 92.722146 
L 347.681972 91.896251 
L 349.317145 91.492772 
L 350.89957 93.473657 
L 352.534742 89.726875 
L 354.117168 89.075456 
L 355.75234 84.849763 
L 357.387513 77.851781 
L 358.864443 79.339911 
L 360.499615 81.659093 
L 362.08204 78.017282 
L 363.717213 83.62862 
L 365.299638 88.122421 
L 366.934811 90.163582 
L 368.569983 85.390949 
L 370.152408 85.188879 
L 371.787581 82.401311 
L 373.370006 88.059307 
L 375.005178 89.251034 
L 376.640351 86.563483 
L 378.170028 79.315585 
L 379.805201 80.347784 
L 381.387626 76.509758 
L 383.022799 75.661653 
L 384.605224 74.070565 
L 386.240396 68.849642 
L 387.875569 68.137745 
L 391.093166 69.330465 
L 392.675592 81.061567 
L 394.310764 96.668611 
L 395.945937 95.939812 
L 399.058039 98.980053 
L 400.640464 94.535989 
L 402.275637 93.387638 
L 403.858062 89.500991 
L 405.493235 91.151843 
L 407.128407 87.864866 
L 408.710832 85.393827 
L 410.346005 89.019532 
L 413.563602 92.205165 
L 415.198775 95.37209 
L 416.675705 105.310082 
L 418.310878 109.15886 
L 419.893303 109.909807 
L 421.528475 113.556639 
L 423.1109 112.699927 
L 424.746073 111.334618 
L 426.381245 111.891226 
L 427.96367 114.260547 
L 429.598843 120.086627 
L 431.181268 120.997374 
L 432.816441 114.144558 
L 434.451613 108.401379 
L 435.928543 105.278465 
L 437.563716 102.09046 
L 439.146141 98.38108 
L 440.781313 95.849671 
L 442.363738 86.070288 
L 443.998911 83.897281 
L 445.634084 77.848089 
L 447.216509 76.732138 
L 448.851681 79.287716 
L 450.434106 79.41349 
L 452.069279 80.572448 
L 453.704451 77.950492 
L 455.234129 73.094747 
L 456.869302 73.554645 
L 458.451727 68.828833 
L 460.086899 65.899894 
L 461.669324 62.43409 
L 463.304497 56.031394 
L 464.939669 53.348866 
L 466.522094 53.565983 
L 468.157267 54.135881 
L 469.739692 54.499055 
L 471.374865 54.099725 
L 473.010037 59.352382 
L 474.486967 65.522053 
L 476.12214 79.363203 
L 477.704565 82.194079 
L 479.339737 82.234769 
L 480.922162 85.789848 
L 482.557335 83.617274 
L 484.192508 83.131167 
L 485.774933 84.697866 
L 487.410105 90.483482 
L 488.99253 90.694471 
L 490.627703 92.741134 
L 493.739805 116.49161 
L 495.374978 130.927384 
L 496.957403 154.481004 
L 500.175001 168.440057 
L 501.810173 164.614496 
L 503.445346 157.552896 
L 505.027771 174.511133 
L 506.662943 187.811464 
L 508.245369 184.256472 
L 509.880541 174.021864 
L 511.515714 172.195346 
L 512.992644 172.157613 
L 514.627816 178.471592 
L 516.210241 175.303901 
L 517.845414 178.299214 
L 519.427839 185.637178 
L 521.063012 189.515689 
L 522.698184 194.9811 
L 524.280609 198.122991 
L 525.915782 205.826064 
L 527.498207 203.440978 
L 529.133379 193.057452 
L 530.768552 188.66173 
L 532.298229 190.309401 
L 533.933402 190.808591 
L 535.515827 194.012322 
L 537.151 195.042554 
L 538.733425 191.744076 
L 540.368597 189.357852 
L 543.586195 174.185617 
L 545.221367 178.658373 
L 546.803793 185.520124 
L 548.438965 183.197384 
L 550.074138 187.592475 
L 551.551068 185.050729 
L 553.18624 180.598866 
L 556.403838 181.866833 
L 557.986263 180.727765 
L 559.621436 177.722521 
L 561.256608 174.105715 
L 562.839033 168.444626 
L 564.474206 165.754283 
L 566.056631 164.956386 
L 567.691803 163.464839 
L 569.326976 160.752335 
L 570.803906 158.603675 
L 572.439079 160.525884 
L 574.021504 162.763385 
L 575.656676 163.978941 
L 575.656676 163.978941 
" clip-path="url(#p3b89e10c40)" style="fill: none; stroke: #2e4a3f; stroke-width: 1.4; stroke-linecap: round"/>
   </g>
   <g id="line2d_18">
    <path d="M 43.020313 194.004796 
L 601.020313 194.004796 
" clip-path="url(#p3b89e10c40)" style="fill: none; stroke-dasharray: 2.96,1.28; stroke-dashoffset: 0; stroke: #948d82; stroke-opacity: 0.7; stroke-width: 0.8"/>
   </g>
   <g id="patch_3">
    <path d="M 43.020313 304.75125 
L 43.020313 27.55125 
" style="fill: none; stroke: #1a1814; stroke-linejoin: miter; stroke-linecap: square"/>
   </g>
   <g id="patch_4">
    <path d="M 43.020313 304.75125 
L 601.020313 304.75125 
" style="fill: none; stroke: #1a1814; stroke-linejoin: miter; stroke-linecap: square"/>
   </g>
   <g id="text_18">
    <text style="font-weight: 600; font-size: 12px; font-family: 'IBM Plex Sans', 'Helvetica Neue', 'Arial', 'DejaVu Sans', sans-serif; text-anchor: middle; fill: #1a1814" x="322.020313" y="12.55125" transform="rotate(-0 322.020313 12.55125)">Sub-market Shielding: Fairfax County vs. DC Core Affordability</text>
   </g>
   <g id="legend_1">
    <g id="line2d_19">
     <path d="M 359.964063 40.65125 
L 369.964063 40.65125 
L 379.964063 40.65125 
" style="fill: none; stroke: #a87333; stroke-width: 1.4; stroke-linecap: round"/>
    </g>
    <g id="text_19">
     <text style="font-size: 10px; font-family: 'IBM Plex Sans', 'Helvetica Neue', 'Arial', 'DejaVu Sans', sans-serif; text-anchor: start; fill: #3c3833" x="387.964063" y="44.15125" transform="rotate(-0 387.964063 44.15125)">Washington MSA (DC Core Income)</text>
    </g>
    <g id="line2d_20">
     <path d="M 359.964063 55.371562 
L 369.964063 55.371562 
L 379.964063 55.371562 
" style="fill: none; stroke: #2e4a3f; stroke-width: 1.4; stroke-linecap: round"/>
    </g>
    <g id="text_20">
     <text style="font-size: 10px; font-family: 'IBM Plex Sans', 'Helvetica Neue', 'Arial', 'DejaVu Sans', sans-serif; text-anchor: start; fill: #3c3833" x="387.964063" y="58.871562" transform="rotate(-0 387.964063 58.871562)">Washington MSA (Fairfax County, VA Income)</text>
    </g>
   </g>
  </g>
 </g>
 <defs>
  <clipPath id="p3b89e10c40">
   <rect x="43.020313" y="27.55125" width="558" height="277.2"/>
  </clipPath>
 </defs>
</svg>
