<?xml version="1.0" encoding="utf-8" standalone="no"?>
<!DOCTYPE svg PUBLIC "-//W3C//DTD SVG 1.1//EN"
  "http://www.w3.org/Graphics/SVG/1.1/DTD/svg11.dtd">
<svg xmlns:xlink="http://www.w3.org/1999/xlink" width="604.620313pt" height="339.88pt" viewBox="0 0 604.620313 339.88" xmlns="http://www.w3.org/2000/svg" version="1.1">
 <metadata>
  <rdf:RDF xmlns:dc="http://purl.org/dc/elements/1.1/" xmlns:cc="http://creativecommons.org/ns#" xmlns:rdf="http://www.w3.org/1999/02/22-rdf-syntax-ns#">
   <cc:Work>
    <dc:type rdf:resource="http://purl.org/dc/dcmitype/StillImage"/>
    <dc:date>2026-07-08T15:35:58.494687</dc:date>
    <dc:format>image/svg+xml</dc:format>
    <dc:creator>
     <cc:Agent>
      <dc:title>Matplotlib v3.10.9, https://matplotlib.org/</dc:title>
     </cc:Agent>
    </dc:creator>
   </cc:Work>
  </rdf:RDF>
 </metadata>
 <defs>
  <style type="text/css">*{stroke-linejoin: round; stroke-linecap: butt}</style>
 </defs>
 <g id="figure_1">
  <g id="patch_1">
   <path d="M 0 339.88 
L 604.620313 339.88 
L 604.620313 0 
L 0 0 
L 0 339.88 
z
" style="fill: none"/>
  </g>
  <g id="axes_1">
   <g id="patch_2">
    <path d="M 43.020313 304.92 
L 601.020313 304.92 
L 601.020313 27.72 
L 43.020313 27.72 
L 43.020313 304.92 
z
" style="fill: none"/>
   </g>
   <g id="FillBetweenPolyCollection_1">
    <defs>
     <path id="mf59eac193e" d="M 86.054362 -83.465407 
L 86.054362 -80.017898 
L 87.689535 -81.642591 
L 89.166465 -80.223209 
L 90.801637 -79.893814 
L 92.384062 -77.501267 
L 94.019235 -75.333356 
L 95.60166 -73.867462 
L 97.236832 -73.034115 
L 98.872005 -73.606668 
L 100.45443 -74.012718 
L 102.089603 -75.274061 
L 103.672028 -74.594459 
L 105.3072 -71.05135 
L 106.942373 -71.846898 
L 108.419303 -72.921343 
L 110.054475 -72.016869 
L 111.636901 -71.659817 
L 113.272073 -72.30265 
L 114.854498 -72.532229 
L 116.489671 -72.765736 
L 118.124843 -73.23596 
L 119.707268 -73.91514 
L 121.342441 -73.233584 
L 122.924866 -73.254583 
L 124.560039 -72.651627 
L 126.195211 -73.029155 
L 127.672141 -72.971572 
L 129.307314 -73.068792 
L 130.889739 -71.644298 
L 132.524911 -73.86729 
L 134.107336 -75.38231 
L 135.742509 -71.27942 
L 137.377682 -64.396854 
L 138.960107 -63.97144 
L 140.595279 -64.290711 
L 142.177704 -63.303846 
L 143.812877 -62.610017 
L 145.448049 -63.026766 
L 146.977727 -62.730707 
L 148.612899 -63.240685 
L 150.195325 -59.017618 
L 151.830497 -54.617993 
L 153.412922 -53.926059 
L 155.048095 -54.683277 
L 156.683267 -54.817904 
L 158.265692 -54.56799 
L 159.900865 -53.931654 
L 161.48329 -52.985545 
L 163.118463 -51.973569 
L 164.753635 -52.155677 
L 166.230565 -52.809908 
L 167.865738 -51.35433 
L 169.448163 -51.759389 
L 171.083335 -52.128939 
L 172.66576 -52.627001 
L 174.300933 -51.704643 
L 175.936106 -50.849296 
L 177.518531 -51.239117 
L 179.153703 -49.34173 
L 180.736128 -47.56 
L 182.371301 -47.892522 
L 184.006473 -49.083934 
L 185.483403 -48.993807 
L 187.118576 -48.85405 
L 188.701001 -48.15886 
L 190.336174 -48.282871 
L 191.918599 -48.72627 
L 193.553771 -49.196302 
L 195.188944 -51.237835 
L 196.771369 -52.515873 
L 198.406541 -53.094737 
L 199.988966 -54.065381 
L 201.624139 -54.864067 
L 203.259312 -54.141316 
L 204.736242 -53.864678 
L 206.371414 -54.901539 
L 207.953839 -55.21585 
L 209.589012 -55.347893 
L 211.171437 -53.810525 
L 212.806609 -54.773278 
L 214.441782 -56.517324 
L 216.024207 -58.463852 
L 217.65938 -59.23937 
L 219.241805 -60.752239 
L 220.876977 -61.94888 
L 222.51215 -64.676245 
L 224.041827 -64.017558 
L 225.677 -64.246194 
L 227.259425 -65.379679 
L 228.894598 -65.524664 
L 230.477023 -64.95204 
L 232.112195 -66.115908 
L 233.747368 -67.849923 
L 235.329793 -73.096811 
L 236.964965 -73.555922 
L 238.54739 -76.180868 
L 240.182563 -83.917247 
L 241.817736 -85.844221 
L 243.294666 -84.836227 
L 244.929838 -86.339219 
L 246.512263 -88.603453 
L 248.147436 -88.549483 
L 249.729861 -83.325683 
L 251.365033 -86.80036 
L 253.000206 -89.161133 
L 254.582631 -92.62909 
L 256.217804 -95.6819 
L 257.800229 -97.972399 
L 259.435401 -96.462016 
L 261.070574 -94.443455 
L 262.547504 -94.472021 
L 264.182676 -94.512854 
L 265.765102 -92.901458 
L 267.400274 -95.317417 
L 268.982699 -97.457286 
L 270.617872 -99.886405 
L 272.253044 -101.649698 
L 273.835469 -102.778988 
L 275.470642 -104.21933 
L 277.053067 -103.517193 
L 278.68824 -99.069599 
L 280.323412 -99.279282 
L 281.800342 -97.771759 
L 283.435515 -99.963213 
L 285.01794 -101.170974 
L 286.653112 -104.834897 
L 288.235537 -107.460781 
L 289.87071 -107.389269 
L 291.505883 -110.950031 
L 293.088308 -112.560727 
L 294.72348 -112.780956 
L 296.305905 -113.32352 
L 297.941078 -113.587873 
L 299.57625 -114.87539 
L 301.105928 -116.089386 
L 302.7411 -116.169805 
L 304.323526 -117.73481 
L 305.958698 -119.767879 
L 307.541123 -121.387543 
L 309.176296 -123.253299 
L 310.811468 -121.597241 
L 312.393893 -121.925305 
L 314.029066 -122.285163 
L 315.611491 -121.250054 
L 317.246664 -119.693523 
L 318.881836 -116.545937 
L 320.358766 -112.324875 
L 321.993939 -109.589516 
L 323.576364 -109.301453 
L 325.211536 -105.258377 
L 326.793961 -94.109075 
L 328.429134 -86.993305 
L 330.064307 -83.524144 
L 331.646732 -81.488579 
L 333.281904 -84.399306 
L 334.864329 -83.486239 
L 336.499502 -81.218973 
L 338.134674 -82.063721 
L 339.611604 -84.2631 
L 341.246777 -84.699742 
L 342.829202 -86.304585 
L 344.464375 -90.202051 
L 346.0468 -91.56078 
L 347.681972 -92.413349 
L 349.317145 -92.89328 
L 350.89957 -92.334889 
L 352.534742 -93.772193 
L 354.117168 -93.781394 
L 355.75234 -94.821113 
L 357.387513 -96.231444 
L 358.864443 -94.909903 
L 360.499615 -93.631545 
L 362.08204 -94.480328 
L 363.717213 -91.93791 
L 365.299638 -89.503275 
L 366.934811 -87.987332 
L 368.569983 -89.124532 
L 370.152408 -88.706031 
L 371.787581 -89.169288 
L 373.370006 -86.78337 
L 375.005178 -86.058705 
L 376.640351 -87.35275 
L 378.170028 -90.05524 
L 379.805201 -89.96899 
L 381.387626 -91.93856 
L 383.022799 -92.730611 
L 384.605224 -93.72654 
L 386.240396 -95.88817 
L 387.875569 -96.450731 
L 389.457994 -96.709061 
L 391.093166 -96.923667 
L 392.675592 -93.864319 
L 394.310764 -89.315883 
L 395.945937 -89.990263 
L 397.422867 -89.58723 
L 399.058039 -89.249522 
L 400.640464 -91.036035 
L 402.275637 -91.554445 
L 403.858062 -92.849003 
L 405.493235 -92.350456 
L 407.128407 -93.795445 
L 408.710832 -95.041391 
L 410.346005 -94.320547 
L 411.92843 -93.716576 
L 413.563602 -92.79532 
L 415.198775 -90.389821 
L 416.675705 -84.919024 
L 418.310878 -81.739041 
L 419.893303 -79.855772 
L 421.528475 -76.971338 
L 423.1109 -75.94352 
L 424.746073 -75.782136 
L 426.381245 -75.498262 
L 427.96367 -75.090279 
L 429.598843 -73.309614 
L 431.181268 -73.515145 
L 432.816441 -76.972583 
L 434.451613 -80.904951 
L 435.928543 -83.319601 
L 437.563716 -85.153349 
L 439.146141 -86.717841 
L 440.781313 -87.582504 
L 442.363738 -90.369367 
L 443.998911 -90.585612 
L 445.634084 -92.125362 
L 447.216509 -92.363792 
L 448.851681 -92.129532 
L 450.434106 -93.282983 
L 452.069279 -94.25612 
L 453.704451 -95.844985 
L 455.234129 -98.12828 
L 456.869302 -98.472462 
L 458.451727 -100.524415 
L 460.086899 -102.27081 
L 461.669324 -103.775259 
L 463.304497 -105.946631 
L 464.939669 -106.341888 
L 466.522094 -105.714588 
L 468.157267 -105.215285 
L 469.739692 -104.819844 
L 471.374865 -104.7992 
L 473.010037 -102.849709 
L 474.486967 -100.309504 
L 476.12214 -94.210779 
L 477.704565 -91.718849 
L 479.339737 -90.168066 
L 480.922162 -87.239592 
L 482.557335 -86.614111 
L 484.192508 -85.986495 
L 485.774933 -84.990839 
L 487.410105 -82.785578 
L 488.99253 -82.571179 
L 490.627703 -82.084086 
L 492.262875 -78.10961 
L 493.739805 -73.497054 
L 495.374978 -66.767479 
L 496.957403 -56.747121 
L 498.592576 -53.192324 
L 500.175001 -50.537673 
L 501.810173 -52.543394 
L 503.445346 -56.674077 
L 505.027771 -52.726981 
L 506.662943 -49.697389 
L 508.245369 -53.116591 
L 509.880541 -59.637321 
L 511.515714 -62.694425 
L 512.992644 -64.793307 
L 514.627816 -63.758916 
L 516.210241 -64.834657 
L 517.845414 -63.642087 
L 519.427839 -60.933826 
L 521.063012 -59.040338 
L 522.698184 -56.343491 
L 524.280609 -54.162489 
L 525.915782 -50.210877 
L 527.498207 -50.166788 
L 529.133379 -53.734733 
L 530.768552 -55.922262 
L 532.298229 -56.160539 
L 533.933402 -56.408298 
L 535.515827 -55.789838 
L 537.151 -55.872705 
L 538.733425 -57.324473 
L 540.368597 -58.305465 
L 542.00377 -60.846338 
L 543.586195 -63.044832 
L 545.221367 -62.001618 
L 546.803793 -60.316721 
L 548.438965 -61.374178 
L 550.074138 -59.961363 
L 551.551068 -61.072409 
L 553.18624 -62.768787 
L 554.768665 -62.869623 
L 556.403838 -63.312598 
L 557.986263 -64.481187 
L 559.621436 -66.163357 
L 561.256608 -67.450592 
L 562.839033 -68.978499 
L 564.474206 -69.345297 
L 566.056631 -69.230119 
L 567.691803 -69.338055 
L 569.326976 -70.225573 
L 570.803906 -70.93056 
L 572.439079 -70.209573 
L 574.021504 -69.578237 
L 575.656676 -69.493966 
L 575.656676 -74.686932 
L 575.656676 -74.686932 
L 574.021504 -75.927302 
L 572.439079 -77.30276 
L 570.803906 -78.313537 
L 569.326976 -77.794649 
L 567.691803 -77.055262 
L 566.056631 -76.537431 
L 564.474206 -76.112447 
L 562.839033 -74.465345 
L 561.256608 -71.477253 
L 559.621436 -69.362676 
L 557.986263 -68.027626 
L 556.403838 -67.496584 
L 554.768665 -67.817534 
L 553.18624 -67.954277 
L 551.551068 -66.041019 
L 550.074138 -64.909698 
L 548.438965 -66.341058 
L 546.803793 -65.316504 
L 545.221367 -67.937504 
L 543.586195 -69.180973 
L 542.00377 -65.53511 
L 540.368597 -62.223508 
L 538.733425 -61.572349 
L 537.151 -60.927183 
L 535.515827 -62.290969 
L 533.933402 -64.257261 
L 532.298229 -64.700648 
L 530.768552 -65.437861 
L 529.133379 -63.865179 
L 527.498207 -60.328599 
L 525.915782 -59.148699 
L 524.280609 -61.543636 
L 522.698184 -62.628984 
L 521.063012 -64.729726 
L 519.427839 -66.24889 
L 517.845414 -69.179487 
L 516.210241 -70.397639 
L 514.627816 -69.127454 
L 512.992644 -72.124522 
L 511.515714 -73.296904 
L 509.880541 -74.026521 
L 508.245369 -71.444876 
L 506.662943 -70.450023 
L 505.027771 -74.384415 
L 503.445346 -79.395269 
L 501.810173 -76.376739 
L 500.175001 -73.987697 
L 498.592576 -74.426859 
L 496.957403 -74.952563 
L 495.374978 -80.557578 
L 493.739805 -84.449963 
L 492.262875 -88.440934 
L 490.627703 -92.973103 
L 488.99253 -94.897338 
L 487.410105 -95.896147 
L 485.774933 -98.31725 
L 484.192508 -99.455874 
L 482.557335 -99.893445 
L 480.922162 -99.664386 
L 479.339737 -100.855098 
L 477.704565 -100.701822 
L 476.12214 -101.17424 
L 474.486967 -105.469619 
L 473.010037 -107.984362 
L 471.374865 -110.720785 
L 469.739692 -111.478861 
L 468.157267 -112.306476 
L 466.522094 -112.939108 
L 464.939669 -113.12232 
L 463.304497 -111.7999 
L 461.669324 -108.968745 
L 460.086899 -107.500223 
L 458.451727 -107.190263 
L 456.869302 -106.541798 
L 455.234129 -107.850589 
L 453.704451 -106.952621 
L 452.069279 -106.824122 
L 450.434106 -107.396005 
L 448.851681 -107.546023 
L 447.216509 -108.12026 
L 445.634084 -106.850135 
L 443.998911 -103.536321 
L 442.363738 -101.452349 
L 440.781313 -96.256553 
L 439.146141 -93.663971 
L 437.563716 -90.507119 
L 435.928543 -87.918902 
L 434.451613 -86.139663 
L 432.816441 -84.664381 
L 431.181268 -83.409476 
L 429.598843 -84.373406 
L 427.96367 -86.811711 
L 426.381245 -87.996094 
L 424.746073 -88.358037 
L 423.1109 -87.939537 
L 421.528475 -87.896595 
L 419.893303 -89.041967 
L 418.310878 -89.176744 
L 416.675705 -90.2836 
L 415.198775 -93.801903 
L 413.563602 -95.872704 
L 411.92843 -96.955255 
L 410.346005 -98.058157 
L 408.710832 -100.237518 
L 407.128407 -99.69271 
L 405.493235 -98.687951 
L 403.858062 -99.333394 
L 402.275637 -98.04913 
L 400.640464 -97.586607 
L 399.058039 -95.931398 
L 397.422867 -96.426363 
L 395.945937 -96.96909 
L 394.310764 -97.023694 
L 392.675592 -102.401157 
L 391.093166 -105.877199 
L 389.457994 -104.723687 
L 387.875569 -103.326753 
L 386.240396 -101.316663 
L 384.605224 -97.633171 
L 383.022799 -95.741821 
L 381.387626 -94.702127 
L 379.805201 -93.726113 
L 378.170028 -94.427452 
L 376.640351 -92.580095 
L 375.005178 -92.029076 
L 373.370006 -92.506075 
L 371.787581 -94.405459 
L 370.152408 -93.790454 
L 368.569983 -93.895842 
L 366.934811 -92.422755 
L 365.299638 -93.07411 
L 363.717213 -94.971681 
L 362.08204 -97.6059 
L 360.499615 -97.134805 
L 358.864443 -98.61724 
L 357.387513 -99.675919 
L 355.75234 -97.475328 
L 354.117168 -96.06127 
L 352.534742 -95.910995 
L 350.89957 -94.764384 
L 349.317145 -95.311747 
L 347.681972 -94.842061 
L 346.0468 -94.585373 
L 344.464375 -95.813227 
L 342.829202 -97.422947 
L 341.246777 -99.830545 
L 339.611604 -101.674753 
L 338.134674 -101.330758 
L 336.499502 -101.983001 
L 334.864329 -105.242943 
L 333.281904 -106.98204 
L 331.646732 -104.401884 
L 330.064307 -104.813187 
L 328.429134 -105.471512 
L 326.793961 -108.963984 
L 325.211536 -116.309157 
L 323.576364 -118.811347 
L 321.993939 -117.901964 
L 320.358766 -118.695847 
L 318.881836 -120.873992 
L 317.246664 -122.982582 
L 315.611491 -124.851501 
L 314.029066 -126.591685 
L 312.393893 -127.111837 
L 310.811468 -127.651859 
L 309.176296 -130.608307 
L 307.541123 -130.459581 
L 305.958698 -129.719434 
L 304.323526 -128.835516 
L 302.7411 -128.857309 
L 301.105928 -129.681879 
L 299.57625 -128.934696 
L 297.941078 -127.092356 
L 296.305905 -126.006485 
L 294.72348 -123.779448 
L 293.088308 -121.755575 
L 291.505883 -118.056593 
L 289.87071 -112.777859 
L 288.235537 -112.674667 
L 286.653112 -110.223093 
L 285.01794 -107.54154 
L 283.435515 -107.962426 
L 281.800342 -106.489447 
L 280.323412 -108.590079 
L 278.68824 -108.702932 
L 277.053067 -113.080492 
L 275.470642 -112.597538 
L 273.835469 -109.502233 
L 272.253044 -107.040786 
L 270.617872 -104.265454 
L 268.982699 -101.390478 
L 267.400274 -99.763445 
L 265.765102 -97.580402 
L 264.182676 -98.993559 
L 262.547504 -98.926524 
L 261.070574 -99.327529 
L 259.435401 -101.747948 
L 257.800229 -104.685034 
L 256.217804 -106.7992 
L 254.582631 -107.037837 
L 253.000206 -105.656531 
L 251.365033 -106.347329 
L 249.729861 -105.100337 
L 248.147436 -112.024412 
L 246.512263 -111.495673 
L 244.929838 -107.592397 
L 243.294666 -104.384631 
L 241.817736 -103.238654 
L 240.182563 -97.381365 
L 238.54739 -85.777806 
L 236.964965 -82.602412 
L 235.329793 -82.264246 
L 233.747368 -76.500154 
L 232.112195 -75.67511 
L 230.477023 -75.389813 
L 228.894598 -76.451583 
L 227.259425 -75.67625 
L 225.677 -73.518657 
L 224.041827 -72.28655 
L 222.51215 -71.779934 
L 220.876977 -66.878632 
L 219.241805 -64.335812 
L 217.65938 -61.904942 
L 216.024207 -61.100737 
L 214.441782 -59.461667 
L 212.806609 -58.642615 
L 211.171437 -59.029014 
L 209.589012 -61.511015 
L 207.953839 -61.7591 
L 206.371414 -61.472527 
L 204.736242 -60.090295 
L 203.259312 -60.053377 
L 201.624139 -60.161596 
L 199.988966 -58.329313 
L 198.406541 -56.385987 
L 196.771369 -54.864583 
L 195.188944 -53.264755 
L 193.553771 -51.379906 
L 191.918599 -51.459593 
L 190.336174 -51.628257 
L 188.701001 -51.698637 
L 187.118576 -52.353076 
L 185.483403 -52.475773 
L 184.006473 -53.000061 
L 182.371301 -52.038246 
L 180.736128 -51.484844 
L 179.153703 -52.766859 
L 177.518531 -54.644222 
L 175.936106 -54.669258 
L 174.300933 -55.639277 
L 172.66576 -56.57046 
L 171.083335 -56.025662 
L 169.448163 -55.546983 
L 167.865738 -55.938614 
L 166.230565 -59.178472 
L 164.753635 -59.64158 
L 163.118463 -60.083668 
L 161.48329 -61.170952 
L 159.900865 -62.150769 
L 158.265692 -62.834107 
L 156.683267 -62.864311 
L 155.048095 -62.262865 
L 153.412922 -61.816723 
L 151.830497 -63.175059 
L 150.195325 -66.879588 
L 148.612899 -70.585787 
L 146.977727 -70.3426 
L 145.448049 -70.638021 
L 143.812877 -70.094511 
L 142.177704 -70.301749 
L 140.595279 -70.724906 
L 138.960107 -69.810121 
L 137.377682 -69.13455 
L 135.742509 -73.594304 
L 134.107336 -77.468051 
L 132.524911 -75.412774 
L 130.889739 -73.138162 
L 129.307314 -74.305345 
L 127.672141 -74.2131 
L 126.195211 -74.356947 
L 124.560039 -73.954606 
L 122.924866 -74.455147 
L 121.342441 -75.354364 
L 119.707268 -76.817678 
L 118.124843 -76.330381 
L 116.489671 -75.946564 
L 114.854498 -75.69005 
L 113.272073 -75.419086 
L 111.636901 -74.770944 
L 110.054475 -75.25907 
L 108.419303 -77.028846 
L 106.942373 -76.769716 
L 105.3072 -76.730827 
L 103.672028 -80.023157 
L 102.089603 -80.663821 
L 100.45443 -79.423348 
L 98.872005 -78.845751 
L 97.236832 -77.915822 
L 95.60166 -77.994397 
L 94.019235 -78.573755 
L 92.384062 -80.021248 
L 90.801637 -82.720965 
L 89.166465 -83.472294 
L 87.689535 -85.031574 
L 86.054362 -83.465407 
z
" style="stroke: #6e1f1f; stroke-opacity: 0.15"/>
    </defs>
    <g clip-path="url(#pba02b1c784)">
     <use xlink:href="#mf59eac193e" x="0" y="339.88" style="fill: #6e1f1f; fill-opacity: 0.15; stroke: #6e1f1f; stroke-opacity: 0.15"/>
    </g>
   </g>
   <g id="FillBetweenPolyCollection_2">
    <defs>
     <path id="mbb2e2b13fa" d="M 86.054362 -174.040259 
L 86.054362 -166.726259 
L 87.689535 -171.354699 
L 89.166465 -170.735274 
L 90.801637 -172.716368 
L 92.384062 -170.880564 
L 94.019235 -170.875542 
L 95.60166 -171.525133 
L 97.236832 -173.028329 
L 98.872005 -177.327302 
L 100.45443 -180.660904 
L 102.089603 -185.065884 
L 103.672028 -185.42812 
L 105.3072 -179.027455 
L 106.942373 -180.288798 
L 108.419303 -182.269536 
L 110.054475 -179.376236 
L 111.636901 -179.188408 
L 113.272073 -181.921004 
L 114.854498 -184.419078 
L 116.489671 -187.056553 
L 118.124843 -189.538756 
L 119.707268 -191.812503 
L 121.342441 -190.166655 
L 122.924866 -190.064387 
L 124.560039 -189.789769 
L 126.195211 -191.808714 
L 127.672141 -192.633654 
L 129.307314 -194.327683 
L 130.889739 -193.103146 
L 132.524911 -199.785338 
L 134.107336 -204.238145 
L 135.742509 -194.847985 
L 137.377682 -179.817775 
L 138.960107 -181.006712 
L 140.595279 -184.35999 
L 142.177704 -184.140593 
L 143.812877 -184.691882 
L 145.448049 -187.550512 
L 146.977727 -188.003279 
L 148.612899 -190.150059 
L 150.195325 -179.49652 
L 151.830497 -167.84604 
L 153.412922 -167.110592 
L 155.048095 -170.375451 
L 156.683267 -172.856467 
L 158.265692 -173.783301 
L 159.900865 -173.324639 
L 161.48329 -172.155303 
L 163.118463 -170.723775 
L 164.753635 -172.210142 
L 166.230565 -175.083391 
L 167.865738 -171.819029 
L 169.448163 -174.350932 
L 171.083335 -177.597897 
L 172.66576 -180.978137 
L 174.300933 -179.275707 
L 175.936106 -177.448 
L 177.518531 -179.151237 
L 179.153703 -174.077281 
L 180.736128 -168.830159 
L 182.371301 -170.16809 
L 184.006473 -173.457517 
L 185.483403 -172.566404 
L 187.118576 -172.193649 
L 188.701001 -169.244112 
L 190.336174 -167.699518 
L 191.918599 -166.735552 
L 193.553771 -165.687944 
L 195.188944 -170.708244 
L 196.771369 -173.948527 
L 198.406541 -174.80631 
L 199.988966 -176.808614 
L 201.624139 -178.338245 
L 203.259312 -176.764326 
L 204.736242 -176.004843 
L 206.371414 -179.071581 
L 207.953839 -179.102133 
L 209.589012 -178.070064 
L 211.171437 -171.251652 
L 212.806609 -171.852812 
L 214.441782 -174.866003 
L 216.024207 -179.047813 
L 217.65938 -179.69857 
L 219.241805 -183.154568 
L 220.876977 -185.280162 
L 222.51215 -191.550187 
L 224.041827 -188.567924 
L 225.677 -188.203748 
L 227.259425 -189.615398 
L 228.894598 -187.794815 
L 230.477023 -183.792916 
L 232.112195 -184.01527 
L 233.747368 -185.602662 
L 235.329793 -196.694092 
L 236.964965 -195.645317 
L 238.54739 -199.957031 
L 240.182563 -216.604857 
L 241.817736 -219.533979 
L 243.294666 -215.126104 
L 244.929838 -216.334907 
L 246.512263 -219.115051 
L 248.147436 -216.261533 
L 249.729861 -201.665315 
L 251.365033 -207.240911 
L 253.000206 -209.713736 
L 254.582631 -214.228784 
L 256.217804 -219.595391 
L 257.800229 -224.4339 
L 259.435401 -222.119312 
L 261.070574 -219.362449 
L 262.547504 -220.223483 
L 264.182676 -220.665845 
L 265.765102 -217.579295 
L 267.400274 -223.766664 
L 268.982699 -227.967781 
L 270.617872 -232.507375 
L 272.253044 -236.441902 
L 273.835469 -238.729888 
L 275.470642 -241.69768 
L 277.053067 -239.17095 
L 278.68824 -228.054886 
L 280.323412 -228.434638 
L 281.800342 -224.668435 
L 283.435515 -230.032799 
L 285.01794 -232.917162 
L 286.653112 -240.85596 
L 288.235537 -245.740589 
L 289.87071 -245.174604 
L 291.505883 -252.461645 
L 293.088308 -256.149571 
L 294.72348 -256.355029 
L 296.305905 -258.471267 
L 297.941078 -259.93076 
L 299.57625 -261.552575 
L 301.105928 -262.970244 
L 302.7411 -261.743605 
L 304.323526 -265.041614 
L 305.958698 -270.172825 
L 307.541123 -274.946325 
L 309.176296 -280.201055 
L 310.811468 -278.454274 
L 312.393893 -281.725567 
L 314.029066 -285.348935 
L 315.611491 -285.734653 
L 317.246664 -285.499407 
L 318.881836 -282.990672 
L 320.358766 -278.642678 
L 321.993939 -277.276925 
L 323.576364 -281.28279 
L 325.211536 -276.351314 
L 326.793961 -251.764989 
L 328.429134 -235.729518 
L 330.064307 -227.535727 
L 331.646732 -222.35626 
L 333.281904 -228.902059 
L 334.864329 -225.344722 
L 336.499502 -217.856277 
L 338.134674 -217.947639 
L 339.611604 -221.412405 
L 341.246777 -220.318616 
L 342.829202 -222.625309 
L 344.464375 -230.82248 
L 346.0468 -232.684698 
L 347.681972 -232.563901 
L 349.317145 -231.466701 
L 350.89957 -228.259285 
L 352.534742 -232.0155 
L 354.117168 -232.936754 
L 355.75234 -235.280767 
L 357.387513 -238.989383 
L 358.864443 -236.459629 
L 360.499615 -233.307982 
L 362.08204 -235.125007 
L 363.717213 -228.806805 
L 365.299638 -222.772899 
L 366.934811 -219.069282 
L 368.569983 -221.861952 
L 370.152408 -221.379852 
L 371.787581 -223.513342 
L 373.370006 -218.726999 
L 375.005178 -217.626008 
L 376.640351 -219.554446 
L 378.170028 -225.069692 
L 379.805201 -223.73025 
L 381.387626 -226.844308 
L 383.022799 -226.547686 
L 384.605224 -226.473735 
L 386.240396 -229.390529 
L 387.875569 -228.788655 
L 389.457994 -227.333886 
L 391.093166 -226.188074 
L 392.675592 -215.690205 
L 394.310764 -200.150818 
L 395.945937 -199.633996 
L 397.422867 -198.338315 
L 399.058039 -196.874572 
L 400.640464 -200.558095 
L 402.275637 -201.578452 
L 403.858062 -204.881324 
L 405.493235 -204.558177 
L 407.128407 -208.501574 
L 408.710832 -212.242548 
L 410.346005 -211.793142 
L 411.92843 -211.387181 
L 413.563602 -210.851156 
L 415.198775 -208.720046 
L 416.675705 -200.430435 
L 418.310878 -196.316452 
L 419.893303 -194.31776 
L 421.528475 -189.700552 
L 423.1109 -188.981827 
L 424.746073 -189.091496 
L 426.381245 -188.209619 
L 427.96367 -186.526936 
L 429.598843 -181.7967 
L 431.181268 -181.198716 
L 432.816441 -187.530761 
L 434.451613 -193.072489 
L 435.928543 -195.524935 
L 437.563716 -197.687679 
L 439.146141 -200.022057 
L 440.781313 -200.962973 
L 442.363738 -206.316179 
L 443.998911 -206.091166 
L 445.634084 -208.725814 
L 447.216509 -208.151203 
L 448.851681 -206.103198 
L 450.434106 -206.72535 
L 452.069279 -206.678036 
L 453.704451 -209.323568 
L 455.234129 -213.773087 
L 456.869302 -214.514997 
L 458.451727 -218.814931 
L 460.086899 -221.617307 
L 461.669324 -223.172805 
L 463.304497 -226.1791 
L 464.939669 -226.484811 
L 466.522094 -225.486672 
L 468.157267 -224.931863 
L 469.739692 -224.717924 
L 471.374865 -225.424647 
L 473.010037 -222.736316 
L 474.486967 -218.803846 
L 476.12214 -207.421705 
L 477.704565 -203.983499 
L 479.339737 -202.559223 
L 480.922162 -197.767752 
L 482.557335 -197.279295 
L 484.192508 -195.750705 
L 485.774933 -192.751919 
L 487.410105 -186.599129 
L 488.99253 -184.886946 
L 490.627703 -182.705155 
L 492.262875 -171.983279 
L 493.739805 -161.120905 
L 495.374978 -146.719332 
L 496.957403 -124.773606 
L 498.592576 -115.496567 
L 500.175001 -106.922889 
L 501.810173 -107.183665 
L 503.445346 -111.143148 
L 505.027771 -99.127242 
L 506.662943 -89.942267 
L 508.245369 -94.054881 
L 509.880541 -105.126064 
L 511.515714 -111.968569 
L 512.992644 -117.951984 
L 514.627816 -118.996034 
L 516.210241 -123.979737 
L 517.845414 -124.100071 
L 519.427839 -120.553467 
L 521.063012 -119.433839 
L 522.698184 -117.744344 
L 524.280609 -116.302615 
L 525.915782 -111.642999 
L 527.498207 -114.394377 
L 529.133379 -123.065151 
L 530.768552 -125.6487 
L 532.298229 -124.106652 
L 533.933402 -123.398956 
L 535.515827 -121.31149 
L 537.151 -120.842663 
L 538.733425 -123.077496 
L 540.368597 -124.370403 
L 542.00377 -129.097748 
L 543.586195 -133.259999 
L 545.221367 -130.730126 
L 546.803793 -126.933976 
L 548.438965 -128.638996 
L 550.074138 -125.924309 
L 551.551068 -128.20932 
L 553.18624 -131.712776 
L 554.768665 -131.91763 
L 556.403838 -132.296172 
L 557.986263 -133.781281 
L 559.621436 -136.388076 
L 561.256608 -138.703759 
L 562.839033 -142.076503 
L 564.474206 -143.237765 
L 566.056631 -143.591958 
L 567.691803 -144.43039 
L 569.326976 -146.535377 
L 570.803906 -148.202736 
L 572.439079 -146.999463 
L 574.021504 -145.964079 
L 575.656676 -146.277006 
L 575.656676 -158.834208 
L 575.656676 -158.834208 
L 574.021504 -160.339266 
L 572.439079 -162.29251 
L 570.803906 -163.470284 
L 569.326976 -161.477902 
L 567.691803 -159.083792 
L 566.056631 -157.020012 
L 564.474206 -155.291168 
L 562.839033 -151.549531 
L 561.256608 -145.858869 
L 559.621436 -142.245302 
L 557.986263 -139.960064 
L 556.403838 -139.322555 
L 554.768665 -140.189565 
L 553.18624 -140.452709 
L 551.551068 -136.657392 
L 550.074138 -134.392817 
L 548.438965 -137.101719 
L 546.803793 -135.426007 
L 545.221367 -141.346075 
L 543.586195 -145.298135 
L 542.00377 -139.187209 
L 540.368597 -133.296816 
L 538.733425 -131.694015 
L 537.151 -129.381149 
L 535.515827 -130.439289 
L 533.933402 -133.123212 
L 532.298229 -133.756593 
L 530.768552 -135.503976 
L 529.133379 -132.6418 
L 527.498207 -123.868132 
L 525.915782 -121.128635 
L 524.280609 -125.624272 
L 522.698184 -126.643783 
L 521.063012 -130.615897 
L 519.427839 -132.539501 
L 517.845414 -136.51492 
L 516.210241 -137.9514 
L 514.627816 -135.778343 
L 512.992644 -142.640977 
L 511.515714 -145.56153 
L 509.880541 -147.19665 
L 508.245369 -144.108285 
L 506.662943 -143.80067 
L 505.027771 -153.180374 
L 503.445346 -165.887529 
L 501.810173 -163.221045 
L 500.175001 -161.045818 
L 498.592576 -163.980602 
L 496.957403 -166.181541 
L 495.374978 -178.271249 
L 493.739805 -185.830823 
L 492.262875 -193.48982 
L 490.627703 -203.26825 
L 488.99253 -206.96292 
L 487.410105 -209.102646 
L 485.774933 -214.716283 
L 484.192508 -217.511377 
L 482.557335 -218.564607 
L 480.922162 -217.740131 
L 479.339737 -219.816758 
L 477.704565 -218.735315 
L 476.12214 -218.960779 
L 474.486967 -227.788612 
L 473.010037 -232.614382 
L 471.374865 -237.410326 
L 469.739692 -238.289916 
L 468.157267 -239.03273 
L 466.522094 -239.334664 
L 464.939669 -239.086397 
L 463.304497 -236.736569 
L 461.669324 -231.683782 
L 460.086899 -228.904198 
L 458.451727 -227.30915 
L 456.869302 -224.319436 
L 455.234129 -225.671975 
L 453.704451 -222.876315 
L 452.069279 -222.077212 
L 450.434106 -224.396921 
L 448.851681 -226.284875 
L 447.216509 -229.196815 
L 445.634084 -228.111898 
L 443.998911 -222.554504 
L 442.363738 -220.125047 
L 440.781313 -211.2935 
L 439.146141 -208.747235 
L 437.563716 -205.36303 
L 435.928543 -203.151732 
L 434.451613 -201.908554 
L 432.816441 -200.074791 
L 431.181268 -196.643021 
L 429.598843 -198.116365 
L 427.96367 -202.947035 
L 426.381245 -205.494754 
L 424.746073 -206.292381 
L 423.1109 -205.296467 
L 421.528475 -204.521781 
L 419.893303 -206.55439 
L 418.310878 -206.340188 
L 416.675705 -208.347957 
L 415.198775 -215.3346 
L 413.563602 -218.064737 
L 411.92843 -219.311509 
L 410.346005 -220.508654 
L 408.710832 -224.875553 
L 407.128407 -224.038242 
L 405.493235 -222.812234 
L 403.858062 -225.146631 
L 402.275637 -222.733555 
L 400.640464 -222.008245 
L 399.058039 -218.169897 
L 397.422867 -217.909657 
L 395.945937 -216.979374 
L 394.310764 -213.98631 
L 392.675592 -222.762746 
L 391.093166 -231.281948 
L 389.457994 -232.449952 
L 387.875569 -233.84107 
L 386.240396 -234.005655 
L 384.605224 -230.774225 
L 383.022799 -230.732239 
L 381.387626 -231.710533 
L 379.805201 -231.343718 
L 378.170028 -233.896724 
L 376.640351 -230.18234 
L 375.005178 -229.921248 
L 373.370006 -230.756919 
L 371.787581 -234.824066 
L 370.152408 -232.579735 
L 368.569983 -232.415959 
L 366.934811 -228.890918 
L 365.299638 -230.280164 
L 363.717213 -234.007984 
L 362.08204 -239.467034 
L 360.499615 -237.6925 
L 358.864443 -240.793968 
L 357.387513 -243.507046 
L 355.75234 -238.84526 
L 354.117168 -236.603058 
L 352.534742 -238.238965 
L 350.89957 -237.249723 
L 349.317145 -239.862788 
L 347.681972 -241.137856 
L 346.0468 -242.443442 
L 344.464375 -245.345905 
L 342.829202 -248.229705 
L 341.246777 -253.239394 
L 339.611604 -257.707507 
L 338.134674 -256.778505 
L 336.499502 -258.150173 
L 334.864329 -265.783308 
L 333.281904 -269.314675 
L 331.646732 -261.857571 
L 330.064307 -261.837203 
L 328.429134 -262.667467 
L 326.793961 -269.182579 
L 325.211536 -284.446605 
L 323.576364 -289.534568 
L 321.993939 -287.756974 
L 320.358766 -291.050906 
L 318.881836 -296.396881 
L 317.246664 -299.418716 
L 315.611491 -299.56 
L 314.029066 -298.785466 
L 312.393893 -294.938305 
L 310.811468 -291.973089 
L 309.176296 -295.554682 
L 307.541123 -292.991928 
L 305.958698 -289.613219 
L 304.323526 -286.741619 
L 302.7411 -287.072812 
L 301.105928 -290.7239 
L 299.57625 -290.861005 
L 297.941078 -288.128526 
L 296.305905 -284.605592 
L 294.72348 -278.867344 
L 293.088308 -275.370444 
L 291.505883 -267.738982 
L 289.87071 -257.491797 
L 288.235537 -257.881994 
L 286.653112 -253.431259 
L 285.01794 -247.322516 
L 283.435515 -247.628854 
L 281.800342 -243.541602 
L 280.323412 -248.332109 
L 278.68824 -248.889879 
L 277.053067 -260.274404 
L 275.470642 -260.401695 
L 273.835469 -253.328876 
L 272.253044 -247.431512 
L 270.617872 -240.224264 
L 268.982699 -233.420455 
L 267.400274 -229.557758 
L 265.765102 -225.969175 
L 264.182676 -231.083606 
L 262.547504 -231.186903 
L 261.070574 -230.325242 
L 259.435401 -233.129873 
L 257.800229 -235.558067 
L 256.217804 -237.435581 
L 254.582631 -237.672616 
L 253.000206 -236.434806 
L 251.365033 -239.520271 
L 249.729861 -237.908486 
L 248.147436 -255.265092 
L 246.512263 -257.022399 
L 244.929838 -250.983973 
L 243.294666 -246.415907 
L 241.817736 -246.66516 
L 240.182563 -235.540071 
L 238.54739 -209.524703 
L 236.964965 -205.070741 
L 235.329793 -207.654151 
L 233.747368 -196.724266 
L 232.112195 -197.607607 
L 230.477023 -199.907575 
L 228.894598 -205.532489 
L 227.259425 -206.605153 
L 225.677 -203.617514 
L 224.041827 -202.536031 
L 222.51215 -203.821186 
L 220.876977 -193.56821 
L 219.241805 -189.965759 
L 217.65938 -185.660631 
L 216.024207 -185.142125 
L 214.441782 -181.205477 
L 212.806609 -178.980994 
L 211.171437 -180.253994 
L 209.589012 -188.205193 
L 207.953839 -189.511545 
L 206.371414 -188.862335 
L 204.736242 -184.63793 
L 203.259312 -184.946308 
L 201.624139 -185.88848 
L 199.988966 -183.020317 
L 198.406541 -180.147151 
L 196.771369 -179.061651 
L 195.188944 -177.309317 
L 193.553771 -173.003912 
L 191.918599 -174.206341 
L 190.336174 -175.555378 
L 188.701001 -176.57924 
L 187.118576 -178.980977 
L 185.483403 -179.413272 
L 184.006473 -180.437247 
L 182.371301 -177.131795 
L 180.736128 -175.145939 
L 179.153703 -178.77804 
L 177.518531 -183.561462 
L 175.936106 -181.904609 
L 174.300933 -183.754938 
L 172.66576 -185.466888 
L 171.083335 -182.254162 
L 169.448163 -179.219643 
L 167.865738 -178.418932 
L 166.230565 -186.684908 
L 164.753635 -186.23308 
L 163.118463 -186.18745 
L 161.48329 -187.875467 
L 159.900865 -189.116272 
L 158.265692 -189.585606 
L 156.683267 -188.373695 
L 155.048095 -185.415853 
L 153.412922 -182.386164 
L 151.830497 -184.296053 
L 150.195325 -193.858965 
L 148.612899 -203.730534 
L 146.977727 -201.755241 
L 145.448049 -201.358728 
L 143.812877 -198.4879 
L 142.177704 -197.713183 
L 140.595279 -197.582299 
L 138.960107 -193.853082 
L 137.377682 -191.300834 
L 135.742509 -204.158043 
L 134.107336 -214.538233 
L 132.524911 -208.18005 
L 130.889739 -201.326844 
L 129.307314 -204.206221 
L 127.672141 -202.805597 
L 126.195211 -201.46663 
L 124.560039 -199.080051 
L 122.924866 -199.292888 
L 121.342441 -198.859908 
L 119.707268 -200.014458 
L 118.124843 -196.221482 
L 116.489671 -193.087699 
L 114.854498 -191.183067 
L 113.272073 -189.644296 
L 111.636901 -187.744788 
L 110.054475 -188.479682 
L 108.419303 -191.651332 
L 106.942373 -190.272937 
L 105.3072 -189.609373 
L 103.672028 -198.132082 
L 102.089603 -199.28708 
L 100.45443 -194.666782 
L 98.872005 -191.645059 
L 97.236832 -187.786115 
L 95.60166 -187.125634 
L 94.019235 -187.219845 
L 92.384062 -187.973228 
L 90.801637 -188.55293 
L 89.166465 -184.178476 
L 87.689535 -182.570158 
L 86.054362 -174.040259 
z
" style="stroke: #2e4a3f; stroke-opacity: 0.15"/>
    </defs>
    <g clip-path="url(#pba02b1c784)">
     <use xlink:href="#mbb2e2b13fa" x="0" y="339.88" style="fill: #2e4a3f; fill-opacity: 0.15; stroke: #2e4a3f; stroke-opacity: 0.15"/>
    </g>
   </g>
   <g id="FillBetweenPolyCollection_3">
    <defs>
     <path id="m2ab0299522" d="M 86.054362 -110.248574 
L 86.054362 -105.815291 
L 87.689535 -107.998276 
L 89.166465 -106.727551 
L 90.801637 -106.844285 
L 92.384062 -104.475882 
L 94.019235 -103.194845 
L 95.60166 -102.26687 
L 97.236832 -101.713551 
L 98.872005 -102.714364 
L 100.45443 -103.224805 
L 102.089603 -104.569393 
L 103.672028 -103.1542 
L 105.3072 -96.95049 
L 106.942373 -96.367459 
L 108.419303 -96.457193 
L 110.054475 -94.172873 
L 111.636901 -93.139035 
L 113.272073 -93.581946 
L 114.854498 -93.737593 
L 116.489671 -93.959136 
L 118.124843 -94.674915 
L 119.707268 -95.708567 
L 121.342441 -94.971132 
L 122.924866 -95.343539 
L 124.560039 -94.355402 
L 126.195211 -95.516294 
L 127.672141 -96.152635 
L 129.307314 -96.743643 
L 130.889739 -95.32611 
L 132.524911 -98.157214 
L 134.107336 -99.853619 
L 135.742509 -94.396813 
L 137.377682 -85.755005 
L 138.960107 -85.588609 
L 140.595279 -86.561569 
L 142.177704 -85.855203 
L 143.812877 -85.671958 
L 145.448049 -86.966116 
L 146.977727 -87.361118 
L 148.612899 -88.963116 
L 150.195325 -84.003268 
L 151.830497 -78.52467 
L 153.412922 -77.703677 
L 155.048095 -78.507038 
L 156.683267 -78.502824 
L 158.265692 -77.907332 
L 159.900865 -76.961711 
L 161.48329 -75.905874 
L 163.118463 -74.874107 
L 164.753635 -74.490679 
L 166.230565 -74.811244 
L 167.865738 -72.161658 
L 169.448163 -71.988672 
L 171.083335 -71.538828 
L 172.66576 -71.135119 
L 174.300933 -68.618768 
L 175.936106 -66.22785 
L 177.518531 -65.524362 
L 179.153703 -62.082195 
L 180.736128 -59.030768 
L 182.371301 -58.757432 
L 184.006473 -59.676125 
L 185.483403 -59.108736 
L 187.118576 -58.517977 
L 188.701001 -57.244244 
L 190.336174 -56.926355 
L 191.918599 -57.125675 
L 193.553771 -57.396579 
L 195.188944 -60.010604 
L 196.771369 -62.300492 
L 198.406541 -63.636108 
L 199.988966 -64.958466 
L 201.624139 -65.954507 
L 203.259312 -65.557066 
L 204.736242 -65.333792 
L 206.371414 -66.525024 
L 207.953839 -66.645141 
L 209.589012 -66.596263 
L 211.171437 -64.708409 
L 212.806609 -65.956984 
L 214.441782 -68.25442 
L 216.024207 -70.699506 
L 217.65938 -71.659352 
L 219.241805 -73.548703 
L 220.876977 -74.947268 
L 222.51215 -78.111142 
L 224.041827 -77.362699 
L 225.677 -77.824635 
L 227.259425 -79.421401 
L 228.894598 -79.814186 
L 230.477023 -79.322235 
L 232.112195 -80.827783 
L 233.747368 -82.816121 
L 235.329793 -89.015459 
L 236.964965 -89.433921 
L 238.54739 -92.30331 
L 240.182563 -101.46173 
L 241.817736 -103.824993 
L 243.294666 -102.982643 
L 244.929838 -105.160343 
L 246.512263 -108.141473 
L 248.147436 -107.98034 
L 249.729861 -101.809575 
L 251.365033 -106.244968 
L 253.000206 -109.003932 
L 254.582631 -112.811406 
L 256.217804 -116.742113 
L 257.800229 -120.493354 
L 259.435401 -120.188618 
L 261.070574 -118.883655 
L 262.547504 -119.865171 
L 264.182676 -120.221418 
L 265.765102 -118.189569 
L 267.400274 -120.865451 
L 268.982699 -123.801903 
L 270.617872 -126.713261 
L 272.253044 -129.068388 
L 273.835469 -130.365706 
L 275.470642 -132.133098 
L 277.053067 -131.091451 
L 278.68824 -125.242771 
L 280.323412 -125.381525 
L 281.800342 -122.780386 
L 283.435515 -125.075183 
L 285.01794 -126.090439 
L 286.653112 -130.371107 
L 288.235537 -133.149268 
L 289.87071 -133.213005 
L 291.505883 -137.713574 
L 293.088308 -140.273767 
L 294.72348 -140.699495 
L 296.305905 -141.432218 
L 297.941078 -141.696743 
L 299.57625 -142.622353 
L 301.105928 -143.734766 
L 302.7411 -143.209127 
L 304.323526 -144.816992 
L 305.958698 -147.503146 
L 307.541123 -150.147703 
L 309.176296 -153.384859 
L 310.811468 -152.655302 
L 312.393893 -154.395118 
L 314.029066 -156.079708 
L 315.611491 -156.069275 
L 317.246664 -155.976977 
L 318.881836 -154.112196 
L 320.358766 -151.204948 
L 321.993939 -150.128979 
L 323.576364 -152.109169 
L 325.211536 -149.373926 
L 326.793961 -136.125344 
L 328.429134 -127.750976 
L 330.064307 -123.73644 
L 331.646732 -121.217359 
L 333.281904 -125.202248 
L 334.864329 -123.553744 
L 336.499502 -119.913482 
L 338.134674 -120.902825 
L 339.611604 -123.83855 
L 341.246777 -124.266734 
L 342.829202 -126.403809 
L 344.464375 -132.007596 
L 346.0468 -133.812912 
L 347.681972 -134.70444 
L 349.317145 -135.239963 
L 350.89957 -134.772064 
L 352.534742 -136.8885 
L 354.117168 -137.376896 
L 355.75234 -139.773154 
L 357.387513 -142.879422 
L 358.864443 -141.939153 
L 360.499615 -141.064008 
L 362.08204 -143.318228 
L 363.717213 -140.979487 
L 365.299638 -139.380817 
L 366.934811 -139.047653 
L 368.569983 -142.241976 
L 370.152408 -143.357252 
L 371.787581 -145.484624 
L 373.370006 -143.304954 
L 375.005178 -143.046971 
L 376.640351 -144.417583 
L 378.170028 -147.757522 
L 379.805201 -146.889831 
L 381.387626 -148.436882 
L 383.022799 -148.404248 
L 384.605224 -148.960346 
L 386.240396 -151.342407 
L 387.875569 -151.262304 
L 389.457994 -150.716833 
L 391.093166 -150.172859 
L 392.675592 -144.193898 
L 394.310764 -134.873325 
L 395.945937 -135.262104 
L 397.422867 -134.561147 
L 399.058039 -133.898602 
L 400.640464 -136.87897 
L 402.275637 -138.260267 
L 403.858062 -141.241783 
L 405.493235 -141.563331 
L 407.128407 -144.583835 
L 408.710832 -146.981507 
L 410.346005 -146.154634 
L 411.92843 -145.817593 
L 413.563602 -145.863234 
L 415.198775 -144.451882 
L 416.675705 -139.235437 
L 418.310878 -137.138238 
L 419.893303 -136.27584 
L 421.528475 -133.488958 
L 423.1109 -133.404681 
L 424.746073 -133.813913 
L 426.381245 -133.401079 
L 427.96367 -132.306065 
L 429.598843 -129.07869 
L 431.181268 -128.868129 
L 432.816441 -133.679665 
L 434.451613 -138.604854 
L 435.928543 -140.804166 
L 437.563716 -142.474227 
L 439.146141 -144.161788 
L 440.781313 -145.215871 
L 442.363738 -149.679121 
L 443.998911 -150.177905 
L 445.634084 -152.808098 
L 447.216509 -153.171709 
L 448.851681 -152.467763 
L 450.434106 -153.814783 
L 452.069279 -154.650913 
L 453.704451 -156.70217 
L 455.234129 -159.991242 
L 456.869302 -160.499147 
L 458.451727 -163.864534 
L 460.086899 -166.364581 
L 461.669324 -168.180567 
L 463.304497 -171.189786 
L 464.939669 -171.788567 
L 466.522094 -171.032305 
L 468.157267 -170.485324 
L 469.739692 -170.272615 
L 471.374865 -170.762949 
L 473.010037 -168.192678 
L 474.486967 -164.576446 
L 476.12214 -155.244385 
L 477.704565 -151.95616 
L 479.339737 -150.57012 
L 480.922162 -147.243626 
L 482.557335 -147.785992 
L 484.192508 -147.831947 
L 485.774933 -146.941313 
L 487.410105 -143.706046 
L 488.99253 -143.999712 
L 490.627703 -143.831342 
L 492.262875 -137.721224 
L 493.739805 -130.873765 
L 495.374978 -120.612069 
L 496.957403 -103.806874 
L 498.592576 -97.175489 
L 500.175001 -91.319283 
L 501.810173 -92.830975 
L 503.445346 -97.371079 
L 505.027771 -88.203844 
L 506.662943 -80.774277 
L 508.245369 -84.150732 
L 509.880541 -92.809978 
L 511.515714 -97.477359 
L 512.992644 -101.292378 
L 514.627816 -101.035845 
L 516.210241 -104.152283 
L 517.845414 -103.343147 
L 519.427839 -99.655628 
L 521.063012 -98.063978 
L 522.698184 -96.195001 
L 524.280609 -94.523677 
L 525.915782 -89.86359 
L 527.498207 -91.448216 
L 529.133379 -98.382914 
L 530.768552 -100.83607 
L 532.298229 -99.831915 
L 533.933402 -99.280303 
L 535.515827 -97.479758 
L 537.151 -96.963945 
L 538.733425 -98.65701 
L 540.368597 -99.671594 
L 542.00377 -103.470614 
L 543.586195 -106.664181 
L 545.221367 -104.263388 
L 546.803793 -100.670321 
L 548.438965 -101.677587 
L 550.074138 -99.22868 
L 551.551068 -100.830906 
L 553.18624 -103.480276 
L 554.768665 -103.377738 
L 556.403838 -103.501934 
L 557.986263 -104.511717 
L 559.621436 -106.437576 
L 561.256608 -108.318393 
L 562.839033 -111.147073 
L 564.474206 -111.920929 
L 566.056631 -111.978435 
L 567.691803 -112.517847 
L 569.326976 -114.139609 
L 570.803906 -115.415266 
L 572.439079 -114.417318 
L 574.021504 -113.600025 
L 575.656676 -113.726933 
L 575.656676 -122.891661 
L 575.656676 -122.891661 
L 574.021504 -124.155379 
L 572.439079 -125.671303 
L 570.803906 -126.627319 
L 569.326976 -125.071839 
L 567.691803 -123.205461 
L 566.056631 -121.722573 
L 564.474206 -120.570783 
L 562.839033 -117.924969 
L 561.256608 -113.873298 
L 559.621436 -111.269293 
L 557.986263 -109.430006 
L 556.403838 -108.850385 
L 554.768665 -109.446413 
L 553.18624 -109.809073 
L 551.551068 -107.030183 
L 550.074138 -105.424503 
L 548.438965 -107.787873 
L 546.803793 -106.814766 
L 545.221367 -111.91514 
L 543.586195 -115.483198 
L 542.00377 -110.820785 
L 540.368597 -106.217139 
L 538.733425 -105.156969 
L 537.151 -103.687032 
L 535.515827 -105.130176 
L 533.933402 -107.897376 
L 532.298229 -108.718204 
L 530.768552 -110.48039 
L 529.133379 -108.447331 
L 527.498207 -101.719827 
L 525.915782 -99.31285 
L 524.280609 -102.641408 
L 522.698184 -103.489493 
L 521.063012 -106.821263 
L 519.427839 -108.514767 
L 517.845414 -112.067263 
L 516.210241 -113.409817 
L 514.627816 -111.595251 
L 512.992644 -117.234587 
L 511.515714 -119.687474 
L 509.880541 -120.988106 
L 508.245369 -117.90334 
L 506.662943 -117.048043 
L 505.027771 -124.267399 
L 503.445346 -133.801298 
L 501.810173 -130.160915 
L 500.175001 -127.118285 
L 498.592576 -128.528788 
L 496.957403 -129.592619 
L 495.374978 -138.653788 
L 493.739805 -144.065088 
L 492.262875 -149.629854 
L 490.627703 -156.641687 
L 488.99253 -159.250276 
L 487.410105 -160.290399 
L 485.774933 -164.004886 
L 484.192508 -165.384833 
L 482.557335 -165.416759 
L 480.922162 -164.05877 
L 479.339737 -165.23872 
L 477.704565 -164.431164 
L 476.12214 -164.857229 
L 474.486967 -171.641132 
L 473.010037 -175.545742 
L 471.374865 -179.484774 
L 469.739692 -180.057528 
L 468.157267 -180.792474 
L 466.522094 -181.431971 
L 464.939669 -181.466608 
L 463.304497 -179.561757 
L 461.669324 -175.82299 
L 460.086899 -174.222979 
L 458.451727 -173.911601 
L 456.869302 -172.401857 
L 455.234129 -173.965465 
L 453.704451 -172.212233 
L 452.069279 -171.775554 
L 450.434106 -172.787511 
L 448.851681 -173.112416 
L 447.216509 -174.141251 
L 445.634084 -172.044797 
L 443.998911 -166.641211 
L 442.363738 -163.509918 
L 440.781313 -155.821024 
L 439.146141 -152.893884 
L 437.563716 -149.301167 
L 435.928543 -146.291443 
L 434.451613 -143.901016 
L 432.816441 -141.37117 
L 431.181268 -138.742049 
L 429.598843 -139.63443 
L 427.96367 -142.925561 
L 426.381245 -144.54528 
L 424.746073 -144.851503 
L 423.1109 -143.861494 
L 421.528475 -142.938504 
L 419.893303 -144.28268 
L 418.310878 -144.358023 
L 416.675705 -146.620992 
L 415.198775 -152.495939 
L 413.563602 -154.701476 
L 411.92843 -155.158915 
L 410.346005 -155.073633 
L 408.710832 -156.762765 
L 407.128407 -155.019815 
L 405.493235 -153.038762 
L 403.858062 -153.694035 
L 402.275637 -151.064577 
L 400.640464 -149.784508 
L 399.058039 -146.61954 
L 397.422867 -146.235013 
L 395.945937 -145.599045 
L 394.310764 -143.781027 
L 392.675592 -150.998652 
L 391.093166 -157.534635 
L 389.457994 -157.903962 
L 387.875569 -158.223409 
L 386.240396 -157.664636 
L 384.605224 -154.838894 
L 383.022799 -153.989044 
L 381.387626 -153.3292 
L 379.805201 -151.104839 
L 378.170028 -151.585002 
L 376.640351 -147.554774 
L 375.005178 -146.350399 
L 373.370006 -146.799283 
L 371.787581 -150.010714 
L 370.152408 -148.651606 
L 368.569983 -148.994707 
L 366.934811 -146.642223 
L 365.299638 -147.881963 
L 363.717213 -150.398028 
L 362.08204 -153.314751 
L 360.499615 -151.209452 
L 358.864443 -152.153782 
L 357.387513 -152.163613 
L 355.75234 -147.467348 
L 354.117168 -144.204582 
L 352.534742 -142.723401 
L 350.89957 -139.729766 
L 349.317145 -139.983082 
L 347.681972 -138.819849 
L 346.0468 -137.59304 
L 344.464375 -137.839096 
L 342.829202 -138.439155 
L 341.246777 -140.466866 
L 339.611604 -142.077928 
L 338.134674 -140.740193 
L 336.499502 -140.890839 
L 334.864329 -144.995969 
L 333.281904 -146.940965 
L 331.646732 -142.772186 
L 330.064307 -142.756809 
L 328.429134 -143.008449 
L 326.793961 -146.408243 
L 325.211536 -154.664541 
L 323.576364 -157.021062 
L 321.993939 -155.784821 
L 320.358766 -157.426517 
L 318.881836 -160.736433 
L 317.246664 -163.103166 
L 315.611491 -163.408898 
L 314.029066 -163.3754 
L 312.393893 -161.579202 
L 310.811468 -160.074137 
L 309.176296 -162.086406 
L 307.541123 -160.784712 
L 305.958698 -159.308127 
L 304.323526 -158.076385 
L 302.7411 -158.464002 
L 301.105928 -160.080809 
L 299.57625 -159.400969 
L 297.941078 -157.580765 
L 296.305905 -155.995275 
L 294.72348 -153.153615 
L 293.088308 -150.639184 
L 291.505883 -145.665014 
L 289.87071 -139.530823 
L 288.235537 -139.488351 
L 286.653112 -137.231105 
L 285.01794 -134.158497 
L 283.435515 -134.940678 
L 281.800342 -133.449112 
L 280.323412 -136.707901 
L 278.68824 -137.1275 
L 277.053067 -143.087734 
L 275.470642 -142.69152 
L 273.835469 -138.67642 
L 272.253044 -135.55786 
L 270.617872 -131.925915 
L 268.982699 -128.558369 
L 267.400274 -126.911919 
L 265.765102 -124.077817 
L 264.182676 -126.105268 
L 262.547504 -126.060158 
L 261.070574 -126.032538 
L 259.435401 -128.064676 
L 257.800229 -129.782862 
L 256.217804 -130.796713 
L 254.582631 -130.536378 
L 253.000206 -129.049756 
L 251.365033 -129.711451 
L 249.729861 -127.714326 
L 248.147436 -135.800628 
L 246.512263 -135.144909 
L 244.929838 -130.062288 
L 243.294666 -125.830686 
L 241.817736 -124.223163 
L 240.182563 -117.431647 
L 238.54739 -104.031628 
L 236.964965 -100.694125 
L 235.329793 -100.475951 
L 233.747368 -93.664355 
L 232.112195 -92.776065 
L 230.477023 -92.36294 
L 228.894598 -93.481358 
L 227.259425 -92.312396 
L 225.677 -89.458605 
L 224.041827 -87.791557 
L 222.51215 -87.211151 
L 220.876977 -81.588499 
L 219.241805 -78.624855 
L 217.65938 -75.621632 
L 216.024207 -74.520223 
L 214.441782 -72.230185 
L 212.806609 -70.842071 
L 211.171437 -70.987987 
L 209.589012 -73.737023 
L 207.953839 -73.896152 
L 206.371414 -73.412076 
L 204.736242 -71.460701 
L 203.259312 -71.11002 
L 201.624139 -70.807378 
L 199.988966 -68.792213 
L 198.406541 -66.773019 
L 196.771369 -65.843891 
L 195.188944 -65.160726 
L 193.553771 -63.735339 
L 191.918599 -64.517142 
L 190.336174 -65.487283 
L 188.701001 -66.377527 
L 187.118576 -67.823475 
L 185.483403 -68.51927 
L 184.006473 -69.775579 
L 182.371301 -69.143434 
L 180.736128 -68.974888 
L 179.153703 -70.977208 
L 177.518531 -73.626797 
L 175.936106 -74.054353 
L 174.300933 -75.791103 
L 172.66576 -77.688477 
L 171.083335 -77.622912 
L 169.448163 -77.536203 
L 167.865738 -78.363108 
L 166.230565 -82.964516 
L 164.753635 -83.711325 
L 163.118463 -84.514304 
L 161.48329 -85.381073 
L 159.900865 -86.150845 
L 158.265692 -86.784164 
L 156.683267 -86.867745 
L 155.048095 -86.222637 
L 153.412922 -85.610472 
L 151.830497 -87.492431 
L 150.195325 -92.508721 
L 148.612899 -97.272578 
L 146.977727 -96.060431 
L 145.448049 -95.802628 
L 143.812877 -94.472629 
L 142.177704 -94.235653 
L 140.595279 -94.406057 
L 138.960107 -92.842588 
L 137.377682 -91.781061 
L 135.742509 -97.716888 
L 134.107336 -103.032127 
L 132.524911 -100.312853 
L 130.889739 -97.151398 
L 129.307314 -98.47753 
L 127.672141 -97.890667 
L 126.195211 -97.791911 
L 124.560039 -96.874488 
L 122.924866 -97.76458 
L 121.342441 -99.64514 
L 119.707268 -102.15663 
L 118.124843 -101.962624 
L 116.489671 -101.678799 
L 114.854498 -101.467123 
L 113.272073 -101.202313 
L 111.636901 -100.547973 
L 110.054475 -101.167532 
L 108.419303 -103.344743 
L 106.942373 -103.120749 
L 105.3072 -103.199202 
L 103.672028 -107.798557 
L 102.089603 -109.357454 
L 100.45443 -108.267872 
L 98.872005 -108.055483 
L 97.236832 -107.438134 
L 95.60166 -108.419682 
L 94.019235 -110.035033 
L 92.384062 -112.381337 
L 90.801637 -114.680662 
L 89.166465 -113.912272 
L 87.689535 -114.422768 
L 86.054362 -110.248574 
z
" style="stroke: #a87333; stroke-opacity: 0.15"/>
    </defs>
    <g clip-path="url(#pba02b1c784)">
     <use xlink:href="#m2ab0299522" x="0" y="339.88" style="fill: #a87333; fill-opacity: 0.15; stroke: #a87333; stroke-opacity: 0.15"/>
    </g>
   </g>
   <g id="matplotlib.axis_1">
    <g id="xtick_1">
     <g id="line2d_1">
      <defs>
       <path id="mb9326df2c1" d="M 0 0 
L 0 4 
" style="stroke: #1a1814; stroke-width: 0.8"/>
      </defs>
      <g>
       <use xlink:href="#mb9326df2c1" x="66.801524" y="304.92" style="fill: #1a1814; stroke: #1a1814; stroke-width: 0.8"/>
      </g>
     </g>
     <g id="text_1">
      <text style="font-size: 9px; font-family: 'IBM Plex Sans', 'Helvetica Neue', 'Arial', 'DejaVu Sans', sans-serif; text-anchor: middle; fill: #6b655c" x="66.801524" y="319.08" transform="rotate(-0 66.801524 319.08)">2000</text>
     </g>
    </g>
    <g id="xtick_2">
     <g id="line2d_2">
      <g>
       <use xlink:href="#mb9326df2c1" x="143.865624" y="304.92" style="fill: #1a1814; stroke: #1a1814; stroke-width: 0.8"/>
      </g>
     </g>
     <g id="text_2">
      <text style="font-size: 9px; font-family: 'IBM Plex Sans', 'Helvetica Neue', 'Arial', 'DejaVu Sans', sans-serif; text-anchor: middle; fill: #6b655c" x="143.865624" y="319.08" transform="rotate(-0 143.865624 319.08)">2004</text>
     </g>
    </g>
    <g id="xtick_3">
     <g id="line2d_3">
      <g>
       <use xlink:href="#mb9326df2c1" x="220.929725" y="304.92" style="fill: #1a1814; stroke: #1a1814; stroke-width: 0.8"/>
      </g>
     </g>
     <g id="text_3">
      <text style="font-size: 9px; font-family: 'IBM Plex Sans', 'Helvetica Neue', 'Arial', 'DejaVu Sans', sans-serif; text-anchor: middle; fill: #6b655c" x="220.929725" y="319.08" transform="rotate(-0 220.929725 319.08)">2008</text>
     </g>
    </g>
    <g id="xtick_4">
     <g id="line2d_4">
      <g>
       <use xlink:href="#mb9326df2c1" x="297.993825" y="304.92" style="fill: #1a1814; stroke: #1a1814; stroke-width: 0.8"/>
      </g>
     </g>
     <g id="text_4">
      <text style="font-size: 9px; font-family: 'IBM Plex Sans', 'Helvetica Neue', 'Arial', 'DejaVu Sans', sans-serif; text-anchor: middle; fill: #6b655c" x="297.993825" y="319.08" transform="rotate(-0 297.993825 319.08)">2012</text>
     </g>
    </g>
    <g id="xtick_5">
     <g id="line2d_5">
      <g>
       <use xlink:href="#mb9326df2c1" x="375.057926" y="304.92" style="fill: #1a1814; stroke: #1a1814; stroke-width: 0.8"/>
      </g>
     </g>
     <g id="text_5">
      <text style="font-size: 9px; font-family: 'IBM Plex Sans', 'Helvetica Neue', 'Arial', 'DejaVu Sans', sans-serif; text-anchor: middle; fill: #6b655c" x="375.057926" y="319.08" transform="rotate(-0 375.057926 319.08)">2016</text>
     </g>
    </g>
    <g id="xtick_6">
     <g id="line2d_6">
      <g>
       <use xlink:href="#mb9326df2c1" x="452.122026" y="304.92" style="fill: #1a1814; stroke: #1a1814; stroke-width: 0.8"/>
      </g>
     </g>
     <g id="text_6">
      <text style="font-size: 9px; font-family: 'IBM Plex Sans', 'Helvetica Neue', 'Arial', 'DejaVu Sans', sans-serif; text-anchor: middle; fill: #6b655c" x="452.122026" y="319.08" transform="rotate(-0 452.122026 319.08)">2020</text>
     </g>
    </g>
    <g id="xtick_7">
     <g id="line2d_7">
      <g>
       <use xlink:href="#mb9326df2c1" x="529.186127" y="304.92" style="fill: #1a1814; stroke: #1a1814; stroke-width: 0.8"/>
      </g>
     </g>
     <g id="text_7">
      <text style="font-size: 9px; font-family: 'IBM Plex Sans', 'Helvetica Neue', 'Arial', 'DejaVu Sans', sans-serif; text-anchor: middle; fill: #6b655c" x="529.186127" y="319.08" transform="rotate(-0 529.186127 319.08)">2024</text>
     </g>
    </g>
    <g id="text_8">
     <text style="font-size: 10px; font-family: 'IBM Plex Sans', 'Helvetica Neue', 'Arial', 'DejaVu Sans', sans-serif; text-anchor: middle; fill: #1a1814" x="322.020313" y="334.28" transform="rotate(-0 322.020313 334.28)">Year</text>
    </g>
   </g>
   <g id="matplotlib.axis_2">
    <g id="ytick_1">
     <g id="line2d_8">
      <defs>
       <path id="m043a56dbf8" d="M 0 0 
L -4 0 
" style="stroke: #1a1814; stroke-width: 0.8"/>
      </defs>
      <g>
       <use xlink:href="#m043a56dbf8" x="43.020313" y="271.788844" style="fill: #1a1814; stroke: #1a1814; stroke-width: 0.8"/>
      </g>
     </g>
     <g id="text_9">
      <text style="font-size: 9px; font-family: 'IBM Plex Sans', 'Helvetica Neue', 'Arial', 'DejaVu Sans', sans-serif; text-anchor: end; fill: #6b655c" x="35.520313" y="275.118844" transform="rotate(-0 35.520313 275.118844)">50</text>
     </g>
    </g>
    <g id="ytick_2">
     <g id="line2d_9">
      <g>
       <use xlink:href="#m043a56dbf8" x="43.020313" y="235.631844" style="fill: #1a1814; stroke: #1a1814; stroke-width: 0.8"/>
      </g>
     </g>
     <g id="text_10">
      <text style="font-size: 9px; font-family: 'IBM Plex Sans', 'Helvetica Neue', 'Arial', 'DejaVu Sans', sans-serif; text-anchor: end; fill: #6b655c" x="35.520313" y="238.961844" transform="rotate(-0 35.520313 238.961844)">75</text>
     </g>
    </g>
    <g id="ytick_3">
     <g id="line2d_10">
      <g>
       <use xlink:href="#m043a56dbf8" x="43.020313" y="199.474844" style="fill: #1a1814; stroke: #1a1814; stroke-width: 0.8"/>
      </g>
     </g>
     <g id="text_11">
      <text style="font-size: 9px; font-family: 'IBM Plex Sans', 'Helvetica Neue', 'Arial', 'DejaVu Sans', sans-serif; text-anchor: end; fill: #6b655c" x="35.520313" y="202.804844" transform="rotate(-0 35.520313 202.804844)">100</text>
     </g>
    </g>
    <g id="ytick_4">
     <g id="line2d_11">
      <g>
       <use xlink:href="#m043a56dbf8" x="43.020313" y="163.317844" style="fill: #1a1814; stroke: #1a1814; stroke-width: 0.8"/>
      </g>
     </g>
     <g id="text_12">
      <text style="font-size: 9px; font-family: 'IBM Plex Sans', 'Helvetica Neue', 'Arial', 'DejaVu Sans', sans-serif; text-anchor: end; fill: #6b655c" x="35.520313" y="166.647844" transform="rotate(-0 35.520313 166.647844)">125</text>
     </g>
    </g>
    <g id="ytick_5">
     <g id="line2d_12">
      <g>
       <use xlink:href="#m043a56dbf8" x="43.020313" y="127.160843" style="fill: #1a1814; stroke: #1a1814; stroke-width: 0.8"/>
      </g>
     </g>
     <g id="text_13">
      <text style="font-size: 9px; font-family: 'IBM Plex Sans', 'Helvetica Neue', 'Arial', 'DejaVu Sans', sans-serif; text-anchor: end; fill: #6b655c" x="35.520313" y="130.490843" transform="rotate(-0 35.520313 130.490843)">150</text>
     </g>
    </g>
    <g id="ytick_6">
     <g id="line2d_13">
      <g>
       <use xlink:href="#m043a56dbf8" x="43.020313" y="91.003843" style="fill: #1a1814; stroke: #1a1814; stroke-width: 0.8"/>
      </g>
     </g>
     <g id="text_14">
      <text style="font-size: 9px; font-family: 'IBM Plex Sans', 'Helvetica Neue', 'Arial', 'DejaVu Sans', sans-serif; text-anchor: end; fill: #6b655c" x="35.520313" y="94.333843" transform="rotate(-0 35.520313 94.333843)">175</text>
     </g>
    </g>
    <g id="ytick_7">
     <g id="line2d_14">
      <g>
       <use xlink:href="#m043a56dbf8" x="43.020313" y="54.846843" style="fill: #1a1814; stroke: #1a1814; stroke-width: 0.8"/>
      </g>
     </g>
     <g id="text_15">
      <text style="font-size: 9px; font-family: 'IBM Plex Sans', 'Helvetica Neue', 'Arial', 'DejaVu Sans', sans-serif; text-anchor: end; fill: #6b655c" x="35.520313" y="58.176843" transform="rotate(-0 35.520313 58.176843)">200</text>
     </g>
    </g>
    <g id="text_16">
     <text style="font-size: 10px; font-family: 'IBM Plex Sans', 'Helvetica Neue', 'Arial', 'DejaVu Sans', sans-serif; text-anchor: middle; fill: #1a1814" x="11.2" y="166.32" transform="rotate(-90 11.2 166.32)">Housing Affordability Index (HAI)</text>
    </g>
   </g>
   <g id="line2d_15">
    <path d="M 68.383949 256.291741 
L 69.913626 256.945233 
L 71.548799 256.144059 
L 73.131224 256.196091 
L 74.766397 260.333534 
L 76.348822 259.812459 
L 82.836764 259.729066 
L 84.419189 260.223984 
L 86.054362 258.138347 
L 87.689535 256.542917 
L 89.166465 258.032248 
L 90.801637 258.57261 
L 92.384062 261.118743 
L 94.019235 262.926445 
L 95.60166 263.94907 
L 97.236832 264.405032 
L 98.872005 263.653791 
L 100.45443 263.161967 
L 102.089603 261.911059 
L 103.672028 262.571192 
L 105.3072 265.988912 
L 106.942373 265.571693 
L 108.419303 264.904905 
L 110.054475 266.242031 
L 111.636901 266.66462 
L 113.272073 266.019132 
L 116.489671 265.52385 
L 118.124843 265.096829 
L 119.707268 264.513591 
L 121.342441 265.586026 
L 124.560039 266.576884 
L 126.195211 266.186949 
L 127.672141 266.287664 
L 129.307314 266.192931 
L 130.889739 267.48877 
L 132.524911 265.239968 
L 134.107336 263.454819 
L 135.742509 267.443138 
L 137.377682 273.114298 
L 138.960107 272.989219 
L 140.595279 272.372191 
L 142.177704 273.077202 
L 143.812877 273.527736 
L 145.448049 273.047607 
L 146.977727 273.343346 
L 148.612899 272.966764 
L 151.830497 280.983474 
L 153.412922 282.008609 
L 155.048095 281.406929 
L 156.683267 281.038893 
L 158.265692 281.178951 
L 159.900865 281.838789 
L 163.118463 283.851381 
L 164.753635 283.981372 
L 166.230565 283.88581 
L 167.865738 286.233528 
L 169.448163 286.226814 
L 172.66576 285.281269 
L 175.936106 287.120723 
L 177.518531 286.938331 
L 179.153703 288.825706 
L 180.736128 290.357578 
L 182.371301 289.914616 
L 184.006473 288.838002 
L 185.483403 289.14521 
L 187.118576 289.276437 
L 188.701001 289.951252 
L 190.336174 289.924436 
L 193.553771 289.591896 
L 195.188944 287.628705 
L 196.771369 286.189772 
L 198.406541 285.139638 
L 199.988966 283.682653 
L 201.624139 282.367168 
L 203.259312 282.782654 
L 204.736242 282.902513 
L 206.371414 281.692967 
L 207.953839 281.392525 
L 209.589012 281.450546 
L 211.171437 283.46023 
L 212.806609 283.172054 
L 214.441782 281.890505 
L 216.024207 280.097705 
L 217.65938 279.307844 
L 220.876977 275.466244 
L 222.51215 271.65191 
L 224.041827 271.727946 
L 225.677 270.997574 
L 227.259425 269.352036 
L 228.894598 268.891877 
L 230.477023 269.709073 
L 232.112195 268.984491 
L 233.747368 267.704961 
L 235.329793 262.199472 
L 236.964965 261.800833 
L 238.54739 258.900663 
L 240.182563 249.230694 
L 241.817736 245.338562 
L 243.294666 245.269571 
L 244.929838 242.914192 
L 246.512263 239.830437 
L 248.147436 239.593053 
L 249.729861 245.66699 
L 251.365033 243.306155 
L 253.000206 242.471168 
L 254.582631 240.046536 
L 256.217804 238.63945 
L 257.800229 238.551284 
L 261.070574 242.994508 
L 262.547504 243.180728 
L 264.182676 243.126794 
L 265.765102 244.63907 
L 267.400274 242.339569 
L 268.982699 240.456118 
L 270.617872 237.80407 
L 272.253044 235.534758 
L 273.835469 233.739389 
L 275.470642 231.471566 
L 277.053067 231.581158 
L 278.68824 235.993735 
L 280.323412 235.94532 
L 281.800342 237.749397 
L 283.435515 235.91718 
L 285.01794 235.523743 
L 286.653112 232.351005 
L 288.235537 229.812276 
L 289.87071 229.796436 
L 291.505883 225.376688 
L 293.088308 222.721849 
L 294.72348 221.599798 
L 296.305905 220.214997 
L 297.941078 219.539886 
L 299.57625 217.974957 
L 301.105928 216.994367 
L 302.7411 217.366443 
L 304.323526 216.594837 
L 305.958698 215.136343 
L 307.541123 213.956438 
L 309.176296 212.949197 
L 310.811468 215.25545 
L 314.029066 215.441576 
L 315.611491 216.829223 
L 317.246664 218.541948 
L 318.881836 221.170035 
L 320.358766 224.369639 
L 321.993939 226.13426 
L 323.576364 225.8236 
L 325.211536 229.096233 
L 326.793961 238.34347 
L 328.429134 243.647592 
L 330.064307 245.711334 
L 331.646732 246.934768 
L 333.281904 244.189327 
L 334.864329 245.515409 
L 336.499502 248.279013 
L 338.134674 248.182761 
L 339.611604 246.911073 
L 341.246777 247.614856 
L 342.829202 248.016234 
L 344.464375 246.872361 
L 346.0468 246.806923 
L 349.317145 245.777486 
L 350.89957 246.330363 
L 352.534742 245.038406 
L 354.117168 244.958668 
L 355.75234 243.73178 
L 357.387513 241.926318 
L 360.499615 244.496825 
L 362.08204 243.836886 
L 363.717213 246.425205 
L 365.299638 248.591307 
L 366.934811 249.674956 
L 368.569983 248.369813 
L 370.152408 248.631757 
L 371.787581 248.092627 
L 373.370006 250.235277 
L 375.005178 250.83611 
L 376.640351 249.913578 
L 378.170028 247.638654 
L 379.805201 248.032448 
L 381.387626 246.559657 
L 383.022799 245.643784 
L 384.605224 244.200145 
L 386.240396 241.277584 
L 387.875569 239.991258 
L 389.457994 239.163626 
L 391.093166 238.479567 
L 392.675592 241.747262 
L 394.310764 246.710211 
L 395.945937 246.400324 
L 399.058039 247.28954 
L 400.640464 245.568679 
L 402.275637 245.078213 
L 403.858062 243.788801 
L 405.493235 244.360796 
L 407.128407 243.135922 
L 408.710832 242.240545 
L 410.346005 243.690648 
L 413.563602 245.545988 
L 415.198775 247.784138 
L 416.675705 252.278688 
L 418.310878 254.422108 
L 419.893303 255.43113 
L 421.528475 257.446033 
L 423.1109 257.938471 
L 424.746073 257.809913 
L 426.381245 258.132822 
L 427.96367 258.929005 
L 429.598843 261.03849 
L 431.181268 261.417689 
L 432.816441 259.061518 
L 434.451613 256.357693 
L 439.146141 249.689094 
L 440.781313 247.960472 
L 442.363738 243.969142 
L 443.998911 242.819034 
L 445.634084 240.392252 
L 447.216509 239.637974 
L 448.851681 240.042222 
L 450.434106 239.540506 
L 452.069279 239.339879 
L 453.704451 238.481197 
L 455.234129 236.890566 
L 456.869302 237.37287 
L 458.451727 236.022661 
L 460.086899 234.994483 
L 461.669324 233.507998 
L 463.304497 231.006734 
L 464.939669 230.147896 
L 466.522094 230.553152 
L 471.374865 232.120007 
L 473.010037 234.462964 
L 474.486967 236.990439 
L 476.12214 242.18749 
L 477.704565 243.669665 
L 479.339737 244.368418 
L 480.922162 246.428011 
L 482.557335 246.626222 
L 484.192508 247.158816 
L 485.774933 248.225955 
L 487.410105 250.539137 
L 488.99253 251.145742 
L 490.627703 252.351405 
L 492.262875 256.604728 
L 493.739805 260.906492 
L 495.374978 266.217472 
L 496.957403 274.030158 
L 498.592576 276.070408 
L 500.175001 277.617315 
L 501.810173 275.419933 
L 503.445346 271.845327 
L 505.027771 276.324302 
L 506.662943 279.806294 
L 508.245369 277.599266 
L 509.880541 273.048079 
L 511.515714 271.884336 
L 512.992644 271.421086 
L 514.627816 273.436815 
L 516.210241 272.263852 
L 517.845414 273.469213 
L 519.427839 276.288642 
L 521.063012 277.994968 
L 522.698184 280.393763 
L 524.280609 282.026938 
L 525.915782 285.200212 
L 527.498207 284.632307 
L 529.133379 281.080044 
L 530.768552 279.199938 
L 532.298229 279.449406 
L 533.933402 279.547221 
L 535.515827 280.839596 
L 537.151 281.480056 
L 538.733425 280.431589 
L 540.368597 279.615514 
L 543.586195 273.767098 
L 545.221367 274.910439 
L 546.803793 277.063387 
L 548.438965 276.022382 
L 550.074138 277.44447 
L 551.551068 276.323286 
L 553.18624 274.518468 
L 556.403838 274.475409 
L 557.986263 273.625594 
L 559.621436 272.116984 
L 561.256608 270.416077 
L 562.839033 268.158078 
L 564.474206 267.151128 
L 566.056631 266.996225 
L 567.691803 266.683341 
L 570.803906 265.257952 
L 572.439079 266.123834 
L 574.021504 267.12723 
L 575.656676 267.789551 
L 575.656676 267.789551 
" clip-path="url(#pba02b1c784)" style="fill: none; stroke: #6e1f1f; stroke-width: 1.4; stroke-linecap: round"/>
   </g>
   <g id="line2d_16">
    <path d="M 68.383949 178.826187 
L 69.913626 180.704697 
L 73.131224 178.161641 
L 74.766397 183.809978 
L 76.348822 180.734409 
L 77.983994 178.899298 
L 81.201592 176.241916 
L 82.836764 174.862642 
L 84.419189 174.800779 
L 86.054362 169.496741 
L 87.689535 162.917571 
L 89.166465 162.423125 
L 90.801637 159.245351 
L 92.384062 160.453104 
L 94.019235 160.832307 
L 95.60166 160.554616 
L 97.236832 159.472778 
L 98.872005 155.39382 
L 100.45443 152.216157 
L 102.089603 147.703518 
L 103.672028 148.099899 
L 105.3072 155.561586 
L 106.942373 154.599133 
L 108.419303 152.919566 
L 110.054475 155.952041 
L 111.636901 156.413402 
L 113.272073 154.09735 
L 114.854498 152.078927 
L 116.489671 149.807874 
L 118.124843 146.999881 
L 119.707268 143.966519 
L 121.342441 145.366719 
L 122.924866 145.201362 
L 124.560039 145.44509 
L 126.195211 143.242328 
L 127.672141 142.160374 
L 129.307314 140.613048 
L 130.889739 142.665005 
L 132.524911 135.897306 
L 134.107336 130.491811 
L 135.742509 140.376986 
L 137.377682 154.320695 
L 138.960107 152.450103 
L 140.595279 148.908855 
L 142.177704 148.953112 
L 143.812877 148.290109 
L 145.448049 145.42538 
L 146.977727 145.00074 
L 148.612899 142.939704 
L 151.830497 163.808953 
L 153.412922 165.131622 
L 155.048095 161.984348 
L 156.683267 159.264919 
L 158.265692 158.195547 
L 159.900865 158.659545 
L 161.48329 159.864615 
L 163.118463 161.424388 
L 164.753635 160.658389 
L 166.230565 158.995851 
L 167.865738 164.76102 
L 169.448163 163.094713 
L 171.083335 159.95397 
L 172.66576 156.657488 
L 175.936106 160.203696 
L 177.518531 158.52365 
L 180.736128 167.891951 
L 182.371301 166.230057 
L 184.006473 162.932618 
L 185.483403 163.890162 
L 187.118576 164.292687 
L 188.701001 166.968324 
L 191.918599 169.409054 
L 193.553771 170.534072 
L 195.188944 165.87122 
L 196.771369 163.374911 
L 198.406541 162.403269 
L 199.988966 159.965535 
L 201.624139 157.766638 
L 203.259312 159.024683 
L 204.736242 159.558613 
L 206.371414 155.913042 
L 207.953839 155.573161 
L 209.589012 156.742371 
L 211.171437 164.127177 
L 212.806609 164.463097 
L 214.441782 161.84426 
L 216.024207 157.785031 
L 217.65938 157.2004 
L 219.241805 153.319837 
L 220.876977 150.455814 
L 222.51215 142.194313 
L 224.041827 144.328022 
L 225.677 143.969369 
L 227.259425 141.769725 
L 228.894598 143.216348 
L 230.477023 148.029754 
L 232.112195 149.068562 
L 233.747368 148.716536 
L 235.329793 137.705878 
L 236.964965 139.521971 
L 238.54739 135.139133 
L 240.182563 113.807536 
L 241.817736 106.78043 
L 243.294666 109.108995 
L 244.929838 106.22056 
L 246.512263 101.811275 
L 248.147436 104.116688 
L 249.729861 120.093099 
L 251.365033 116.499409 
L 253.000206 116.805729 
L 254.582631 113.9293 
L 256.217804 111.364514 
L 257.800229 109.884016 
L 259.435401 112.255407 
L 261.070574 115.036155 
L 262.547504 114.174807 
L 264.182676 114.005274 
L 265.765102 118.105765 
L 267.400274 113.217789 
L 268.982699 109.185882 
L 272.253044 97.943293 
L 273.835469 93.850618 
L 275.470642 88.830313 
L 277.053067 90.157323 
L 278.68824 101.407618 
L 280.323412 101.496627 
L 281.800342 105.774982 
L 283.435515 101.049173 
L 285.01794 99.760161 
L 286.653112 92.73639 
L 288.235537 88.068709 
L 289.87071 88.5468 
L 291.505883 79.779686 
L 293.088308 74.119992 
L 294.72348 72.268814 
L 296.305905 68.34157 
L 297.941078 65.850357 
L 299.57625 63.67321 
L 301.105928 63.032928 
L 302.7411 65.471792 
L 304.323526 63.988383 
L 309.176296 52.002132 
L 310.811468 54.666319 
L 312.393893 51.548064 
L 314.029066 47.8128 
L 315.611491 47.232673 
L 317.246664 47.420939 
L 318.881836 50.186223 
L 320.358766 55.033208 
L 321.993939 57.36305 
L 323.576364 54.471321 
L 325.211536 59.481041 
L 326.793961 79.406216 
L 328.429134 90.681507 
L 330.064307 95.193535 
L 331.646732 97.773085 
L 333.281904 90.771633 
L 334.864329 94.315985 
L 336.499502 101.876775 
L 338.134674 102.516928 
L 339.611604 100.320044 
L 341.246777 103.100995 
L 342.829202 104.452493 
L 344.464375 101.795808 
L 346.0468 102.31593 
L 347.681972 103.029122 
L 349.317145 104.215256 
L 350.89957 107.125496 
L 352.534742 104.752767 
L 354.117168 105.110094 
L 355.75234 102.816986 
L 357.387513 98.631786 
L 360.499615 104.379759 
L 362.08204 102.583979 
L 363.717213 108.472606 
L 365.299638 113.353469 
L 366.934811 115.8999 
L 368.569983 112.741045 
L 370.152408 112.900206 
L 371.787581 110.711296 
L 373.370006 115.138041 
L 375.005178 116.106372 
L 376.640351 115.011607 
L 378.170028 110.396792 
L 379.805201 112.343016 
L 381.387626 110.602579 
L 383.022799 111.240038 
L 384.605224 111.25602 
L 386.240396 108.181908 
L 387.875569 108.565138 
L 389.457994 109.988081 
L 391.093166 111.144989 
L 392.675592 120.653525 
L 394.310764 132.811436 
L 395.945937 131.573315 
L 397.422867 131.756014 
L 399.058039 132.357766 
L 400.640464 128.59683 
L 402.275637 127.723996 
L 403.858062 124.866023 
L 405.493235 126.194795 
L 407.128407 123.610092 
L 408.710832 121.32095 
L 410.346005 123.729102 
L 413.563602 125.422054 
L 415.198775 127.852677 
L 416.675705 135.490804 
L 418.310878 138.55168 
L 419.893303 139.443925 
L 421.528475 142.768833 
L 423.1109 142.740853 
L 424.746073 142.188061 
L 426.381245 143.027814 
L 427.96367 145.143014 
L 429.598843 149.923467 
L 431.181268 150.959131 
L 432.816441 146.077224 
L 434.451613 142.389478 
L 437.563716 138.354646 
L 439.146141 135.495354 
L 440.781313 133.751763 
L 442.363738 126.659387 
L 443.998911 125.557165 
L 445.634084 121.461144 
L 447.216509 121.205991 
L 448.851681 123.685964 
L 450.434106 124.318865 
L 452.069279 125.502376 
L 453.704451 123.780058 
L 455.234129 120.157469 
L 456.869302 120.462783 
L 458.451727 116.817959 
L 461.669324 112.451706 
L 463.304497 108.422165 
L 464.939669 107.094396 
L 468.157267 107.897704 
L 469.739692 108.37608 
L 471.374865 108.462513 
L 473.010037 112.204651 
L 474.486967 116.583771 
L 476.12214 126.688758 
L 477.704565 128.520593 
L 479.339737 128.692009 
L 480.922162 132.126058 
L 482.557335 131.958049 
L 484.192508 133.248959 
L 485.774933 136.145899 
L 487.410105 142.029113 
L 488.99253 143.955067 
L 490.627703 146.893297 
L 493.739805 166.404136 
L 495.374978 177.384709 
L 496.957403 194.402426 
L 500.175001 205.895646 
L 501.810173 204.677645 
L 503.445346 201.364662 
L 505.027771 213.726192 
L 506.662943 223.008532 
L 508.245369 220.798417 
L 509.880541 213.718643 
L 511.515714 211.11495 
L 512.992644 209.583519 
L 514.627816 212.492812 
L 516.210241 208.914432 
L 517.845414 209.572505 
L 519.427839 213.333516 
L 521.063012 214.855132 
L 522.698184 217.685936 
L 524.280609 218.916557 
L 525.915782 223.494183 
L 527.498207 220.748745 
L 529.133379 212.026525 
L 530.768552 209.303662 
L 532.298229 210.948377 
L 533.933402 211.618916 
L 535.515827 214.004611 
L 537.151 214.768094 
L 538.733425 212.494244 
L 540.368597 211.04639 
L 543.586195 200.600933 
L 545.221367 203.841899 
L 546.803793 208.700008 
L 548.438965 207.009643 
L 550.074138 209.721437 
L 551.551068 207.446644 
L 553.18624 203.797258 
L 554.768665 203.826402 
L 556.403838 204.070636 
L 557.986263 203.009327 
L 559.621436 200.563311 
L 561.256608 197.598686 
L 562.839033 193.066983 
L 564.474206 190.615534 
L 566.056631 189.574015 
L 567.691803 188.122909 
L 569.326976 185.87336 
L 570.803906 184.04349 
L 572.439079 185.234014 
L 574.021504 186.728328 
L 575.656676 187.324393 
L 575.656676 187.324393 
" clip-path="url(#pba02b1c784)" style="fill: none; stroke: #2e4a3f; stroke-width: 1.4; stroke-linecap: round"/>
   </g>
   <g id="line2d_17">
    <path d="M 68.383949 238.137913 
L 69.913626 238.91714 
L 73.131224 236.836354 
L 74.766397 240.498422 
L 76.348822 238.507107 
L 77.983994 237.477513 
L 82.836764 235.281275 
L 84.419189 235.213989 
L 87.689535 228.669478 
L 89.166465 229.560088 
L 90.801637 229.117526 
L 92.384062 231.451391 
L 94.019235 233.265061 
L 95.60166 234.536724 
L 97.236832 235.304158 
L 98.872005 234.495077 
L 100.45443 234.133662 
L 102.089603 232.916576 
L 103.672028 234.403622 
L 105.3072 239.805154 
L 106.942373 240.135896 
L 108.419303 239.979032 
L 110.054475 242.209798 
L 111.636901 243.036496 
L 113.272073 242.487871 
L 116.489671 242.061032 
L 118.124843 241.56123 
L 119.707268 240.947401 
L 121.342441 242.571864 
L 122.924866 243.32594 
L 124.560039 244.265055 
L 126.195211 243.225898 
L 127.672141 242.858349 
L 129.307314 242.269413 
L 130.889739 243.641246 
L 132.524911 240.644967 
L 134.107336 238.437127 
L 135.742509 243.823149 
L 137.377682 251.111967 
L 138.960107 250.664401 
L 140.595279 249.396187 
L 142.177704 249.834572 
L 143.812877 249.807706 
L 145.448049 248.495628 
L 146.977727 248.169225 
L 148.612899 246.762153 
L 151.830497 256.87145 
L 153.412922 258.222925 
L 155.048095 257.515163 
L 156.683267 257.194716 
L 158.265692 257.534252 
L 159.900865 258.323722 
L 163.118463 260.185795 
L 164.753635 260.778998 
L 166.230565 260.99212 
L 167.865738 264.617617 
L 169.448163 265.117562 
L 172.66576 265.468202 
L 175.936106 269.738898 
L 177.518531 270.304421 
L 179.153703 273.350299 
L 180.736128 275.877172 
L 182.371301 275.929567 
L 184.006473 275.154148 
L 185.483403 276.065997 
L 187.118576 276.709274 
L 188.701001 278.069115 
L 190.336174 278.673181 
L 191.918599 279.058592 
L 193.553771 279.314041 
L 195.188944 277.294335 
L 196.771369 275.807809 
L 198.406541 274.675437 
L 199.988966 273.00466 
L 201.624139 271.499058 
L 204.736242 271.482753 
L 206.371414 269.91145 
L 207.953839 269.609354 
L 209.589012 269.713357 
L 211.171437 272.031802 
L 212.806609 271.480472 
L 214.441782 269.637698 
L 216.024207 267.270135 
L 217.65938 266.239508 
L 219.241805 263.793221 
L 220.876977 261.612116 
L 222.51215 257.218854 
L 224.041827 257.302872 
L 225.677 256.23838 
L 227.259425 254.013101 
L 228.894598 253.232228 
L 230.477023 254.037413 
L 232.112195 253.078076 
L 233.747368 251.639762 
L 235.329793 245.134295 
L 236.964965 244.815977 
L 238.54739 241.712531 
L 240.182563 230.433312 
L 241.817736 225.855922 
L 243.294666 225.473336 
L 244.929838 222.268685 
L 246.512263 218.236809 
L 248.147436 217.989516 
L 249.729861 225.11805 
L 251.365033 221.901791 
L 253.000206 220.853156 
L 254.582631 218.206108 
L 256.217804 216.110587 
L 257.800229 214.741892 
L 259.435401 215.753353 
L 261.070574 217.421903 
L 262.547504 216.917335 
L 264.182676 216.716657 
L 265.765102 218.746307 
L 267.400274 215.991315 
L 268.982699 213.699864 
L 272.253044 207.566876 
L 273.835469 205.358937 
L 275.470642 202.467691 
L 277.053067 202.790407 
L 278.68824 208.694864 
L 280.323412 208.835287 
L 281.800342 211.765251 
L 283.435515 209.872069 
L 285.01794 209.755532 
L 286.653112 206.078894 
L 288.235537 203.561191 
L 289.87071 203.508086 
L 291.505883 198.190706 
L 293.088308 194.423524 
L 294.72348 192.953445 
L 296.305905 191.166254 
L 297.941078 190.241246 
L 299.57625 188.868339 
L 301.105928 187.972213 
L 302.7411 189.043436 
L 304.323526 188.433312 
L 307.541123 184.413793 
L 309.176296 182.144368 
L 310.811468 183.51528 
L 314.029066 180.152446 
L 315.611491 180.140914 
L 317.246664 180.339928 
L 318.881836 182.455685 
L 320.358766 185.564267 
L 321.993939 186.9231 
L 323.576364 185.314884 
L 325.211536 187.860766 
L 326.793961 198.613207 
L 328.429134 204.500287 
L 330.064307 206.633376 
L 331.646732 207.885227 
L 333.281904 203.808393 
L 334.864329 205.605143 
L 336.499502 209.477839 
L 338.134674 209.058491 
L 339.611604 206.921761 
L 341.246777 207.5132 
L 342.829202 207.458518 
L 344.464375 204.956654 
L 346.0468 204.177024 
L 347.681972 203.117856 
L 349.317145 202.268478 
L 350.89957 202.629085 
L 352.534742 200.07405 
L 354.117168 199.089261 
L 355.75234 196.259749 
L 357.387513 192.358482 
L 358.864443 192.833532 
L 360.499615 193.74327 
L 362.08204 191.563511 
L 363.717213 194.191243 
L 365.299638 196.24861 
L 366.934811 197.035062 
L 368.569983 194.261659 
L 370.152408 193.875571 
L 371.787581 192.132331 
L 373.370006 194.827882 
L 375.005178 195.181315 
L 376.640351 193.893822 
L 378.170028 190.208738 
L 379.805201 190.882665 
L 381.387626 188.996959 
L 383.022799 188.683354 
L 384.605224 187.98038 
L 386.240396 185.376479 
L 387.875569 185.137144 
L 391.093166 186.026253 
L 392.675592 192.283725 
L 394.310764 200.552824 
L 395.945937 199.449426 
L 399.058039 199.620929 
L 400.640464 196.548261 
L 402.275637 195.217578 
L 403.858062 192.412091 
L 405.493235 192.578954 
L 407.128407 190.078175 
L 408.710832 188.007864 
L 410.346005 189.265866 
L 413.563602 189.597645 
L 415.198775 191.406089 
L 416.675705 196.951785 
L 418.310878 199.13187 
L 419.893303 199.60074 
L 421.528475 201.666269 
L 423.1109 201.246913 
L 424.746073 200.547292 
L 426.381245 200.90682 
L 427.96367 202.264187 
L 429.598843 205.52344 
L 431.181268 206.074911 
L 434.451613 198.627065 
L 439.146141 191.352164 
L 440.781313 189.361552 
L 442.363738 183.28548 
L 443.998911 181.470442 
L 445.634084 177.453552 
L 447.216509 176.22352 
L 448.851681 177.08991 
L 450.434106 176.578853 
L 452.069279 176.666767 
L 453.704451 175.422799 
L 455.234129 172.901646 
L 456.869302 173.429498 
L 458.451727 170.991933 
L 460.086899 169.58622 
L 461.669324 167.878222 
L 463.304497 164.504229 
L 464.939669 163.252412 
L 466.522094 163.647862 
L 469.739692 164.714928 
L 471.374865 164.756139 
L 473.010037 168.01079 
L 474.486967 171.771211 
L 476.12214 179.829193 
L 477.704565 181.686338 
L 479.339737 181.97558 
L 480.922162 184.228802 
L 482.557335 183.278624 
L 484.192508 183.27161 
L 485.774933 184.4069 
L 487.410105 187.881778 
L 488.99253 188.255006 
L 490.627703 189.643485 
L 493.739805 202.410573 
L 495.374978 210.247072 
L 496.957403 223.180253 
L 500.175001 230.661216 
L 501.810173 228.384055 
L 503.445346 224.293811 
L 505.027771 233.644379 
L 506.662943 240.96884 
L 508.245369 238.852964 
L 509.880541 232.980958 
L 511.515714 231.297583 
L 512.992644 230.616518 
L 514.627816 233.564452 
L 516.210241 231.09895 
L 517.845414 232.174795 
L 519.427839 235.794802 
L 521.063012 237.43738 
L 522.698184 240.037753 
L 524.280609 241.297458 
L 525.915782 245.29178 
L 527.498207 243.295979 
L 529.133379 236.464878 
L 530.768552 234.22177 
L 532.298229 235.604941 
L 533.933402 236.29116 
L 535.515827 238.575033 
L 537.151 239.554511 
L 538.733425 237.973011 
L 540.368597 236.935633 
L 543.586195 228.80631 
L 545.221367 231.790736 
L 546.803793 236.137456 
L 548.438965 235.14727 
L 550.074138 237.553409 
L 551.551068 235.949455 
L 553.18624 233.235325 
L 556.403838 233.70384 
L 557.986263 232.909138 
L 559.621436 231.026565 
L 561.256608 228.784155 
L 562.839033 225.343979 
L 564.474206 223.634144 
L 566.056631 223.029496 
L 567.691803 222.018346 
L 570.803906 218.858708 
L 572.439079 219.83569 
L 574.021504 221.002298 
L 575.656676 221.570703 
L 575.656676 221.570703 
" clip-path="url(#pba02b1c784)" style="fill: none; stroke: #a87333; stroke-width: 1.4; stroke-linecap: round"/>
   </g>
   <g id="line2d_18">
    <path d="M 43.020313 199.474844 
L 601.020313 199.474844 
" clip-path="url(#pba02b1c784)" style="fill: none; stroke-dasharray: 2.96,1.28; stroke-dashoffset: 0; stroke: #948d82; stroke-opacity: 0.7; stroke-width: 0.8"/>
   </g>
   <g id="patch_3">
    <path d="M 43.020313 304.92 
L 43.020313 27.72 
" style="fill: none; stroke: #1a1814; stroke-linejoin: miter; stroke-linecap: square"/>
   </g>
   <g id="patch_4">
    <path d="M 43.020313 304.92 
L 601.020313 304.92 
" style="fill: none; stroke: #1a1814; stroke-linejoin: miter; stroke-linecap: square"/>
   </g>
   <g id="text_17">
    <text style="font-weight: 600; font-size: 12px; font-family: 'IBM Plex Sans', 'Helvetica Neue', 'Arial', 'DejaVu Sans', sans-serif; text-anchor: middle; fill: #1a1814" x="322.020313" y="12.72" transform="rotate(-0 322.020313 12.72)">Historical Housing Affordability Index (HAI) Trends (2000–2026)</text>
   </g>
   <g id="legend_1">
    <g id="line2d_19">
     <path d="M 483.821875 40.62 
L 493.821875 40.62 
L 503.821875 40.62 
" style="fill: none; stroke: #6e1f1f; stroke-width: 1.4; stroke-linecap: round"/>
    </g>
    <g id="text_18">
     <text style="font-size: 10px; font-family: 'IBM Plex Sans', 'Helvetica Neue', 'Arial', 'DejaVu Sans', sans-serif; text-anchor: start; fill: #3c3833" x="511.821875" y="44.12" transform="rotate(-0 511.821875 44.12)">San Francisco, CA</text>
    </g>
    <g id="line2d_20">
     <path d="M 483.821875 55.02 
L 493.821875 55.02 
L 503.821875 55.02 
" style="fill: none; stroke: #2e4a3f; stroke-width: 1.4; stroke-linecap: round"/>
    </g>
    <g id="text_19">
     <text style="font-size: 10px; font-family: 'IBM Plex Sans', 'Helvetica Neue', 'Arial', 'DejaVu Sans', sans-serif; text-anchor: start; fill: #3c3833" x="511.821875" y="58.52" transform="rotate(-0 511.821875 58.52)">Houston, TX</text>
    </g>
    <g id="line2d_21">
     <path d="M 483.821875 69.42 
L 493.821875 69.42 
L 503.821875 69.42 
" style="fill: none; stroke: #a87333; stroke-width: 1.4; stroke-linecap: round"/>
    </g>
    <g id="text_20">
     <text style="font-size: 10px; font-family: 'IBM Plex Sans', 'Helvetica Neue', 'Arial', 'DejaVu Sans', sans-serif; text-anchor: start; fill: #3c3833" x="511.821875" y="72.92" transform="rotate(-0 511.821875 72.92)">Washington, DC</text>
    </g>
   </g>
  </g>
 </g>
 <defs>
  <clipPath id="pba02b1c784">
   <rect x="43.020313" y="27.72" width="558" height="277.2"/>
  </clipPath>
 </defs>
</svg>
