<?xml version="1.0" encoding="utf-8" standalone="no"?>
<!DOCTYPE svg PUBLIC "-//W3C//DTD SVG 1.1//EN"
  "http://www.w3.org/Graphics/SVG/1.1/DTD/svg11.dtd">
<svg xmlns:xlink="http://www.w3.org/1999/xlink" width="716.220312pt" height="395.32pt" viewBox="0 0 716.220312 395.32" xmlns="http://www.w3.org/2000/svg" version="1.1">
 <metadata>
  <rdf:RDF xmlns:dc="http://purl.org/dc/elements/1.1/" xmlns:cc="http://creativecommons.org/ns#" xmlns:rdf="http://www.w3.org/1999/02/22-rdf-syntax-ns#">
   <cc:Work>
    <dc:type rdf:resource="http://purl.org/dc/dcmitype/StillImage"/>
    <dc:date>2026-07-11T18:10:48.128926</dc:date>
    <dc:format>image/svg+xml</dc:format>
    <dc:creator>
     <cc:Agent>
      <dc:title>Matplotlib v3.10.9, https://matplotlib.org/</dc:title>
     </cc:Agent>
    </dc:creator>
   </cc:Work>
  </rdf:RDF>
 </metadata>
 <defs>
  <style type="text/css">*{stroke-linejoin: round; stroke-linecap: butt}</style>
 </defs>
 <g id="figure_1">
  <g id="patch_1">
   <path d="M 0 395.32 
L 716.220312 395.32 
L 716.220312 0 
L 0 0 
L 0 395.32 
z
" style="fill: none"/>
  </g>
  <g id="axes_1">
   <g id="patch_2">
    <path d="M 43.020313 360.36 
L 712.620313 360.36 
L 712.620313 27.72 
L 43.020313 27.72 
L 43.020313 360.36 
z
" style="fill: none"/>
   </g>
   <g id="patch_3">
    <path d="M 73.456676 360.36 
L 478.116816 360.36 
L 478.116816 27.72 
L 73.456676 27.72 
z
" clip-path="url(#p5708d31e41)" style="fill: #2e4a3f; opacity: 0.05; stroke: #2e4a3f; stroke-linejoin: miter"/>
   </g>
   <g id="patch_4">
    <path d="M 478.116816 360.36 
L 682.183949 360.36 
L 682.183949 27.72 
L 478.116816 27.72 
z
" clip-path="url(#p5708d31e41)" style="fill: #6e1f1f; opacity: 0.05; stroke: #6e1f1f; stroke-linejoin: miter"/>
   </g>
   <g id="matplotlib.axis_1">
    <g id="xtick_1">
     <g id="line2d_1">
      <defs>
       <path id="maf8715e0ff" d="M 0 0 
L 0 4 
" style="stroke: #1a1814; stroke-width: 0.8"/>
      </defs>
      <g>
       <use xlink:href="#maf8715e0ff" x="58.835138" y="360.36" style="fill: #1a1814; stroke: #1a1814; stroke-width: 0.8"/>
      </g>
     </g>
     <g id="text_1">
      <text style="font-size: 9px; font-family: 'IBM Plex Sans', 'Helvetica Neue', 'Arial', 'DejaVu Sans', sans-serif; text-anchor: middle; fill: #6b655c" x="58.835138" y="374.52" transform="rotate(-0 58.835138 374.52)">1970</text>
     </g>
    </g>
    <g id="xtick_2">
     <g id="line2d_2">
      <g>
       <use xlink:href="#maf8715e0ff" x="169.161292" y="360.36" style="fill: #1a1814; stroke: #1a1814; stroke-width: 0.8"/>
      </g>
     </g>
     <g id="text_2">
      <text style="font-size: 9px; font-family: 'IBM Plex Sans', 'Helvetica Neue', 'Arial', 'DejaVu Sans', sans-serif; text-anchor: middle; fill: #6b655c" x="169.161292" y="374.52" transform="rotate(-0 169.161292 374.52)">1980</text>
     </g>
    </g>
    <g id="xtick_3">
     <g id="line2d_3">
      <g>
       <use xlink:href="#maf8715e0ff" x="279.517655" y="360.36" style="fill: #1a1814; stroke: #1a1814; stroke-width: 0.8"/>
      </g>
     </g>
     <g id="text_3">
      <text style="font-size: 9px; font-family: 'IBM Plex Sans', 'Helvetica Neue', 'Arial', 'DejaVu Sans', sans-serif; text-anchor: middle; fill: #6b655c" x="279.517655" y="374.52" transform="rotate(-0 279.517655 374.52)">1990</text>
     </g>
    </g>
    <g id="xtick_4">
     <g id="line2d_4">
      <g>
       <use xlink:href="#maf8715e0ff" x="389.843809" y="360.36" style="fill: #1a1814; stroke: #1a1814; stroke-width: 0.8"/>
      </g>
     </g>
     <g id="text_4">
      <text style="font-size: 9px; font-family: 'IBM Plex Sans', 'Helvetica Neue', 'Arial', 'DejaVu Sans', sans-serif; text-anchor: middle; fill: #6b655c" x="389.843809" y="374.52" transform="rotate(-0 389.843809 374.52)">2000</text>
     </g>
    </g>
    <g id="xtick_5">
     <g id="line2d_5">
      <g>
       <use xlink:href="#maf8715e0ff" x="500.200173" y="360.36" style="fill: #1a1814; stroke: #1a1814; stroke-width: 0.8"/>
      </g>
     </g>
     <g id="text_5">
      <text style="font-size: 9px; font-family: 'IBM Plex Sans', 'Helvetica Neue', 'Arial', 'DejaVu Sans', sans-serif; text-anchor: middle; fill: #6b655c" x="500.200173" y="374.52" transform="rotate(-0 500.200173 374.52)">2010</text>
     </g>
    </g>
    <g id="xtick_6">
     <g id="line2d_6">
      <g>
       <use xlink:href="#maf8715e0ff" x="610.526326" y="360.36" style="fill: #1a1814; stroke: #1a1814; stroke-width: 0.8"/>
      </g>
     </g>
     <g id="text_6">
      <text style="font-size: 9px; font-family: 'IBM Plex Sans', 'Helvetica Neue', 'Arial', 'DejaVu Sans', sans-serif; text-anchor: middle; fill: #6b655c" x="610.526326" y="374.52" transform="rotate(-0 610.526326 374.52)">2020</text>
     </g>
    </g>
    <g id="text_7">
     <text style="font-size: 10px; font-family: 'IBM Plex Sans', 'Helvetica Neue', 'Arial', 'DejaVu Sans', sans-serif; text-anchor: middle; fill: #1a1814" x="377.820312" y="389.72" transform="rotate(-0 377.820312 389.72)">Year</text>
    </g>
   </g>
   <g id="matplotlib.axis_2">
    <g id="ytick_1">
     <g id="line2d_7">
      <defs>
       <path id="m39ad427860" d="M 0 0 
L -4 0 
" style="stroke: #1a1814; stroke-width: 0.8"/>
      </defs>
      <g>
       <use xlink:href="#m39ad427860" x="43.020313" y="332.609243" style="fill: #1a1814; stroke: #1a1814; stroke-width: 0.8"/>
      </g>
     </g>
     <g id="text_8">
      <text style="font-size: 9px; font-family: 'IBM Plex Sans', 'Helvetica Neue', 'Arial', 'DejaVu Sans', sans-serif; text-anchor: end; fill: #6b655c" x="35.520313" y="335.939243" transform="rotate(-0 35.520313 335.939243)">60</text>
     </g>
    </g>
    <g id="ytick_2">
     <g id="line2d_8">
      <g>
       <use xlink:href="#m39ad427860" x="43.020313" y="276.42342" style="fill: #1a1814; stroke: #1a1814; stroke-width: 0.8"/>
      </g>
     </g>
     <g id="text_9">
      <text style="font-size: 9px; font-family: 'IBM Plex Sans', 'Helvetica Neue', 'Arial', 'DejaVu Sans', sans-serif; text-anchor: end; fill: #6b655c" x="35.520313" y="279.75342" transform="rotate(-0 35.520313 279.75342)">80</text>
     </g>
    </g>
    <g id="ytick_3">
     <g id="line2d_9">
      <g>
       <use xlink:href="#m39ad427860" x="43.020313" y="220.237598" style="fill: #1a1814; stroke: #1a1814; stroke-width: 0.8"/>
      </g>
     </g>
     <g id="text_10">
      <text style="font-size: 9px; font-family: 'IBM Plex Sans', 'Helvetica Neue', 'Arial', 'DejaVu Sans', sans-serif; text-anchor: end; fill: #6b655c" x="35.520313" y="223.567598" transform="rotate(-0 35.520313 223.567598)">100</text>
     </g>
    </g>
    <g id="ytick_4">
     <g id="line2d_10">
      <g>
       <use xlink:href="#m39ad427860" x="43.020313" y="164.051776" style="fill: #1a1814; stroke: #1a1814; stroke-width: 0.8"/>
      </g>
     </g>
     <g id="text_11">
      <text style="font-size: 9px; font-family: 'IBM Plex Sans', 'Helvetica Neue', 'Arial', 'DejaVu Sans', sans-serif; text-anchor: end; fill: #6b655c" x="35.520313" y="167.381776" transform="rotate(-0 35.520313 167.381776)">120</text>
     </g>
    </g>
    <g id="ytick_5">
     <g id="line2d_11">
      <g>
       <use xlink:href="#m39ad427860" x="43.020313" y="107.865954" style="fill: #1a1814; stroke: #1a1814; stroke-width: 0.8"/>
      </g>
     </g>
     <g id="text_12">
      <text style="font-size: 9px; font-family: 'IBM Plex Sans', 'Helvetica Neue', 'Arial', 'DejaVu Sans', sans-serif; text-anchor: end; fill: #6b655c" x="35.520313" y="111.195954" transform="rotate(-0 35.520313 111.195954)">140</text>
     </g>
    </g>
    <g id="ytick_6">
     <g id="line2d_12">
      <g>
       <use xlink:href="#m39ad427860" x="43.020313" y="51.680131" style="fill: #1a1814; stroke: #1a1814; stroke-width: 0.8"/>
      </g>
     </g>
     <g id="text_13">
      <text style="font-size: 9px; font-family: 'IBM Plex Sans', 'Helvetica Neue', 'Arial', 'DejaVu Sans', sans-serif; text-anchor: end; fill: #6b655c" x="35.520313" y="55.010131" transform="rotate(-0 35.520313 55.010131)">160</text>
     </g>
    </g>
    <g id="text_14">
     <text style="font-size: 10px; font-family: 'IBM Plex Sans', 'Helvetica Neue', 'Arial', 'DejaVu Sans', sans-serif; text-anchor: middle; fill: #1a1814" x="11.2" y="194.04" transform="rotate(-90 11.2 194.04)">Housing Affordability Index (HAI)</text>
    </g>
   </g>
   <g id="line2d_13">
    <path d="M 73.456676 67.407276 
L 74.39318 66.671376 
L 75.299473 65.47456 
L 76.235977 62.926803 
L 77.17248 65.227842 
L 78.078774 63.155522 
L 79.015278 58.969235 
L 79.921571 56.83842 
L 80.858075 55.012438 
L 81.794578 54.357796 
L 82.670662 49.669748 
L 83.607166 48.754677 
L 84.513459 48.685574 
L 85.449963 55.39889 
L 86.356257 58.331179 
L 88.229264 66.240963 
L 89.135557 70.794313 
L 90.072061 74.382236 
L 91.914858 79.349463 
L 92.851361 81.119178 
L 95.540033 110.432793 
L 96.476536 115.506859 
L 97.38283 119.427481 
L 98.319333 131.641029 
L 99.255837 146.477828 
L 100.162131 156.421526 
L 101.098634 154.776822 
L 102.004928 150.939964 
L 102.941431 151.61787 
L 103.877935 153.761865 
L 104.723809 150.502568 
L 105.660313 148.383681 
L 106.566606 153.565789 
L 107.50311 165.758038 
L 108.409403 169.256375 
L 109.345907 175.059906 
L 110.28241 184.920671 
L 111.188704 196.012088 
L 112.125208 197.722071 
L 113.968005 190.052384 
L 114.904508 185.999012 
L 115.750382 176.909314 
L 116.686886 171.095803 
L 117.59318 168.740626 
L 118.529683 168.309991 
L 120.37248 161.79396 
L 121.308984 167.81552 
L 122.215278 177.553381 
L 123.151781 184.229797 
L 124.058075 183.864115 
L 124.994578 184.340418 
L 125.931082 183.815598 
L 126.807166 179.573056 
L 127.743669 179.483138 
L 128.649963 180.311648 
L 129.586466 179.97571 
L 131.429264 182.182005 
L 132.365767 184.882969 
L 133.272061 185.053931 
L 134.208564 184.503342 
L 135.114858 181.229067 
L 136.051361 180.73085 
L 136.987865 178.798909 
L 137.833739 180.507807 
L 138.770243 184.150706 
L 139.676536 189.007996 
L 140.61304 188.356888 
L 141.519333 186.428349 
L 142.455837 186.054659 
L 143.39234 189.416087 
L 144.298634 191.486023 
L 145.235138 195.401009 
L 146.141431 195.752983 
L 147.077935 197.123638 
L 148.014438 198.953314 
L 148.860313 203.97655 
L 149.796816 206.967781 
L 150.70311 212.334479 
L 151.639613 216.577746 
L 152.545907 218.732664 
L 153.48241 218.375564 
L 154.418914 221.814795 
L 155.325208 223.403922 
L 156.261711 227.983056 
L 158.104508 239.201874 
L 159.041012 240.282794 
L 160.823389 244.935967 
L 161.729683 248.2858 
L 162.666187 252.823365 
L 163.57248 260.187791 
L 164.508984 261.834598 
L 165.445487 257.825745 
L 166.351781 257.665393 
L 167.288285 259.882682 
L 168.194578 280.242266 
L 169.131082 281.360113 
L 170.067585 281.027411 
L 170.943669 282.707464 
L 171.880173 312.154654 
L 172.786466 323.051192 
L 174.629264 275.513274 
L 175.565767 266.685936 
L 176.502271 273.465506 
L 177.408564 284.08438 
L 178.345068 293.266551 
L 179.251361 298.284674 
L 180.187865 305.240789 
L 181.124368 306.053291 
L 182.906746 315.386998 
L 183.81304 319.033164 
L 184.749543 326.967237 
L 185.655837 329.098238 
L 186.59234 329.638194 
L 187.528844 334.325522 
L 188.435138 342.465751 
L 189.371641 345.24 
L 190.277935 336.145151 
L 191.214438 323.771229 
L 192.150942 324.968595 
L 192.996816 328.127039 
L 193.933319 325.89459 
L 194.839613 325.219358 
L 195.776117 322.05595 
L 196.68241 321.284302 
L 197.618914 321.53415 
L 198.555417 317.021482 
L 200.398215 299.883762 
L 201.304508 290.040864 
L 202.241012 287.97555 
L 203.177515 283.211107 
L 204.959893 276.663815 
L 205.866187 276.592809 
L 206.80269 275.283319 
L 207.708984 280.168575 
L 208.645487 289.56454 
L 209.581991 292.500685 
L 210.488285 288.668695 
L 211.424788 283.170479 
L 212.331082 282.571485 
L 213.267585 283.233094 
L 214.204089 283.314651 
L 215.080173 282.681923 
L 216.016676 286.373763 
L 216.92297 291.588706 
L 217.859473 295.071725 
L 218.765767 300.862793 
L 219.702271 303.549421 
L 220.638774 299.28572 
L 221.545068 295.947389 
L 222.481571 291.157614 
L 224.324368 280.670924 
L 225.260872 280.766722 
L 226.106746 278.532308 
L 227.04325 282.60815 
L 227.949543 283.174793 
L 228.886047 276.709218 
L 229.79234 262.813825 
L 230.728844 257.272704 
L 231.665347 262.277915 
L 232.571641 264.566127 
L 233.508145 265.677733 
L 234.414438 259.315912 
L 235.350942 249.2828 
L 236.287445 241.645558 
L 237.133319 240.869998 
L 238.069823 230.007411 
L 238.976117 229.663048 
L 239.91262 234.076702 
L 240.818914 245.393132 
L 241.755417 241.48481 
L 242.691921 235.611428 
L 243.598215 232.0947 
L 244.534718 232.121104 
L 245.441012 227.314266 
L 246.377515 219.687892 
L 247.314019 218.706228 
L 248.159893 219.975693 
L 249.096396 222.972887 
L 250.00269 245.416457 
L 250.939194 262.368187 
L 251.845487 262.435124 
L 252.781991 258.501937 
L 253.718494 262.886467 
L 254.624788 276.522384 
L 255.561292 285.937359 
L 256.467585 273.492663 
L 257.404089 271.549564 
L 258.340592 264.856868 
L 259.216676 253.697939 
L 260.15318 253.199001 
L 261.059473 257.53776 
L 261.995977 264.925487 
L 262.902271 267.303169 
L 263.838774 268.985532 
L 264.775278 270.204472 
L 265.681571 266.052513 
L 266.618075 260.624934 
L 267.524368 261.547054 
L 268.460872 269.856917 
L 269.397375 273.588433 
L 270.24325 271.96591 
L 271.179753 278.910879 
L 272.086047 279.175931 
L 273.02255 274.282125 
L 273.928844 263.402458 
L 274.865347 257.136583 
L 275.801851 261.773176 
L 276.708145 267.025757 
L 277.644648 265.89745 
L 278.550942 261.048821 
L 279.487445 259.333359 
L 280.423949 261.198868 
L 281.269823 268.706101 
L 282.206326 271.519919 
L 283.11262 274.869601 
L 284.049124 270.607704 
L 284.955417 257.795794 
L 285.891921 247.935565 
L 287.734718 256.468735 
L 288.671222 259.207667 
L 289.577515 254.520733 
L 290.514019 245.852814 
L 291.450522 243.664188 
L 292.296396 237.044898 
L 293.2329 239.679804 
L 295.075697 238.279624 
L 295.981991 241.208161 
L 296.918494 240.00376 
L 297.854998 231.96261 
L 298.761292 225.854986 
L 300.604089 217.208318 
L 301.540592 210.753766 
L 302.477096 208.163296 
L 303.35318 217.04721 
L 304.289683 221.576998 
L 305.195977 219.634984 
L 307.038774 210.190744 
L 307.975278 199.379242 
L 308.911781 199.727626 
L 309.818075 202.838698 
L 310.754578 211.897795 
L 311.660872 216.72886 
L 312.597375 213.065359 
L 313.533879 206.15432 
L 314.379753 197.619445 
L 315.316257 192.39925 
L 316.22255 192.073828 
L 317.159054 190.60765 
L 318.065347 187.894782 
L 319.001851 179.975989 
L 319.938354 175.661056 
L 320.844648 167.787302 
L 321.781152 163.693721 
L 322.687445 175.727102 
L 323.623949 177.527405 
L 324.560452 175.115978 
L 325.406326 176.85662 
L 326.34283 191.910614 
L 327.249124 209.052595 
L 328.185627 215.227607 
L 329.091921 208.553988 
L 330.028424 213.00499 
L 330.964928 210.905243 
L 331.871222 214.865287 
L 332.807725 222.726917 
L 333.714019 226.321121 
L 334.650522 224.559419 
L 335.587026 220.842929 
L 336.4329 214.564586 
L 337.369403 206.723066 
L 338.275697 204.697172 
L 339.212201 191.807867 
L 340.118494 177.349477 
L 341.054998 176.003911 
L 341.991501 187.509784 
L 342.897795 184.302273 
L 343.834299 182.878291 
L 344.740592 177.949417 
L 346.613599 162.67179 
L 347.489683 165.065676 
L 348.426187 183.624102 
L 349.33248 193.471445 
L 350.268984 196.415183 
L 351.175278 202.248533 
L 352.111781 198.902687 
L 353.048285 193.552501 
L 353.954578 201.688233 
L 354.891082 194.237406 
L 355.797375 184.627496 
L 356.733879 183.298232 
L 357.670382 189.504485 
L 358.516257 183.523549 
L 360.359054 196.802308 
L 361.295557 189.209443 
L 362.201851 179.63831 
L 363.138354 171.646716 
L 364.074858 169.163107 
L 364.981152 165.594409 
L 365.917655 159.089067 
L 366.823949 160.988412 
L 367.760452 162.041021 
L 368.696956 163.270349 
L 369.54283 161.658226 
L 370.479333 161.272512 
L 371.385627 158.390884 
L 372.322131 159.928375 
L 373.228424 156.265566 
L 374.164928 156.059584 
L 375.101431 153.764817 
L 376.007725 145.314736 
L 376.944229 143.568361 
L 377.850522 151.276455 
L 378.787026 148.779524 
L 379.723529 152.49583 
L 380.569403 153.126868 
L 381.505907 161.072301 
L 382.412201 156.616611 
L 383.348704 163.678114 
L 384.254998 176.156478 
L 385.191501 177.984009 
L 386.128005 190.536118 
L 387.034299 189.943432 
L 387.970802 193.734579 
L 388.877096 189.350336 
L 389.813599 193.568482 
L 390.750103 201.1876 
L 391.626187 202.800083 
L 393.468984 194.657744 
L 394.405487 207.854925 
L 395.311781 204.636095 
L 396.248285 203.696551 
L 399.027585 199.842432 
L 399.933879 196.230148 
L 401.806886 169.323543 
L 402.65276 175.641935 
L 403.589264 177.995087 
L 404.495557 187.389695 
L 405.432061 185.549652 
L 406.338354 181.974185 
L 407.274858 176.770544 
L 408.211361 169.879109 
L 409.117655 164.326266 
L 410.054159 156.248677 
L 410.960452 168.92908 
L 411.896956 192.506704 
L 412.833459 199.93091 
L 413.679333 195.409153 
L 414.615837 197.854822 
L 415.522131 195.662815 
L 418.301431 161.525818 
L 419.237935 161.58943 
L 420.144229 161.317272 
L 421.080732 168.648103 
L 421.987026 164.11203 
L 422.923529 160.369002 
L 423.860033 152.432608 
L 424.705907 152.509625 
L 425.64241 151.627508 
L 426.548704 156.933085 
L 427.485208 143.610576 
L 428.391501 132.612057 
L 429.328005 148.010173 
L 430.264508 174.409607 
L 431.170802 173.521988 
L 432.107306 169.762844 
L 433.013599 175.935714 
L 433.950103 180.550989 
L 434.886606 181.237537 
L 435.76269 179.922027 
L 436.699194 174.538072 
L 437.605487 189.370015 
L 438.541991 200.844538 
L 439.448285 198.513855 
L 440.384788 187.991861 
L 441.321292 188.033124 
L 442.227585 190.387596 
L 443.164089 195.295021 
L 444.070382 196.214154 
L 445.006886 197.604429 
L 445.943389 196.868195 
L 446.789264 193.627725 
L 447.725767 203.044194 
L 448.632061 200.219066 
L 450.474858 191.487342 
L 451.411361 195.476117 
L 452.347865 201.672614 
L 453.254159 202.209332 
L 454.190662 213.372433 
L 455.096956 222.012922 
L 456.033459 220.970679 
L 456.969963 217.846505 
L 457.815837 219.345456 
L 458.75234 219.757585 
L 459.658634 223.428997 
L 460.595138 220.805978 
L 462.437935 214.830372 
L 463.374438 210.523844 
L 464.280732 209.601963 
L 465.217236 210.94629 
L 466.123529 210.872696 
L 467.060033 211.08962 
L 467.996536 216.947499 
L 468.84241 213.237711 
L 469.778914 203.234699 
L 470.685208 197.710188 
L 471.621711 200.100774 
L 472.528005 212.045649 
L 473.464508 212.938263 
L 474.401012 207.817588 
L 475.307306 200.487225 
L 476.243809 198.754656 
L 477.150103 191.370297 
L 478.086606 185.561722 
L 479.02311 171.725121 
L 479.899194 178.636937 
L 480.835697 181.712255 
L 481.741991 181.163238 
L 482.678494 181.844292 
L 483.584788 187.973115 
L 484.521292 188.037104 
L 485.457795 188.485109 
L 486.364089 172.311895 
L 487.300592 176.655462 
L 488.206886 166.325467 
L 489.143389 128.351516 
L 490.079893 110.330524 
L 490.925767 121.475926 
L 491.862271 123.273522 
L 492.768564 122.060955 
L 493.705068 120.253762 
L 494.611361 139.987502 
L 495.547865 128.042826 
L 496.484368 129.442758 
L 497.390662 126.370142 
L 498.327166 124.478004 
L 499.233459 123.308267 
L 500.169963 127.805805 
L 501.106466 134.113997 
L 501.95234 130.18103 
L 502.888844 126.940607 
L 503.795138 130.17147 
L 504.731641 123.425414 
L 505.637935 119.109658 
L 506.574438 113.60531 
L 507.510942 107.072036 
L 508.417236 102.981471 
L 509.353739 96.93395 
L 510.260033 101.665851 
L 511.196536 121.670733 
L 512.13304 124.532857 
L 512.978914 132.989111 
L 513.915417 128.05222 
L 514.821711 128.233741 
L 515.758215 116.151365 
L 516.664508 107.035842 
L 517.601012 105.27456 
L 518.537515 90.053316 
L 519.443809 79.688077 
L 520.380312 75.474289 
L 521.286606 81.811511 
L 523.159613 96.962028 
L 524.035697 94.150312 
L 524.972201 95.728941 
L 525.878494 91.98424 
L 526.814998 90.38743 
L 528.657795 85.615059 
L 529.594299 88.145193 
L 531.437096 76.439325 
L 532.343389 76.804142 
L 533.279893 78.389097 
L 534.216396 83.932198 
L 535.062271 94.523951 
L 535.998774 100.513183 
L 536.905068 98.806557 
L 537.841571 101.108753 
L 538.747865 124.268559 
L 539.684368 135.463998 
L 540.620872 142.59461 
L 541.527166 147.377936 
L 542.463669 138.075649 
L 543.369963 140.96888 
L 544.306466 149.66478 
L 545.24297 148.780677 
L 546.088844 147.015125 
L 547.025347 152.231934 
L 547.931641 155.46455 
L 548.868145 144.780932 
L 550.710942 132.523385 
L 551.647445 137.752266 
L 552.553739 145.434443 
L 553.490243 145.469061 
L 554.396536 138.146845 
L 555.33304 126.336977 
L 556.269543 111.167143 
L 557.115417 112.116217 
L 558.051921 114.010072 
L 558.958215 108.356075 
L 560.801012 126.957518 
L 561.737515 131.75448 
L 562.674019 127.346207 
L 563.580312 128.583601 
L 564.516816 126.203601 
L 565.42311 130.872407 
L 566.359613 129.872433 
L 567.296117 123.73078 
L 568.172201 114.923673 
L 569.108704 117.655677 
L 570.014998 114.542545 
L 570.951501 111.867534 
L 571.857795 107.865871 
L 572.794299 99.050222 
L 573.730802 100.376235 
L 574.637096 103.171528 
L 575.573599 105.189409 
L 576.479893 119.039092 
L 577.416396 137.787695 
L 578.3529 135.178802 
L 579.198774 136.918679 
L 580.135278 139.117563 
L 581.041571 133.470185 
L 581.978075 131.799188 
L 582.884368 126.911698 
L 583.820872 129.665602 
L 584.757375 131.378966 
L 585.663669 133.512752 
L 586.600173 142.802704 
L 588.44297 138.917268 
L 589.379473 139.349917 
L 590.225347 143.440524 
L 591.161851 139.508088 
L 592.068145 131.518244 
L 593.004648 139.675139 
L 593.910942 141.972678 
L 594.847445 143.079216 
L 595.783949 138.399994 
L 596.690243 136.002442 
L 597.626746 138.834237 
L 598.53304 133.984459 
L 600.406047 102.722798 
L 601.251921 102.961304 
L 602.188424 102.615588 
L 603.094718 101.364129 
L 604.031222 96.905845 
L 604.937515 82.377107 
L 606.810522 76.101681 
L 607.716816 80.017341 
L 608.653319 88.673078 
L 609.559613 90.495655 
L 610.496117 93.212368 
L 611.43262 89.832708 
L 612.308704 74.744297 
L 613.245208 66.86418 
L 614.151501 51.572528 
L 615.994299 49.815236 
L 616.930802 44.503192 
L 617.867306 42.84 
L 618.773599 43.232293 
L 619.710103 42.92289 
L 620.616396 44.322885 
L 621.5529 44.882806 
L 623.335278 60.97948 
L 624.271781 79.456309 
L 625.178075 81.528746 
L 626.114578 84.957501 
L 627.020872 93.891198 
L 627.957375 96.247501 
L 628.893879 99.725922 
L 629.800173 107.319402 
L 630.736676 120.070795 
L 631.64297 118.476179 
L 632.579473 118.369674 
L 633.515977 133.217073 
L 635.298354 172.430792 
L 636.204648 205.528073 
L 637.141152 211.72216 
L 638.047445 219.074736 
L 638.983949 213.706483 
L 639.920452 206.535764 
L 640.826746 232.95367 
L 641.76325 253.233734 
L 642.669543 246.514828 
L 643.606047 230.016097 
L 644.54255 222.646959 
L 645.388424 218.748484 
L 646.324928 223.68151 
L 647.231222 214.24051 
L 648.167725 219.342279 
L 649.074019 230.143662 
L 650.010522 236.007436 
L 650.947026 238.664918 
L 651.853319 238.489745 
L 652.789823 245.691797 
L 653.696117 240.909797 
L 654.63262 223.724359 
L 655.569124 218.450028 
L 656.445208 219.596344 
L 657.381711 218.114044 
L 659.224508 222.360432 
L 660.130802 218.499821 
L 661.067306 216.663788 
L 662.910103 198.164174 
L 663.846606 206.912235 
L 664.7529 219.005869 
L 665.689403 217.247947 
L 666.625907 225.024593 
L 667.471781 220.216989 
L 668.408285 213.020009 
L 669.314578 213.631275 
L 670.251082 214.921289 
L 671.157375 213.576121 
L 672.093879 209.27468 
L 673.030382 205.788638 
L 673.936676 199.003156 
L 675.779473 193.601522 
L 676.715977 189.742905 
L 677.65248 184.468171 
L 678.498354 182.60328 
L 679.434858 186.983793 
L 680.341152 192.068167 
L 681.277655 195.625614 
L 682.183949 197.135019 
L 682.183949 197.135019 
" clip-path="url(#p5708d31e41)" style="fill: none; stroke: #6e1f1f; stroke-width: 1.4; stroke-linecap: round"/>
   </g>
   <g id="line2d_14">
    <path d="M 43.020313 220.237598 
L 712.620313 220.237598 
" clip-path="url(#p5708d31e41)" style="fill: none; stroke-dasharray: 2.96,1.28; stroke-dashoffset: 0; stroke: #948d82; stroke-opacity: 0.8; stroke-width: 0.8"/>
   </g>
   <g id="line2d_15">
    <path d="M 180.218075 360.36 
L 180.218075 27.72 
" clip-path="url(#p5708d31e41)" style="fill: none; stroke-dasharray: 0.7,1.155; stroke-dashoffset: 0; stroke: #948d82; stroke-opacity: 0.6; stroke-width: 0.7"/>
   </g>
   <g id="line2d_16">
    <path d="M 478.116816 360.36 
L 478.116816 27.72 
" clip-path="url(#p5708d31e41)" style="fill: none; stroke-dasharray: 0.7,1.155; stroke-dashoffset: 0; stroke: #948d82; stroke-opacity: 0.6; stroke-width: 0.7"/>
   </g>
   <g id="line2d_17">
    <path d="M 621.58311 360.36 
L 621.58311 27.72 
" clip-path="url(#p5708d31e41)" style="fill: none; stroke-dasharray: 0.7,1.155; stroke-dashoffset: 0; stroke: #948d82; stroke-opacity: 0.6; stroke-width: 0.7"/>
   </g>
   <g id="patch_5">
    <path d="M 43.020313 360.36 
L 43.020313 27.72 
" style="fill: none; stroke: #1a1814; stroke-linejoin: miter; stroke-linecap: square"/>
   </g>
   <g id="patch_6">
    <path d="M 43.020313 360.36 
L 712.620313 360.36 
" style="fill: none; stroke: #1a1814; stroke-linejoin: miter; stroke-linecap: square"/>
   </g>
   <g id="text_15">
    <text style="font-size: 9px; font-family: 'IBM Plex Mono'; text-anchor: start; fill: #6b655c" x="82.670662" y="214.619016" transform="rotate(-0 82.670662 214.619016)">NAR affordability threshold (HAI = 100)</text>
   </g>
   <g id="text_16">
    <text style="font-weight: 600; font-size: 12px; font-family: 'IBM Plex Sans', 'Helvetica Neue', 'Arial', 'DejaVu Sans', sans-serif; text-anchor: middle; fill: #1a1814" x="377.820312" y="12.72" transform="rotate(-0 377.820312 12.72)">National Housing Affordability Index, 1971-2026 (median family income basis)</text>
   </g>
  </g>
 </g>
 <defs>
  <clipPath id="p5708d31e41">
   <rect x="43.020313" y="27.72" width="669.6" height="332.64"/>
  </clipPath>
 </defs>
</svg>
